<?xml version="1.0" encoding="UTF-8" standalone="no"?>
<svg
   xmlns:dc="http://purl.org/dc/elements/1.1/"
   xmlns:cc="http://creativecommons.org/ns#"
   xmlns:rdf="http://www.w3.org/1999/02/22-rdf-syntax-ns#"
   xmlns:svg="http://www.w3.org/2000/svg"
   xmlns="http://www.w3.org/2000/svg"
   xmlns:sodipodi="http://sodipodi.sourceforge.net/DTD/sodipodi-0.dtd"
   xmlns:inkscape="http://www.inkscape.org/namespaces/inkscape"
   version="1.1"
   width="512"
   height="512"
   viewBox="0 0 512 512"
   id="svg7"
   sodipodi:docname="earth.svg"
   inkscape:version="1.0.1 (0767f8302a, 2020-10-17)">
  <metadata
     id="metadata13">
    <rdf:RDF>
      <cc:Work
         rdf:about="">
        <dc:format>image/svg+xml</dc:format>
        <dc:type
           rdf:resource="http://purl.org/dc/dcmitype/StillImage" />
      </cc:Work>
    </rdf:RDF>
  </metadata>
  <defs
     id="defs11" />
  <sodipodi:namedview
     pagecolor="#ffffff"
     bordercolor="#666666"
     borderopacity="1"
     objecttolerance="10"
     gridtolerance="10"
     guidetolerance="10"
     inkscape:pageopacity="0"
     inkscape:pageshadow="2"
     inkscape:window-width="732"
     inkscape:window-height="480"
     id="namedview9"
     showgrid="false"
     inkscape:zoom="1.8203125"
     inkscape:cx="256"
     inkscape:cy="256"
     inkscape:window-x="0"
     inkscape:window-y="27"
     inkscape:window-maximized="0"
     inkscape:current-layer="svg7" />
  <title
     id="title2" />
  <g
     id="icomoon-ignore" />
  <path
     d="M256 0c-141.385 0-256 114.615-256 256s114.615 256 256 256 256-114.615 256-256-114.615-256-256-256zM256 480.001c-31.479 0-61.436-6.506-88.615-18.226l116.574-131.145c2.603-2.929 4.041-6.711 4.041-10.63v-48c0-8.837-7.163-16-16-16-56.495 0-116.102-58.731-116.687-59.313-3-3.001-7.070-4.687-11.313-4.687h-64c-8.836 0-16 7.164-16 16v96c0 6.061 3.424 11.601 8.845 14.311l55.155 27.578v93.943c-58.026-40.478-96-107.716-96-183.832 0-34.357 7.745-66.903 21.569-96h58.431c4.244 0 8.313-1.686 11.314-4.686l64-64c3-3.001 4.686-7.070 4.686-11.314v-38.706c20.281-6.037 41.759-9.294 64-9.294 35.203 0 68.502 8.13 98.141 22.6-2.072 1.751-4.088 3.582-6.023 5.518-18.133 18.132-28.118 42.239-28.118 67.882s9.985 49.75 28.118 67.882c18.217 18.216 42.609 28.132 67.817 28.13 1.583 0 3.171-0.040 4.759-0.118 6.907 25.901 19.376 93.328-4.202 186.167-0.222 0.872-0.348 1.744-0.421 2.612-40.662 41.54-97.35 67.328-160.071 67.328z"
     id="path5"
     style="fill:#ffffff" />
</svg>
