<svg width="1886" height="1301" viewBox="0 0 1886 1301" fill="none" xmlns="http://www.w3.org/2000/svg">
<path d="M641.8 1195.7L634 1195V1163.3C634 1146 634.7 1129.9 635.6 1127.4C636.4 1125.1 637.6 1113.9 638 1102.4C639 1083.1 641.3 1058.8 643.1 1050.4C643.8 1047 644.7 1046.6 654 1046.8C663.6 1046.8 668.7 1047.6 687 1051.5C707.9 1055.9 728.6 1070.8 740.8 1089.7C756 1113.4 751.6 1146.8 730.7 1168C723.8 1175 706.4 1186.9 703 1186.9C702.2 1186.9 698.6 1188.4 695 1190C691.6 1191.6 682.1 1193.9 674 1194.9C659.5 1196.7 657.2 1196.7 641.9 1195.6L641.8 1195.7Z" fill="#5CB261"/>
<path d="M862.4 1063.1C857.3 1062.3 848 1060.3 841.7 1058.5C833.5 1056.4 829.6 1055.9 829.3 1057.2C828.8 1058.2 828 1056.9 827.3 1054.1C826.5 1051.5 824.9 1048.1 823.5 1046.8C821.2 1044.7 821.2 1044.4 824 1043.7C827.3 1043.2 848.8 1047.6 856.3 1050.4C858.9 1051.4 861.5 1051.5 862.3 1050.7C863 1049.9 864.4 1030.1 865.6 1006.8C866.6 983.5 868 952.6 868.9 938.3C869.7 923.9 871.5 889.5 872.8 861.6C878.8 741.2 881.3 693.1 885.2 625.8C886.2 608.3 886.7 588.3 886 581.4C885 568.8 885 568.8 889.1 567.7C891.4 567.2 899.1 567 905.9 567.4C919.3 568.1 929.4 571.6 937.7 578.8C940.1 580.9 945.2 585.2 949 588.3C963 599.9 963.5 600.5 963.5 607.4C963.5 611.3 964.5 614.9 965.9 616C967.4 617.1 968.2 618.9 967.9 619.9C967.6 620.9 970.5 625.3 974.3 629.7C978.2 633.9 981 638.2 980.5 639C980 639.8 981 640.5 982.5 640.5C984.1 640.5 984.9 641 984.5 641.5C983.8 642 984.7 643.8 986.1 645.3C991.6 651.2 994.6 655.4 994.6 657.4C994.6 658.5 996.6 662.3 998.8 665.7C1001.2 669.1 1002.1 671.6 1000.9 670.9C999.4 670.1 999.6 670.6 1001.1 671.9C1002.6 673 1005.3 677.3 1007.3 681.4C1009.4 685.5 1013.2 692.8 1015.8 697.7C1018.4 702.6 1020.5 709 1020.7 711.6C1020.7 716.7 1025.1 730.9 1028 735.3C1033.2 743.3 1037.8 759.8 1034 757.5C1033 757 1032.5 757.5 1032.7 758.5C1033 759.6 1033.7 763.6 1034.3 767.1C1035 770.7 1036.6 778 1037.7 783.4C1043.7 809.8 1041.9 875.4 1034.6 904.1C1029.9 921.9 1030.2 921.1 1013.4 955.5C1002.3 978.3 988.1 1001.7 980.9 1008.7C978.9 1010.7 975.4 1014.4 973.1 1017C967.9 1022.9 945 1040.3 942.4 1040.3C941.4 1040.3 940.6 1041.1 940.6 1041.9C940.6 1042.9 939.9 1043.5 939 1043.5C938.2 1043.5 933.3 1045.5 928.1 1047.9C918.8 1052.1 912.9 1056.7 912.9 1059.5C912.9 1061 907 1061.6 881.1 1063.7C875.7 1064.2 867.2 1063.9 862.3 1063L862.4 1063.1Z" fill="#5CB261"/>
<path d="M1286.7 955.6V948.9H1294C1301.3 948.9 1301.3 948.9 1301.3 954.6C1301.3 959.5 1300.8 960.3 1297.7 960.3C1295.6 960.3 1292.3 960.8 1290.4 961.3C1287 962.3 1286.6 961.8 1286.6 955.6H1286.7Z" fill="#5CB261"/>
<path d="M1313.1 953.4C1313.6 946.5 1313.8 946.4 1320.1 945.9C1323.7 945.7 1329.6 945.2 1333.3 944.8L1340 943.8L1339.5 926.3C1339.2 916.7 1338.8 895.5 1338.8 879.1V849.2H1333.1C1327.6 849.2 1327.4 849 1327.4 842.8C1327.4 836.6 1327.4 836.6 1334.9 835.5C1339.1 835 1346.2 834.5 1350.4 834.5C1358.7 834.5 1377.6 831.2 1395.9 826.8C1410.9 823 1413 821.6 1402.9 821.4C1396.5 821.4 1394.3 822.1 1394.3 823.7C1394.3 825.3 1391 826.3 1383.4 827.1C1377.2 827.8 1372 828.9 1371.5 829.7C1371 830.5 1363 830.7 1353.9 830L1337.3 829V800.3C1337.3 784.5 1336.8 763.3 1336.2 753.3C1335.2 736 1335.1 734.9 1331.8 734.9C1324 734.9 1321 736.9 1321 741.4C1321 746.1 1318.1 747.9 1309.3 747.9C1305.1 747.9 1304.7 747.4 1304.7 741.4C1304.7 736 1305.2 734.9 1308 734.9C1310.6 734.9 1311.3 733.8 1311.3 729.2V723.5H1319.9C1333.9 723.3 1334.1 723 1334.1 693.2C1334.1 679 1333.6 663.3 1333.1 658.8C1332 650.3 1332 650.2 1326.6 650.2C1321.2 650.2 1321.1 650 1321.1 643.7C1321.1 637.3 1321.3 637.2 1327.3 637C1330.6 637 1334.8 636.3 1336.6 635.5C1339.5 634.2 1339.4 634 1335.6 634L1331.2 633.8L1330.1 569.8C1329.6 534.6 1329.3 498.7 1329.6 490.2L1330.1 474.7L1336.5 474.2C1342.7 473.7 1351 476.2 1354.9 479.6C1355.9 480.4 1359.1 483 1362.2 485.3C1373 493.3 1386.3 508.5 1386.3 512.7C1386.3 513.8 1388.9 518.7 1392 523.6C1400.8 537.5 1406.2 551.8 1406.7 562.4C1407.2 571.2 1411.4 583.1 1414.2 583.1C1414.9 583.1 1416.6 588.6 1418.3 595.5C1420.6 605.1 1420.9 608.9 1419.4 612.5C1417.8 616.6 1418.1 617.6 1421.2 619.7C1429.5 625.4 1441.6 638.3 1444 644.2C1449.7 658.1 1452.6 687.3 1449.1 695.9C1448.3 698 1449.9 699.3 1456.6 701.6C1464.9 704.7 1473.4 712.4 1477.2 720.5C1482.3 731.6 1485 739.4 1488.1 752C1490.2 761 1490.2 762.8 1487.4 773.2C1485.8 779.6 1483.3 787.7 1482 791.5L1479.4 798.4L1487.1 802.2C1500.2 808.6 1517.1 828.8 1523.2 845.6C1528.6 860 1528.9 871.1 1524.8 888.2C1520.6 906.1 1516.8 911.5 1503.9 917.2C1498.8 919.3 1492.3 922.3 1489.4 923.6C1481.6 927.2 1466.4 931.9 1458.9 933.2C1435.1 937.3 1400.5 945.4 1399.7 947.4C1399.4 948.1 1395.3 948.7 1390.6 948.7C1385.9 948.7 1376.2 949.2 1369.2 949.8C1358.9 950.6 1356.3 951.4 1355.8 953.7C1355.1 955.8 1352.7 957 1346.2 957.8C1341.5 958.3 1336.4 958.5 1334.9 957.8C1333.6 957.3 1332.5 957.6 1332.5 958.5C1332.5 959.5 1328.1 960.1 1322.5 960.1H1312.7L1313.2 953.2L1313.1 953.4ZM1423.7 818C1425.7 816.7 1425.5 816.7 1423.2 817.3C1421.6 817.8 1418.3 818.3 1416.2 818.3C1414.1 818.3 1412.3 819.1 1412.3 819.9C1412.3 821.7 1419.6 820.4 1423.7 817.9V818ZM1438.4 812.6C1440.7 811.3 1441.8 810.3 1440.8 810.3C1440 810.3 1437.4 811.3 1435.1 812.6C1432.8 813.9 1431.8 814.9 1432.7 814.9C1433.7 814.9 1436.1 813.9 1438.4 812.6Z" fill="#5CB261"/>
<path d="M1212.9 955.9C1210.8 955.4 1210 953.5 1210 949.5C1210 943.3 1210 943.3 1224.4 944.9C1232.7 946 1232.9 946 1232.9 951.4V956.9L1224.4 956.7C1219.7 956.5 1214.4 956.2 1213 955.7L1212.9 955.9Z" fill="#5CB261"/>
<path d="M94.6 893.9L86.3 893.2L85.2 879C83.9 860.7 85.9 766.3 87.8 765.1C90.4 763.5 127.4 764.1 135.6 766.1C156.6 770.8 180.8 787.3 192.2 804.9C210.1 832.1 202.3 859.9 171.3 878.8C166.1 882.1 157.6 886.1 152.7 887.6C147.8 889.2 142.4 891.2 140.8 892C137.5 893.6 106.9 894.9 94.6 893.8V893.9Z" fill="#5CB261"/>
<path d="M1304.6 844.4V837.9H1311.9C1319.1 837.9 1319.2 837.9 1319.2 843.4C1319.2 849.4 1317.2 850.9 1309.2 850.9C1304.8 850.9 1304.5 850.6 1304.5 844.4H1304.6Z" fill="#5CB261"/>
<path d="M1259.4 848.2L1247.5 847.5V842V836.3H1255.5C1259.7 836.3 1267.9 836.8 1273.4 837.3L1283.4 838.4V843.8C1283.4 849.2 1283.2 849.3 1277.4 849C1274 848.8 1265.8 848.3 1259.5 848.2H1259.4Z" fill="#5CB261"/>
<path d="M1221.4 841C1215.5 838.6 1215.5 838.4 1221.1 833C1227.1 827.3 1227.5 825.8 1223.1 822.1C1217.9 817.5 1219 815.1 1226.2 815.1C1229.8 815.1 1233.2 815.9 1233.7 816.7C1234.2 817.7 1236.1 818.3 1237.9 818.3C1240.3 818.3 1241 819.4 1241 824C1241 829.4 1240.7 829.7 1235.8 829.9C1232.9 830.1 1231.7 830.4 1233.4 830.9C1235.4 831.4 1236.2 833.3 1236.2 837.3C1236.2 842.5 1235.9 842.8 1231 842.7C1228.1 842.7 1223.8 841.9 1221.5 841.1L1221.4 841Z" fill="#5CB261"/>
<path d="M1304.9 829.6L1305.4 822.4L1318.9 821.9L1332.3 821.4V827.1C1332.3 833.3 1331.6 833.6 1314.7 835.6L1304.4 836.7L1304.9 829.5V829.6Z" fill="#5CB261"/>
<path d="M1251.3 832.5C1243 830.9 1242.7 830.5 1242.7 825.3C1242.7 819.1 1244.5 818.8 1261.8 821.7C1272.1 823.5 1272.1 823.5 1272.1 829C1272.1 834.4 1271.9 834.5 1266.1 834.2C1262.7 834.2 1256 833.2 1251.4 832.4L1251.3 832.5Z" fill="#5CB261"/>
<path d="M432.8 831.9C429.2 830.9 412.1 822.1 392.5 811C384.8 806.8 374.6 801 369.7 798.3C364.8 795.7 358 791.8 354.7 789.7C351.3 787.6 348.2 785.8 347.7 785.8C347.2 785.8 341.5 782.7 335 778.8C328.6 774.9 316.4 767.7 308.2 762.8C294.5 754.8 289.6 749.9 295.1 749.9C296.1 749.9 294.9 748.1 292.3 745.8C289.7 743.5 286.6 741.7 285.4 741.7C284.3 741.7 283.1 741.2 282.8 740.4C282.6 739.7 278.7 736.5 274.2 733.2C262.5 724.6 254.8 716.2 255.9 713.3C256.6 711.8 256.2 710.7 255.4 710.7C252.5 710.7 253.8 707.3 258.3 703.4C260.7 701.1 267.1 695.2 272.5 690.2C277.9 685.3 287.5 678.1 293.7 674.4C300.1 670.6 307.9 665.8 311.2 663.3C316.7 659.4 317.1 658.9 314.5 656.4C312.1 653.8 312.2 653.6 317.8 653.6C322.2 653.6 328.2 656.4 341.1 664.2C350.7 670.1 358.9 674.8 359.2 674.8C359.5 674.8 363.6 677.1 368.3 679.9C373 682.8 380.2 686.9 384.3 689.2C388.4 691.5 394.3 694.7 397.4 696.5C421.7 710.2 434.1 716.9 443.9 722.1L455.3 728.1L464.3 724.7C469.2 722.7 476.5 719.3 480.6 717C484.7 714.7 491.2 711 495.3 708.7C506.7 702.5 514.9 697.8 524.7 691.9C548.2 677.9 563 669.9 565.7 669.9C567.5 669.9 568.8 668.9 568.8 667.9C568.8 665.6 577.4 660.1 581 660.1C582.1 660.1 583.4 659 583.9 657.7C586.3 651.5 609.5 645.3 609.5 651C609.5 652.3 608.2 653.8 606.7 654.1C604.3 654.8 604.4 654.9 607.2 655.1C610.5 655.3 618 658.2 625 662.1C643.3 672.4 648 675.3 649.5 677.3C650.5 678.4 653.7 680.6 656.8 681.9C663.2 684.5 674.7 694.5 674.7 697.1C674.7 700.2 660.3 711.1 650.6 715.7C648.5 716.5 645.9 718.3 644.7 719.5C638.7 725.2 633.1 729.3 626.9 732.4C615.6 738.3 608.3 743.5 611.6 743.5C613.2 743.5 614 744.3 613.6 745.1C613.1 746.1 611.3 746.7 609.7 746.7C608.1 746.7 605.8 747.8 604.6 749.1C601 753.3 586 762.5 577.7 765.3C573.3 766.8 559.6 773.8 547.5 780.8C464.3 829.3 448.8 836.1 432.8 832V831.9Z" fill="#5CB261"/>
<path d="M1752.8 811.3C1750.4 810.3 1747.9 807.9 1747.4 805.9C1745.4 798.2 1748.9 735.1 1754.9 665.7C1757.5 635.8 1761.1 591 1763.9 553.9C1765.4 535.5 1767.2 512.5 1768 502.5C1768.8 492.7 1770.6 470.7 1771.9 453.6C1775.2 413.3 1778.9 372.8 1781.2 352.4C1783 335.3 1784.3 333.1 1792.6 331.4C1798 330.4 1808.8 332.1 1808.8 333.8C1808.8 334.6 1809.8 335.3 1810.9 335.3C1813.2 335.3 1829 351.5 1834.7 359.6C1839.9 366.9 1859.3 405.4 1859.3 408.2C1859.3 409.3 1860 411.6 1860.8 413.3C1866.2 423.6 1875.6 461.4 1875.6 473C1875.6 476.8 1876.7 483.9 1878 489C1884.4 513.6 1885.7 528 1884.9 568.8C1883.9 626.4 1879.7 661.8 1868.9 705.7C1865 721.9 1861.9 732.3 1860.7 734.3C1860 735.3 1859.1 739.2 1858.4 743.3C1857.7 747.4 1856.6 751.5 1856.1 752.3C1855.4 753.3 1853.2 759.2 1851.2 765.7C1848.4 774.7 1846.1 778.9 1840.9 783.8C1834.4 790.2 1812.5 802.1 1803.2 804.4C1799.8 805.2 1798.8 806.2 1799.6 808.5C1800.3 810.9 1799.4 811.6 1794.4 812.6C1784.6 814.1 1757.7 813.4 1752.6 811.5L1752.8 811.3Z" fill="#5CB261"/>
<path d="M1288.3 740.8C1288.3 735.4 1288.6 735.1 1294 735.1C1299.4 735.1 1299.7 735.4 1299.7 740.8C1299.7 746.2 1299.4 746.5 1294 746.5C1288.6 746.5 1288.3 746.2 1288.3 740.8Z" fill="#5CB261"/>
<path d="M1261.4 742.6C1256 741.6 1251 740.3 1250 739.8C1249.2 739.1 1244.5 738.2 1239.9 737.5C1232.9 736.7 1231.3 735.7 1231.3 733.3C1231.3 729.5 1238.5 724.7 1241.9 726C1243.4 726.5 1244.3 726 1244.3 724.7C1244.3 723.4 1245.3 722.1 1246.4 721.6C1247.9 721.1 1247.9 720.5 1246.1 718.3C1244.1 715.9 1244.5 715.5 1250.5 715.5C1254.3 715.5 1257.5 716.2 1258 717C1258.5 717.8 1261.6 719 1264.7 719.4C1267.8 719.9 1273 720.9 1276.1 721.4C1279.9 722.1 1281.8 723.4 1281.8 725.2C1281.8 726.7 1282.3 731.7 1282.8 736.5L1283.9 745L1277.5 744.8C1274.1 744.6 1266.7 743.7 1261.3 742.7L1261.4 742.6Z" fill="#5CB261"/>
<path d="M1120.7 712.6C1119.9 711.9 1117.8 707.9 1116.1 703.3C1109.7 686.2 1103.9 681.6 1091.5 684.7C1085.3 686.3 1083.7 686.2 1081.5 684C1079.2 681.9 1079.7 681.1 1086.2 677.3C1095.2 672.1 1098.1 672.1 1107.7 677.1L1115.2 681V674.8C1115.2 668.3 1117 666.5 1123.5 666.5C1126.1 666.5 1126.4 667 1125 669.6C1124.2 671.4 1123.4 676.8 1123.5 681.5V690.1L1126.6 683.2C1131.8 671.5 1149.4 663.3 1150.7 672.1C1151 674.7 1149.7 676 1145.6 677.5C1137.9 680.3 1133 686 1132.1 693.5C1131 701 1126.4 711.6 1123.9 712.8C1122.9 713.1 1121.5 713 1120.5 712.5L1120.7 712.6Z" fill="#5CB261"/>
<path d="M459.4 663.5C450.4 660.4 409.3 638.4 391.7 627.1C386 623.5 370 614.4 363.1 610.9C361.8 610.2 356.1 607 350.4 603.7C341.8 598.6 340.4 597.3 342.2 595.2C343.8 593.2 343.7 592.4 341.9 591.4C340.6 590.6 333.4 585.5 326.1 580C308.6 567.1 308.3 564.2 323.5 551.9C329.9 546.8 344.4 537.5 345.9 537.5C346.7 537.5 348.7 535.9 350.5 533.9C352.3 531.8 354.1 531 354.7 531.9C355.4 532.7 359.8 534.5 364.5 535.7C369.2 536.8 377.4 540.1 382.4 542.7C393 548.4 408.3 556.6 422.7 564.4C428.1 567.3 438.4 572.9 445.5 576.6C452.7 580.5 461.2 585.1 464.3 586.9C467.4 588.7 473.8 592.1 478.2 594.6L486.5 599.2L492.9 595.4C496.5 593.4 517.4 581.4 539.4 568.5C597.6 534.6 598.3 534.2 600.6 534.2C601.9 534.2 603.5 535.2 604.2 536.5C604.9 537.6 612.2 542.7 620.2 547.8C634.9 556.9 640.6 561.8 640.6 565.7C640.6 566.8 637.2 569.6 632.9 571.7C628.8 574 617.7 580.3 608.4 586.1C599.1 591.6 590.8 596.2 590 596.2C589 596.2 588.4 597 588.4 597.8C588.4 598.8 587.3 599.4 586 599.4C584.7 599.4 583.6 600.2 583.6 601C583.6 602 584.4 602.6 585.2 602.6C588.5 602.6 586.7 605.5 582.4 607.3C577.3 609.3 569.8 613.5 561 619.2C555.8 622.6 530.7 637.6 514.2 647.1C495.1 658 482.2 663.3 473.2 663.9C467.8 664.2 461.8 663.9 459.5 663.1L459.4 663.5Z" fill="#5CB261"/>
<path d="M1305.7 649.3C1305 648.6 1304.6 645.7 1304.6 642.6C1304.6 637.2 1304.8 637.2 1312.1 637.2H1319.4L1318.9 643.4C1318.4 649.1 1318.1 649.4 1312.7 649.9C1309.4 650.2 1306.3 649.9 1305.7 649.2V649.3Z" fill="#5CB261"/>
<path d="M1286.7 641.3C1286.7 635.9 1287 635.6 1292.4 635.6C1297.8 635.6 1298.1 635.9 1298.1 641.3C1298.1 646.7 1297.8 647 1292.4 647C1287 647 1286.7 646.7 1286.7 641.3Z" fill="#5CB261"/>
<path d="M1270.3 644.4C1268 643.9 1263.4 642.9 1260 642C1254.8 640.7 1254.1 639.9 1255.8 637.9C1256.9 636.4 1257.4 632.7 1256.9 628.3L1255.9 621H1261.4C1266.1 621 1266.8 621.5 1267.4 626.4L1268.1 631.6L1268.3 626.4C1268.6 621.3 1269 621 1275.2 621C1281.6 621 1281.7 621.2 1281.7 626.5C1281.7 631.4 1281 632.2 1277.3 632.9C1273.5 633.4 1273.9 633.6 1278.9 633.9C1284.6 634.1 1284.9 634.2 1284.9 639.8C1284.9 645.2 1284.6 645.5 1279.7 645.3C1276.8 645.1 1272.5 644.8 1270.2 644.5L1270.3 644.4Z" fill="#5CB261"/>
<path d="M1301.3 629.9C1301.3 624.5 1301.6 624.2 1307 624.2C1312.4 624.2 1312.7 624.5 1312.7 629.9C1312.7 635.3 1312.4 635.6 1307 635.6C1301.6 635.6 1301.3 635.3 1301.3 629.9Z" fill="#5CB261"/>
<path d="M1286.7 628.3C1286.7 622.9 1287 622.6 1292.4 622.6C1297.8 622.6 1298.1 622.9 1298.1 628.3C1298.1 633.7 1297.8 634 1292.4 634C1287 634 1286.7 633.7 1286.7 628.3Z" fill="#5CB261"/>
<path d="M1553.1 608.4C1549.3 608.1 1546.1 606.9 1545.8 605.8C1545.5 604.7 1545.5 583.8 1545.8 559.3C1546.6 508.4 1545.6 511.2 1562 511.2C1572.3 511.2 1577.8 514.5 1581.1 522.3L1583.5 528L1588.9 525.1C1596.9 520.7 1609 517.8 1615.2 518.7C1624.2 520.2 1637.1 526.7 1639.3 530.9C1641.7 535.3 1641.9 555.9 1639.6 561.2C1630 583.2 1619.9 596.3 1608.6 601.3C1592.3 608.5 1576.9 610.4 1553.1 608.3V608.4Z" fill="#5CB261"/>
<path d="M469.6 547.5C463.9 546.8 458.5 545.5 457.4 544.4C456.4 543.4 454.6 542.6 453.3 542.6C452 542.6 448.7 541.6 446 540.3C443.1 539.2 432.8 535.4 422.8 532C376.5 516.3 377.9 517.2 377.9 506.5C377.9 495.4 381.3 489.7 390.5 485.1C397 481.7 399.5 478.9 409.1 463.4C415.3 453.4 420.4 444.5 420.4 443.5C420.4 442.4 421.2 441.4 422 441.4C423 441.4 423.6 440.4 423.6 439.1C423.6 437.8 424.3 436.5 424.9 436.2C425.6 436 429.1 431 432.6 425.1C436 419.2 439.3 414.2 439.9 413.7C440.4 413.2 442.2 410.8 443.8 408C450.3 397.9 459.5 388.3 464.2 386.8C466.2 386.3 467.6 385 467.6 384.2C467.6 383.2 468.4 383.1 469.4 383.7C470.7 384.4 470.9 389.9 470.2 401.3C468.7 424.5 477.1 521.4 481.5 533C482.5 535.8 483 535.8 507.6 527.9C540.6 517.6 556.2 510.6 562.9 503.6C568.4 497.7 573 497.1 574.5 501.8C575.2 503.6 576.3 504.7 577.1 504.2C577.9 503.5 579.1 504.4 579.5 505.8C580.3 507.6 578.4 510.9 573.5 515.8C569.6 519.7 565.7 523 564.9 523C564.1 523 560.3 524.3 556.7 526.1C549.7 529.2 526.4 537.8 516.6 540.8C487.2 549.6 487.6 549.6 469.6 547.5V547.5Z" fill="#5CB261"/>
<path d="M912.5 500.7C909.6 493.8 908.9 262.5 911.8 219.2C912.9 201.4 914.4 186.4 915.1 185.8C915.8 185.1 927.8 184.7 942 184.7C969.4 184.5 979.9 186.3 1001.1 194.5C1011.9 198.7 1026.6 206.4 1031.6 210.5C1057.9 231.5 1058.4 232.2 1068 245.1C1077 257 1089.2 281.2 1089.2 286.9C1089.2 288.2 1089.9 289.8 1090.5 290.7C1097.4 298.5 1098.8 353 1092.8 373.9C1087.9 390.9 1086.8 394.3 1085.6 394.3C1084.9 394.3 1084.3 395.4 1084.3 396.7C1084.3 402.1 1070.9 424.1 1057.4 440.8C1049.2 450.9 1042.1 457.9 1030.5 466.6C1025.6 470.4 1021.2 473.8 1020.7 474.3C1018.3 477.1 982.7 492.9 975.8 494.5C967.5 496.5 961.9 499.1 962.9 500.7C965 504.1 958.8 505.3 937 505.3H914.6L912.5 500.9V500.7Z" fill="#5CB261"/>
<path d="M1362.5 421.9C1361 419.5 1355.3 178.1 1355.2 111.1V73.5999L1361.4 71.5999C1366.3 70.0999 1371 70.2999 1386.2 72.6999C1411.2 76.5999 1420 79.2 1438.4 88.4C1457.5 97.9 1467.9 105.4 1485.2 122.5C1503.6 140.3 1518 162.3 1525.2 183.4C1528.3 192.5 1529.8 194.3 1534.8 193.8C1535.3 193.8 1536.6 199.2 1537.9 206C1539.7 216.3 1539.7 218.4 1537.7 219.5C1536.1 220.6 1535.6 226.8 1535.4 247.6C1535.4 263.9 1534.6 276.3 1533.4 279.9C1532.3 283 1530.3 289.5 1528.8 294.4C1525.5 305.3 1513.5 330.5 1511.5 330.5C1510.7 330.5 1510 331.5 1510 332.6C1510 333.9 1508.7 336.4 1507.2 338.3C1505.6 340.1 1503.1 343.2 1501.8 345.3C1498.9 349.7 1491 359 1485.5 364.6C1480.3 370 1464.9 382.7 1463.8 382.7C1463.3 382.7 1459.1 385.3 1454.2 388.4C1443.8 395.4 1422.1 406.2 1412.6 409.1C1407.1 410.7 1405.6 412 1405.6 414.8C1405.6 417.6 1404.5 418.7 1401.2 419.4C1398.6 419.9 1394 421 1390.8 421.8C1382.8 423.9 1363.7 423.9 1362.4 421.8L1362.5 421.9Z" fill="#5CB261"/>
<path d="M1340.8 415C1341.3 409.1 1341.9 407.8 1345.2 407.5C1347.2 407.2 1350.7 407.3 1352.9 407.8C1356.2 408.6 1356.8 409.9 1356.8 415.3V421.8H1348.5H1340.3L1340.8 414.9V415Z" fill="#5CB261"/>
<path d="M1321.9 418.8C1319 418.1 1317 416.7 1316.7 414.7C1316.5 413.1 1315.6 410.9 1314.6 410C1313.6 409 1312.8 407.6 1312.8 406.9C1312.8 405.4 1322.6 405.3 1331.2 406.6C1336.9 407.6 1337.2 407.9 1337.2 413.9C1337.2 420.1 1337 420.3 1332 420.1C1329.1 419.9 1324.5 419.4 1321.9 418.8V418.8Z" fill="#5CB261"/>
<path d="M1631.7 186.6C1629.1 185.6 1624.2 184 1620.9 182.8C1616.2 181.2 1614.5 181.2 1612.3 183C1609 185.3 1603 182.5 1593.9 174C1587.7 168.5 1587.5 167.6 1591.1 164.9C1593.4 163.3 1593.4 162.6 1591.6 160.7C1590.3 159.4 1588.2 155.8 1586.7 152.7C1585.1 149.6 1582.9 144.9 1581.8 142.3C1578.2 134.8 1579 105.1 1583.1 93C1594.7 59.1 1617 33.4 1649.8 16.6C1662.4 10.1 1664.3 9.59996 1662.9 13.2C1662.1 15.3 1662.4 15.3 1665.7 13.4C1667.7 12.3 1671.2 10.8 1673.7 10.1C1676.6 9.39999 1677.8 8.30006 1677.3 6.80006C1675.2 1.40006 1700.5 -1.49996 1720 1.90004C1746.4 6.50004 1763.6 21.2 1772 46.6C1775.4 56.9 1775.9 80.2 1772.8 90.2C1769.4 101.9 1763.8 115.2 1762.7 115.2C1761.9 115.2 1761.4 116.3 1761.4 117.6C1761.4 124.1 1731.1 157.9 1717.8 166.2C1708.7 172.1 1693.8 179.7 1689.4 181C1664.3 188.5 1643.7 190.6 1631.6 186.5L1631.7 186.6Z" fill="#5CB261"/>
<path d="M843.7 1298C843.2 1297.2 841.3 1296.4 839.6 1296.4C834.7 1296.4 827.2 1291.3 825.2 1286.6C823.7 1283.3 823.7 1277 824.9 1261.1C825.9 1249.5 827 1225 827.5 1206.6C828.2 1174.8 828.2 1167.6 827.7 1129.1C827.5 1120.1 827.5 1109.8 827.7 1106.3C828 1102.7 827.7 1096.5 827.2 1092.4C826.7 1088.3 827 1081 827.9 1076.1C829 1070.6 829 1066.5 828.1 1065.5C826.1 1063.5 826.1 1058.2 828.3 1058.2C829.3 1058.2 829.9 1060 829.9 1062.1C829.9 1066.5 830.1 1066.7 857.6 1071.6C880.8 1075.7 887.6 1075.8 896.4 1073.1C901.1 1071.5 903.3 1069.8 903.3 1067.7C903.3 1065.4 904.6 1064.8 909 1064.8C914.2 1064.8 914.7 1065.1 913.2 1067.7C911.6 1070.8 910.8 1095.3 908.8 1194.5C908.1 1224.2 907.3 1254.5 906.8 1262C906.3 1271.8 906.6 1275.4 907.9 1274.6C908.9 1273.9 909.7 1274.4 909.7 1275.9C909.7 1277.2 908.9 1278.8 908.1 1279.3C907.1 1279.8 906.8 1283.1 907.3 1286.3C908.4 1293.5 907.5 1294.9 899.8 1297.7C892.6 1300.1 845.1 1300.5 843.7 1298V1298Z" fill="#8E755A"/>
<path d="M1326.6 1129.5C1324.8 1128.4 1319.6 1125.3 1315 1122.5L1306.7 1117.3L1305.6 1106.9C1304.3 1094.3 1304.1 966.7 1305.4 965.4C1305.9 964.9 1308.7 965.6 1311.6 966.7C1330.5 974.5 1334.4 975.3 1344.6 973.6C1350 972.8 1357 971.5 1360.3 971C1363.4 970.5 1371.6 966.4 1378.2 962C1385.4 957.1 1392.1 953.8 1394.8 953.8H1399.2L1398.4 1024.4C1397.4 1106 1396.9 1110.1 1385.3 1119.4C1375.5 1127.6 1361.3 1131.6 1344.2 1131.5C1336.2 1131.5 1328.4 1130.7 1326.6 1129.5V1129.5Z" fill="#8E755A"/>
<path d="M456 1065.7C455.7 1065.2 446.2 1064.6 435 1063.9C410.5 1062.8 406.1 1061.9 400.4 1058C396.2 1054.9 396.2 1054.7 395.8 1032.4C394.7 956.9 394.5 960.3 398.2 960.3C400 960.3 404.1 962.7 407.2 965.7C418.8 976.8 456.1 981.5 470.7 974C473 972.7 475.4 971.7 476.2 971.7C476.9 971.7 480.3 969.9 483.9 967.6C490.8 963.2 500.7 961.9 499.4 965.6C498.9 966.6 498.3 987.3 497.9 1011.3C497.6 1035.4 496.8 1055.5 495.9 1056.3C493.6 1058.1 484 1060.9 473.2 1063C467.8 1064 461.9 1065.1 460 1065.4C458 1065.9 456.2 1065.9 455.9 1065.6L456 1065.7Z" fill="#8E755A"/>
<path d="M1751.7 970.4C1749.4 970.1 1743.9 968.8 1739.3 967.6L1731 965.2L1730 946.9C1729.5 936.8 1729 902.5 1728.9 871C1728.9 825.3 1729.2 813.4 1730.9 813.4C1732 813.4 1738.9 816.3 1745.9 819.9L1758.8 826.4L1769.6 823.8C1775.5 822.3 1782.5 820.2 1784.9 818.9C1787.5 817.6 1791.6 816.6 1793.9 816.6H1798.3L1798.1 886.9L1797.9 957.2L1793.2 961.1C1783.2 969.4 1781.6 970.1 1768.6 970.6C1761.6 970.8 1754.1 970.6 1751.8 970.3L1751.7 970.4Z" fill="#8E755A"/>
<path d="M1748.4 808.6C1748.4 804.8 1754.4 804 1760 807C1765.2 809.9 1763.4 811.9 1755.8 811.9C1749.6 811.9 1748.5 811.4 1748.5 808.6H1748.4Z" fill="#8E755A"/>
<path d="M956.3 604.1C953.5 601.2 948.1 596.3 944.4 593.2C940.5 590.1 935.4 585.9 933 583.7C921.6 573.9 904.3 569.8 890.6 573.7C886.4 574.8 882.6 575.7 882.4 575.5C882.1 575.3 881.9 563.3 882.2 548.6C882.4 534.1 882.5 520.5 882.5 518.6C882.3 513.4 888.5 513.7 893.4 518.9C898 523.8 908.6 527.2 922.8 528.5C935.4 529.6 943.5 527.7 949.6 522.1C952 519.8 955.8 518 957.8 518C961.4 518 961.7 518.7 962.4 529.9C963.9 551.6 963.9 609.4 962.6 609.2C961.9 609 959 606.8 956.4 604L956.3 604.1Z" fill="#8E755A"/>
<path d="M1403.6 563.5C1402.3 560.6 1399.2 553.5 1396.9 547.8C1394.5 542.3 1390 533.6 1386.9 528.7C1383.8 523.8 1381.2 518.9 1381.2 517.6C1381.2 516.3 1379.7 513.7 1377.9 511.6C1373.8 507 1373.8 505.2 1377.4 502.6C1380.2 500.5 1380.2 500.3 1377.4 497.4C1373.5 492.8 1373.5 480.6 1377.6 480.6C1381.8 480.6 1384.5 477.3 1384.5 472C1384.5 468.1 1384 467.4 1381.7 468.4C1375.5 471 1365.5 472.6 1360.5 472.2C1357.6 471.9 1355.1 472.2 1355.1 472.9C1355.1 473.6 1353 474.2 1350.2 474.2C1346.1 474.2 1345.3 474.9 1345.3 478.3C1345.3 482.1 1345 482.2 1341.9 480.7C1336.7 477.8 1329.3 481 1318.9 491C1315.6 494.1 1315.8 494.8 1315.8 475.8C1315.8 431.1 1315.6 431.7 1319.7 431.7C1321.7 431.7 1326.4 433.5 1330.1 435.6C1338.7 440.5 1343.2 441.5 1358.3 441.6C1384.1 441.9 1383.9 441.9 1390.9 434.9C1394.8 431 1398.9 428.4 1401.3 428.4H1405.1L1406.2 479.3C1407.2 522.7 1407.2 568.7 1406.2 568.7C1406 568.7 1404.7 566.3 1403.4 563.5H1403.6ZM1387.6 456.6C1387.8 454.5 1386.8 452.8 1385.6 452.8C1384.1 452.8 1383.8 454.9 1384.3 459.8C1384.8 465.2 1385.1 466 1386.3 463.4C1387 461.6 1387.6 458.5 1387.6 456.5V456.6Z" fill="#8E755A"/>
<path d="M1360.6 493.2C1352.8 487.2 1349.7 483.9 1350.6 482.9C1351.1 482.4 1355.7 481.6 1360.7 481.1L1369.8 480.1V486.1C1369.8 489.5 1368.8 493.3 1367.5 494.4C1365.5 496.4 1364.6 496.2 1360.5 493.1L1360.6 493.2Z" fill="#8E755A"/>
<path d="M1304.6 962.6C1304.6 960.3 1303.1 960 1294.5 960.8C1279.5 962.3 1221.7 959.3 1214.6 956.7C1204.3 953.1 1206.8 951.6 1222.3 952C1225.1 952 1230.5 952.8 1234.5 953.8C1238.7 954.9 1257.8 955.8 1279.9 955.8C1311.2 956 1318.2 955.6 1319.5 953.7C1320.6 951.9 1321.5 951.7 1324.2 953.5C1326.3 954.8 1327.5 954.8 1327.5 953.8C1327.5 952.7 1330.8 952.2 1335.7 952.5C1342.9 953 1343.9 953.5 1343.5 956.3C1343.2 958.7 1341.4 959.9 1336.5 960.7C1302.9 966.2 1304.7 966.1 1304.7 962.7L1304.6 962.6Z" fill="#4E9F53"/>
<path d="M1345.4 954.7C1345.4 953.2 1346.4 952.1 1347.7 952.1C1348.8 952.1 1350.3 950.8 1350.6 949.2C1351.3 946.6 1353.7 945.9 1364.1 945.1C1371.1 944.4 1381.4 944 1386.9 944C1392.3 944 1397.5 943.3 1398.5 942.7C1402.6 938.9 1433.4 934.1 1433.4 937.2C1433.4 938 1431 939.2 1428.2 939.6C1412.7 942 1399.2 946.5 1399.2 949.1C1399.2 952.5 1387.3 955.1 1363.8 956.4C1347.3 957.4 1345.4 957.2 1345.4 954.8V954.7Z" fill="#4E9F53"/>
<path d="M1435.1 935.3C1435.1 933.5 1437.2 932.4 1441.3 931.7C1444.6 931 1449.6 929.9 1452.2 929.3C1455 928.5 1461.2 927.3 1466.1 926.7C1471 926 1475.9 925.1 1476.7 924.3C1479.8 922 1498.4 913 1500.4 913C1501.4 913 1505.5 910.9 1509.4 908.1C1516.6 903.2 1520 902.1 1520 904.5C1520 906.8 1511.2 914.1 1505.3 916.7C1502.2 918.2 1496 920.8 1491.4 922.9C1479.5 928.1 1466.6 932 1455.5 934C1450.1 934.8 1443.3 936.1 1440.5 936.8C1436.3 937.6 1435.1 937.3 1435.1 935.3V935.3Z" fill="#4E9F53"/>
<path d="M1279.5 844.9C1278.8 844.2 1275.9 843.6 1273.1 843.4C1257.3 842.6 1237.4 840.1 1232.8 838.3C1231.5 837.6 1230 837.2 1229.5 837.2C1229 837 1227.1 836.1 1224.9 834.9C1221.6 832.9 1221.5 832.5 1223.8 830.3C1225.1 828.8 1226.2 826.7 1226.2 825.2C1226.2 823.4 1227.2 822.9 1230 823.7C1232 824.2 1239.1 825.5 1245.8 826.3C1252.5 827.3 1261.8 828.7 1266.4 829.7C1277.8 832.3 1341.8 829.4 1343.7 826.1C1344.7 824.6 1362.8 823.7 1364.3 825.1C1365 825.6 1366.4 824.9 1367.9 823.6C1369.2 822.1 1372 821.3 1374.3 821.8C1376.3 822.1 1378.1 821.8 1378.1 820.8C1378.1 820 1380.5 819.7 1383.8 820.1C1388 820.8 1389.5 820.4 1389.5 818.6C1389.5 816.5 1393.6 815.7 1404.7 815.8C1406.2 815.8 1407.5 815.1 1407.5 814.7C1407.5 814 1410.8 813.1 1414.8 812.6C1418.9 811.9 1425.9 809.7 1430.5 807.4C1435.1 805 1440 803.3 1441.4 803.6C1442.9 803.9 1445.5 802.8 1447.1 801.2C1449.2 799.1 1451.8 798.3 1454.9 798.8C1458.2 799.3 1459.6 798.8 1459.6 797.3C1459.6 796.2 1460.9 795.2 1462.5 795.2C1464 795.2 1467.4 794.1 1470 792.8C1480.6 787.3 1485.2 793 1475.5 800.1C1451.2 818 1384.8 839.3 1352.6 839.3C1346.9 839.3 1341.7 840.1 1341.2 840.9C1340.7 841.9 1338.4 842 1336.1 841.6C1333.5 840.9 1332.2 841.3 1332.2 842.6C1332.2 844.1 1329.3 844.4 1320.8 843.9C1314.6 843.4 1309.4 843.7 1309.4 844.4C1309.4 846.2 1281 846.4 1279.4 844.7L1279.5 844.9Z" fill="#4E9F53"/>
<path d="M1782.7 811C1782.7 809.7 1783.8 808.6 1785.1 808.6C1786.4 808.6 1787.5 807.9 1787.5 807C1787.5 806.2 1789.6 805.7 1792.4 805.9C1796.3 806.2 1797.3 807 1797.3 810C1797.3 813.3 1796.5 813.6 1790 813.6C1784.6 813.6 1782.7 812.9 1782.7 811.2V811Z" fill="#4E9F53"/>
<path d="M1296 742.1C1295.3 741.4 1291.6 741.1 1287.7 741.4C1283.8 741.6 1280 741.1 1279.4 740.1C1278.9 739.1 1276.6 738.8 1274.5 739.3C1272.5 739.8 1270.3 739.5 1269.6 738.3C1268.9 737.3 1267 737 1265.4 737.5C1263.6 738.2 1261 737.7 1259.7 736.5C1258.2 735.4 1255 734.5 1252.5 734.7C1249.9 734.9 1247.4 734.4 1246.8 733.6C1246.3 732.6 1244.8 732.3 1243.5 732.8C1242.2 733.3 1240.2 733.1 1239.1 732.5C1238 731.7 1236.5 731 1235.8 731C1232.2 731 1233.5 728.4 1238.6 725.3C1244.6 721.5 1245.9 721.5 1259.8 725.1C1276.6 729.3 1282.8 730 1307.6 730.2C1325.7 730.4 1335 729.9 1336.5 728.6C1337.8 727.5 1342.4 727 1347.1 727.3C1351.5 727.5 1355.4 727.3 1355.7 726.6C1355.9 725.9 1360.4 724.8 1365.8 723.8C1371.2 722.8 1380.3 721.4 1386.2 720.4C1397.1 718.4 1425.5 707 1428.8 703.1C1429.8 701.8 1431.4 700.8 1432.2 700.8C1433 700.8 1435.6 699.3 1437.7 697.7C1443.2 693.3 1448.5 694.9 1447.2 700.6C1444.9 710.2 1420 725.9 1400 730C1394.6 731.1 1383.2 732.6 1374.7 733.4C1366.2 734.2 1352.2 736.3 1343.7 738.3C1332.9 740.7 1325.3 741.6 1318.9 740.9C1313.7 740.4 1309.4 740.6 1309.4 741.2C1309.4 742.8 1297.3 743.6 1295.9 742L1296 742.1Z" fill="#4E9F53"/>
<path d="M1315 643.4C1314.5 642.7 1310.6 642.7 1306.2 643.2C1301.8 643.7 1296.9 643.5 1295.3 642.9C1292.2 641.6 1283.9 640.6 1276.2 640.6C1273.8 640.6 1270.5 639.6 1269.3 638.6C1268 637.6 1267 637.3 1267 637.9C1267 638.6 1265.9 638.2 1264.6 637.1C1263.3 636 1262.2 635.6 1262.2 636.3C1262.2 637 1261.1 636.6 1259.8 635.5C1258.5 634.4 1257.4 632.2 1257.4 630.8C1257.4 628.4 1259.4 628 1273.4 628.4C1282 628.6 1294.8 629.4 1301.5 630.4C1317 632.7 1337.4 632.8 1337.4 630.7C1337.4 629.9 1339 629.1 1341.2 629.1C1343.2 629.1 1349.5 627.6 1355.4 625.8C1361.3 624 1367.8 622.5 1370.1 622.5C1372.4 622.5 1376.6 621 1379.6 619.2C1382.5 617.4 1386 615.9 1387.3 615.9C1388.6 615.9 1392 614.6 1395 613C1402.2 608.9 1420.8 606.6 1420.8 609.9C1420.8 613.5 1417 616.9 1409.4 619.9C1405.3 621.5 1399.4 624 1396.3 625.3C1383.2 631 1368.9 635.1 1348.5 638.8C1344.1 639.6 1339.5 641.1 1338.2 642.1C1336.9 643.2 1334 643.6 1331 642.9C1327.9 642.2 1326.1 642.4 1326.1 643.6C1326.1 645.6 1316.5 645.4 1315.3 643.4H1315Z" fill="#4E9F53"/>
<path d="M476.7 538.2C472.3 526.9 463.5 427.1 464.8 403.9C465.9 385 466.8 382.5 471 384.2C474.6 385.5 495.8 405.9 505.9 417.8C509.5 422 514.2 427.4 516.5 429.9C518.8 432.2 523.2 437.4 526.3 441.3C529.4 445.4 533.5 450.1 535.3 452.1C540.7 457.8 549.7 468.1 555.9 475.8C559.2 479.9 564.5 486.1 567.6 489.5C575.8 498.3 575.8 501.4 567.9 508.4C558.9 516.6 545.7 522.4 512.4 532.9C483 542.2 478.3 542.9 476.7 538.3V538.2Z" fill="#4E9F53"/>
<path d="M851 1300.2C847.9 1299.7 844.6 1298.7 843.8 1297.9C842.8 1297.1 840.7 1296.4 838.9 1296.4C834.7 1296.2 829.3 1292.3 829.9 1290C830.4 1288.9 832.3 1289.2 835.4 1290.8C839.8 1293.1 846.7 1293.9 868.5 1294.6C873.1 1294.8 875.4 1295.4 875.4 1297C875.4 1300.8 866.8 1301.9 850.9 1300.1L851 1300.2Z" fill="#7C6752"/>
<path d="M886.9 1297.4C886.9 1295.3 897.3 1292.2 902.6 1292.5C903.9 1292.7 903.7 1291.4 902.3 1288.4C899.7 1283.3 899.4 1278.4 901.6 1278.4C902.6 1278.4 903.2 1277.4 903.2 1276.1C903.2 1274.6 904.7 1273.8 906.5 1274C910.1 1274.2 910.7 1276.8 908.1 1279.4C907 1280.5 906.8 1282.5 908.1 1285.6C910.2 1291.5 907.8 1295.2 899.8 1297.7C891.5 1300.3 886.9 1300.1 886.9 1297.4V1297.4Z" fill="#7C6752"/>
<path d="M596.5 1152C596.5 1150.5 597.3 1149.6 598.3 1149.9C599.3 1150.2 600.1 1151.2 600.1 1152C600.1 1152.8 599.3 1153.8 598.3 1154.1C597.3 1154.4 596.5 1153.4 596.5 1152Z" fill="#7C6752"/>
<path d="M578.9 1129.8C579.2 1128.8 580.2 1128.2 581 1128.2C581.8 1128.2 582.8 1128.9 583.1 1129.8C583.4 1130.8 582.4 1131.6 581 1131.6C579.5 1131.6 578.6 1130.8 578.9 1129.8Z" fill="#7C6752"/>
<path d="M623.6 1115.6C623.3 1114.9 623.6 1113.3 624.4 1112C625.7 1109.9 626 1109.9 627.3 1112C628.9 1114.4 628.3 1116.9 625.8 1116.9C625 1116.9 624 1116.2 623.5 1115.6H623.6Z" fill="#7C6752"/>
<path d="M603 1103.9C603 1103.1 604.1 1102.3 605.4 1102.3C606.7 1102.3 607.8 1103.1 607.8 1103.9C607.8 1104.9 606.7 1105.5 605.4 1105.5C604.1 1105.5 603 1104.8 603 1103.9Z" fill="#7C6752"/>
<path d="M592.7 1093.1C590.4 1090.8 591.6 1087.4 594.5 1087.9C596 1088.2 597.3 1089.5 597.3 1090.7C597.3 1093.3 594.4 1094.8 592.7 1093.1V1093.1Z" fill="#7C6752"/>
<path d="M903.2 1066.2V1061.1L894.7 1062.6C880.8 1064.7 861.1 1063.4 844.9 1059.3L829.7 1055.4V1059.3C829.7 1061.3 829 1063.1 828.2 1063.1C827.4 1063.1 826.7 1060.5 826.9 1057.4C827.1 1052.2 827.4 1051.9 831.1 1052.8C833.5 1053.3 836.5 1054.4 838 1055.1C839.6 1055.9 848 1057.4 856.6 1058.5C873.2 1060.5 902.1 1058.5 910.6 1054.6C914.7 1052.6 918.3 1054.1 914.8 1056.4C913.5 1057.2 913 1059.3 913.7 1061.6C914.8 1066.5 913.2 1068.8 907.7 1070.2C903.5 1071.2 903.1 1070.9 903.1 1066.1L903.2 1066.2Z" fill="#7C6752"/>
<path d="M429.3 981.5C417.4 979.1 408.1 976.1 406.3 974.2C405.2 973.2 402.2 970.4 399.6 968.3C395.2 964.5 394.7 962.9 393.7 951.2C393 944.2 393.2 937.3 394 936.2C395 934.6 400.2 936.5 416.5 944.7L437.7 955.3L446.5 953.2C453.7 951.6 481.7 938.2 494 930.4C495.5 929.6 497.1 929.1 497.4 929.4C498.5 930.7 499.7 965 498.7 966.4C497.6 967.9 492.8 970.6 483.4 975.2C479.6 977 475.2 979.3 473.8 980.1C469.9 982.1 437.1 983.4 429.3 981.6V981.5Z" fill="#7C6752"/>
<path d="M1321.6 977.4C1308.7 973.3 1304.6 970.4 1304.6 965.2C1304.6 960.1 1304.6 960.1 1318.5 957.9C1322.1 957.2 1328.3 956.1 1332.4 955.3C1336.5 954.5 1349.7 952.7 1361.8 951.4C1373.9 950.1 1387.3 948.6 1391.7 948C1399.4 946.9 1399.4 946.9 1399.4 951.8C1399.4 955.9 1397.8 957.7 1386 965.3C1372.3 974.3 1369.7 975.3 1352.7 978.2C1340.3 980.5 1330.2 980.3 1321.7 977.5L1321.6 977.4Z" fill="#7C6752"/>
<path d="M141.3 828.1C141.3 825 143.1 823.9 145.1 825.8C146.4 827.1 144.6 831.3 142.8 831.3C142 831.3 141.3 829.8 141.3 828V828.1Z" fill="#7C6752"/>
<path d="M1741.1 825L1729.7 819.1V811.8V804.5L1736.6 804.7C1740.4 804.7 1749.7 805.7 1757 806.8C1770.5 808.9 1791.1 808.8 1796 806.3C1799.8 804.7 1801.2 809.4 1799.1 815.8C1797.1 821.5 1791.4 824.6 1774.3 828.9C1759.3 832.5 1754.2 832 1741.2 825.1L1741.1 825Z" fill="#7C6752"/>
<path d="M1532.4 598.6C1530.4 596.6 1531.4 593.2 1533.9 593.2C1535.2 593.2 1536.3 594.2 1536.3 595.5C1536.3 598.3 1534 600.1 1532.4 598.6V598.6Z" fill="#7C6752"/>
<path d="M1592.6 588.4C1591.3 586 1593.1 583.3 1596 583.3C1597.5 583.3 1598.3 584.4 1598 586.1C1597.3 589.4 1594.1 590.7 1592.6 588.4Z" fill="#7C6752"/>
<path d="M1522.4 576.9C1521.7 575.9 1522.2 574.1 1523.2 572.7C1525.5 570.1 1529.7 572.4 1529.7 576.3C1529.7 578.9 1523.8 579.4 1522.4 577V576.9Z" fill="#7C6752"/>
<path d="M1562.4 572.8C1562.4 571.5 1563.5 570.4 1564.8 570.4C1566.1 570.4 1567.2 571.5 1567.2 572.8C1567.2 574.1 1566.1 575.2 1564.8 575.2C1563.5 575.2 1562.4 574.1 1562.4 572.8Z" fill="#7C6752"/>
<path d="M1509.5 564.3C1507.7 562.5 1508.5 560.5 1511 560.5C1512.3 560.5 1513.4 561.2 1513.4 562C1513.4 564.1 1510.8 565.6 1509.5 564.3Z" fill="#7C6752"/>
<path d="M1608.6 561.2C1607.3 557.6 1609.4 556.3 1612.4 559.2C1614.7 561.5 1614.7 561.8 1612.2 562.6C1610.7 563.3 1609.3 562.8 1608.6 561.1V561.2Z" fill="#7C6752"/>
<path d="M1529.8 552.4C1529.8 550.6 1530.9 549.1 1532.2 549.1C1533.5 549.1 1534.6 550.6 1534.6 552.4C1534.6 554.2 1533.5 555.7 1532.2 555.7C1530.9 555.7 1529.8 554.2 1529.8 552.4Z" fill="#7C6752"/>
<path d="M1562.7 541.6C1563.4 538.2 1566.3 537.8 1566.9 541.4C1567.2 543 1566.4 544.2 1564.8 544.2C1563.2 544.2 1562.4 543.2 1562.7 541.6Z" fill="#7C6752"/>
<path d="M1594.5 543.1C1592.5 541.3 1593.2 539.3 1595.8 539.3C1597.1 539.3 1598.2 540.4 1598.2 541.7C1598.2 544.3 1596.2 545 1594.4 543L1594.5 543.1Z" fill="#7C6752"/>
<path d="M910.6 532.6C899.7 531.1 892 527.7 886.3 521.7C881.9 517 881.7 516.3 882.9 506C883.9 496 884.4 495.2 887.8 495.2C889.9 495.2 893.7 496 896.3 497C898.7 498 914.7 499 931.9 499.3L962.9 500L963.4 506C964.1 513.7 962.4 523 960.5 523C959.7 523 957.1 524.8 954.6 527.1C946.9 534.3 934.2 535.7 910.7 532.6H910.6Z" fill="#7C6752"/>
<path d="M1377.5 448.3C1378.5 447.6 1373.3 447.3 1366.1 447.5C1348.2 448 1335.1 445.7 1324.7 440.3L1315.9 435.7L1316.2 423.1L1316.5 410.5L1320.6 412.1C1326 414.2 1359.6 417.6 1373.1 417.6C1382.7 417.4 1395.9 415.3 1402.6 412.7C1404.7 411.9 1405.4 412.9 1405.9 417.1C1406.9 424.9 1405.7 433.1 1403.9 433.1C1403.1 433.1 1400.1 435.2 1397.7 437.8C1393.1 442.5 1393 442.7 1396.4 443.3C1400 444 1400 444 1396.4 444.3C1394.3 444.3 1392.6 445.3 1392.6 446.3C1392.6 447.4 1390.3 447.9 1386.9 447.4C1383.8 447.1 1381.2 447.4 1381.2 448.1C1381.2 448.8 1379.9 449.4 1378.4 449.4C1376.4 449.4 1376.1 448.9 1377.4 448.1L1377.5 448.3Z" fill="#7C6752"/>
<path d="M1533.4 212.5C1529.5 193.6 1529.5 193.2 1531.8 193.6C1534.4 194.1 1549.4 187.2 1549.4 185.6C1549.4 184.3 1561.6 178.4 1566.2 177.6C1567.8 177.4 1570.9 175.8 1573.4 174.3C1575.7 172.7 1579.1 171.2 1580.9 171C1582.7 170.7 1585 169.5 1586 168.2C1589.4 164 1593.3 164 1597.9 168.4C1600.5 170.7 1605.2 174.4 1608.8 176.6C1612.2 178.9 1614.3 181.2 1613.7 182C1611.4 184 1551.2 214.5 1542.7 217.9L1535.2 221L1533.4 212.5V212.5Z" fill="#7C6752"/>
<path d="M846.1 1298.4C846.1 1297.7 844.1 1296.9 841.7 1296.8C839.3 1296.6 836.8 1295.7 836.2 1294.7C835.7 1293.7 834.9 1293.1 834.6 1293.4C832.8 1294.4 826.6 1291.1 826.6 1289.2C826.6 1287.2 827.4 1287.2 831.2 1288.7C833.6 1289.8 836.4 1291.3 837.6 1292.1C840.9 1294.4 888.5 1295.5 896.3 1293.4L903 1291.6L901.2 1285.6C899.7 1281 899.7 1279.6 901.4 1278.9C902.5 1278.6 903.4 1277.3 903.4 1276C903.4 1274.7 904.2 1273.7 905.2 1273.7C906 1273.7 906.5 1274.4 906 1275.2C905.3 1276 906 1277.2 907 1277.6C908.6 1278.1 908.3 1279.1 906.3 1280.7C904.7 1282 903.4 1283.5 903.4 1284.1C903.4 1284.6 904.7 1285.1 906.3 1285.1C907.8 1285.1 908.4 1285.8 907.4 1286.4C906.6 1287.1 904.5 1289.8 903 1292.4C900.9 1296.2 899.2 1297.1 896 1296.8C893.7 1296.5 891.9 1297.1 891.9 1298.3C891.9 1300.1 877.5 1299.6 859.8 1297.2C855.2 1296.5 852.8 1296.9 852.8 1298C852.8 1299 851.3 1299.8 849.5 1299.8C847.7 1299.8 846.2 1299.1 846.2 1298.5L846.1 1298.4Z" fill="#866F57"/>
<path d="M905.4 1251.2C903 1250.4 902.6 1227.7 904.4 1182.7C905.2 1159.9 905.9 1154.5 907.7 1154.5C909.7 1154.5 910 1161.7 909.7 1200.7C909.5 1226 908.9 1247.9 908.4 1249.3C907.9 1250.8 906.4 1251.6 905.5 1251.3L905.4 1251.2Z" fill="#866F57"/>
<path d="M904.9 1144.7C904.9 1143.9 906 1143.1 907.3 1143.1C908.6 1143.1 909.7 1143.9 909.7 1144.7C909.7 1145.7 908.6 1146.3 907.3 1146.3C906 1146.3 904.9 1145.6 904.9 1144.7Z" fill="#866F57"/>
<path d="M908.6 1104.4C905.3 1103.3 905.7 1082.7 908.9 1082.7C910.9 1082.7 911.3 1085 911.3 1094.1C911.3 1100.5 911.1 1105.5 911 1105.4C910.7 1105.4 909.5 1104.9 908.6 1104.4V1104.4Z" fill="#866F57"/>
<path d="M903.2 1069.6C903.2 1068.8 905.2 1068 907.8 1068.1C911.7 1068.1 911.9 1068.3 908.9 1069.6C904.5 1071.6 903.2 1071.6 903.2 1069.6V1069.6Z" fill="#866F57"/>
<path d="M1363.7 1046.1C1363.9 1044.5 1365 1043.3 1365.8 1043.3C1368.2 1043.5 1367.8 1047.2 1365.3 1048C1363.8 1048.5 1363.2 1047.7 1363.7 1046V1046.1Z" fill="#866F57"/>
<path d="M429.3 981.5C414.3 978.4 407.8 975.8 402.4 970.6C399.3 967.7 396.2 965.2 395.5 965.2C394.7 965.2 394.2 963.9 394.2 962.3C394.2 960 395.8 960.8 401.5 966.4C405.6 970.2 410.8 973.7 413.2 974.4C415.8 974.9 419.6 976.2 421.7 977.2C424.1 978.5 433.9 979.2 447.8 979C469 979 470.5 978.7 480.8 973.9C486.8 971.1 492.1 968 492.7 967C494 964.9 498.6 964.6 498.6 966.7C498.6 967.5 497.3 968.5 495.8 969C494.2 969.5 490.3 971.4 487.2 973.2C474.5 980.4 470.2 981.5 453.1 982.2C443.6 982.7 432.9 982.4 429.3 981.5V981.5Z" fill="#866F57"/>
<path d="M1321.6 977.4C1312.5 974.5 1304.6 970.4 1304.6 968.3C1304.6 967.3 1306.6 968 1309.2 969.8C1316.2 974.9 1332.7 978.9 1341.7 977.6C1367.6 974.3 1370.4 973.5 1386.1 962.9C1390.8 959.6 1395.6 957 1396.5 957C1400.4 957 1370.2 974.9 1365 975.8C1361.9 976.3 1355.7 977.4 1351.5 978.2C1341.1 980.3 1330 980 1321.6 977.4V977.4Z" fill="#866F57"/>
<path d="M1755.6 879.2C1753 876.6 1748.7 874.5 1746.1 874.3C1743.7 874.1 1739.6 872 1737.3 869.7C1733.7 866.1 1733.4 865.1 1735.3 863.8C1736.6 863 1739.4 862.7 1741.5 863.1C1743.9 863.8 1745.1 863.3 1745.1 861.6C1745.1 858 1749.3 855.1 1750.5 858C1751.5 860.4 1758.2 859.8 1758.2 857.2C1758.2 856.4 1759.3 856.2 1760.6 856.7C1761.9 857.4 1763 858.7 1763 859.8C1763 862.6 1767.1 864 1769.2 861.9C1771.2 859.9 1774.9 861.7 1773.6 864C1772.9 864.8 1773.9 865.5 1775.6 865.6C1777.9 865.6 1778 865.9 1776.1 866.6C1772.7 867.9 1771.2 870.7 1772.2 874.1C1772.7 875.6 1772.4 876.9 1771.7 876.9C1769.3 876.9 1766.5 873.3 1767.3 871.2C1767.8 870.1 1766.6 868.8 1764.9 868.3C1762 867.6 1761.8 868 1763.3 871.7C1764.9 875.9 1764.9 875.9 1761.7 872.8C1759.7 871.2 1758.3 870.7 1758.3 871.7C1758.3 872.7 1759 873.7 1759.8 874C1761.9 874.7 1763.9 883.5 1762.1 883.5C1761.1 883.5 1758.3 881.5 1755.7 879.1L1755.6 879.2Z" fill="#866F57"/>
<path d="M1776.6 881.3C1775.1 879.5 1775.8 878.2 1779.5 874.4C1784.6 869.7 1787.2 869.8 1784.4 874.9C1783.6 876.5 1782.4 879.1 1782 880.8C1781 884.1 1779.2 884.2 1776.6 881.3Z" fill="#866F57"/>
<path d="M1742.4 825.8C1736.9 823 1731.3 819.8 1730.2 818.5C1729.1 817.2 1731 817.8 1734.6 819.6C1745.7 825.5 1753.5 828.1 1759.7 828.1C1767 828.1 1786 824.2 1790.5 821.7C1792.3 820.7 1794.9 819.9 1796 819.9C1800.1 819.9 1784.9 826.1 1774.1 828.7C1759.4 832.3 1754.2 831.8 1742.3 825.8H1742.4Z" fill="#866F57"/>
<path d="M1750 806.9C1746.7 805.9 1746.6 805.6 1749.2 805.6C1751 805.6 1754.7 806.3 1757.4 806.9C1761.8 808 1761.8 808.2 1758.2 808.2C1755.9 808.2 1752.3 807.5 1750 806.9Z" fill="#866F57"/>
<path d="M910.6 532.6C899.8 531.1 892 527.7 886.9 522L882.8 517.4L889.3 522.3C898.3 529.2 906.6 531.1 925.8 531.1C942.8 531.1 950.9 529.1 955.2 524.1C956.3 522.5 958.6 521.3 960.1 521.5C961.9 521.5 962.1 521.8 960.6 522.5C959.5 523 956.5 525.1 954.2 527.2C946.7 534.1 933.8 535.7 910.5 532.6H910.6Z" fill="#866F57"/>
<path d="M1375.6 508.5C1375.1 506.7 1371.7 502.6 1368.3 499.5C1362.1 494 1359.8 488.7 1363.4 488.7C1364.4 488.7 1365 488 1365 487.2C1365 486.4 1362.2 486.1 1358.8 486.5C1354.6 487.2 1351.8 486.5 1350.2 484.9C1348.9 483.6 1346.1 482 1344.2 481.5C1342.2 480.8 1340.4 478.9 1340.4 477.1C1340.1 472.5 1339.9 471.9 1338.3 469.4C1336.3 466.3 1337.5 465.8 1344 467.3C1349.4 468.6 1354.9 466.2 1352.5 463.5C1351.8 463 1353.5 462.5 1355.9 462.5C1358.5 462.5 1360 461.8 1359.3 460.9C1358.8 460.1 1358.6 459.3 1359.1 459.3C1359.6 459.3 1360.7 460.9 1361.9 462.7C1363.4 465.5 1363.2 466 1361.4 465C1359.8 464 1359.6 464.2 1361.2 465.8C1362.8 467.6 1363.8 467.6 1366.3 465.3C1367.9 463.8 1370.4 462.5 1371.7 462.5C1373.7 462.5 1373.5 462.8 1371.5 464.1C1368.1 466.2 1370.5 466.1 1375.6 463.8C1380.2 461.7 1380.8 459.6 1377.2 458.3C1374.1 457 1373.9 450.1 1377 448.3C1378.3 447.6 1373.7 447.2 1366.9 447.3C1348.6 448 1334.4 445.3 1324 439.6C1313.1 433.6 1314.5 433.4 1327.9 439.1C1337.2 443.2 1339.8 443.5 1360 443.7C1385.9 443.7 1389.4 442.9 1396.9 435.5C1402.6 429.8 1405.7 428.3 1405.7 431.4C1405.7 432.4 1404.9 433 1404.1 433C1403.1 433 1400.2 435.1 1397.7 437.7L1393 442.6L1399.4 443.6C1404.8 444.6 1405.8 445.4 1405.8 448.7C1405.8 451.3 1404.8 452.6 1403 452.6C1398.9 452.8 1392.2 458.6 1393.2 461.4C1393.7 462.5 1393.4 464.3 1392.4 465.3C1391.6 466.1 1390.6 469.9 1390.4 473.5C1389.9 481.2 1387.1 485.2 1382.7 485.2C1378.9 485.2 1378.8 488 1382.2 491.9C1385.3 495.3 1386.1 505.3 1383.5 507.7C1382.4 508.7 1381.1 509 1380.6 508.5C1380.1 507.8 1379.6 508.3 1379.6 509.3C1379.6 512.4 1376.7 511.6 1375.5 508.2L1375.6 508.5Z" fill="#866F57"/>
<path d="M1316.7 491.2C1317.4 489.4 1318.3 485 1318.8 481.2C1319.8 473.2 1322.1 471.7 1329.1 474.2C1331.9 475.2 1335.1 475.5 1336.4 475C1337.9 474.5 1338.8 475 1338.8 476.3C1338.8 477.6 1336.7 479.4 1334.1 480.2C1329.5 481.8 1325.3 484.8 1318.8 491C1315.5 494.1 1315.5 494.1 1316.7 491.2Z" fill="#866F57"/>
<path d="M1322.2 462.7C1321.7 459.9 1322 457.3 1322.9 456.8C1323.6 456.3 1324.2 456.8 1324.2 457.8C1324.2 458.8 1325 459.1 1326 458.6C1327 457.9 1327.3 456.3 1326.8 455C1325.5 451.6 1329.1 448.6 1334.5 448.8C1338.7 449 1342 451.7 1342.2 455C1342.2 457.3 1336.8 456.1 1334.5 453.4C1332.4 450.8 1332.4 450.8 1333.8 454.1C1335.3 457 1334.9 458.2 1331.5 460.8C1329.2 462.6 1327.4 464.9 1327.4 465.9C1327.4 470.1 1322.8 467.4 1322.2 462.8V462.7Z" fill="#866F57"/>
<path d="M1573.2 200.3C1572.4 199 1585.4 191.8 1588.5 191.8C1592.4 191.8 1589.6 195.1 1583.1 198.2C1575.3 202 1574.3 202.3 1573.1 200.3H1573.2Z" fill="#866F57"/>
<path d="M1533.8 196.7C1532.8 195.1 1542.1 188.5 1545.5 188.5C1546.6 188.5 1548.1 187.5 1548.8 186.5C1550.4 183.7 1557.4 179.8 1557.4 181.6C1557.4 183.1 1548.4 190.1 1546.5 190.1C1545.8 190.1 1543.1 191.9 1540.5 194.2C1535.1 198.9 1535.1 198.8 1533.8 196.6V196.7Z" fill="#866F57"/>
<path d="M1569.9 191.5C1571 188.6 1581 182.5 1583.3 183.3C1586.4 184.3 1585.6 186.9 1582.3 186.9C1580.5 186.9 1577.9 188.4 1576.3 190.2C1573 193.8 1568.6 194.6 1569.9 191.5V191.5Z" fill="#866F57"/>
<path d="M1592.6 190.3C1592.1 189.3 1593.7 187.7 1596.2 186.2C1610.4 178.7 1611.5 178.2 1613.3 180C1614.4 181.1 1612.2 183.1 1605.1 186.7C1593.8 192.4 1593.8 192.4 1592.5 190.3H1592.6Z" fill="#866F57"/>
<path d="M630.8 1194.1C628.5 1193.8 624.3 1192.3 621.5 1191C618.6 1189.7 613.3 1187.6 609.8 1186.3C594 1180.8 576.7 1165.6 567.2 1148.6C562 1139.3 561.7 1138.3 561.7 1121C561.5 1104.7 561.9 1102.2 565.8 1094.7C574.3 1078.2 586.2 1066.5 602 1059C615.9 1052.5 628.9 1048.7 642.3 1047.4C653.7 1046.3 654.4 1046.4 651.6 1049C650.1 1050.6 648.5 1053.4 648 1055.4C646.4 1063.9 644.1 1088.4 643.1 1107.4C642.6 1118.8 641.5 1130.1 640.7 1132.4C639.7 1134.8 639.1 1149.9 639.1 1166C639.1 1188.4 638.6 1195.2 637.1 1195C636 1194.8 633.2 1194.3 630.9 1194L630.8 1194.1Z" fill="#67C06C"/>
<path d="M705 1183.8C704.5 1182.8 705.2 1181.7 706.6 1181.2C709.7 1179.9 711.5 1181.2 709.9 1183.6C708.6 1185.9 706.3 1185.9 705 1183.8V1183.8Z" fill="#67C06C"/>
<path d="M844.2 1059.2C835.1 1056.9 829.8 1056.1 829.8 1057.2C829.8 1058.2 829 1057.9 828.2 1056.5C827.4 1055.2 827.1 1052.7 827.5 1051.3C828 1049.3 827.5 1048.4 826 1048.4C824.7 1048.4 823.2 1047.3 822.6 1046C822.1 1044.7 820.6 1043.6 819.2 1043.6C817.7 1043.6 813.8 1040.8 810.4 1037.6C807.1 1034.2 798.8 1026.3 792.1 1020C785.4 1013.8 778.1 1006 775.9 1002.9C773.8 999.8 771.5 996.9 771 996.4C767.6 993.5 748.6 958.7 744.7 948.3C733 916.2 725.3 874.4 725.3 841.9C725.3 827.9 729.4 789.7 732 780.4C733 776.5 733.1 773.5 732.2 772.6C728.3 768.7 738.7 741.3 763 692.5C786.3 645.7 827.4 605 867.3 589.1C874 586.5 879.5 583.6 879.5 582.7C879.5 581.9 880.2 580.3 881 579.1C881.7 578 881.8 576.5 881.3 576C878.9 573.6 884.1 569 889.3 569C895.3 569 898.3 571.4 893.9 572.9C891.5 573.7 891.1 575.5 891.5 584.3C892 593.9 891.5 607.8 886.9 690.5C885.3 719.9 881.5 792.1 877.9 865.1C876.6 892 874.8 926.9 873.8 942.6C873 958.3 871.5 989.6 870.5 1011.9C869.5 1034.4 868.4 1053.7 868.1 1054.8C867.6 1055.8 865.8 1056.8 864 1056.8C858 1056.8 860.6 1060.1 866.9 1060.2C872.3 1060.4 872.4 1060.5 868.9 1061.7C862.7 1063.7 859.4 1063.3 844.1 1059.4L844.2 1059.2ZM852.7 1056.8C852.7 1056 851.6 1055 850.3 1054.4C848.8 1053.9 847.9 1054.4 847.9 1055.9C847.9 1057.2 849 1058.3 850.3 1058.3C851.6 1058.3 852.7 1057.6 852.7 1056.8ZM841.3 1054.2C841.3 1052.9 840.2 1051.8 838.9 1051.8C834.7 1051.8 836 1055.1 841 1056.5C841.2 1056.7 841.3 1055.5 841.3 1054.2V1054.2Z" fill="#67C06C"/>
<path d="M1251.6 960.3C1228.3 959 1208.4 956.1 1208.4 953.8C1208.4 953.1 1206.8 952 1204.8 951.5C1195.7 949.1 1190 940.6 1187.2 926C1185.4 916.9 1185.6 913.4 1187.9 901.5C1189.5 893.8 1191.8 885.2 1193.3 882.1C1194.6 879.2 1195.9 875.7 1196.1 874.8C1196.8 871 1209.2 846.1 1210.3 846.1C1211 846.1 1213.1 843.5 1215 840.4C1217 837.3 1219.6 834.7 1220.9 834.7C1222.4 834.7 1223 834 1222.5 833.2C1222 832.4 1222.7 831.4 1224 830.8C1225.3 830.3 1226.4 828.4 1226.4 826.6C1226.4 824.8 1227.2 823.3 1228.2 823.3C1229 823.3 1229.3 822.5 1228.9 821.7C1228.2 820.7 1226.5 820.4 1224.8 820.9C1220.4 822.4 1214 811.8 1212.4 800.5C1210.8 788.9 1211.3 779.5 1214.4 766.2C1218.8 746.3 1221.9 739.6 1228.6 733.2C1235 727.2 1236.6 726.3 1240.8 726.8C1241.8 727 1242.8 726 1242.8 724.5C1242.8 723.2 1243.9 722.1 1245.2 722.1C1248.1 722.1 1248.5 719.5 1245.9 717.9C1242.1 715.6 1237.9 703.2 1237.9 694.4C1237.9 680.2 1242.6 657.5 1247 651C1249.1 647.9 1250.9 644.8 1250.9 644C1250.9 643.3 1252.5 641.2 1254.7 639.3C1258.3 635.9 1258.5 635.2 1256.7 624C1253.9 605.2 1256 594.8 1268 570C1273.7 558.1 1279.6 545.5 1281.2 541.9C1282.8 538.3 1284.6 535 1285.1 534.6C1285.6 534.1 1286.9 532.6 1287.7 531.2C1291.8 524.5 1309.1 500.9 1312.5 497.3C1314.6 495.2 1316.3 491.4 1316.3 489C1316.3 482.6 1324.8 475.9 1332.9 475.9C1339.1 475.9 1341.2 478 1336.7 479.8C1333.8 480.8 1333.6 502.5 1335.4 581.6C1336.4 626.3 1336.5 629.2 1339.5 629.2C1341.6 629.2 1342.4 630.3 1342.4 633.4V637.8L1318.4 636.7C1305 636.2 1289.8 635.4 1284.5 634.9C1276.5 634.4 1277.2 634.6 1288.6 636.5C1296.3 637.6 1311.6 638.8 1322.9 638.8C1336.6 639 1342.5 639.6 1340.7 640.6C1338.3 642.1 1338.1 646 1338.6 675.2C1339.1 693.5 1339.6 712.1 1339.9 716.8C1340.2 723.8 1339.9 725.3 1337.3 725.9C1335.7 726.4 1334.4 727.7 1334.4 728.8C1334.4 730.4 1334.9 730.4 1336.4 729C1338.7 726.7 1345.9 726.4 1345.9 728.5C1345.9 729.3 1344.4 730.3 1342.6 730.8C1340.8 731.3 1339.3 732.4 1339.3 733.4C1339.3 734.4 1340.8 735.2 1342.6 735.2C1344.4 735.2 1345.9 736 1345.9 736.8C1345.9 737.8 1344.8 738.4 1343.3 738.4C1340.9 738.4 1340.7 740 1341.7 751.9C1342.2 759.2 1342.7 778.7 1342.8 795.1C1343 823.2 1343.1 824.8 1346.1 824.8C1348.2 824.8 1349.2 825.9 1349.2 828.7C1349.2 832.5 1348.5 832.6 1335.8 833.6C1296.8 836.4 1270.9 836.5 1257.5 834.1C1238.1 830.5 1228.6 829.5 1232.2 831.5C1235.5 833.5 1245.6 835.4 1267.6 838.2C1286 840.6 1320 840.5 1333.8 837.7C1339.5 836.6 1345.1 836.2 1346.9 837C1349.8 838.3 1349.8 838.5 1346.4 839C1343.5 839.7 1343 840.5 1343.6 844.9C1343.9 847.8 1344.6 869.2 1345.1 892.5C1345.4 915.8 1346.2 938.3 1346.9 942.4C1347.9 949.9 1347.9 950.1 1343.6 949.3C1340.3 948.6 1339.4 949.1 1339.4 951.3C1339.4 953.3 1340.2 953.7 1342 953.1C1343.5 952.6 1345.9 952.1 1347.5 952.1C1349.1 952.1 1350.9 950.8 1351.3 949.3C1351.8 947.3 1352.1 948 1352.3 950.8C1352.5 954.7 1351.8 955.2 1344 956.2C1339.3 956.7 1331.8 957.8 1327.2 958.6C1315 960.7 1277.9 961.5 1252.1 960.2L1251.6 960.3ZM1330.7 951.7C1332.3 951 1332 950.7 1329.6 950.7C1327 950.5 1325.8 951.5 1325.8 953.5C1325.8 955.1 1326.3 955.6 1327.1 954.5C1327.8 953.5 1329.4 952.2 1330.7 951.7ZM1315.2 828.2C1311.8 826.9 1309.5 827.5 1309.5 829.7C1309.5 830.5 1311.5 830.7 1313.9 830.2C1317.8 829.4 1318 829.2 1315.2 828.2ZM1317.3 735.7C1311.1 735.4 1301.3 735.4 1295.3 735.7C1289.1 736 1294.2 736.2 1306.2 736.2C1318.3 736.2 1323.3 736 1317.3 735.7Z" fill="#67C06C"/>
<path d="M412.6 950.2C395.1 941.4 392.7 939.8 393.5 936.7C394.2 934.1 393.2 932.8 389.7 931C387.3 929.7 377.1 923.8 367.2 917.9C346.8 905.5 328.9 895.2 315.8 888C310.9 885.4 304.2 881.5 301.1 879.4C298 877.3 294.6 875.5 293.6 875.5C292.5 875.5 291.3 875 291 874.4C290.7 873.6 287.2 871.3 283.2 869.2C275.2 865 243.7 844.6 242.4 842.8C241.9 842.3 237.3 839.4 232.3 836.6C227.2 833.7 222.2 830.2 221.2 829.1C220.1 827.8 218.1 826.7 216.6 826.7C214.6 826.7 214.3 824.9 215.3 815.8C216 809.6 216.4 803.1 216.4 801.1C216.2 799 217.2 797.3 218.4 797.3C219.5 797.3 223 795 226.1 792.1C232.5 786.4 254 772.8 256.9 772.8C257.9 772.8 258.7 772.1 258.7 771.5C258.7 770.7 261.3 768.7 264.7 766.9C268 765.3 276.4 760.4 283.6 756.1C290.8 751.9 297.5 748.8 298.4 749.4C299.4 749.9 305.4 753.5 311.6 757.2C334.9 771.2 351.6 780.9 352.4 780.9C352.9 780.9 356 782.7 359.4 784.8C362.7 786.9 369.5 790.8 374.4 793.4C379.3 796.2 389.6 801.9 397.2 806.1C433.4 826.7 438.5 828.6 447.3 826.2C458.4 823.3 487.1 808.1 542.4 775.8C554.5 768.8 568.2 761.8 572.6 760.3C582.1 757 586.1 754.8 595.9 746.9C606 738.9 611.7 740 641.1 756.4C646.5 759.3 656.3 765.4 662.8 769.6C669.3 773.8 676.2 777.9 678 778.4C679.6 779.1 681.1 780.2 681.1 781C681.1 781.8 682.1 782.5 683.2 782.5C685.3 782.5 692 787.2 697.9 792.8C699.5 794.4 700.5 796.9 700 798.2C699.5 799.5 699.8 800.5 700.5 800.5C702.8 800.5 704.1 805.7 702.3 807.8C701.5 808.8 692 814 681.6 819.4C671 824.6 662 829.4 661.5 830C661 830.5 655.6 834.1 649.3 838C639.2 844.2 617.5 857.9 608.5 863.8C606.7 864.8 604.1 866.2 602.8 866.9C601.5 867.6 594 872 586.2 876.7C578.5 881.4 571.4 885.3 570.4 885.3C569.4 885.3 568.6 886 568.6 886.8C568.6 887.6 566.5 888.9 564 889.9C561.4 890.7 558.3 892.5 557 893.7C555.7 895 552.4 897.1 549.8 898.6C534.6 906.6 530.2 909.2 529.7 910.3C529.4 911 528.1 911.4 526.9 911.4C525.8 911.4 524.5 911.9 524.1 912.7C523.9 913.4 521 915.1 517.9 916.6C503.9 923.6 499.1 927.2 498.3 931.6C497.6 935.5 494.7 937.6 478.7 946.1C460.4 955.7 447 960.3 437.1 960.1C434.5 960.1 423.2 955.5 412.3 950.1L412.6 950.2Z" fill="#67C06C"/>
<path d="M73.6001 890.1C66.4001 888.3 57.9001 886 54.8001 884.9C47.6001 882.1 27.6001 870.2 22.0001 865.3C14.0001 858.1 4.5001 843.6 1.9001 834.3C-0.499902 825.5 -0.499902 824 1.9001 814.7C8.9001 787.1 39.8001 767.4 79.1001 764.9C93.8001 763.9 94.4001 764.1 93.1001 767C91.0001 771.4 88.9001 846.1 90.0001 871.7C90.8001 889.3 90.7001 893.2 88.9001 893.1C87.6001 892.9 80.7001 891.6 73.6001 890V890.1Z" fill="#67C06C"/>
<path d="M193.6 854.4C191 852.8 192.6 849.3 196 849.3C198.6 849.3 198.9 850.8 197 853.7C196.3 854.8 194.9 855.2 193.6 854.4V854.4Z" fill="#67C06C"/>
<path d="M197.4 846.4C194.8 844.8 196.6 831.4 199.4 831.4C201 831.4 201.7 833.4 201.7 837.6C201.7 844.5 199.9 848 197.5 846.4H197.4Z" fill="#67C06C"/>
<path d="M1732.4 809C1729.6 808.5 1729 807.5 1729.6 805.2C1730.4 802.8 1729.6 801.8 1726 801.1C1712.8 798.2 1694.5 789.2 1682.9 780.1L1673.8 772.9L1672.7 752C1669.1 687.2 1676.1 619.4 1695.2 534.3C1697.5 524.2 1698.8 519 1706.1 491.9C1710.2 477.2 1721.6 442.5 1724.9 435.3C1726.2 432.5 1727.2 429.3 1727.2 428C1727.2 426.7 1727.9 425.1 1728.5 424.1C1729.3 423.3 1732.4 416.4 1735.4 408.8C1738.3 401.1 1741.9 393.1 1743.4 390.9C1744.9 388.6 1748 382.9 1750.1 378.3C1752.4 373.6 1754.7 369.7 1755.5 369.7C1756.2 369.7 1756.6 368.7 1756.6 367.4C1756.6 366.1 1757.6 364 1758.7 362.8C1759.7 361.7 1763.8 356.4 1767.5 351.4C1773.4 343.6 1786.6 332.1 1789.9 332.1C1790.4 332.1 1790.1 333.7 1789.2 335.9C1787.2 340.6 1783 382.6 1776.8 458.6C1775.5 475.7 1773.7 497.8 1772.9 507.5C1772.1 517.5 1770.3 540.5 1768.8 558.9C1766 595.9 1762.4 640.8 1759.8 670.7C1753.9 738.2 1750.7 794.7 1752.3 801.2C1753 803.5 1754.4 805.3 1755.7 805.3C1757 805.3 1758.1 806.4 1758.1 807.7C1758.1 809.7 1755.8 810.1 1747.2 810C1741 809.8 1734.5 809.3 1732.4 809V809Z" fill="#67C06C"/>
<path d="M439 727.1C432.8 723.7 421.1 717.3 412.9 712.7C404.9 708.1 394.6 702.4 390.1 700C376.2 692.2 372.5 690 363.5 684.7C358.8 681.9 354.7 679.6 354.4 679.6C354.1 679.6 345.9 674.9 336.3 669C326.7 663.1 318.4 658.4 317.9 658.4C317.2 658.4 313.8 656.1 310.4 653.5C306.8 650.7 302.9 648.6 301.8 648.6C300.7 648.6 299.7 648.1 299.7 647.5C299.7 646.7 297.4 644.7 294.8 642.9C289.4 639.3 287.8 630.7 292.5 630.7C293.8 630.7 294.6 630 294 629.2C292.9 627.1 305.1 617.9 326.3 605.2C335.9 599.3 343.8 593.8 343.8 593C343.8 592 345.8 592.7 348.4 594.5C350.8 596.3 357.2 600 362.6 603C380.4 612.5 390.2 618.2 396.9 622.3C406.7 628.5 439 646.4 452.2 653.1C468 660.9 473.9 660.9 491 652.3C498.5 648.5 506.8 644.1 509.4 642.7C527 632.6 550.8 618.4 554.6 615.9C559.5 612.5 569 606.9 576.1 603.3C580.5 601 581.3 601 585.9 603.8C588.7 605.4 593.1 607.9 595.9 609.2C598.5 610.7 606.3 615.2 613 619.3C619.7 623.4 626.5 627.3 628.2 627.9C630 628.6 631 630.7 631 633.8C631 638 629.5 639.7 622.5 644.6C617.8 647.7 613 650.3 611.9 650.3C610.8 650.3 609.8 651.1 609.8 651.9C609.8 652.9 608.3 653.5 606.5 653.5C601.9 653.5 590.2 659.5 589 662.5C588.5 663.8 587 664.9 585.9 664.9C583 664.9 575.1 669.8 573.3 672.6C572.6 673.7 571 674.7 569.7 674.7C568.4 674.7 563.8 676.8 559.6 679.3C552.3 683.7 522.1 701.3 511 707.7C508.4 709.3 501.7 712.9 496.3 715.7C490.9 718.5 484.7 722.1 482.4 723.5C476.5 727.6 459.9 733.5 455 733.3C452.6 733.3 445.5 730.5 439.2 727.1H439Z" fill="#67C06C"/>
<path d="M1511.8 606.9C1508.7 605.8 1504.8 604.8 1503.2 604.8C1501.6 604.6 1497.5 603.2 1494.1 601.5C1484.1 596.3 1481.9 588.8 1482.5 563C1482.8 549.9 1489.7 537.7 1496.7 537.7C1497.8 537.7 1498.8 537.2 1498.8 536.4C1498.8 534.6 1510.9 531.2 1517.2 531.2C1520.1 531.2 1524.1 532.3 1526 533.6C1529.6 536 1529.8 535.9 1532.2 530C1535.5 522.2 1538.9 518.4 1546.7 514.5C1551.9 511.9 1552.9 511.7 1552.1 513.8C1550.8 517.2 1550.6 599.5 1551.8 603.9C1552.8 607 1552 607.5 1544.1 608.3C1531.2 609.9 1518.2 609.3 1511.8 606.8V606.9Z" fill="#67C06C"/>
<path d="M475.8 600.9C469.9 597.8 462.6 593.9 459.5 592.1C456.4 590.3 447.9 585.7 440.7 581.8C433.5 578 423.2 572.5 417.9 569.6C403.4 561.8 388.2 553.6 377.4 547.9C372.2 545.1 363.9 541.9 359 540.7C351.2 538.9 350.2 538.1 350.8 535.3C351.3 533.5 351.8 526.8 351.8 520.3V508.6L370.2 497.3C394.5 482.3 395 482.3 388.3 493.4C385.2 498.5 382.8 504.2 382.8 506.3C382.8 511.7 385.7 513 427.7 527.2C437.7 530.6 447.9 534.4 450.9 535.5C453.7 536.8 456.6 537.8 457.4 537.8C458.4 537.8 461.2 538.8 463.8 540.1C474.2 545.3 493.5 542.7 523.2 532.1C529.9 529.7 537.7 527 540.3 526.1C543.1 525.1 548.1 523 551.9 521.4C555.5 519.6 559.2 518.3 560.1 518.3C561.1 518.3 564.3 515.7 567.4 512.4C575.6 503.8 577.5 503.1 582.1 507.3C584.2 509.3 586.2 510.7 586.3 510.4C587.3 509.6 596.6 515.1 596.6 516.6C596.6 517.6 597.6 518.2 598.9 518.2C600.4 518.2 601.5 521.1 602.2 526.4C602.9 531 603.7 535.5 604.2 536.7C604.7 538 600.9 541.1 594.7 544.7C589 547.8 566.5 561 544.4 573.7C522.4 586.6 501.8 598.5 498.7 600.1C495.6 601.9 492.3 604 491.5 604.8C488.9 607.1 486.9 606.6 475.8 600.9V600.9Z" fill="#67C06C"/>
<path d="M477.4 539.8C477.4 539 483.1 537.2 490.1 535.4C497 533.8 505.6 531.5 509.2 530.3C520.9 526.2 541.7 518.6 547.9 515.8C551.3 514.3 554.6 513.2 555.2 513.2C555.9 513.2 559.4 510.1 563.2 506.5C567.8 502.1 571 500 572.7 500.6C574.8 501.4 573.8 503 568.5 507.9C560.7 514.9 552.8 519 534.6 525.4C497.4 538.5 477.5 543.5 477.5 539.8H477.4Z" fill="#67C06C"/>
<path d="M889 501.5C885.6 500.4 883.6 498.7 883.6 496.9C883.6 494.9 881.3 493.5 875.9 492C871.5 490.9 867.4 489.4 866.4 488.7C865.6 488 863 486.9 860.9 486.3C845.7 481.7 812.4 456.3 801.2 440.6C798.6 437 795.7 433.4 794.8 432.4C792 430 781.4 407.4 777.5 396.5C764.8 359.3 768 316.1 786.3 280.7C789.6 274.5 792.2 268.5 792.2 267.3C792.2 266.2 792.7 265.2 793.5 265.2C794.2 265.2 796.4 262.4 798.7 259.2C808.3 244.8 829 224.3 844.4 213.8C866.3 199 904.3 184.9 920.8 185.4C924.1 185.6 925.5 185.9 924.1 186.4C922.5 186.7 920.5 189.7 919.7 193.1C916.3 206 914.6 262.4 914.6 370C914.6 482.9 915.3 497.8 920.5 499.7C921.8 500.2 922.8 501.2 922.8 502C922.8 504 895.6 503.5 889 501.5V501.5Z" fill="#67C06C"/>
<path d="M1356.7 422.7C1356.2 422.4 1348.2 421.2 1338.8 420.4C1321 418.8 1315.6 417.5 1316.9 415.5C1318 413.4 1312.8 407.2 1309.9 407.2C1308.4 407 1304.2 405.7 1300.6 403.9C1297 402.1 1293.1 400.8 1292 400.6C1289.4 400.6 1259.9 381.3 1252.5 374.8C1249.4 372 1246.1 369.1 1245.2 368.3C1243.4 366.7 1230.5 351.8 1224.2 344.2C1221.9 341.3 1220 338.2 1220 337.2C1220 336.2 1219.3 335.4 1218.4 335.4C1217.6 335.4 1216.8 334.6 1216.8 333.8C1216.8 332.8 1215 329.2 1212.7 325.6C1210.4 322 1208.6 318.4 1208.6 317.4C1208.6 316.4 1206.5 310.9 1203.7 305.2C1201.1 299.5 1198.8 293.1 1198.8 291.3C1198.8 289.3 1198.1 286.4 1197.2 284.8C1193.8 278.4 1191.7 241.9 1193.8 224.3C1195.8 206 1206 173.2 1212.9 162.1C1215 158.7 1216.8 155.2 1216.8 154.4C1216.8 153.6 1217.3 152.6 1218.1 152.3C1218.8 152 1221.2 148.9 1223.6 145.3C1225.9 141.7 1229.1 137 1230.9 135C1235.3 129.1 1256.5 108.6 1257.8 108.6C1259.1 108.6 1263.8 105 1268.7 100.4C1270.2 99.0998 1278.3 94.4998 1286.8 90.2998C1301.8 83.0998 1309.6 79.9997 1323.5 76.0997C1330.8 73.9997 1353 71.4998 1357.1 72.2998C1359.2 72.5998 1359.9 85.6997 1361.7 185.7C1364.8 354.7 1366.3 414.8 1367.6 416.7C1368.1 417.7 1369.4 418.2 1370.2 417.7C1371 417 1371.7 417.7 1371.7 419C1371.7 420.3 1370.6 421.9 1369.1 422.4C1366.2 423.5 1357.8 423.7 1356.9 422.6L1356.7 422.7ZM1352 415.5C1352 413.7 1347.8 411.9 1346.5 413.2C1344.5 415.2 1345.7 417 1348.8 417C1350.6 417 1352.1 416.3 1352.1 415.5H1352Z" fill="#67C06C"/>
<path d="M1461.6 380.7C1462.1 379.6 1463.7 378.3 1465.2 378.1C1467.2 377.6 1468 378.3 1467.5 379.7C1467 380.8 1465.4 382.1 1463.9 382.3C1461.9 382.8 1461.1 382.1 1461.6 380.7Z" fill="#67C06C"/>
<path d="M1089.7 378.3C1086.8 377.2 1087.1 374.5 1090 374.5C1091.3 374.5 1092.4 375.6 1092.4 376.9C1092.4 378.2 1092.2 379.3 1092.1 379.2C1091.8 379.2 1090.6 378.7 1089.7 378.2V378.3Z" fill="#67C06C"/>
<path d="M1470.2 374.5C1469.7 373.5 1470.4 372.4 1471.8 371.9C1474.9 370.6 1476.7 371.9 1475.1 374.3C1473.8 376.6 1471.5 376.6 1470.2 374.5V374.5Z" fill="#67C06C"/>
<path d="M1092.5 366.4C1091.2 365.6 1090.7 364.4 1091.4 363.8C1092.1 363.1 1093.5 363.5 1094.5 364.5C1096.9 366.9 1095.6 368.4 1092.5 366.5V366.4Z" fill="#67C06C"/>
<path d="M1741.2 128.3C1740.7 127.5 1741.4 126 1742.7 124.9C1744.7 123.3 1745.1 123.3 1745.1 125.4C1745.1 128.5 1742.5 130.5 1741.2 128.3Z" fill="#67C06C"/>
<path d="M1651.5 15.7999C1658.4 11.6999 1663.6 10.0998 1663.6 12.1998C1663.6 13.1998 1662.3 13.9998 1660.5 13.9998C1658.9 13.9998 1656.6 15.0999 1655.4 16.3999C1654.3 17.6999 1651.8 18.7999 1649.9 18.7999C1647 18.7999 1647.1 18.2998 1651.5 15.6998V15.7999Z" fill="#67C06C"/>
</svg>
