<svg width="1886" height="1302" viewBox="0 0 1886 1302" fill="none" xmlns="http://www.w3.org/2000/svg">
<path d="M641.8 1195.7L634 1195V1163.7C634 1146.4 634.8 1129.8 635.6 1126.7C636.6 1123.6 638 1108.1 639 1092.4C640 1076.7 641.1 1060.3 641.8 1055.7L642.9 1047.5L652 1047C660.5 1046.5 668.5 1047.7 686.9 1051.6C707.8 1056 728.5 1070.9 740.7 1089.8C755.9 1113.5 751.5 1146.9 730.6 1168.1C723.7 1175.1 706.3 1187 702.9 1187C702.1 1187 698.5 1188.5 694.9 1190.1C691.5 1191.7 682 1194 673.9 1195C659.4 1196.8 657.1 1196.8 641.8 1195.7Z" fill="#3B753E"/>
<path d="M867.3 1063.6C852.5 1061.5 852.6 1061.5 852.6 1057.4C852.6 1054 853.4 1053.3 857.2 1053.3H861.9L863 1013.8C864.1 974 865.8 938.9 868.9 891.8C870.9 863.4 874.6 795.7 876.9 749C878.7 715.9 881.1 676.4 883.6 640.3C884.6 628.2 885.2 607.2 885.2 593.5V568.7L889.3 567.7C891.6 567.2 899.1 567 905.9 567.4C919.3 568.1 929.4 571.6 937.7 578.8C940.1 580.9 945.2 585.2 949 588.3C963 599.9 963.5 600.5 963.5 607.4C963.5 611.3 964.5 614.9 965.9 616C967.4 617.1 968.2 618.9 967.9 619.9C967.6 620.9 970.5 625.3 974.3 629.7C978.2 633.9 981 638.2 980.5 639C980 639.8 981 640.5 982.5 640.5C984.1 640.5 984.9 641 984.5 641.5C983.8 642 984.7 643.8 986.1 645.3C991.6 651.2 994.6 655.4 994.6 657.4C994.6 658.5 996.6 662.3 998.8 665.7C1001.2 669.1 1002.1 671.6 1000.9 670.9C999.4 670.1 999.6 670.6 1001.1 671.9C1002.6 673 1005.3 677.3 1007.3 681.4C1009.4 685.5 1013.2 692.8 1015.8 697.7C1018.4 702.6 1020.5 709 1020.7 711.6C1020.7 716.7 1025.1 730.9 1028 735.3C1033.2 743.3 1037.8 759.8 1034 757.5C1033 757 1032.5 757.5 1032.7 758.5C1033 759.6 1033.7 763.6 1034.3 767.1C1035 770.7 1036.6 778 1037.7 783.4C1043.7 809.8 1041.9 875.4 1034.6 904.1C1029.9 921.9 1030.2 921.1 1013.4 955.5C1002.3 978.3 988.1 1001.7 980.9 1008.7C978.9 1010.7 975.4 1014.4 973.1 1017C967.9 1022.9 945 1040.3 942.4 1040.3C941.4 1040.3 940.6 1041.1 940.6 1041.9C940.6 1042.9 939.9 1043.5 939 1043.5C936.1 1043.5 918.6 1052.3 915.7 1055.2C914.1 1057 913.1 1059.3 913.4 1060.4C914.5 1063.3 904.6 1065.5 903 1062.8C902.2 1061.3 899.2 1061.3 891.4 1062.8C881 1064.6 875.2 1064.8 867.3 1063.5V1063.6Z" fill="#3B753E"/>
<path d="M1342.1 948.7C1340.8 943 1339.8 921.3 1339.3 888.2L1338.5 836.3H1344.2C1352 836.3 1360 834.5 1360 832.9C1360 832.1 1355.6 831.4 1350.2 831.4C1341.1 831.4 1340.2 831.1 1338.8 827.2C1337.8 824.9 1337.2 810.4 1337.2 795.1C1337.2 779.6 1336.7 759.9 1336.1 751.2C1335.1 735.9 1335 735.2 1331.2 735.2C1327.9 735.2 1327.4 734.4 1327.4 729.5C1327.4 724.8 1328.1 723.8 1331 723.8H1334.4L1333.4 680.7L1332.4 637.5L1336 636.8L1339.6 636.1L1336 635.8C1333.6 635.6 1331.9 634.3 1331.4 632C1330.9 629.9 1330.4 593.8 1330.1 551.6L1329.8 474.9L1336.2 474.4C1342.4 473.9 1350.7 476.4 1354.6 479.8C1355.6 480.6 1358.8 483.2 1361.9 485.5C1372.7 493.5 1386 508.7 1386 512.9C1386 514 1388.6 518.9 1391.7 523.8C1400.5 537.7 1405.9 552 1406.4 562.6C1406.9 571.4 1411.1 583.3 1413.9 583.3C1414.6 583.3 1416.3 588.8 1418 595.7C1420.3 605.3 1420.6 609.1 1419.1 612.7C1417.5 616.8 1417.8 617.8 1420.9 619.9C1429.2 625.6 1441.3 638.5 1443.7 644.4C1449.4 658.3 1452.3 687.5 1448.8 696.1C1448 698.2 1449.6 699.5 1456.3 701.8C1471.3 707.2 1480.3 721.5 1487.8 752.2C1489.9 761.2 1489.9 763 1487.1 773.4C1485.5 779.8 1483 787.9 1481.7 791.7L1479.1 798.6L1486.8 802.4C1499.9 808.8 1516.8 829 1522.9 845.8C1528.3 860.2 1528.6 871.3 1524.5 888.4C1520.3 906.3 1516.5 911.7 1503.6 917.4C1498.5 919.5 1492 922.5 1489.1 923.8C1481.3 927.4 1466.1 932.1 1458.6 933.4C1448.8 935 1424.2 940.3 1411 943.5C1402 945.6 1399.1 947.1 1399.1 949C1399.1 952.8 1388.5 954.9 1363.5 956.3L1343.9 957.4L1341.9 948.6L1342.1 948.7Z" fill="#3B753E"/>
<path d="M94.6 893.9L86.3 893.2L85.5 877.5C84.2 854.8 86 766.1 87.8 765.1C90.4 763.5 127.4 764.1 135.6 766.1C156.6 770.8 180.8 787.3 192.2 804.9C210.1 832.1 202.3 859.9 171.3 878.8C166.1 882.1 157.6 886.1 152.7 887.6C147.8 889.2 142.4 891.2 140.8 892C137.5 893.6 106.9 894.9 94.6 893.8V893.9Z" fill="#3B753E"/>
<path d="M1286.7 842.8C1286.7 836.4 1286.9 836.3 1292.4 836.3C1297.9 836.3 1298.1 836.5 1298.1 842.8C1298.1 849.2 1297.9 849.3 1292.4 849.3C1286.9 849.3 1286.7 849.1 1286.7 842.8Z" fill="#3B753E"/>
<path d="M417.8 825C408.8 820.6 397.1 814.4 391.7 811.3C386.3 808.2 375.7 802.2 368 797.9C328.4 775.4 314.3 767.4 302.6 760C299.3 757.9 294.8 756.2 292.3 756.2C286.9 756.2 286.8 753.4 292.1 751L296.3 749L291.9 745.2C289.5 743.1 286.5 741.4 285.4 741.4C284.3 741.4 283.1 740.9 282.8 740.1C282.6 739.4 278.7 736.2 274.2 732.9C262.5 724.3 254.8 715.9 255.9 713C256.6 711.5 256.2 710.4 255.4 710.4C252.5 710.4 253.8 707 258.3 703.1C260.7 700.8 267.1 694.9 272.5 689.9C277.9 685 287.5 677.8 293.7 674.1C300.1 670.3 307.9 665.5 311.2 663C316.7 659.1 317.1 658.6 314.5 656.1C312.1 653.5 312.2 653.3 318.3 653.3C322.2 653.3 326.5 654.6 328.9 656.6C331.2 658.4 333.8 659.9 334.6 659.9C335.6 659.9 338.8 661.7 341.9 663.8C348.3 668 385 689.4 400.8 697.9C406.5 701 420.9 708.8 432.5 715.2C444.2 721.6 455.2 726.8 457.1 726.8C458.9 726.8 464.4 724.7 469.3 722.2C486.6 713.1 504.4 703.3 514 697.4C539.1 682.1 562.1 669.7 565.2 669.7C567.2 669.7 568.6 668.7 568.6 667.3C568.6 665.8 571.4 663.5 574.6 661.9C578 660.4 581.9 657.8 583.6 656.4C590.3 649.7 609.4 645.6 609.4 650.9C609.4 652.2 608.1 653.7 606.6 654C604.2 654.7 604.3 654.8 607.1 655C610.4 655.2 617.9 658.1 624.9 662C643.2 672.3 647.9 675.2 649.4 677.2C650.4 678.3 653.6 680.5 656.7 681.8C663.1 684.4 674.6 694.4 674.6 697C674.6 700.1 660.2 711 650.5 715.6C648.4 716.4 645.8 718.2 644.6 719.4C638.6 725.1 633 729.2 626.8 732.3C623 734.3 617.5 737.5 614.6 739.5C610 742.4 609.5 743.3 612.2 743.9C614.6 744.4 614.3 744.9 610.4 746.5C607.8 747.5 603.2 750.6 600.1 753.2C593.9 758.7 585.6 763.2 576 766.3C572.4 767.4 561.8 773 552.3 778.5C542.8 784 533.2 789.8 530.8 790.9C528.4 792.2 518.6 797.8 508.8 803.5C476.3 822.4 455.4 831.9 444.2 832.7C434.6 833.4 433.3 833 417.8 825.2V825Z" fill="#3B753E"/>
<path d="M1247.5 827.3C1247.5 821.9 1247.8 821.6 1253.2 821.6C1258.6 821.6 1258.9 821.9 1258.9 827.3C1258.9 832.7 1258.6 833 1253.2 833C1247.8 833 1247.5 832.7 1247.5 827.3Z" fill="#3B753E"/>
<path d="M1762.3 813.4C1749.7 812.1 1747.3 811 1746.3 805.6C1745.2 799.7 1749.4 730.1 1754.9 665.8C1757.3 636.8 1761.4 586.5 1763.9 552.4C1765.2 534.9 1767 512.1 1767.8 501.8C1768.8 491.5 1770.6 469.2 1772 452C1775.4 408.1 1778.9 371.4 1781 352.6C1783 335.3 1784.1 333.2 1792.6 331.4C1798 330.4 1808.8 332.1 1808.8 333.8C1808.8 334.6 1809.8 335.3 1810.9 335.3C1813.2 335.3 1829 351.5 1834.7 359.6C1839.9 366.9 1859.3 405.4 1859.3 408.2C1859.3 409.3 1860 411.6 1860.8 413.3C1866.2 423.6 1875.6 461.4 1875.6 473C1875.6 476.8 1876.7 483.9 1878 489C1884.4 513.6 1885.7 528 1884.9 568.8C1883.9 626.4 1879.7 661.8 1868.9 705.7C1865 721.9 1861.9 732.3 1860.7 734.3C1860 735.3 1859.1 739.2 1858.4 743.3C1857.7 747.4 1856.6 751.5 1856.1 752.3C1855.4 753.3 1853.2 759.2 1851.2 765.7C1848.4 774.7 1846.1 778.9 1840.9 783.8C1834.5 790.2 1812.5 802.1 1803.4 804.4C1800 805.2 1799 806.4 1799.3 809C1799.6 812.1 1798.6 812.8 1792.3 813.9C1783.7 815.2 1775.5 815 1762.1 813.6L1762.3 813.4Z" fill="#3B753E"/>
<path d="M1231.2 732.8C1231.2 730.7 1239.2 723.7 1241.6 723.7C1242.1 723.7 1242.6 726.3 1242.6 729.4C1242.6 734.8 1242.3 735.1 1236.9 735.1C1233 735.1 1231.2 734.3 1231.2 732.8V732.8Z" fill="#3B753E"/>
<path d="M1120.7 712.6C1119.9 711.9 1117.8 707.9 1116.1 703.3C1109.7 686.2 1103.9 681.6 1091.5 684.7C1085.3 686.3 1083.7 686.2 1081.5 684C1079.2 681.9 1079.7 681.1 1086.2 677.3C1095.2 672.1 1098.1 672.1 1107.7 677.1L1115.2 681V674.8C1115.2 668.3 1117 666.5 1123.5 666.5C1126.1 666.5 1126.4 667 1125 669.6C1124.2 671.4 1123.4 676.8 1123.5 681.5V690.1L1126.6 683.2C1131.8 671.5 1149.4 663.3 1150.7 672.1C1151 674.7 1149.7 676 1145.6 677.5C1137.9 680.3 1133 686 1132.1 693.5C1131 701 1126.4 711.6 1123.9 712.8C1122.9 713.1 1121.5 713 1120.5 712.5L1120.7 712.6Z" fill="#3B753E"/>
<path d="M460.3 663.5C455.7 662.2 439.3 654 424.6 645.6C421 643.5 414.3 639.9 409.9 637.6C405.3 635.3 398 631.1 393.4 628.1C385.1 622.9 375.9 617.8 360 609.2C341.9 599.4 340.1 597.9 342.4 595.3C344 593.3 343.9 592.5 342.1 591.5C340.8 590.7 333.6 585.6 326.3 580.1C308.8 567.2 308.5 564.3 323.7 552C330.1 546.9 344.6 537.6 346.1 537.6C346.9 537.6 348.9 536 350.7 534C352.7 531.7 354.3 531.1 354.9 532C355.6 533 359.6 534.6 364.2 535.8C372.2 537.8 384.1 543.3 403.4 553.9C408.8 557 422 564 432.8 569.9C443.6 575.6 456.5 582.6 461.4 585.2C466.3 588 474.3 592.2 479 594.8L487.5 599.5L497.8 593.3C503.3 589.9 511.2 585.1 515.3 582.9C534.6 572.1 551.8 562.2 567.2 552.7C576.5 547 584.7 542.4 585.1 542.4C585.8 542.4 589 540.6 592.3 538.3C599.2 533.7 602.6 533.2 604.5 536.5C605.2 537.6 612.5 542.7 620.5 547.8C635.2 556.9 640.9 561.8 640.9 565.7C640.9 566.8 637.5 569.6 633.2 571.7C629.1 574 618 580.3 608.7 586.1C599.4 591.6 591.1 596.2 590.3 596.2C589.3 596.2 588.7 597 588.7 597.8C588.7 598.8 587.6 599.4 586.3 599.4C585 599.4 583.9 600.2 583.9 601C583.9 602 584.7 602.6 585.5 602.6C588.8 602.6 587 605.5 582.7 607.3C577.6 609.3 570.1 613.5 561.3 619.2C556.1 622.6 531 637.6 514.5 647.1C488.6 661.9 473.2 666.5 460.7 663.1L460.3 663.5Z" fill="#3B753E"/>
<path d="M1551.1 608.4L1542.5 607.7L1543.6 602.5C1544.1 599.6 1545.1 578.7 1545.6 556C1546.6 508.8 1545.8 511.1 1561.9 511.1C1572.2 511.1 1577.7 514.4 1581 522.2L1583.4 527.9L1588.8 525C1596.8 520.6 1608.9 517.7 1615.1 518.6C1624.1 520.1 1637 526.6 1639.2 530.8C1641.6 535.2 1641.8 555.8 1639.5 561.1C1629.9 583.1 1619.8 596.2 1608.5 601.2C1591.9 608.5 1579.1 610 1551.1 608.2V608.4Z" fill="#3B753E"/>
<path d="M473 545.5C468.3 540 459.6 451.8 459.5 409.9C459.5 389.3 459.5 389 463.6 387.2C465.9 386.2 467.7 384.8 467.7 384.1C467.7 379.2 489.7 398.6 506 417.7C509.6 421.9 514.3 427.3 516.6 429.8C518.9 432.1 523.3 437.3 526.4 441.2C529.5 445.3 533.6 450 535.4 452C540.8 457.7 549.8 468 556 475.7C559.3 479.8 564.5 485.8 567.7 489.2C570.8 492.6 573.7 497.7 574.4 500.3C574.9 502.9 576.2 504.9 577.3 504.7C580.7 503.9 579.1 513 575 517.4C568.1 524.7 557.1 530.1 540.2 534.5C537.6 535.2 529.1 537.9 521.4 540.7C504.6 546.9 476.4 549.7 472.9 545.4L473 545.5Z" fill="#3B753E"/>
<path d="M917.1 505.7L912.2 504.9L912.5 455.6C913.3 372.6 916.6 186.1 917.4 185.2C917.7 184.9 929.1 184.5 942.9 184.5C969.5 184.3 980.3 186.3 1001.1 194.3C1011.9 198.5 1026.6 206.2 1031.6 210.3C1057.9 231.3 1058.4 232 1068 244.9C1077 256.8 1089.2 281 1089.2 286.7C1089.2 288 1089.9 289.6 1090.5 290.5C1097.4 298.3 1098.8 352.8 1092.8 373.7C1087.9 390.7 1086.8 394.1 1085.6 394.1C1084.9 394.1 1084.3 395.2 1084.3 396.5C1084.3 401.9 1070.9 423.9 1057.4 440.6C1049.2 450.7 1042.1 457.7 1030.5 466.4C1025.6 470.2 1021.2 473.6 1020.7 474.1C1018.3 476.9 982.7 492.7 975.8 494.3C965.7 496.6 962.3 498.7 963.1 502C963.9 504.8 963.1 505.1 956.1 505.1C951.7 505.1 942.2 505.4 935.1 505.8C927.9 506.1 919.8 506.1 917.2 505.8L917.1 505.7Z" fill="#3B753E"/>
<path d="M1364.8 422.4C1361.5 421.6 1360.1 400.5 1360.1 354.2C1360.1 337.2 1359.3 305.9 1358.5 284.9C1357.7 263.9 1356.5 207.7 1355.9 160.1L1354.8 73.5999L1361.2 71.5999C1366.4 70.0999 1371 70.2999 1386.3 72.6999C1411.3 76.5999 1420.1 79.2 1438.5 88.4C1457.6 97.9 1468 105.4 1485.3 122.5C1503.7 140.3 1518.1 162.3 1525.3 183.4C1528.4 192.5 1529.5 193.8 1534.3 193.5C1535.8 193.3 1539.5 208.8 1539.7 215C1539.7 217.3 1538.9 219.6 1537.7 219.9C1536.2 220.4 1535.7 227.9 1535.6 247.5C1535.6 264 1534.8 276.4 1533.6 280C1532.5 283.1 1530.5 289.6 1529 294.5C1525.7 305.4 1513.7 330.6 1511.7 330.6C1510.9 330.6 1510.2 331.6 1510.2 332.7C1510.2 334 1508.9 336.5 1507.4 338.4C1505.8 340.2 1503.3 343.3 1502 345.4C1499.1 349.8 1491.2 359.1 1485.7 364.7C1480.5 370.1 1465.1 382.8 1464 382.8C1463.5 382.8 1459.3 385.4 1454.4 388.5C1444 395.5 1422.3 406.3 1412.8 409.2C1407.4 410.8 1405.8 412.1 1405.8 414.7C1405.8 417.6 1404 418.6 1394.9 420.9C1384.6 423.3 1370.9 424 1364.9 422.4H1364.8Z" fill="#3B753E"/>
<path d="M1631.7 186.6C1629.1 185.6 1624.2 184 1620.9 182.8C1616.2 181.2 1614.5 181.2 1612.3 183C1609 185.3 1603 182.5 1593.9 174C1587.7 168.5 1587.5 167.6 1591.1 164.9C1593.4 163.3 1593.4 162.6 1591.6 160.7C1590.3 159.4 1588.2 155.8 1586.7 152.7C1585.1 149.6 1582.9 144.9 1581.8 142.3C1578.2 134.8 1579 105.1 1583.1 93C1594.7 59.1 1617 33.4 1649.8 16.6C1662.4 10.1 1664.3 9.59996 1662.9 13.2C1662.1 15.3 1662.4 15.3 1665.7 13.4C1667.7 12.3 1671.2 10.8 1673.7 10.1C1676.6 9.39999 1677.8 8.30006 1677.3 6.80006C1675.2 1.40006 1700.5 -1.49996 1720 1.90004C1746.4 6.50004 1763.6 21.2 1772 46.6C1775.4 56.9 1775.9 80.2 1772.8 90.2C1769.4 101.9 1763.8 115.2 1762.7 115.2C1761.9 115.2 1761.4 116.3 1761.4 117.6C1761.4 124.1 1731.1 157.9 1717.8 166.2C1708.7 172.1 1693.8 179.7 1689.4 181C1664.3 188.5 1643.7 190.6 1631.6 186.5L1631.7 186.6Z" fill="#3B753E"/>
<path d="M630.8 1194.1C628.5 1193.8 624.3 1192.3 621.5 1191C618.6 1189.7 613.3 1187.6 609.8 1186.3C594 1180.8 576.7 1165.6 567.2 1148.6C562 1139.3 561.7 1138.3 561.7 1121C561.5 1104.7 561.9 1102.2 565.8 1094.7C574.3 1078.2 586.2 1066.5 602 1059C615.4 1052.8 628.8 1048.7 641.3 1047.6L652.4 1046.3L650 1050.2C647.4 1054.3 644.6 1077.9 643.1 1108C642.6 1118 641.5 1128.6 640.7 1131.7C639.7 1134.8 639.1 1150.5 639.1 1166.3C639.1 1188.7 638.6 1195.3 637.1 1195.2C636 1195 633.2 1194.5 630.9 1194.2L630.8 1194.1Z" fill="#3A833E"/>
<path d="M715.1 1085.3C714.6 1084 714.8 1082.4 715.6 1081.9C717.7 1080.6 719.5 1084.3 717.6 1086.3C716.6 1087.3 715.8 1087 715.2 1085.3H715.1Z" fill="#3A833E"/>
<path d="M864.6 1063.6C859.1 1063.1 857.9 1062.5 858.6 1060.2C859.4 1057.9 859.3 1057.8 857.9 1059.9C856.4 1061.9 854.5 1061.9 843.1 1058.9C831.4 1055.8 829.9 1055.8 829.7 1058.1C829.5 1059.6 828.7 1058.1 827.7 1055C825.6 1048.3 821.8 1043.6 818.7 1043.6C817.6 1043.6 813.8 1040.8 810.4 1037.6C807.1 1034.2 798.8 1026.3 792.1 1020C785.4 1013.8 778.1 1006 775.9 1002.9C773.8 999.8 771.5 996.9 771 996.4C767.6 993.5 748.6 958.7 744.7 948.3C733 916.2 725.3 874.4 725.3 841.9C725.3 827.9 729.4 789.7 732 780.4C733 776.5 733.1 773.5 732.2 772.6C728.3 768.7 738.7 741.3 763 692.5C786.3 645.7 827.4 605 867.3 589.1C874 586.5 879.5 583.6 879.5 582.7C879.5 581.9 880.2 580.3 881 579.1C881.7 578 881.8 576.5 881.3 576C880.8 575.5 881.1 573.7 882.1 572.1C883.2 570 885.5 569 889.3 569C895 569 897 571.6 892.6 573.2C890.6 574 890.2 578.1 890.3 596.5C890.5 608.7 889.6 629.8 888.7 643.2C885.9 681.7 883.6 720.5 881.8 754.1C878.2 825.2 873.2 913.8 871.4 934.4C870.1 949.9 867.2 1029.2 867.2 1045.2C867.4 1055.6 868 1059.6 870 1062C871.6 1063.6 872.4 1064.8 872.1 1064.6C871.8 1064.4 868.3 1064.1 864.6 1063.8V1063.6Z" fill="#3A833E"/>
<path d="M1304.6 962.7C1304.6 960.1 1303.5 959.9 1294.5 960.7C1268.6 963.1 1212.3 958.4 1208.4 953.5C1207.9 952.8 1206.1 952 1204.3 951.4C1195.5 948.5 1189.9 940.1 1187.2 925.9C1185.4 916.8 1185.6 913.3 1187.9 901.4C1189.5 893.7 1191.8 885.1 1193.3 882C1194.6 879.1 1195.9 875.6 1196.1 874.7C1196.3 873.7 1199 867.4 1202.1 860.7C1207.8 848.6 1210.6 844.9 1221.2 833.5C1227.4 826.8 1227.6 825.8 1223 821.9C1209.1 810.2 1207.8 782.7 1219.4 747.3C1222.5 738 1234.2 725.3 1236.5 728.9C1237.3 730.4 1237.8 730.2 1237.8 728.1C1237.8 726.6 1239.8 724.3 1242.4 723.4C1248.6 720.6 1248.4 720.8 1245.5 717.5C1240.9 712.4 1237.8 703 1237.8 694C1237.8 680 1242.5 657.5 1246.9 650.9C1249 647.8 1250.8 644.7 1250.8 644.2C1250.8 643.5 1252.4 641.4 1254.4 639.3C1257.7 635.9 1257.8 634.7 1256.4 623.8C1254 604.4 1256.1 594.3 1267.8 569.8C1273.5 558.1 1279.4 545.3 1281 541.7C1282.6 538.1 1284.4 534.8 1284.9 534.4C1285.4 533.9 1286.7 532.4 1287.5 531C1291.6 524.3 1308.9 500.7 1312.3 497.1C1314.4 495 1316.1 491.2 1316.1 488.8C1316.1 482.4 1324.6 475.7 1332.7 475.7C1339.1 475.7 1341 477.8 1336.1 479.6C1333.7 480.6 1333.7 486.6 1334.6 553.3C1335.3 593.3 1336.2 627 1336.7 628.2C1337 629.5 1338.5 630 1339.8 629.5C1341.4 628.8 1342.1 629.8 1342.1 632.8C1342.1 636.9 1341.8 637 1330.4 637.7L1318.5 638.2L1330.4 638.5C1336.9 638.7 1342.1 639.5 1342.1 640.5C1342.1 641.5 1341.1 642.1 1340 642.1C1338.2 642.1 1337.9 649.1 1338.4 680.1C1339.1 723.3 1339.7 728.7 1343 727.6C1344.6 726.9 1345.3 728.3 1345.1 733.3C1345.1 737.2 1344.3 740 1343.1 740C1340.8 740 1341.6 816.8 1343.9 822.9C1344.9 825.5 1346.3 826.5 1347.8 825.8C1349.6 825.1 1350.2 826 1350.2 828.7C1350.2 832.5 1349.5 832.8 1338.5 833.6C1332 834.1 1311.7 834.9 1293.6 835.6C1266.4 836.4 1258.8 836.1 1250.4 834C1244.5 832.5 1238.2 831.4 1235.9 831.6L1232 831.8L1236.1 833.1C1250.1 837.5 1265 838.6 1305.9 838.3C1334 838 1348.6 838.5 1348.6 839.6C1348.6 840.4 1347.5 841.2 1346 841.2C1343.6 841.2 1343.4 845.4 1344.2 889.3C1344.7 915.7 1345.7 938.2 1346.3 939.2C1347.3 940.8 1347.6 942.5 1348.4 950.1C1348.4 951.1 1349.7 952.1 1351 952.1C1352.3 952.1 1353.4 953.1 1353.4 954.4C1353.4 955.7 1350.1 957.3 1345.7 958.6C1341.3 959.6 1336.1 961.2 1334 962C1331.9 963 1324.4 964.1 1317.4 964.6C1305.8 965.4 1304.5 965.3 1304.5 962.6L1304.6 962.7Z" fill="#3A833E"/>
<path d="M412.6 950.2C395.1 941.4 392.7 939.6 393.5 936.7C394.2 934.1 393.2 932.8 389.7 931C387.3 929.7 377.1 923.8 367.2 917.9C346.8 905.5 328.9 895.2 315.8 888C310.9 885.4 304.2 881.5 301.1 879.4C298 877.3 294.6 875.5 293.6 875.5C292.5 875.5 291.3 875 291 874.4C290.7 873.6 287.2 871.3 283.2 869.2C275.2 865 243.7 844.6 242.4 842.8C241.9 842.3 237.3 839.4 232.3 836.6C227.2 833.7 222.2 830.2 221.2 829.1C220.1 827.8 218.1 826.7 216.6 826.7C214.6 826.7 214.3 824.9 215.3 815.8C216 809.6 216.4 803.1 216.4 801.1C216.2 799 217.2 797.3 218.4 797.3C219.5 797.3 223 795 226.1 792.1C232.5 786.4 254 772.8 256.9 772.8C257.9 772.8 258.7 772.1 258.7 771.3C258.7 770.5 261.5 768.5 264.9 766.7C268.2 765.1 275.5 761 280.9 757.6C292.6 750.6 299 749.9 307.5 755.3C319.1 762.5 335.1 771.8 375.4 794.5C381.8 798.1 391.2 803.5 396.6 806.6C402 809.7 413.7 815.7 422.7 820.3C436.2 827.2 440 828.3 444.7 827.5C451.9 826.2 480.8 812.2 503.9 798.6C513.7 792.9 523.5 787.3 525.9 786C528.3 784.9 538 779.1 547.4 773.6C556.9 768.1 567.5 762.5 571.1 761.4C580.9 758.3 588.6 754.1 596.4 747.5C602.8 742.3 604.2 741.8 609.8 742.6C615.3 743.6 621.4 745.9 629.1 749.8C639.5 755.2 652.9 763.2 663 769.7C669.5 773.9 676.4 778 678.2 778.5C679.8 779.2 681.3 780.3 681.3 781.1C681.3 781.9 682.3 782.6 683.4 782.6C685.5 782.6 692.2 787.3 698.1 792.9C699.7 794.5 700.7 797 700.2 798.3C699.7 799.6 700 800.6 700.7 800.6C703 800.6 704.3 805.8 702.5 807.9C701.7 808.9 692.2 814.1 681.8 819.5C671.2 824.7 662.2 829.5 661.7 830.1C661.2 830.6 655.8 834.2 649.5 838.1C639.4 844.3 617.7 858 608.7 863.9C606.9 864.9 604.3 866.3 603 867C601.7 867.7 594.2 872.1 586.4 876.8C578.7 881.5 571.6 885.4 570.6 885.4C569.6 885.4 568.8 886.1 568.8 886.9C568.8 887.7 566.7 889 564.2 890C561.6 890.8 558.5 892.6 557.2 893.8C555.9 895.1 552.6 897.2 550 898.7C534.8 906.7 530.4 909.3 529.9 910.4C529.6 911.1 528.3 911.5 527.1 911.5C526 911.5 524.7 912 524.3 912.8C524.1 913.5 521.2 915.2 518.1 916.7C504.1 923.7 499.3 927.3 498.5 931.7C497.8 935.3 495.4 937.4 486.3 942.1C480.1 945.5 474.6 948.5 474.1 949C471 952.3 452.1 958.8 443.1 959.6C432.7 960.4 432.3 960.4 412.6 950.3V950.2Z" fill="#3A833E"/>
<path d="M73.6 890.1C66.4 888.3 57.9 886 54.8 884.9C47.6 882.1 27.6 870.2 22 865.3C14 858.1 4.50004 843.6 1.90004 834.3C-0.499963 825.5 -0.499963 824 1.90004 814.7C8.90004 787.3 39.8 767.4 78.9 764.9L94.1 763.9L92.3 768.3C91.3 770.9 90.5 796.4 90.3 833.1C90.1 875.4 89.6 893.3 88.3 893.1C87.3 892.9 80.6 891.6 73.5 890L73.6 890.1Z" fill="#3A833E"/>
<path d="M1729.5 806.9C1730.3 802.7 1729.8 802 1725.9 801C1712.8 798.2 1694.6 789.3 1683 780.1L1673.9 772.9L1672.8 752C1669.2 687.2 1676.2 619.4 1695.3 534.3C1697.6 524.2 1698.9 519 1706.2 491.9C1710.3 477.2 1721.7 442.5 1725 435.3C1726.3 432.5 1727.3 429.3 1727.3 428C1727.3 426.7 1728 425.1 1728.6 424.1C1729.4 423.3 1732.5 416.4 1735.5 408.8C1738.4 401.1 1742 393.1 1743.5 390.9C1745 388.6 1748.1 382.9 1750.2 378.3C1752.5 373.6 1754.8 369.7 1755.6 369.7C1756.3 369.7 1756.7 368.7 1756.7 367.4C1756.7 366.1 1757.7 364 1758.8 362.8C1759.8 361.7 1763.9 356.4 1767.6 351.4C1771.5 346.3 1777.9 339.8 1782.1 337L1789.4 331.8L1788.4 337.3C1786.3 349.2 1781.9 396.2 1777 456.9C1775.5 474 1773.7 496.4 1772.8 506.7C1772 517 1770.2 539.8 1768.9 557.3C1766.5 591.4 1762.4 641.5 1759.9 670.7C1759.1 680.7 1757.3 705.1 1755.8 725C1754.5 745.1 1753 762 1752.5 762.7C1752.2 763.5 1751.7 773 1751.5 783.9C1751.3 801.5 1751.7 804.1 1754.3 806.1C1756.1 807.2 1757.1 808.5 1756.6 809C1756.1 809.3 1749.6 810.1 1742.1 810.6L1728.6 811.7L1729.6 806.8L1729.5 806.9Z" fill="#3A833E"/>
<path d="M427.6 720.3C414.2 713 399.5 705 395 702.5C383.3 696.1 343.4 673.1 338.7 669.9C336.4 668.4 332.5 666 329.7 664.7C321.4 660.6 311.9 654.9 307.8 651.8C305.7 650 302.9 648.7 301.8 648.7C300.5 648.7 299.5 648.2 299.5 647.6C299.5 646.8 297.2 644.8 294.6 643C289.2 639.4 287.6 630.8 292.3 630.8C293.6 630.8 294.4 630.1 293.8 629.3C292.7 627.2 304.9 618 326.1 605.3C335.7 599.4 343.6 593.9 343.6 593.1C343.6 592.1 345.6 592.8 348.2 594.6C350.6 596.4 357.3 600.3 363.2 603.4C380.8 612.9 389.6 617.9 398.3 623.3C402.9 626.2 410.2 630.5 414.8 632.8C419.2 635.1 425.9 638.7 429.5 640.8C451.5 653.5 463.8 658.9 470.5 659.1C477 659.1 490.9 653.4 509.3 642.8C526.9 632.7 550.7 618.5 554.5 616C559.4 612.6 568.9 607 576 603.4C580.4 601.1 581.2 601.1 585.8 603.9C588.6 605.5 593 608 595.8 609.3C598.4 610.8 606.2 615.3 612.9 619.4C619.6 623.5 626.4 627.4 628.1 628C629.9 628.7 630.9 630.8 630.9 633.9C630.9 638.1 629.4 639.8 622.4 644.7C617.7 647.8 612.9 650.4 611.8 650.4C610.7 650.4 609.7 651.2 609.7 652C609.7 653 608.4 653.6 606.6 653.6C602.4 653.6 592.2 658 588.8 661.4C587.2 663 583.6 665.3 580.6 666.5C577.7 667.8 574.6 670.1 573.6 671.7C572.8 673.5 570.8 674.8 569.5 674.8C567.1 674.8 541.8 688.8 519.1 702.5C513.7 705.8 503.4 711.6 496.3 715.6C455.5 737.6 459.1 737.5 427.8 720.3H427.6Z" fill="#3A833E"/>
<path d="M1511.8 607.1C1508.7 605.8 1504.8 604.8 1503.2 604.8C1501.6 604.6 1497.5 603.2 1494.1 601.5C1484.1 596.3 1481.9 588.8 1482.5 563C1482.8 549.9 1489.7 537.7 1496.7 537.7C1497.8 537.7 1498.8 537.2 1498.8 536.4C1498.8 534.6 1510.9 531.2 1517.2 531.2C1520.1 531.2 1524.1 532.3 1526 533.6C1529.6 536 1529.8 535.9 1532.2 530C1535.5 522.3 1538.9 518.4 1546.1 514.8L1551.8 511.9L1551.5 546.5C1551 584.4 1549.9 602.8 1547.7 606.2C1545.7 609.5 1519.5 610 1511.8 607V607.1Z" fill="#3A833E"/>
<path d="M474.9 600.7C456 590.1 447 585.2 427.6 574.9C416.8 569 403.6 562 398.2 558.9C378.3 548 366.4 542.6 358.2 540.6C350.9 539 349.9 538.3 350.7 535.4C351.2 533.4 351.7 526.8 351.7 520.2V508.5L370.1 497.4C380.1 491.2 390.7 485 393.3 483.5C398 480.9 420.1 448.1 420.2 443.5C420.2 442.4 421 441.4 421.8 441.4C422.8 441.4 423.4 440.4 423.4 439.1C423.4 437.8 424.1 436.5 424.7 436.2C425.4 436 428.9 431 432.4 425.1C435.8 419.2 439.1 414.2 439.7 413.7C440.2 413.2 442 410.8 443.6 408C447.8 401.5 449.3 399.7 455.7 393.2C464.3 384.1 465.3 385.4 464.5 404.5C463.4 435.5 472.8 534.9 477.6 540.7C480.7 544.3 499.8 541.8 516.4 536C524.1 533.2 532.6 530.5 535.2 529.8C544.3 527.4 556.4 522.9 560.5 520.3C566.4 516.5 573.4 509.5 573.6 507.4C573.6 503.8 578.2 503.8 581.9 507.2C584 509.2 586 510.6 586.1 510.3C587.1 509.5 596.4 515 596.4 516.5C596.4 517.5 597.4 518.1 598.5 518.1C599.8 518.1 601.3 521.9 602.4 528.4C604.2 539.8 604.4 539.5 591.5 546.3C587.4 548.4 577.6 554.1 569.5 559C556.3 567.2 537.2 578.3 521.5 586.9C518.2 588.7 509.6 593.8 502.4 598.2C495.1 602.6 488 606.2 486.9 606.2C485.6 606 480.2 603.6 474.8 600.7H474.9Z" fill="#3A833E"/>
<path d="M898 503.9C892.8 503.6 888.5 502.6 888.5 501.8C888.5 500.8 887.4 500.2 886.1 500.2C884.8 500.2 883.7 498.9 883.7 497.1C883.7 495 881.7 493.5 876 491.9C871.6 490.8 866.4 488.8 864.1 487.7C861.8 486.6 859.5 485.6 858.9 485.6C858.2 485.6 853.2 482.8 847.5 479.6C829.2 469 810.1 453 801.3 440.8C798.7 437.2 795.8 433.6 794.9 432.6C792.1 430.2 781.5 407.6 777.6 396.7C764.9 359.5 768.1 316.3 786.4 280.9C789.7 274.7 792.3 268.7 792.3 267.5C792.3 266.4 792.8 265.4 793.6 265.4C794.3 265.4 796.5 262.6 798.8 259.4C808.4 245 829.1 224.5 844.5 214C864.4 200.5 903.4 185.4 918.2 185.4C921.6 185.4 921.6 185.6 920.6 237.1C919.9 265.7 919.1 332.4 918.6 385.2C918.1 438.2 917.5 485.7 917.1 490.9C916.6 498.1 916.9 500.2 918.7 500.2C920 500.2 921 501.3 921 502.6C921 505.2 919.7 505.2 897.8 503.9H898Z" fill="#3A833E"/>
<path d="M1347 422.5C1345.7 422.3 1338 421.2 1330.2 420.1C1319.8 418.8 1316 417.7 1316.7 416.2C1317.7 413.3 1313.1 407.2 1309.8 407.2C1308.3 407 1304.1 405.7 1300.5 403.9C1296.9 402.1 1293 400.8 1291.9 400.6C1289.3 400.6 1259.8 381.3 1252.4 374.8C1249.3 372 1246 369.1 1245.1 368.3C1243.3 366.7 1230.4 351.8 1224.1 344.2C1221.8 341.3 1219.9 338.2 1219.9 337.2C1219.9 336.2 1219.2 335.4 1218.3 335.4C1217.5 335.4 1216.7 334.6 1216.7 333.8C1216.7 332.8 1214.9 329.2 1212.6 325.6C1210.3 322 1208.5 318.4 1208.5 317.4C1208.5 316.4 1206.4 310.9 1203.6 305.2C1201 299.5 1198.7 293.1 1198.7 291.3C1198.7 289.3 1198 286.4 1197.1 284.8C1193.7 278.4 1191.6 241.9 1193.7 224.3C1195.7 206 1205.9 173.2 1212.8 162.1C1214.9 158.7 1216.7 155.2 1216.7 154.4C1216.7 153.6 1217.2 152.6 1218 152.3C1218.7 152.1 1221.1 148.9 1223.5 145.3C1225.8 141.7 1229 137 1230.8 135C1235.2 129.1 1256.4 108.6 1257.7 108.6C1259 108.6 1263.7 105 1268.6 100.4C1270.1 99.1 1278.2 94.5 1286.7 90.3C1301.7 83.1 1309.5 80 1323.4 76.1C1330.7 74 1352.9 71.5 1357 72.3C1359.3 72.8 1359.8 81.6 1360.8 156.3C1361.5 202.3 1362.6 257.8 1363.4 279.8C1364.4 301.8 1365 333.3 1365 350C1365 366.6 1365.5 388.3 1366.1 398.5C1367.1 415.8 1367.2 416.8 1370.8 417.6C1372.9 418.3 1374.7 419.7 1374.7 421C1374.7 423 1372.3 423.4 1362.1 423.3C1355.1 423.1 1348.2 422.8 1346.9 422.5H1347Z" fill="#3A833E"/>
<path d="M1391.1 417.9C1391.1 415.8 1395.7 413.7 1400.6 413.7C1401.6 413.7 1402.6 415.2 1402.6 417C1402.6 419.6 1401.5 420.3 1396.9 420.3C1393.1 420.3 1391.2 419.5 1391.2 418L1391.1 417.9Z" fill="#3A833E"/>
<path d="M851 1300.2C847.9 1299.9 844.6 1298.7 843.8 1297.9C842.8 1297.1 840.9 1296.4 839.4 1296.4C834.8 1296.4 827.3 1291.3 825.2 1286.9C823.1 1282.2 824.2 1245.3 826.8 1240.4C828.1 1237.8 829.7 1237.5 838.9 1238.4L849.3 1239.5V1233.6C849.3 1229.5 848.6 1227.7 846.9 1227.7C845.6 1227.7 844.5 1227 844.5 1226.1C844.5 1225.3 843 1224.5 841.2 1224.5C839.1 1224.5 837.9 1223.4 837.9 1221.2C837.9 1219.2 836.4 1217.6 834 1217C827.1 1215.4 825.8 1210.1 827.3 1190.7C828.1 1181.1 828.4 1166.9 828.3 1159.2C827.6 1136.8 827.3 1113.2 827.6 1106.2C827.8 1102.6 827.6 1095.4 827.1 1090C826.4 1084.1 826.8 1079.9 827.9 1078.7C828.9 1077.7 829.7 1075.3 829.7 1073.3C829.7 1067.8 833 1066.1 840 1068.2C845.1 1069.8 846 1070.8 846 1074.6C846 1077.2 845.3 1079.2 844.4 1079.2C843.6 1079.2 842.8 1080.7 842.8 1082.5C842.8 1084.3 843.6 1085.8 844.4 1085.8C845.4 1085.8 846 1087.6 846 1089.6C846 1092.2 847.5 1094.2 850.1 1095.3C855.5 1097.7 855.8 1097.7 855.8 1094.8C855.8 1093.5 857.3 1092.4 859.1 1092.4C860.9 1092.4 862.4 1091.3 862.4 1090C862.4 1088.4 860.8 1087.6 857.5 1087.6C852.9 1087.6 852.6 1087.3 852.6 1081.1V1074.6H859.1C863.5 1074.6 865.6 1075.3 865.6 1076.9C865.6 1079.3 876.7 1081.5 878 1079.2C878.5 1078.5 881.8 1077.9 885.3 1077.9C889.5 1077.9 892.8 1076.8 894.9 1074.6C896.7 1072.8 899.3 1071.3 900.6 1071.3C902.1 1071.3 903 1069.8 903 1067.2C903 1063.6 903.7 1063.1 908.7 1063.1C914.9 1063.1 915.2 1063.4 912.9 1067.8C911.9 1069.4 910.9 1081.2 910.6 1093.9C910.1 1110.5 909.3 1117.7 907.8 1118.5C906 1119.6 906 1120.8 907.6 1124.7C909.2 1128.5 909.4 1143.6 908.7 1189C908.2 1221.5 907.4 1254.4 906.7 1261.9C906 1271.7 906.2 1275.3 907.5 1274.5C908.5 1273.8 909.3 1274.3 909.3 1275.8C909.3 1277.1 908.5 1278.7 907.7 1279.2C906.7 1279.7 906.6 1282 907 1284.3C909 1291.8 906.7 1295.6 899.2 1297.5C891.7 1299.6 859.9 1301.3 850.6 1300.1L851 1300.2ZM878.7 1287.5C878.7 1285.7 876.9 1285.1 872.2 1285.1C866 1285.1 864.2 1286.4 866.8 1288.9C867.3 1289.6 870.2 1290 873.3 1290C877.1 1290 878.7 1289.2 878.7 1287.6V1287.5ZM896.6 1261.4C896.6 1260.1 895.6 1259 894.3 1259C893 1259 891.7 1258.3 891.4 1257.5C891.2 1256.7 889.6 1257 887.8 1258.2C883.9 1261.1 885.8 1263.9 891.9 1263.9C895 1263.9 896.6 1263.1 896.6 1261.5V1261.4ZM854.5 1251C853.7 1250.5 852.5 1248.9 852.1 1247.6C851.4 1246 851.1 1246.5 851.1 1248.9C850.9 1250.9 851.9 1254 853.1 1255.9C855.1 1259.2 855.1 1259.2 855.5 1255.6C855.8 1253.6 855.5 1251.7 854.5 1251Z" fill="#8A7259"/>
<path d="M596.5 1152C596.5 1150.7 597.3 1149.6 598.1 1149.6C599.1 1149.6 599.7 1150.7 599.7 1152C599.7 1153.3 599 1154.4 598.1 1154.4C597.3 1154.4 596.5 1153.3 596.5 1152Z" fill="#8A7259"/>
<path d="M701.7 1133.1C700.1 1130.7 702.2 1129 704.3 1131.1C705.4 1132.2 705.4 1133.2 704.5 1133.9C703.5 1134.4 702.2 1134.1 701.7 1133.1Z" fill="#8A7259"/>
<path d="M1322.2 1127C1318 1124.6 1312.6 1121.1 1310.1 1119.2L1305.5 1115.8L1304.8 1078.9C1304.1 1047.2 1304.5 1041.9 1306.4 1041.9C1307.7 1041.9 1309.7 1040.1 1310.6 1037.8C1311.6 1035.5 1313.9 1033.7 1315.3 1033.7C1317.7 1033.7 1317.9 1033.4 1315.8 1032.1C1314 1031 1312.9 1031.3 1311.6 1032.9C1310.6 1034.2 1308.7 1035.3 1307.2 1035.3C1304.1 1035.3 1303.3 1027.1 1304.1 1007.2C1304.6 996.3 1305.1 994.5 1307.7 994.5C1309.2 994.5 1311.5 995.6 1312.6 996.9C1313.7 998.2 1315.7 999.3 1316.8 999.3C1318.3 999.3 1319.1 1001.3 1319.1 1005C1319.1 1008.9 1318.3 1010.7 1316.7 1010.7C1315.4 1010.7 1314.3 1012.2 1314.3 1014C1314.3 1015.8 1315.1 1017.3 1315.9 1017.3C1316.9 1017.3 1317.5 1016.2 1317.5 1014.9C1317.5 1013.3 1319.3 1012.5 1322.9 1012.3C1326.7 1012.1 1327.1 1011.8 1324.5 1011.3C1321.4 1010.6 1320.7 1009.5 1320.7 1005.1C1320.7 999.9 1321 999.6 1326.9 999.1C1332.4 998.6 1332.9 998.3 1333.4 992.9L1333.9 987.2L1321.2 984.1C1314.2 982.5 1307.5 980.3 1306.5 979.5C1305.4 978.5 1304.4 974.6 1304.4 970.7C1304.4 962.4 1306.8 961.6 1315 966.5C1323.5 971.7 1336.4 974 1345.8 972C1350.4 971 1356.7 969.7 1359.8 969.2C1362.9 968.7 1371.2 964.6 1378.1 960.2C1385.1 955.6 1392.6 952 1394.9 952H1399.1L1398.1 1023.5C1397.1 1105.9 1396.6 1109.8 1385 1119.3C1375.2 1127.5 1361 1131.5 1343.9 1131.4C1331.5 1131.4 1328.6 1130.7 1321.9 1127H1322.2Z" fill="#8A7259"/>
<path d="M730.6 1113.5C730.9 1112.5 731.9 1111.9 732.7 1111.9C733.5 1111.9 734.5 1112.6 734.8 1113.5C735.1 1114.5 734.1 1115.3 732.7 1115.3C731.2 1115.3 730.3 1114.5 730.6 1113.5Z" fill="#8A7259"/>
<path d="M604.2 1106C602.2 1104.2 602.9 1102.2 605.5 1102.2C606.8 1102.2 607.9 1103.3 607.9 1104.6C607.9 1107.2 605.9 1107.9 604.1 1105.9L604.2 1106Z" fill="#8A7259"/>
<path d="M422.7 1060C421.9 1057.2 421.2 1057.2 415.7 1059.2C407.5 1062.1 406.1 1062 400.7 1058.2L396.1 1054.9L395.8 1033.2C394.7 957 394.7 955.4 396.6 955.4C397.7 955.4 401.8 958.3 405.7 961.9C422.8 977.4 455.3 979.8 480.1 967.4C486.1 964.3 493.2 961.9 495.6 961.9C499.5 961.9 500.2 962.4 499.4 965.7C498.9 967.7 498.3 988.5 497.9 1011.9C497.6 1035.4 496.9 1055.3 496.4 1056.1C495.7 1057.1 493.6 1058.2 491.7 1058.7C489.6 1059.2 485.2 1060.3 481.9 1061.1C477 1062.4 475.7 1062.2 475.7 1060.4C475.7 1057.3 469.2 1051.6 465.6 1051.6C463.8 1051.6 462.7 1052.7 462.7 1054.7C462.7 1057.1 460.9 1057.8 451 1058.6C444.5 1059.3 438.9 1060.4 438.6 1061.4C438.3 1062.2 434.8 1063 430.9 1063C425.4 1063 423.6 1062.3 422.7 1059.9V1060Z" fill="#8A7259"/>
<path d="M1751.7 970.4C1749.4 970.1 1743.7 968.8 1739 967.5L1730.4 965.1L1730.6 955.8C1730.6 950.7 1730.1 924.6 1729.6 898L1728.6 849.4H1732.8C1738.2 849.4 1738.8 847.9 1737.5 838.8C1736.8 832.9 1735.7 830.8 1732.8 829.5C1729.5 827.9 1728.9 826.4 1728.9 819.7C1728.9 815.3 1729.7 811.9 1730.7 811.9C1731.5 811.9 1738.4 814.8 1745.7 818.3L1759.1 824.7L1769.7 822.3C1775.6 821 1782.4 818.9 1784.9 817.6C1791.6 814.3 1799.7 814.5 1798.4 817.9C1797.9 819.4 1797.4 822.6 1797.4 825.2C1797.4 829 1796.4 830.4 1793 831.7C1790.4 832.8 1789.2 833.8 1790.6 834.3C1791.6 834.8 1792.6 837.2 1792.6 839.8C1792.6 842.7 1793.4 844.5 1794.9 844.5C1798.2 844.5 1798.7 849.1 1798.3 875.5L1798.1 899.2L1791.6 900.2C1788.2 900.7 1786.7 901.3 1788.7 901.5C1795.1 901.8 1800.4 918.6 1797 927.8C1796.5 929.1 1795.7 933.5 1795.4 937.4C1794.9 941.3 1793.8 945.1 1793 945.6C1792.2 946.1 1791.2 948 1790.9 949.8C1790.4 951.8 1788.3 953.7 1784.9 954.7C1780.2 956 1779.7 956.7 1779.7 963C1779.7 969.5 1779.5 969.9 1773.7 970.8C1763.7 972.4 1763.4 972.3 1763.4 966.1C1763.4 963 1762.7 960.4 1761.8 960.4C1761 960.4 1760.2 962.5 1760.2 965.1C1760.2 970.2 1758.4 971.5 1752 970.5L1751.7 970.4Z" fill="#8A7259"/>
<path d="M1746.4 812.3C1744.8 812 1743.5 810.2 1743.5 808.4C1743.5 806 1744.6 805.3 1748.6 805.3C1754.8 805.3 1759.9 807.9 1759.9 811C1759.9 813.4 1753 814.1 1746.5 812.3H1746.4Z" fill="#8A7259"/>
<path d="M956.3 604.1C953.5 601.2 948.1 596.3 944.4 593.2C940.5 590.1 935.4 585.9 933 583.7C927.5 579 915.9 573.6 908.9 572.4C904.2 571.6 903.4 570.9 903.4 566.9C903.4 564.3 904.2 562.2 905 562.2C906 562.2 906.6 560.4 906.6 558.1C906.6 555.8 907.4 554 908.2 554C909.2 554 909.8 552 909.8 549.8C909.8 547.5 910.6 544.3 911.4 542.5C912.9 539.9 912.5 539.4 909.6 539.4C903.9 539.4 889.7 534.7 885.8 531.4C883.2 529.1 882.4 526.8 882.4 521C882.6 514.5 883.1 513.3 886 513.3C887.8 513.3 891.5 515.4 894.3 517.9C899.7 523.1 907.4 525.6 922.2 527.2C934.3 528.5 944.6 526.1 950.1 520.5C952.2 518.2 956 516.6 958.4 516.6H962.8L963.3 541.1L963.6 565.6H958.7C954.6 565.6 953.8 564.9 953.8 561.7C953.8 559.4 953.1 557.1 952.2 556.6C951.2 555.9 950.6 557.9 950.6 561.3C950.6 564.4 951.4 567.5 952.2 568C953.2 568.5 953.8 571.1 953.8 573.9C953.8 576.5 954.6 578.6 955.4 578.6C956.4 578.6 957 579.7 957 581C957 582.3 958.5 584.3 960.3 585.4C963.1 587.2 963.6 589.3 963.6 598.5C963.6 604.7 963.1 609.6 962.5 609.4C961.7 609.2 958.9 607 956.3 604.2V604.1Z" fill="#8A7259"/>
<path d="M1592.1 586.3C1592.6 585.2 1594.2 583.9 1595.7 583.7C1597.7 583.2 1598.5 583.9 1598 585.3C1597.5 586.4 1595.9 587.7 1594.4 587.9C1592.4 588.4 1591.6 587.7 1592.1 586.3Z" fill="#8A7259"/>
<path d="M881.7 575.9C881.4 575.7 881.4 568.6 881.7 559.9L882.2 544.2H888.2C898 544.4 899.8 546.8 899.6 559.9V571.3L890.8 573.7C886.1 575.2 881.8 576.1 881.7 575.8V575.9Z" fill="#8A7259"/>
<path d="M1403.6 563.5C1402.3 560.6 1399.4 553.7 1397.1 548.3C1394.8 542.9 1390.4 534.1 1387.1 528.9C1383.8 523.5 1381.2 518.3 1381.2 517.3C1381.2 513.5 1367.3 498 1357.1 490.4C1354 488.1 1350.7 485.5 1349.8 484.7C1348.7 483.7 1345.6 482.1 1342.8 480.9C1335.8 478 1329.9 480.4 1319 490.9C1315.7 494 1315.7 494.3 1315.9 474.1C1316.2 429.4 1316.1 430 1319.8 430C1321.8 430 1326.3 431.8 1330.1 433.9C1338.7 438.8 1346.3 440.1 1364 439.9C1379.8 439.6 1386.5 437.5 1392.6 430.9C1395 428.3 1398.3 426.7 1400.9 426.7H1405.3L1406.4 479.4C1407.4 524.1 1407.4 568.6 1406.4 568.6C1406.2 568.6 1404.9 566.2 1403.6 563.4V563.5Z" fill="#8A7259"/>
<path d="M1562.4 540.8C1562.4 536.9 1566.2 537.4 1567 541.5C1567.3 543.1 1566.5 544.3 1565 544.3C1563.4 544.3 1562.4 542.8 1562.4 540.9V540.8Z" fill="#8A7259"/>
<path d="M1530.7 199C1529.2 195.1 1529.6 193.3 1531.8 193.6C1534.2 194.1 1549.3 187.2 1549.3 185.6C1549.3 184.3 1561.5 178.4 1566.1 177.6C1567.9 177.3 1568.9 178.3 1568.9 180.4C1568.9 182.2 1567.8 183.7 1566.5 183.7C1565.2 183.7 1562.6 185.2 1560.8 187C1559 188.8 1555.7 190.3 1553.5 190.3C1551.2 190.3 1549.4 191.1 1549.4 192.1C1549.4 195.4 1540.6 201.7 1536.2 201.7C1533.8 201.7 1531.3 200.6 1530.8 199.1L1530.7 199Z" fill="#8A7259"/>
<path d="M1575.5 184.5C1575.5 179.1 1575.8 178.8 1581.2 178.8C1586.6 178.8 1586.9 179.1 1586.9 184.5C1586.9 189.9 1586.6 190.2 1581.2 190.2C1575.8 190.2 1575.5 189.9 1575.5 184.5Z" fill="#8A7259"/>
<path d="M1596.7 184.5C1596.7 179.9 1597.4 178.8 1600 178.8C1601.8 178.8 1603.3 178.1 1603.3 177.2C1603.3 174.6 1607.5 175.2 1611.6 178.7L1615.4 181.8L1606.9 186C1602.3 188.3 1598.1 190.2 1597.6 190.2C1597.1 190.2 1596.8 187.6 1596.8 184.5H1596.7Z" fill="#8A7259"/>
<path d="M854.3 1298L850.2 1296.7L854.3 1296.2C860.8 1295.7 868 1296.5 869.8 1298.2C871.6 1300 860.2 1299.8 854.3 1298Z" fill="#92785D"/>
<path d="M890.2 1298C890.2 1296 894.8 1294.6 895.9 1296.2C896.2 1297 895.2 1298 893.5 1298.5C891.7 1299 890.2 1298.8 890.2 1298Z" fill="#92785D"/>
<path d="M857.2 1293.1C853.8 1292.4 849.7 1290.8 847.9 1289.2C846.3 1287.7 843.8 1286.9 842.7 1287.4C841.4 1287.9 839.1 1287.4 837.5 1286.3C834.9 1284.3 834.9 1283.9 838 1279C839.8 1276.1 842.2 1273.6 843.5 1273.6C844.6 1273.6 846.9 1271.8 848.4 1269.5C851 1265.4 851 1264.9 847.9 1259.9C845.3 1255.8 844.8 1253 845.6 1249.1C846.6 1243.9 846.4 1243.7 841.8 1244.9C839.2 1245.6 835.9 1247.3 834.5 1249C833.2 1250.6 830.3 1252.6 828.3 1253.2C824.5 1254.3 824.5 1254.2 825.7 1247.3C826.4 1243.4 826.7 1228 826.7 1213.2C826.5 1196.4 827.2 1181.7 828.7 1174L831 1161.8L832.1 1168.7C832.8 1172.8 832.6 1176.7 831.6 1178.5C830.3 1180.8 830.9 1182.1 834.4 1185C836.8 1186.8 838.3 1189.1 837.7 1189.7C837 1190.4 835.4 1189.9 833.9 1188.7C831.1 1186.4 831.3 1186.1 831.1 1198C830.9 1203.2 831.8 1206.2 833.5 1207.5C835 1208.6 835.8 1209.8 835.3 1210.3C834.8 1210.8 836.4 1211.6 838.7 1212.3C841.5 1213 842.8 1214.4 842.8 1216.7C842.8 1219.3 843.6 1220 846.1 1219.3C848.2 1218.8 849.4 1219.3 849.4 1220.9C849.4 1222.4 850.4 1223 851.8 1222.4C855.4 1221.1 857.3 1226 855.4 1231.2C853.3 1236.9 856.9 1245.7 861.9 1246.9C865.3 1247.9 865.5 1248.2 863.2 1251.3C861.9 1253.3 860.8 1257.7 860.8 1261.3C860.8 1267.2 861 1267.5 863.7 1265.2C868.6 1261 870.6 1263.2 869.4 1272.4L868.4 1280.6L876.7 1279.5C886.2 1278.2 888.6 1280.3 885.2 1286.8C883.7 1289.4 883.7 1290.9 885.4 1292.7C887 1294.7 885.6 1295 875.3 1294.8C868.6 1294.6 860.5 1294 857.2 1293.3V1293.1ZM859.8 1284C862.6 1277 859.3 1273.9 852.1 1276.7C847.2 1278.7 847.5 1282.1 853.1 1284.7C858 1287.1 858.6 1287 859.8 1284Z" fill="#92785D"/>
<path d="M830 1286.9C829.8 1285.8 828.5 1284.9 827.1 1285.3C822.2 1286.1 822.2 1273.1 826.9 1266C830.2 1261.1 835.7 1257.5 837.2 1259.1C837.4 1259.3 837.2 1262 836.9 1265C836.2 1268.6 835.1 1270.2 833.1 1270.2C829.7 1270.2 827.2 1279.3 830 1282.6C831 1283.7 831.5 1285.7 831 1286.8C830.3 1288.6 830 1288.6 830 1286.8V1286.9Z" fill="#92785D"/>
<path d="M894.6 1270.1C893.1 1269.1 890.4 1269 888.6 1269.4C886.8 1269.9 883.7 1269.2 881.4 1267.8C878 1265.5 877.5 1264.4 879 1261.9C879.8 1260.1 880.3 1258.1 879.8 1257.3C878.3 1255.2 886.2 1250.8 892.2 1250.3C896.1 1250 897.4 1250.5 897.1 1252.1C896.6 1254.1 897.1 1254.1 899.1 1252.3C901.4 1250.5 901.7 1251.2 901.7 1257C901.7 1261.9 902.4 1263.7 904.1 1263.7C905.4 1263.7 906.5 1264.5 906.5 1265.3C906.5 1266.3 905.5 1266.9 904.2 1266.9C902.9 1266.9 901.6 1268 900.9 1269.3C899.9 1272.1 898.6 1272.2 894.5 1270L894.6 1270.1Z" fill="#92785D"/>
<path d="M875.5 1241.3C875.5 1238.9 877 1237.1 879.7 1235.9C885.9 1233.6 885.9 1234.8 880.4 1240.1C875.7 1244.7 875.5 1244.7 875.5 1241.2V1241.3Z" fill="#92785D"/>
<path d="M863.1 1240.3C861.5 1235.9 863.4 1233.3 865.4 1237.2C866.7 1239.5 866.9 1241.1 865.7 1241.8C864.7 1242.3 863.6 1241.6 863.1 1240.3Z" fill="#92785D"/>
<path d="M860.8 1173.2C861 1169 861.1 1168.6 862.6 1171.2C863.9 1173.5 863.9 1174.8 862.6 1176.1C861.3 1177.4 860.8 1176.6 860.8 1173.2Z" fill="#92785D"/>
<path d="M840.1 1168C836.5 1166.7 837.8 1164.2 842.1 1164.2C844.7 1164.2 846.2 1165.2 846.2 1166.6C846.2 1169 843.9 1169.5 840.2 1167.9L840.1 1168Z" fill="#92785D"/>
<path d="M841.4 1157.9C839.6 1156.8 839.9 1155.8 842.7 1153C846.6 1149.1 849.4 1148.6 849.4 1151.7C849.4 1155.3 843.9 1159.4 841.4 1157.9V1157.9Z" fill="#92785D"/>
<path d="M857.7 1155.8C856.9 1153.7 856.7 1151.4 857 1150.7C857.5 1149.9 856.3 1148.9 854.4 1148.4C850.5 1147.4 850.5 1147.3 852.4 1143.3C856.6 1135 857.8 1131.7 856.8 1130.2C856.3 1129.2 856.5 1128.1 857.3 1127.4C860.1 1125.8 862.2 1132.1 861.2 1139.5C860.5 1143.7 861 1147.8 862.3 1150.3C864.4 1154.4 863.6 1159.3 860.7 1159.3C859.7 1159.3 858.4 1157.7 857.6 1155.7L857.7 1155.8Z" fill="#92785D"/>
<path d="M827.9 1147.4C827.6 1142.8 828.1 1137.6 828.9 1136.8C829.4 1136.5 831.2 1137.8 833 1139.6C835.9 1142.5 836.1 1143.5 834.5 1146.3C831.4 1151 828.3 1151.7 828 1147.4H827.9ZM834.8 1144C834.8 1143.7 833.7 1142.5 832.4 1141.4C830.4 1139.8 830 1139.8 830 1142.1C830 1143.6 831.1 1144.7 832.4 1144.7C833.7 1144.7 834.8 1144.4 834.8 1144Z" fill="#92785D"/>
<path d="M902.1 1145.3C901.6 1144 901.9 1142 903.1 1140.9C904.4 1139.6 904.9 1140.2 904.9 1143.5C904.9 1148.4 903.8 1149.2 902.1 1145.3Z" fill="#92785D"/>
<path d="M877.5 1138.5C873.6 1133.3 875.1 1130 881.4 1130C884.3 1130 884.8 1130.8 884.7 1134.9C884.4 1142.6 881.4 1144 877.5 1138.5Z" fill="#92785D"/>
<path d="M839.8 1134.5C839.8 1129.9 840.1 1129.6 841.3 1132.4C843.3 1137 843.3 1139.7 841.3 1139.7C840.5 1139.7 839.7 1137.3 839.8 1134.5V1134.5Z" fill="#92785D"/>
<path d="M901.6 1125.9C900.6 1122.8 899.2 1120.2 898.7 1120.2C898 1120.2 896.3 1117.9 894.8 1115.1C892.5 1111.2 892.4 1109.6 893.8 1107.1C895.4 1104.7 895.3 1103.3 893 1100.9C891.4 1099.1 890.6 1096.7 891.2 1095C893.3 1089.6 896.7 1093.5 896.7 1101.2C896.7 1103.3 897.2 1105.4 898 1106.1C898.7 1106.8 899.1 1107.9 899.3 1108.4C899.8 1112.8 902.1 1114.8 905.8 1113.9C909.6 1113.2 909.7 1113.6 909.7 1122.4C909.7 1130.4 909.2 1131.5 906.6 1131.5C904.5 1131.5 902.8 1129.7 901.5 1125.8L901.6 1125.9Z" fill="#92785D"/>
<path d="M1335.9 1129.7C1336.2 1128.7 1338 1127.1 1339.8 1126.1C1343.7 1123.8 1345.3 1121.5 1344.2 1119.7C1343.4 1118.2 1348.8 1113.5 1350.4 1114.5C1351.7 1115.3 1351.1 1125.1 1349.4 1128.9C1348.1 1132.2 1334.7 1133.1 1335.9 1129.7V1129.7Z" fill="#92785D"/>
<path d="M1315 1122.8C1306.8 1117.4 1306.7 1117.1 1305.7 1107.1C1305 1101.4 1304.6 1094.5 1304.6 1091.8C1304.6 1083 1307.5 1090.5 1308.7 1102.6C1309.7 1112.7 1310.3 1114.2 1314.2 1115.8C1318.1 1117.6 1327.4 1125.9 1327.4 1127.5C1327.4 1129.6 1322.5 1127.7 1315 1122.8Z" fill="#92785D"/>
<path d="M1369.9 1123.5C1368.4 1120.7 1368.6 1120.2 1371.9 1120.2C1375.8 1120.2 1381 1122.8 1379.7 1124C1379.2 1124.5 1377.3 1125.3 1375.3 1125.8C1372.7 1126.6 1371.2 1126.1 1369.9 1123.5V1123.5Z" fill="#92785D"/>
<path d="M881.7 1120.7C876.8 1119.4 876.8 1113.2 881.7 1112.9C883.7 1112.7 885.3 1113.6 885.3 1114.7C885.3 1115.8 885.8 1117.8 886.3 1119.3C887.3 1121.9 886.8 1122.1 881.7 1120.8V1120.7Z" fill="#92785D"/>
<path d="M869.1 1109.3C866 1108.8 861.6 1107.2 859.5 1105.4C857.2 1103.8 854.1 1102.3 852.5 1102.3C846.6 1102.3 841.2 1098.7 841.2 1094.6C841.2 1090 840.4 1089.9 835 1094.3C830.8 1097.6 830.6 1097.6 829.9 1094.6C829.6 1093 828.6 1091.2 827.6 1090.5C826.5 1089.8 826.5 1086.1 827.6 1078.3C828.6 1071.9 828.7 1066.6 827.9 1065.7C825.9 1063.6 826.1 1058.2 828.1 1058.2C829.1 1058.2 829.7 1060 829.7 1062.1C829.7 1065 830.8 1066.2 834.8 1067C839.9 1068 839.9 1068 837.2 1071.9C835.4 1074.8 835.1 1077 836.1 1079.7C837.7 1083.3 837.7 1083.3 837.7 1079C837.9 1076.4 838.7 1074.4 839.5 1074.4C840.5 1074.4 841.1 1073.3 841.1 1072C841.1 1070.7 842.2 1069.6 843.7 1069.6C848.8 1069.6 869.8 1073 875.5 1074.7C879.9 1076 883.5 1076 889.4 1074.5C893.8 1073.4 900.5 1072.2 904.4 1071.7C911.3 1070.9 911.3 1070.9 910.9 1075.9C910.7 1078.7 909.6 1081 908.5 1081C907.4 1081 906.4 1081.8 906.4 1083C906.4 1085.8 904.6 1083.5 904.1 1079.9C903.4 1075.7 899 1076.1 899.2 1080.4C899.2 1082.8 898.5 1083.7 897.1 1083.2C895.8 1082.7 892.5 1084.3 889.9 1087C886.3 1090.4 885.3 1092.7 886 1095.3C886.8 1098.7 885.5 1099.9 881.4 1099.2C880.6 1099 880.4 1100.5 881.1 1102.3C882.1 1105.6 878.7 1110.8 875.9 1110.1C875.2 1110.1 872.1 1109.6 869 1109.3H869.1ZM873.8 1103.1C873.8 1101.8 872.7 1101.3 870.5 1101.8C867.9 1102.5 867.6 1103.1 869 1104.9C871.1 1107.5 873.7 1106.5 873.7 1103.1H873.8ZM885.1 1085C885.6 1082.4 885.3 1082.2 883 1084.2C879.9 1086.8 879.6 1089.7 882.5 1088.9C883.5 1088.4 884.8 1086.8 885.1 1085Z" fill="#92785D"/>
<path d="M1343.9 1105C1341.6 1102.1 1342.3 1095.4 1345.2 1093.1C1347.2 1091.5 1347.2 1090.3 1344.9 1084.6C1342.1 1077.7 1343.3 1069.6 1346.9 1069.6C1349 1069.6 1349.7 1074 1349.5 1089.5C1349.3 1104.2 1347.5 1109.2 1344 1105H1343.9Z" fill="#92785D"/>
<path d="M1367.7 1094.7C1366.4 1092.4 1369 1088.7 1371.3 1089.3C1372.6 1089.8 1372.6 1090.9 1371 1093.1C1369.7 1094.9 1368.2 1095.5 1367.7 1094.7Z" fill="#92785D"/>
<path d="M1368.1 1086.6C1368.1 1085.8 1367.8 1082.4 1367.4 1079.1C1367.1 1075.7 1367.4 1072.6 1368.2 1072.1C1368.9 1071.6 1368.7 1069.2 1367.7 1066.6C1366.4 1062.8 1366.4 1061.2 1368 1059.3C1369.3 1057.8 1370.8 1056.7 1371.4 1056.7C1373.4 1056.7 1374.3 1062.6 1372.9 1065C1372.2 1066.1 1372.4 1068.1 1373.2 1069.2C1374.3 1070.5 1374.3 1072.1 1373.2 1074.3C1372.2 1076.1 1372.2 1078.1 1373 1078.9C1373.8 1079.7 1373.2 1082 1371.2 1084.3C1369.6 1086.4 1368.1 1087.4 1367.9 1086.7L1368.1 1086.6Z" fill="#92785D"/>
<path d="M1304.8 1072.9L1305.1 1060.7L1306.2 1071.3C1307 1077.3 1306.9 1082.6 1306 1083.5C1305.2 1084.3 1304.7 1080.1 1304.7 1072.9H1304.8Z" fill="#92785D"/>
<path d="M907.3 1068L902.4 1066.7L907.8 1066.5C910.6 1066.5 913 1067.2 913 1068C913 1069 912.8 1069.5 912.7 1069.5C912.4 1069.3 910.1 1068.7 907.3 1068Z" fill="#92785D"/>
<path d="M456 1065.7C455.7 1065.4 446.5 1064.6 435.8 1064.1C409.2 1062.6 403.7 1061.8 404.3 1058.7C404.8 1056.3 415.1 1051.5 420.6 1051.2C422.7 1051 422.9 1050.4 421.6 1047.9C419.8 1044.3 421.8 1041.4 425.4 1042.7C426.7 1043.2 427.7 1045.6 427.5 1048.9C427.3 1051.7 427.7 1055.1 428 1056.2C429.1 1059 432.9 1058.6 434 1055.5C434.7 1053.9 436.1 1053.4 438.1 1054C439.7 1054.5 441.9 1053.8 443.2 1052.4C444.7 1050.6 446 1050.4 448.1 1051.6C453.3 1054.4 457.9 1053.6 457.9 1050C457.9 1048 459.4 1045.1 461 1043.3C464.3 1039.7 467.7 1040.4 467.7 1044.4C467.7 1046.4 468.4 1046.4 471 1045.1C473.4 1043.8 474.3 1043.8 474.3 1045.4C474.3 1046.7 475.8 1048.8 477.6 1050.5C481.7 1053.9 481.8 1060.9 478.1 1062.1C476.5 1062.6 472.2 1063.4 468.6 1063.9C465 1064.6 460.9 1065.4 459.5 1065.7C458.2 1066 456.7 1066 456.2 1065.7H456Z" fill="#92785D"/>
<path d="M1313.3 1060.3C1312.2 1059.8 1311.2 1058.5 1311.2 1057.2C1311.2 1054.1 1308.4 1054.3 1306.5 1057.9C1303.6 1063 1304.2 1032.8 1307.3 1027.1C1309.3 1023.2 1309.4 1021.6 1307.8 1019.8C1306.5 1018.2 1306.5 1017.5 1307.8 1017.5C1310.4 1017.5 1309.9 1013.3 1307 1010.8C1304.7 1008.8 1304.9 1008.5 1308.1 1007.4L1311.7 1006.1L1308.3 1002.3C1305.2 999 1304.7 996.6 1304.7 984.2V970L1309.3 973.1C1315.3 977.3 1334.6 982.1 1341 981.1C1343.9 980.6 1351.4 979.5 1357.5 978.5C1368.3 976.7 1378.1 972.3 1389 964.1C1394.7 959.9 1399.4 959.2 1399.4 962.8C1399.4 964.1 1397.9 965.2 1396.1 965.2C1394.5 965.2 1392.3 966.2 1391.7 967.3C1391 968.3 1388.9 970.1 1387.1 971.1C1385.3 972.1 1383.8 974.4 1383.7 976.2C1383.5 978 1382.2 981.3 1380.8 983.4C1379.3 985.5 1378.2 988.9 1378.2 990.9C1378.2 994.2 1377.2 996.4 1373.8 1002.6C1373.5 1002.9 1372.3 1002.3 1370.9 1001.1C1368.9 999.5 1368 999.5 1366 1001.1C1364 1002.7 1363.6 1002.7 1363.6 1000.6C1363.6 999 1361.8 997.8 1359.2 997.5C1355.6 997.2 1354.5 996 1353.8 992.1C1353 987.7 1352.3 987.2 1348.1 987.7C1341.6 988.5 1339.1 990.8 1339.1 996C1339.1 998.4 1337.6 1003.3 1336 1006.8C1333.1 1013 1333.1 1017.4 1336 1017.4C1338.8 1017.4 1337.5 1021.8 1333.4 1025.6L1329.3 1029.4V1025.5C1329.3 1021.6 1326.7 1017.5 1324.1 1017.5C1323.4 1017.5 1322.8 1018.6 1322.8 1019.9C1322.8 1021.2 1321.7 1022.3 1320.4 1022.3C1317.3 1022.3 1317.3 1024.9 1320.2 1026.7C1321.5 1027.4 1323 1030.8 1323.6 1034C1324.6 1039.5 1324.4 1039.9 1321.3 1039.1C1318.9 1038.4 1317.5 1039.3 1316.1 1042.5C1315 1044.8 1313.2 1046.7 1311.9 1046.7C1307.7 1046.7 1309.8 1049.8 1315.5 1051.8C1318.6 1052.9 1321.2 1054.4 1321.2 1054.9C1321.2 1057 1315.5 1060.9 1313.5 1060.3H1313.3ZM1372.4 991.3C1372.4 990.2 1371.1 988.4 1369.6 987.5C1367.5 986 1366 986.4 1363.6 988.6C1361.8 990.2 1360.5 992 1360.8 992.7C1362.1 994.7 1372.4 993.4 1372.4 991.2V991.3ZM1378.1 983.1C1378.1 982.3 1377.3 981.1 1376.3 980.5C1374.3 979.4 1371.2 982.9 1372.5 985.1C1373.5 986.6 1378 984.9 1378 983.1H1378.1Z" fill="#92785D"/>
<path d="M1367.3 1054.8C1366.8 1053.8 1367 1052.5 1368 1051.9C1371.3 1049.9 1371.9 1042.6 1369.1 1040.3C1366.5 1038 1367.1 1032.3 1370.6 1030.2C1375.2 1027.3 1376.3 1041.1 1372.4 1050.8C1369.8 1057.2 1369.1 1057.7 1367.3 1054.9V1054.8Z" fill="#92785D"/>
<path d="M395.6 1025.6C394.9 980.7 394.9 968.2 395.9 967.5C399.7 965.2 403.2 982.5 400 987.7C399.5 988.7 399 995.2 399.2 1002.2C399.4 1009.2 399.2 1015.4 399 1016.2C397.9 1019.6 398.2 1028.1 399.5 1029.9C400.3 1031 399.8 1033.7 398.4 1036.4C396 1040.8 396 1040.3 395.6 1025.5V1025.6Z" fill="#92785D"/>
<path d="M1368.9 1023.4C1368.4 1021.9 1369.4 1019.3 1371.5 1017L1374.9 1013.2L1373.8 1018.1C1372.3 1024.5 1370.2 1026.7 1368.9 1023.3V1023.4Z" fill="#92785D"/>
<path d="M477.4 1021.6C477.4 1020.3 476.6 1019 475.4 1018.7C474.4 1018.4 473.9 1016.7 474.6 1015.3C475.4 1012.9 476.2 1012.9 481 1014.8C487.9 1017.7 488.3 1023 482 1023.6C478.7 1023.9 477.4 1023.4 477.4 1021.6V1021.6Z" fill="#92785D"/>
<path d="M461.9 1015.9C462.4 1014.1 461.4 1008.2 459.5 1002.8C455.1 989.6 455.1 983.7 460 982.4C462 981.9 465.4 981.4 467.5 981.4C470.4 981.4 470.9 981.9 469.5 983.5C468.5 984.8 468.2 986.3 469 986.9C469.7 987.6 468.8 988.9 467.4 989.7C464.8 991.2 464.8 991.8 468.5 997.7C475 1008 473.2 1018.9 465.1 1018.9C461.8 1018.9 461.2 1018.2 462 1015.8L461.9 1015.9Z" fill="#92785D"/>
<path d="M408.4 1015.3C406.9 1010.9 409.4 1007.6 413.9 1007.6C419.1 1007.6 419.6 1008.6 416.2 1013.1C413.4 1016.9 409.3 1017.8 408.4 1015.2V1015.3Z" fill="#92785D"/>
<path d="M426.8 1010.7C426.8 1008.9 427.6 1007.9 428.4 1008.4C429.4 1008.9 430 1010.5 430 1011.8C430 1013.1 429.3 1014.1 428.4 1014.1C427.6 1014.1 426.8 1012.6 426.8 1010.7Z" fill="#92785D"/>
<path d="M489.8 1001.7C491.3 995.2 491.8 994.5 495.5 994.5C497.9 994.5 498.6 995.5 498.3 999.4C498.1 1002.2 497 1004.3 496 1004.3C494.9 1004.3 492.7 1004.8 491.3 1005.3C489.2 1006.1 488.9 1005.6 489.8 1001.7V1001.7Z" fill="#92785D"/>
<path d="M435.5 996.8C435 995.5 435.3 993.5 436.3 992.6C437.3 991.6 437.6 989.8 437.1 988.7C436.4 987.1 437.1 986.7 438.9 987.4C442.5 988.7 442.5 999.5 439.1 999.5C437.6 999.5 436.2 998.4 435.5 996.9V996.8Z" fill="#92785D"/>
<path d="M451.3 980.2C451.3 978.1 457.2 976.6 466.6 976.6C475.9 976.6 475.9 977.9 466.6 978.9C463.2 979.2 458.3 980 455.8 980.7C453 981.4 451.2 981.2 451.2 980.2H451.3Z" fill="#92785D"/>
<path d="M1324.2 976.8C1313.6 973.7 1304.6 969.1 1304.6 966.8C1304.6 964.2 1309.5 964.8 1314.1 968.1C1319.3 971.7 1338.4 977.1 1340.7 975.6C1341.5 975.1 1347.1 974 1352.9 973.2C1363.3 971.7 1372.8 967.5 1383.9 959.2C1386.8 957.1 1391.2 955.4 1394.5 955.4H1400L1394.3 958.5C1391.2 960.1 1384.5 964.2 1379.6 967.5C1374.7 970.8 1368.2 973.7 1364.9 974.2C1361.8 974.7 1355.8 975.8 1351.7 976.8C1339.1 979.6 1333.6 979.6 1324.1 976.8H1324.2Z" fill="#92785D"/>
<path d="M400.7 966.7C395.5 962.5 395.3 962.1 398.6 962C400.7 962 403.3 963.8 405 966.1C408.9 972 407.3 972.3 400.8 966.8L400.7 966.7Z" fill="#92785D"/>
<path d="M1752.8 969.8C1751.3 968.8 1751.3 968.2 1753.1 967C1754.6 966 1754.7 964.7 1753.6 962.6C1751.2 957.9 1749.8 943.8 1751.3 937.6C1752.8 931.2 1756.5 928.8 1756.5 934.2C1756.5 937 1757.2 937.5 1760.3 936.6C1765.5 935 1766.8 933.3 1765.5 929.4C1764.4 925.5 1761.4 924.8 1761.4 928.6C1761.4 929.9 1760.7 930.6 1759.8 930.1C1757.2 928.5 1757.8 923.6 1761.4 919C1763.2 916.7 1764.2 913.8 1763.7 912.5C1763.2 911.2 1764.7 907.1 1767 903.4C1771.7 895.9 1772.2 894.1 1769.3 893.1C1767.7 892.4 1767.7 891.5 1769.1 888C1771.2 883.6 1775.3 882.1 1776.4 885.2C1776.7 886.2 1779.8 887.3 1783.3 887.8C1787.9 888.3 1790.2 887.8 1791.6 885.8C1792.7 884.2 1794.7 883.4 1796.2 884C1799.8 885.3 1797.8 891.7 1793.9 891.7C1792.1 891.7 1790.8 892.5 1790.8 893.3C1790.8 894.3 1792.4 894.6 1794.6 894.1C1798.2 893.1 1798.4 893.4 1798.5 906.8C1798.8 920 1798.7 920.7 1795.6 919.9C1793.6 919.4 1791.2 916.3 1789.7 912.7C1788.1 908.5 1786.3 906.3 1784.2 906.3C1782.6 906.3 1781.1 907.1 1781.1 907.9C1781.1 908.9 1780 909.5 1778.7 909.5C1775.3 909.5 1775.6 903.5 1779.2 901.5C1781.2 900.4 1781.5 899.4 1780.2 898.1C1778.9 896.8 1777.3 898.6 1773.8 904.8C1770.9 910.7 1769.9 913.6 1771.2 914.1C1772.7 914.6 1772.3 915.6 1770.5 917.7C1769.2 919.2 1768.4 921.6 1769 923.1C1769.8 925.5 1770.3 925.5 1772.4 923.4C1775.8 920 1777 920.3 1777.5 925C1777.7 927.3 1776.4 930.5 1774.6 932.3C1772.8 934.1 1771.3 936.5 1771.3 937.7C1771.3 939.2 1769.3 939.8 1765.6 939.7C1757.3 939.5 1755 941.5 1760.9 944.1C1763.5 945.2 1766 946.7 1766.4 947.4C1766.9 947.9 1769.3 949 1771.8 949.5C1776.5 950.8 1776.2 951.1 1776.9 940.2C1777.1 938.7 1778.7 936 1780.8 934C1782.8 932.2 1784.4 929.1 1784.4 927.5C1784.4 925.7 1785.5 924.2 1786.8 924.2C1788.1 924.2 1790.7 923.2 1792.5 922.2C1796.6 919.6 1798.5 921.9 1798 928.6C1797.8 931 1797.5 938.7 1797.5 945.4L1797.3 957.6L1789.8 963.8C1781 970.8 1774.5 971.8 1774.3 966.2C1774 956.9 1772 952.8 1769.6 956.7C1767.5 960 1767.5 968.1 1769.6 968.1C1770.6 968.1 1771.2 968.9 1771.2 969.7C1771.2 971.7 1755.9 971.3 1752.8 969.4V969.8ZM1763.1 952.2C1763.1 950.4 1762 948.9 1760.7 948.9C1757.8 948.9 1757.6 950.9 1760.2 953.5C1762.8 956.1 1763.1 955.9 1763.1 952.2V952.2ZM1785.9 944C1785.9 942.4 1786.6 940.7 1787.4 940.4C1789.5 939.6 1791.3 932.6 1789.4 932.6C1788.6 932.6 1786.6 935.5 1785 939.1C1783.4 942.7 1781.6 945.6 1780.8 945.6C1780.1 945.6 1779.5 946.7 1779.5 948C1779.5 950.1 1780.2 950.3 1782.8 948.8C1784.6 947.8 1786.1 945.7 1786.1 943.9L1785.9 944Z" fill="#92785D"/>
<path d="M1730 947.7C1729.5 937.9 1729 917.4 1728.9 902C1728.7 877 1729.1 873.9 1731.3 874.8C1732.8 875.5 1733.4 876.9 1732.9 878.7C1730.8 885.2 1730.8 901.4 1732.9 904.3C1734 905.9 1734.7 909.4 1734.2 912.3C1733.7 915.1 1734.2 918.8 1735 920.6C1736.3 922.9 1736.3 924.4 1735 925.7C1734 926.7 1733.7 930.1 1734.3 934.5C1736.9 951 1737.1 956.5 1735.4 960.8C1732.3 968.8 1730.8 965.4 1729.9 947.7H1730Z" fill="#92785D"/>
<path d="M1728.8 837.4C1728.8 827.6 1729.3 819.9 1730.1 820.3C1730.8 820.6 1735.5 822.9 1740.7 825.4C1749.7 829.6 1753.3 832.7 1746.7 830.6C1743.1 829.5 1740 834.2 1742.9 836.1C1745.2 837.4 1744.2 850.8 1741.8 853.2C1740.8 854.2 1737.4 855 1734.3 855H1728.8V837.4Z" fill="#92785D"/>
<path d="M1793.3 851C1792.8 850.2 1790.5 849.4 1788.4 849.4C1784.6 849.4 1784.5 849.1 1786.4 845C1787.9 841.6 1787.9 840.6 1786.2 839.9C1785.2 839.6 1784.2 837.8 1784.2 836.1C1784.2 834.3 1783.5 833.2 1782.6 833.8C1781.8 834.3 1781.5 835.8 1781.9 836.9C1782.4 838.2 1781.9 839.7 1780.8 840.5C1778.8 841.6 1773.9 837.1 1772.3 832.5C1771.8 831.2 1770.3 831.7 1767.6 834.3C1762.9 838.5 1760.4 838.9 1759.1 835.3C1757.6 831.5 1757.8 831.4 1761.9 831.4C1767.8 831.4 1789 826.7 1792.4 824.5C1794.2 823.4 1795.8 822.9 1796.3 823.4C1796.8 823.9 1797.4 830.6 1797.8 838.4C1798.3 849.2 1798 852.6 1796.3 852.6C1795.2 852.6 1793.7 851.9 1793.2 851H1793.3Z" fill="#92785D"/>
<path d="M1742.5 824.2C1736.1 821.1 1730.4 817.8 1729.8 816.9C1727.7 813.5 1734.2 815.1 1746.3 821L1758.2 826.9L1771.6 824.3C1779.1 822.8 1785.8 820.9 1786.6 820.1C1787.6 819.1 1790.5 818.5 1793.3 818.5H1798.2L1791.7 821.6C1784.2 825 1764.3 830.1 1758.3 829.8C1756 829.8 1749 827.4 1742.6 824.4L1742.5 824.2Z" fill="#92785D"/>
<path d="M955.8 590.6C953.8 589.3 952.2 587 952.2 585.7C952.2 582.8 950.6 582.8 948.3 586C946.5 588.3 946.2 588.3 944.2 586C942.7 584.4 942.7 583.4 943.7 583.4C947.6 583.4 949.2 576.9 946.8 571.5C944.2 566.1 944 547.8 946.5 542.1C947.3 540.1 946.8 538.5 944.7 537C941.9 534.9 942.1 534.6 947.3 532.4C950.4 531.1 954 528.8 955.3 527.3C958.9 522.9 962 523.9 962 529.6C962 532.9 960.7 535.6 958.4 537.4C956.3 539.2 954.6 542.5 954.5 545.6C954.2 550.2 954.8 551 958.9 551.8C964.3 552.8 965.6 558 960.9 559.3C958.1 560 958.1 560.1 960.9 560.3C963.3 560.5 963.7 562.4 963.7 576.8C963.7 594.3 963 595.6 955.9 590.5L955.8 590.6Z" fill="#92785D"/>
<path d="M888.5 572.6C888.5 572.1 889.6 570.6 890.9 569.2C893.2 566.9 893.2 566.4 890.6 563.5C887.8 560.4 887.8 560.2 891.7 557.3C895.8 554.2 895.8 554.2 892.5 551.8C890.7 550.5 887.6 549.8 885.6 550.3C881.8 551.1 881.8 551 881.8 536.3C881.8 528.1 882.3 521.5 882.9 521.5C883.4 521.5 886.3 523.5 889.4 525.7C896.3 530.9 902.5 532.9 915.8 534.2C927.4 535.5 930 538 922.8 540.9C917.4 543.2 914.2 548.9 915.5 554C916 556.3 915.5 557.8 913.7 558.4C912.2 558.9 911.1 561.2 911.1 563.3C911.1 565.4 910.4 567.2 909.5 567.2C908.7 567.2 907.9 568.3 907.9 569.6C907.9 572.7 895.5 573 894.4 570.1C893.9 568.8 893.4 569.1 893.4 570.9C893.2 573.3 888.3 575.1 888.3 572.7L888.5 572.6Z" fill="#92785D"/>
<path d="M1398.3 535.4C1401.2 533 1401.2 532.8 1397.5 529.7L1393.6 526.4L1400.6 526.2C1406.8 526.2 1407.5 526.5 1407.5 530.1C1407.5 532.4 1406.4 534.3 1404.7 534.8C1403.1 535.1 1400.3 536.1 1398.5 536.8C1395.2 537.8 1395.2 537.8 1398.3 535.3V535.4Z" fill="#92785D"/>
<path d="M913.8 531.7C902.5 530.4 893.9 527.1 888 521.9C882.8 517.2 882.5 516.5 885.6 516.5C887.4 516.5 891.5 518.3 894.4 520.6C901.3 525.8 913.2 529.6 923.1 529.6C927.3 529.6 931.3 530.4 931.7 531.2C932.7 532.8 924.4 533 913.8 531.7V531.7Z" fill="#92785D"/>
<path d="M937.5 531.2C937.5 530.4 939.9 528.6 942.9 527.4C945.7 526.1 949.1 524 950.4 522.5C951.7 520.9 954.8 519.7 957.7 519.9C960.5 519.9 961.6 520.4 960.3 520.9C959 521.4 957.2 522.9 956.5 524C953.9 528.4 937.4 534.6 937.4 531.2H937.5Z" fill="#92785D"/>
<path d="M1384.1 524.5C1380.8 518.6 1380.7 515.9 1383.4 513.6C1387 510.7 1389.1 513.8 1388.6 521.1C1388.3 525 1387.8 528.4 1387.5 528.8C1387.2 529.1 1385.7 527.2 1384.1 524.6V524.5Z" fill="#92785D"/>
<path d="M1387.3 494.5C1385.8 490.7 1388.8 490.3 1391.9 493.7C1394.7 496.8 1394.7 497 1391.6 497C1389.6 497 1387.8 495.9 1387.4 494.6L1387.3 494.5Z" fill="#92785D"/>
<path d="M1316.2 451.7C1316 439.5 1316.4 438.2 1319.1 438.2C1322.5 438.2 1324.8 440.6 1326.4 446C1327.2 448.6 1326.9 449.6 1325.3 449.6C1322 449.6 1319.1 453.5 1317.6 459.9C1316.6 463.8 1316.3 461.7 1316.1 451.7H1316.2Z" fill="#92785D"/>
<path d="M1364.2 460.9C1362.6 458.5 1364.2 457.5 1368.6 458.1L1372.4 458.6L1368.8 460.7C1366.4 462 1364.9 462.2 1364.2 460.9V460.9Z" fill="#92785D"/>
<path d="M1345.9 454C1340.5 448.6 1341 446.2 1347.5 447.5C1354.2 448.8 1354.2 448.6 1352.9 453.7C1351.6 458.6 1350.6 458.8 1345.9 454Z" fill="#92785D"/>
<path d="M1344.6 445.2C1342 444.9 1339.1 443.7 1338.1 442.8C1337 441.7 1339.6 441.3 1346.9 442.1C1352.6 442.6 1361.7 443.1 1367.1 443.1C1372.5 443.1 1376.6 443.4 1376.1 443.9C1375 445 1350.3 446 1344.6 445.2V445.2Z" fill="#92785D"/>
<path d="M1323.4 438L1315.2 433.3H1321.1C1324.4 433.3 1327.8 434.3 1328.6 435.4C1330.1 437.2 1332.7 443.2 1331.9 442.9C1331.7 442.7 1328 440.6 1323.4 438V438Z" fill="#92785D"/>
<path d="M1399.6 440C1397.8 438.9 1398 438.4 1400.1 437.6C1404.3 436 1405.8 436.5 1405.8 439.1C1405.8 441.9 1402.9 442.2 1399.6 440.1V440Z" fill="#92785D"/>
<path d="M1392.7 436.9C1392.7 434.9 1394 433.1 1396.1 432.5C1401.2 430.9 1401.3 432.3 1396.8 436.6C1392.7 440.4 1392.7 440.4 1392.7 436.9V436.9Z" fill="#92785D"/>
<path d="M1316.5 414.5C1316.5 411.1 1316.8 410.7 1319.4 412.2C1321.2 413 1322.5 414.8 1322.5 416.1C1322.5 417.4 1321.2 418.5 1319.4 418.5C1317.3 418.5 1316.5 417.4 1316.5 414.4V414.5Z" fill="#92785D"/>
<path d="M854 1300.2C845.8 1298.1 855.6 1294.5 864.4 1296.3C872.6 1297.9 872.1 1301.4 863.7 1301.2C859.9 1301 855.4 1300.7 853.9 1300.2H854Z" fill="#7C6752"/>
<path d="M843.7 1297.9C843 1296.9 842.9 1295.8 843.4 1295.3C844.5 1294.2 847.8 1296.3 847.8 1298.2C847.8 1300.2 845 1300.2 843.7 1297.9V1297.9Z" fill="#7C6752"/>
<path d="M890.2 1298.2C890.2 1296.4 894.4 1294.6 895.7 1295.9C897.7 1297.9 896.5 1299.7 893.4 1299.7C891.6 1299.7 890.1 1299 890.1 1298.2H890.2Z" fill="#7C6752"/>
<path d="M901.6 1294.8C901.6 1294 902.3 1293.2 902.9 1293.2C903.6 1293.2 903.9 1290.6 903.6 1287.5C902.8 1280.8 905.9 1279.7 908.2 1285.9C909.3 1288.8 909.2 1291.1 907.7 1293.2C905.7 1296.6 901.7 1297.6 901.7 1294.8H901.6Z" fill="#7C6752"/>
<path d="M907 1246.3C904.6 1245.3 904.2 1237.7 906.5 1237.7C907.5 1237.7 908.6 1238.7 909.1 1240C910.4 1243.6 909.3 1247.2 907 1246.4V1246.3Z" fill="#7C6752"/>
<path d="M907 1225.1C903.7 1224 904.1 1205 907.3 1205C909.3 1205 909.7 1207.3 909.7 1215.6C909.7 1221.5 909.5 1226.2 909.4 1226C909.1 1226 907.9 1225.5 907 1225V1225.1Z" fill="#7C6752"/>
<path d="M904.9 1199.3C904.9 1196.7 905.9 1195.2 907.3 1195.2C908.8 1195.2 909.7 1196.7 909.7 1199.3C909.7 1201.9 908.7 1203.4 907.3 1203.4C905.8 1203.4 904.9 1201.9 904.9 1199.3Z" fill="#7C6752"/>
<path d="M907.8 1068.3C904.5 1068 903.2 1066.8 903.2 1064.5C903.2 1062.9 902.4 1061.4 901.2 1061.4C897.8 1061.4 901.2 1059.4 906.9 1058.1C912.1 1057 912.8 1057.3 913.8 1060.9C915.1 1066.3 913 1068.9 907.8 1068.2V1068.3Z" fill="#7C6752"/>
<path d="M861.6 1062.9C848.1 1060.9 846.8 1060.1 858.3 1060.6C863.7 1060.8 869.2 1061.4 870.5 1061.9C871.8 1062.6 875.9 1063.2 879.5 1063.5L886 1064.2H878.7C874.6 1064.2 867 1063.7 861.6 1062.9V1062.9Z" fill="#7C6752"/>
<path d="M827 1058.2C827.3 1053.3 830.3 1051.7 832.4 1055.3C833.1 1056.4 832.9 1056.6 831.7 1056C830.4 1055.2 829.7 1056.3 829.7 1058.9C829.7 1061.2 829 1063.1 828.1 1063.1C827.3 1063.1 826.8 1061 827 1058.2V1058.2Z" fill="#7C6752"/>
<path d="M430.9 980C410.5 975.8 394.2 965.5 394.2 956.7C394.2 954.4 393.9 949.4 393.4 945.4C391.8 932.8 393.1 932.8 416.4 944.4C436.6 954.5 437.9 955 445 953.7C451.5 952.4 467 946.2 469.3 943.9C469.8 943.4 473.4 941.5 477.5 939.3C481.6 937.2 487.6 933.9 490.9 932C494.3 930.2 497.4 928.9 497.8 929.4C498.1 929.7 498.8 937.9 499.1 947.7L499.9 965.2L486.4 971.9C478.9 975.5 470.1 978.8 466.7 979.1C452.7 980.9 437.3 981.2 431.1 980.1L430.9 980Z" fill="#7C6752"/>
<path d="M1324.2 976.8C1310.7 972.7 1304.6 969 1304.6 964.7C1304.6 961.3 1305.7 960.8 1316.5 959.2C1322.9 958.2 1331.2 956.6 1334.8 955.6C1338.4 954.5 1351.3 952.5 1363.4 951.4C1375.5 950.1 1388.5 948.6 1392.4 948C1399.3 946.9 1399.3 946.9 1399.3 952.1C1399.3 954.9 1398.5 957.2 1397.7 957.2C1396.7 957.2 1390.4 960.8 1383.3 965.4C1376.4 969.8 1368.1 973.9 1365 974.4C1361.9 974.9 1355.9 976 1351.8 977C1339.2 979.8 1333.7 979.8 1324.2 977V976.8Z" fill="#7C6752"/>
<path d="M1741.9 823.6C1730 817.7 1729.7 817.4 1729.2 811C1728.9 807.4 1729.2 805 1729.9 805.6C1730.6 806.4 1732 806.1 1733.2 805.1C1734.8 803.8 1737.8 804 1744 805.3C1748.7 806.4 1756.7 807.6 1761.6 807.9C1766.5 808.4 1772.5 808.9 1775 809.4C1777.3 809.7 1783.6 809.4 1788.7 808.6C1799.3 806.8 1801.4 807.8 1800 814C1798.7 819.2 1790.5 823.3 1773.9 827.2C1758.4 830.8 1756.1 830.6 1742.1 823.6H1741.9Z" fill="#7C6752"/>
<path d="M910.6 531C898 529 894.4 527.6 887.8 521.7L881.8 516.3L882.9 505.7C883.9 495.4 884 495.3 888.8 495.3C891.4 495.3 893.5 496 893.5 496.6C893.5 498.7 931 501.3 946.5 500.2C954.7 499.7 961.7 499.4 962.5 499.7C963.8 500.5 964.1 515.2 962.7 518.8C962.2 520.3 961.1 521.4 960.3 521.4C959.6 521.4 957.2 523.2 955.1 525.3C948.1 532.3 931.6 534.4 910.7 531H910.6Z" fill="#7C6752"/>
<path d="M1341.3 444.5C1336.9 443.5 1329.2 440.9 1324.7 438.5L1316.1 434.1V425.1C1316.1 412.4 1316.4 412 1330.8 414.7C1346.5 417.6 1379.7 419.1 1384.8 417.1C1386.9 416.4 1392.5 415.1 1397 414.5C1405.3 413.5 1405.5 413.5 1406 418.1C1407 425.3 1405.8 431.6 1403.6 431.6C1402.5 431.6 1399.5 433.7 1396.9 436.5C1394.5 439.1 1390 442 1387.3 442.9C1379.8 445.3 1350.8 446.2 1341.5 444.5H1341.3Z" fill="#7C6752"/>
<path d="M1532.5 207.6C1529.6 193.9 1529.7 191.8 1533.5 194.7C1535.1 196.2 1536.4 195.8 1538.9 193.7C1543.1 189.8 1560.8 179.3 1565.7 177.9C1568 177.2 1571.6 175.5 1573.7 174C1575.8 172.7 1579.1 171.2 1580.9 171.1C1582.7 170.8 1585 169.6 1586 168.3C1589.3 164.2 1593.5 164.1 1596.9 167.5C1598.9 169.5 1602.8 172.6 1605.9 174.7C1609 176.8 1610.8 178.9 1610 179.6C1609 180.1 1608.7 181.6 1609.3 183C1610 185 1609.3 185.3 1605.9 184.3C1602.6 183.5 1601.8 183.8 1602.5 185.6C1603.2 187.1 1594.7 192.1 1573.6 202.9C1531.5 223.9 1535.9 223.5 1532.6 207.6H1532.5Z" fill="#7C6752"/>
<path d="M1258.1 842.7C1236.6 839.9 1221.4 836.3 1221.4 833.9C1221.4 833.2 1222.5 831.8 1224 830.3C1225.3 828.8 1226.1 826.7 1225.5 825.4C1224.8 823.4 1225.5 823.1 1228.8 823.9C1256.7 830.9 1298.3 832.7 1331.6 828.3C1340.6 827.2 1352.3 826.3 1357.7 826.5C1369 826.7 1386.3 823.6 1386.3 821.3C1386.3 820.5 1388.4 820.2 1391 820.8C1394.1 821.5 1396.5 821 1398.2 819.2C1400 817.6 1402.3 817.1 1405.1 817.7C1407.4 818.2 1409.2 818 1409.2 817C1409.2 816.2 1413 815 1417.5 814.6C1422.1 813.9 1426.6 812.8 1427.8 812C1428.8 811.2 1432.4 810 1435.8 809.4C1439.2 808.7 1441.8 807.3 1441.8 806C1441.8 804.7 1443.3 803.9 1445.6 804C1450.5 804.5 1459.8 800.1 1459.8 797.5C1459.8 795.9 1461.1 795.5 1464.4 796.2C1466.8 796.9 1470.8 796.2 1473.2 794.9C1480.2 791.1 1482 796.2 1475.8 802.1C1470.3 807.3 1441 820.9 1427.2 824.9C1420.5 826.9 1410.9 829.6 1406 831.1C1401.1 832.6 1395.4 833.7 1393.4 833.4C1391.3 833.2 1389.6 833.9 1389.6 834.9C1389.6 836.2 1386.5 836.5 1379 835.9C1370.8 835.4 1367.7 835.7 1365.9 837.5C1361.2 842.1 1299.7 846 1293.3 842.1C1292.3 841.4 1291.7 841.9 1291.7 842.8C1291.7 844.9 1273.4 844.9 1258.3 842.8L1258.1 842.7Z" fill="#29522B"/>
<path d="M1286.7 738.4C1272.8 737.1 1254.4 733.8 1251.8 732.4C1250.8 731.7 1247.6 730.9 1244.5 730.4C1237.6 729.3 1236.2 726 1241.6 723.5C1244.9 722 1248.9 722.5 1262.5 725.9C1277.3 729.7 1283.1 730.1 1308.2 730.3C1325.5 730.5 1338.2 729.8 1340.2 728.8C1343.6 727 1346.9 727 1350 729C1351 729.7 1352.8 729.8 1354.1 729.5C1355.2 729.2 1358.3 728.4 1360.8 727.9C1363.2 727.2 1364.9 726.1 1364.4 725.1C1363.7 724.1 1365.7 724 1369.9 724.6C1373.7 725.3 1376.6 725.1 1376.6 724.1C1376.6 723.3 1380.4 722.5 1385.1 722.3C1396.2 721.8 1406 719 1407.1 716.1C1407.6 715 1409.1 713.8 1410.4 713.8C1415.6 713.8 1425.4 710 1429.7 706.3C1432.3 704.2 1435.2 702.4 1436.2 702.4C1437.3 702.4 1439.1 701.3 1440.3 700C1441.4 698.7 1443.4 697.6 1444.7 697.6C1446.2 697.6 1446.8 698.6 1446.2 700C1445.7 701.3 1446 702.4 1446.9 702.4C1453.6 702.4 1439.2 715.6 1424.9 722.8C1410.9 730 1399 732.6 1369.3 735C1356.9 736.1 1346.5 737.6 1346.1 738.4C1345.4 740 1305.6 739.9 1287 738.2L1286.7 738.4Z" fill="#29522B"/>
<path d="M1322.2 644.6C1321.7 644.1 1307.7 642.3 1290.9 640.5C1274.3 638.9 1259.7 636.9 1258.9 636.4C1257.9 635.9 1257.3 633.8 1257.3 631.8C1257.3 628.4 1257.8 628.2 1271.5 628.7C1279.5 628.9 1292.5 629.8 1300.9 630.7C1320 632.8 1336.8 632.8 1338.1 630.7C1338.6 629.9 1341.2 629.6 1343.8 630.2C1347.2 630.9 1348.7 630.5 1348.7 629.1C1348.7 627.6 1350.8 627.3 1356.2 628C1361.6 628.5 1363.9 628.2 1364.5 626.5C1365 625.2 1367.6 624.2 1370.7 624.2C1377.7 624.2 1381.3 622.7 1381.3 620C1381.3 618.4 1383.4 617.7 1387.8 617.7C1392.4 617.7 1394.8 616.9 1395.5 615.1C1396.2 613.3 1397.6 613 1401.4 613.8C1404 614.3 1406.6 614.1 1407.3 613.3C1407.8 612.3 1410.7 611.2 1413.7 610.7C1418.1 609.7 1418.9 610 1418.9 612.8C1418.9 614.8 1417.8 616.1 1416.3 616.1C1414.8 616.1 1412.5 617.6 1410.9 619.5C1409.1 621.8 1406 623.1 1401.4 623.3C1397.8 623.5 1393.6 624.9 1392.1 626.4C1390.5 627.9 1387.5 629.2 1385.2 629.2C1383.1 629.2 1381.3 629.9 1381.3 630.7C1381.3 631.5 1380 631.8 1378.2 631.4C1376.6 631.1 1374 631.9 1372.5 633.5C1370.9 635 1367 636.8 1363.7 637.4C1360.4 638.2 1350.2 640.2 1340.9 642.1C1321.5 646 1323.4 645.9 1322.3 644.7L1322.2 644.6Z" fill="#29522B"/>
<path d="M660.1 1143.8C660.1 1142.5 660.9 1141.4 661.7 1141.4C662.7 1141.4 663.3 1142.5 663.3 1143.8C663.3 1145.1 662.6 1146.2 661.7 1146.2C660.9 1146.2 660.1 1145.1 660.1 1143.8Z" fill="#B52121"/>
<path d="M578.9 1129.8C579.2 1128.8 580.2 1128.2 581 1128.2C581.8 1128.2 582.8 1128.9 583.1 1129.8C583.4 1130.8 582.4 1131.6 581 1131.6C579.5 1131.6 578.6 1130.8 578.9 1129.8Z" fill="#B52121"/>
<path d="M623.6 1115.6C623.3 1114.9 623.6 1113.3 624.4 1112C625.7 1109.9 626 1109.9 627.3 1112C628.9 1114.4 628.3 1116.9 625.8 1116.9C625 1116.9 624 1116.2 623.5 1115.6H623.6Z" fill="#B52121"/>
<path d="M604.2 1106.2C602.9 1104.9 604.4 1102.3 606.5 1102.3C607.3 1102.3 608 1103.4 608 1104.7C608 1107.1 606 1108 604.2 1106.2Z" fill="#B52121"/>
<path d="M592.2 1092.3C590.6 1089.5 594.3 1086.4 596.6 1088.7C598.6 1090.7 597.3 1094.1 594.8 1094.1C594 1094.1 592.8 1093.3 592.2 1092.3V1092.3Z" fill="#B52121"/>
<path d="M141.3 828.3C141.3 826.5 142 824.9 142.8 824.9C145.7 824.9 146.2 827.8 143.8 829.8C141.7 831.4 141.4 831.3 141.4 828.3H141.3Z" fill="#B52121"/>
<path d="M1532.4 598.6C1530.4 596.6 1531.4 593.2 1533.9 593.2C1535.2 593.2 1536.3 594.2 1536.3 595.5C1536.3 598.3 1534 600.1 1532.4 598.6V598.6Z" fill="#B52121"/>
<path d="M1499.9 592.2C1498.6 590.9 1500.1 588.3 1502.2 588.3C1503 588.3 1503.7 589.4 1503.7 590.7C1503.7 593.1 1501.7 594 1499.9 592.2Z" fill="#B52121"/>
<path d="M1592.7 586C1593.8 582.9 1598.9 582.4 1597.9 585.5C1597.4 586.5 1595.9 587.6 1594.5 587.9C1592.5 588.2 1592.1 587.7 1592.7 585.9V586Z" fill="#B52121"/>
<path d="M1522.4 576.9C1521.7 575.9 1522.2 574.1 1523.2 572.7C1525.5 570.1 1529.7 572.4 1529.7 576.3C1529.7 578.9 1523.8 579.4 1522.4 577V576.9Z" fill="#B52121"/>
<path d="M1562.4 572.8C1562.4 571.5 1563.5 570.4 1564.8 570.4C1566.1 570.4 1567.2 571.5 1567.2 572.8C1567.2 574.1 1566.1 575.2 1564.8 575.2C1563.5 575.2 1562.4 574.1 1562.4 572.8Z" fill="#B52121"/>
<path d="M1509.5 564.3C1507.7 562.5 1508.5 560.5 1511 560.5C1512.3 560.5 1513.4 561.2 1513.4 562C1513.4 564.1 1510.8 565.6 1509.5 564.3Z" fill="#B52121"/>
<path d="M1608.6 561.2C1607.3 557.6 1609.4 556.3 1612.4 559.2C1614.7 561.5 1614.7 561.8 1612.2 562.6C1610.7 563.3 1609.3 562.8 1608.6 561.1V561.2Z" fill="#B52121"/>
<path d="M1529.8 552.4C1529.8 550.6 1530.9 549.1 1532.2 549.1C1533.5 549.1 1534.6 550.6 1534.6 552.4C1534.6 554.2 1533.5 555.7 1532.2 555.7C1530.9 555.7 1529.8 554.2 1529.8 552.4Z" fill="#B52121"/>
<path d="M1562.7 541.6C1563.4 538.2 1566.3 537.8 1566.9 541.4C1567.2 543 1566.4 544.2 1564.8 544.2C1563.2 544.2 1562.4 543.2 1562.7 541.6Z" fill="#B52121"/>
<path d="M1594.5 543.1C1592.5 541.3 1593.2 539.3 1595.8 539.3C1597.1 539.3 1598.2 540.4 1598.2 541.7C1598.2 544.3 1596.2 545 1594.4 543L1594.5 543.1Z" fill="#B52121"/>
</svg>
