<svg width="1886" height="1232" viewBox="0 0 1886 1232" fill="none" xmlns="http://www.w3.org/2000/svg">
<path d="M641.8 1125.7L634 1125V1093.7C634 1076.4 634.8 1059.8 635.6 1056.7C636.6 1053.6 638 1038.1 639 1022.4C640 1006.7 641.1 990.3 641.8 985.7L642.9 977.5L652 977C660.5 976.5 668.5 977.7 686.9 981.6C707.8 986 728.5 1000.9 740.7 1019.8C755.9 1043.5 751.5 1076.9 730.6 1098.1C723.7 1105.1 706.3 1117 702.9 1117C702.1 1117 698.5 1118.5 694.9 1120.1C691.5 1121.7 682 1124 673.9 1125C659.4 1126.8 657.1 1126.8 641.8 1125.7Z" fill="#3B753E"/>
<path d="M867.3 993.6C852.5 991.5 852.6 991.5 852.6 987.4C852.6 984 853.4 983.3 857.2 983.3H861.9L863 943.8C864.1 904 865.8 868.9 868.9 821.8C870.9 793.4 874.6 725.7 876.9 679C878.7 645.9 881.1 606.4 883.6 570.3C884.6 558.2 885.2 537.2 885.2 523.5V498.7L889.3 497.7C891.6 497.2 899.1 497 905.9 497.4C919.3 498.1 929.4 501.6 937.7 508.8C940.1 510.9 945.2 515.2 949 518.3C963 529.9 963.5 530.5 963.5 537.4C963.5 541.3 964.5 544.9 965.9 546C967.4 547.1 968.2 548.9 967.9 549.9C967.6 550.9 970.5 555.3 974.3 559.7C978.2 563.9 981 568.2 980.5 569C980 569.8 981 570.5 982.5 570.5C984.1 570.5 984.9 571 984.5 571.5C983.8 572 984.7 573.8 986.1 575.3C991.6 581.2 994.6 585.4 994.6 587.4C994.6 588.5 996.6 592.3 998.8 595.7C1001.2 599.1 1002.1 601.6 1000.9 600.9C999.4 600.1 999.6 600.6 1001.1 601.9C1002.6 603 1005.3 607.3 1007.3 611.4C1009.4 615.5 1013.2 622.8 1015.8 627.7C1018.4 632.6 1020.5 639 1020.7 641.6C1020.7 646.7 1025.1 660.9 1028 665.3C1033.2 673.3 1037.8 689.8 1034 687.5C1033 687 1032.5 687.5 1032.7 688.5C1033 689.6 1033.7 693.6 1034.3 697.1C1035 700.7 1036.6 708 1037.7 713.4C1043.7 739.8 1041.9 805.4 1034.6 834.1C1029.9 851.9 1030.2 851.1 1013.4 885.5C1002.3 908.3 988.1 931.7 980.9 938.7C978.9 940.7 975.4 944.4 973.1 947C967.9 952.9 945 970.3 942.4 970.3C941.4 970.3 940.6 971.1 940.6 971.9C940.6 972.9 939.9 973.5 939 973.5C936.1 973.5 918.6 982.3 915.7 985.2C914.1 987 913.1 989.3 913.4 990.4C914.5 993.3 904.6 995.5 903 992.8C902.2 991.3 899.2 991.3 891.4 992.8C881 994.6 875.2 994.8 867.3 993.5V993.6Z" fill="#3B753E"/>
<path d="M1342.1 878.7C1340.8 873 1339.8 851.3 1339.3 818.2L1338.5 766.3H1344.2C1352 766.3 1360 764.5 1360 762.9C1360 762.1 1355.6 761.4 1350.2 761.4C1341.1 761.4 1340.2 761.1 1338.8 757.2C1337.8 754.9 1337.2 740.4 1337.2 725.1C1337.2 709.6 1336.7 689.9 1336.1 681.2C1335.1 665.9 1335 665.2 1331.2 665.2C1327.9 665.2 1327.4 664.4 1327.4 659.5C1327.4 654.8 1328.1 653.8 1331 653.8H1334.4L1333.4 610.7L1332.4 567.5L1336 566.8L1339.6 566.1L1336 565.8C1333.6 565.6 1331.9 564.3 1331.4 562C1330.9 559.9 1330.4 523.8 1330.1 481.6L1329.8 404.9L1336.2 404.4C1342.4 403.9 1350.7 406.4 1354.6 409.8C1355.6 410.6 1358.8 413.2 1361.9 415.5C1372.7 423.5 1386 438.7 1386 442.9C1386 444 1388.6 448.9 1391.7 453.8C1400.5 467.7 1405.9 482 1406.4 492.6C1406.9 501.4 1411.1 513.3 1413.9 513.3C1414.6 513.3 1416.3 518.8 1418 525.7C1420.3 535.3 1420.6 539.1 1419.1 542.7C1417.5 546.8 1417.8 547.8 1420.9 549.9C1429.2 555.6 1441.3 568.5 1443.7 574.4C1449.4 588.3 1452.3 617.5 1448.8 626.1C1448 628.2 1449.6 629.5 1456.3 631.8C1471.3 637.2 1480.3 651.5 1487.8 682.2C1489.9 691.2 1489.9 693 1487.1 703.4C1485.5 709.8 1483 717.9 1481.7 721.7L1479.1 728.6L1486.8 732.4C1499.9 738.8 1516.8 759 1522.9 775.8C1528.3 790.2 1528.6 801.3 1524.5 818.4C1520.3 836.3 1516.5 841.7 1503.6 847.4C1498.5 849.5 1492 852.5 1489.1 853.8C1481.3 857.4 1466.1 862.1 1458.6 863.4C1448.8 865 1424.2 870.3 1411 873.5C1402 875.6 1399.1 877.1 1399.1 879C1399.1 882.8 1388.5 884.9 1363.5 886.3L1343.9 887.4L1341.9 878.6L1342.1 878.7Z" fill="#3B753E"/>
<path d="M94.6 823.9L86.3 823.2L85.5 807.5C84.2 784.8 86 696.1 87.8 695.1C90.4 693.5 127.4 694.1 135.6 696.1C156.6 700.8 180.8 717.3 192.2 734.9C210.1 762.1 202.3 789.9 171.3 808.8C166.1 812.1 157.6 816.1 152.7 817.6C147.8 819.2 142.4 821.2 140.8 822C137.5 823.6 106.9 824.9 94.6 823.8V823.9Z" fill="#3B753E"/>
<path d="M1286.7 772.8C1286.7 766.4 1286.9 766.3 1292.4 766.3C1297.9 766.3 1298.1 766.5 1298.1 772.8C1298.1 779.2 1297.9 779.3 1292.4 779.3C1286.9 779.3 1286.7 779.1 1286.7 772.8Z" fill="#3B753E"/>
<path d="M417.8 755C408.8 750.6 397.1 744.4 391.7 741.3C386.3 738.2 375.7 732.2 368 727.9C328.4 705.4 314.3 697.4 302.6 690C299.3 687.9 294.8 686.2 292.3 686.2C286.9 686.2 286.8 683.4 292.1 681L296.3 679L291.9 675.2C289.5 673.1 286.5 671.4 285.4 671.4C284.3 671.4 283.1 670.9 282.8 670.1C282.6 669.4 278.7 666.2 274.2 662.9C262.5 654.3 254.8 645.9 255.9 643C256.6 641.5 256.2 640.4 255.4 640.4C252.5 640.4 253.8 637 258.3 633.1C260.7 630.8 267.1 624.9 272.5 619.9C277.9 615 287.5 607.8 293.7 604.1C300.1 600.3 307.9 595.5 311.2 593C316.7 589.1 317.1 588.6 314.5 586.1C312.1 583.5 312.2 583.3 318.3 583.3C322.2 583.3 326.5 584.6 328.9 586.6C331.2 588.4 333.8 589.9 334.6 589.9C335.6 589.9 338.8 591.7 341.9 593.8C348.3 598 385 619.4 400.8 627.9C406.5 631 420.9 638.8 432.5 645.2C444.2 651.6 455.2 656.8 457.1 656.8C458.9 656.8 464.4 654.7 469.3 652.2C486.6 643.1 504.4 633.3 514 627.4C539.1 612.1 562.1 599.7 565.2 599.7C567.2 599.7 568.6 598.7 568.6 597.3C568.6 595.8 571.4 593.5 574.6 591.9C578 590.4 581.9 587.8 583.6 586.4C590.3 579.7 609.4 575.6 609.4 580.9C609.4 582.2 608.1 583.7 606.6 584C604.2 584.7 604.3 584.8 607.1 585C610.4 585.2 617.9 588.1 624.9 592C643.2 602.3 647.9 605.2 649.4 607.2C650.4 608.3 653.6 610.5 656.7 611.8C663.1 614.4 674.6 624.4 674.6 627C674.6 630.1 660.2 641 650.5 645.6C648.4 646.4 645.8 648.2 644.6 649.4C638.6 655.1 633 659.2 626.8 662.3C623 664.3 617.5 667.5 614.6 669.5C610 672.4 609.5 673.3 612.2 673.9C614.6 674.4 614.3 674.9 610.4 676.5C607.8 677.5 603.2 680.6 600.1 683.2C593.9 688.7 585.6 693.2 576 696.3C572.4 697.4 561.8 703 552.3 708.5C542.8 714 533.2 719.8 530.8 720.9C528.4 722.2 518.6 727.8 508.8 733.5C476.3 752.4 455.4 761.9 444.2 762.7C434.6 763.4 433.3 763 417.8 755.2V755Z" fill="#3B753E"/>
<path d="M1247.5 757.3C1247.5 751.9 1247.8 751.6 1253.2 751.6C1258.6 751.6 1258.9 751.9 1258.9 757.3C1258.9 762.7 1258.6 763 1253.2 763C1247.8 763 1247.5 762.7 1247.5 757.3Z" fill="#3B753E"/>
<path d="M1762.3 743.4C1749.7 742.1 1747.3 741 1746.3 735.6C1745.2 729.7 1749.4 660.1 1754.9 595.8C1757.3 566.8 1761.4 516.5 1763.9 482.4C1765.2 464.9 1767 442.1 1767.8 431.8C1768.8 421.5 1770.6 399.2 1772 382C1775.4 338.1 1778.9 301.4 1781 282.6C1783 265.3 1784.1 263.2 1792.6 261.4C1798 260.4 1808.8 262.1 1808.8 263.8C1808.8 264.6 1809.8 265.3 1810.9 265.3C1813.2 265.3 1829 281.5 1834.7 289.6C1839.9 296.9 1859.3 335.4 1859.3 338.2C1859.3 339.3 1860 341.6 1860.8 343.3C1866.2 353.6 1875.6 391.4 1875.6 403C1875.6 406.8 1876.7 413.9 1878 419C1884.4 443.6 1885.7 458 1884.9 498.8C1883.9 556.4 1879.7 591.8 1868.9 635.7C1865 651.9 1861.9 662.3 1860.7 664.3C1860 665.3 1859.1 669.2 1858.4 673.3C1857.7 677.4 1856.6 681.5 1856.1 682.3C1855.4 683.3 1853.2 689.2 1851.2 695.7C1848.4 704.7 1846.1 708.9 1840.9 713.8C1834.5 720.2 1812.5 732.1 1803.4 734.4C1800 735.2 1799 736.4 1799.3 739C1799.6 742.1 1798.6 742.8 1792.3 743.9C1783.7 745.2 1775.5 745 1762.1 743.6L1762.3 743.4Z" fill="#3B753E"/>
<path d="M1231.2 662.8C1231.2 660.7 1239.2 653.7 1241.6 653.7C1242.1 653.7 1242.6 656.3 1242.6 659.4C1242.6 664.8 1242.3 665.1 1236.9 665.1C1233 665.1 1231.2 664.3 1231.2 662.8Z" fill="#3B753E"/>
<path d="M1120.7 642.6C1119.9 641.9 1117.8 637.9 1116.1 633.3C1109.7 616.2 1103.9 611.6 1091.5 614.7C1085.3 616.3 1083.7 616.2 1081.5 614C1079.2 611.9 1079.7 611.1 1086.2 607.3C1095.2 602.1 1098.1 602.1 1107.7 607.1L1115.2 611V604.8C1115.2 598.3 1117 596.5 1123.5 596.5C1126.1 596.5 1126.4 597 1125 599.6C1124.2 601.4 1123.4 606.8 1123.5 611.5V620.1L1126.6 613.2C1131.8 601.5 1149.4 593.3 1150.7 602.1C1151 604.7 1149.7 606 1145.6 607.5C1137.9 610.3 1133 616 1132.1 623.5C1131 631 1126.4 641.6 1123.9 642.8C1122.9 643.1 1121.5 643 1120.5 642.5L1120.7 642.6Z" fill="#3B753E"/>
<path d="M460.3 593.5C455.7 592.2 439.3 584 424.6 575.6C421 573.5 414.3 569.9 409.9 567.6C405.3 565.3 398 561.1 393.4 558.1C385.1 552.9 375.9 547.8 360 539.2C341.9 529.4 340.1 527.9 342.4 525.3C344 523.3 343.9 522.5 342.1 521.5C340.8 520.7 333.6 515.6 326.3 510.1C308.8 497.2 308.5 494.3 323.7 482C330.1 476.9 344.6 467.6 346.1 467.6C346.9 467.6 348.9 466 350.7 464C352.7 461.7 354.3 461.1 354.9 462C355.6 463 359.6 464.6 364.2 465.8C372.2 467.8 384.1 473.3 403.4 483.9C408.8 487 422 494 432.8 499.9C443.6 505.6 456.5 512.6 461.4 515.2C466.3 518 474.3 522.2 479 524.8L487.5 529.5L497.8 523.3C503.3 519.9 511.2 515.1 515.3 512.9C534.6 502.1 551.8 492.2 567.2 482.7C576.5 477 584.7 472.4 585.1 472.4C585.8 472.4 589 470.6 592.3 468.3C599.2 463.7 602.6 463.2 604.5 466.5C605.2 467.6 612.5 472.7 620.5 477.8C635.2 486.9 640.9 491.8 640.9 495.7C640.9 496.8 637.5 499.6 633.2 501.7C629.1 504 618 510.3 608.7 516.1C599.4 521.6 591.1 526.2 590.3 526.2C589.3 526.2 588.7 527 588.7 527.8C588.7 528.8 587.6 529.4 586.3 529.4C585 529.4 583.9 530.2 583.9 531C583.9 532 584.7 532.6 585.5 532.6C588.8 532.6 587 535.5 582.7 537.3C577.6 539.3 570.1 543.5 561.3 549.2C556.1 552.6 531 567.6 514.5 577.1C488.6 591.9 473.2 596.5 460.7 593.1L460.3 593.5Z" fill="#3B753E"/>
<path d="M1551.1 538.4L1542.5 537.7L1543.6 532.5C1544.1 529.6 1545.1 508.7 1545.6 486C1546.6 438.8 1545.8 441.1 1561.9 441.1C1572.2 441.1 1577.7 444.4 1581 452.2L1583.4 457.9L1588.8 455C1596.8 450.6 1608.9 447.7 1615.1 448.6C1624.1 450.1 1637 456.6 1639.2 460.8C1641.6 465.2 1641.8 485.8 1639.5 491.1C1629.9 513.1 1619.8 526.2 1608.5 531.2C1591.9 538.5 1579.1 540 1551.1 538.2V538.4Z" fill="#3B753E"/>
<path d="M473 475.5C468.3 470 459.6 381.8 459.5 339.9C459.5 319.3 459.5 319 463.6 317.2C465.9 316.2 467.7 314.8 467.7 314.1C467.7 309.2 489.7 328.6 506 347.7C509.6 351.9 514.3 357.3 516.6 359.8C518.9 362.1 523.3 367.3 526.4 371.2C529.5 375.3 533.6 380 535.4 382C540.8 387.7 549.8 398 556 405.7C559.3 409.8 564.5 415.8 567.7 419.2C570.8 422.6 573.7 427.7 574.4 430.3C574.9 432.9 576.2 434.9 577.3 434.7C580.7 433.9 579.1 443 575 447.4C568.1 454.7 557.1 460.1 540.2 464.5C537.6 465.2 529.1 467.9 521.4 470.7C504.6 476.9 476.4 479.7 472.9 475.4L473 475.5Z" fill="#3B753E"/>
<path d="M917.1 435.7L912.2 434.9L912.5 385.6C913.3 302.6 916.6 116.1 917.4 115.2C917.7 114.9 929.1 114.5 942.9 114.5C969.5 114.3 980.3 116.3 1001.1 124.3C1011.9 128.5 1026.6 136.2 1031.6 140.3C1057.9 161.3 1058.4 162 1068 174.9C1077 186.8 1089.2 211 1089.2 216.7C1089.2 218 1089.9 219.6 1090.5 220.5C1097.4 228.3 1098.8 282.8 1092.8 303.7C1087.9 320.7 1086.8 324.1 1085.6 324.1C1084.9 324.1 1084.3 325.2 1084.3 326.5C1084.3 331.9 1070.9 353.9 1057.4 370.6C1049.2 380.7 1042.1 387.7 1030.5 396.4C1025.6 400.2 1021.2 403.6 1020.7 404.1C1018.3 406.9 982.7 422.7 975.8 424.3C965.7 426.6 962.3 428.7 963.1 432C963.9 434.8 963.1 435.1 956.1 435.1C951.7 435.1 942.2 435.4 935.1 435.8C927.9 436.1 919.8 436.1 917.2 435.8L917.1 435.7Z" fill="#3B753E"/>
<path d="M1364.8 352.4C1361.5 351.6 1360.1 330.5 1360.1 284.2C1360.1 267.2 1359.3 235.9 1358.5 214.9C1357.7 193.9 1356.5 137.7 1355.9 90.0999L1354.8 3.59991L1361.2 1.59991C1366.4 0.0999126 1371 0.299888 1386.3 2.69989C1411.3 6.59989 1420.1 9.19996 1438.5 18.4C1457.6 27.9 1468 35.3999 1485.3 52.4999C1503.7 70.2999 1518.1 92.3 1525.3 113.4C1528.4 122.5 1528.2 124 1528.2 124L1533.6 145.5L1534.5 152C1534.5 152 1535.7 157.9 1535.6 177.5C1535.6 194 1534.8 206.4 1533.6 210C1532.5 213.1 1530.5 219.6 1529 224.5C1525.7 235.4 1513.7 260.6 1511.7 260.6C1510.9 260.6 1510.2 261.6 1510.2 262.7C1510.2 264 1508.9 266.5 1507.4 268.4C1505.8 270.2 1503.3 273.3 1502 275.4C1499.1 279.8 1491.2 289.1 1485.7 294.7C1480.5 300.1 1465.1 312.8 1464 312.8C1463.5 312.8 1459.3 315.4 1454.4 318.5C1444 325.5 1422.3 336.3 1412.8 339.2C1407.4 340.8 1405.8 342.1 1405.8 344.7C1405.8 347.6 1404 348.6 1394.9 350.9C1384.6 353.3 1370.9 354 1364.9 352.4H1364.8Z" fill="#3B753E"/>
<path d="M630.8 1124.1C628.5 1123.8 624.3 1122.3 621.5 1121C618.6 1119.7 613.3 1117.6 609.8 1116.3C594 1110.8 576.7 1095.6 567.2 1078.6C562 1069.3 561.7 1068.3 561.7 1051C561.5 1034.7 561.9 1032.2 565.8 1024.7C574.3 1008.2 586.2 996.5 602 989C615.4 982.8 628.8 978.7 641.3 977.6L652.4 976.3L650 980.2C647.4 984.3 644.6 1007.9 643.1 1038C642.6 1048 641.5 1058.6 640.7 1061.7C639.7 1064.8 639.1 1080.5 639.1 1096.3C639.1 1118.7 638.6 1125.3 637.1 1125.2C636 1125 633.2 1124.5 630.9 1124.2L630.8 1124.1Z" fill="#3A833E"/>
<path d="M715.1 1015.3C714.6 1014 714.8 1012.4 715.6 1011.9C717.7 1010.6 719.5 1014.3 717.6 1016.3C716.6 1017.3 715.8 1017 715.2 1015.3H715.1Z" fill="#3A833E"/>
<path d="M864.6 993.6C859.1 993.1 857.9 992.5 858.6 990.2C859.4 987.9 859.3 987.8 857.9 989.9C856.4 991.9 854.5 991.9 843.1 988.9C831.4 985.8 829.9 985.8 829.7 988.1C829.5 989.6 828.7 988.1 827.7 985C825.6 978.3 821.8 973.6 818.7 973.6C817.6 973.6 813.8 970.8 810.4 967.6C807.1 964.2 798.8 956.3 792.1 950C785.4 943.8 778.1 936 775.9 932.9C773.8 929.8 771.5 926.9 771 926.4C767.6 923.5 748.6 888.7 744.7 878.3C733 846.2 725.3 804.4 725.3 771.9C725.3 757.9 729.4 719.7 732 710.4C733 706.5 733.1 703.5 732.2 702.6C728.3 698.7 738.7 671.3 763 622.5C786.3 575.7 827.4 535 867.3 519.1C874 516.5 879.5 513.6 879.5 512.7C879.5 511.9 880.2 510.3 881 509.1C881.7 508 881.8 506.5 881.3 506C880.8 505.5 881.1 503.7 882.1 502.1C883.2 500 885.5 499 889.3 499C895 499 897 501.6 892.6 503.2C890.6 504 890.2 508.1 890.3 526.5C890.5 538.7 889.6 559.8 888.7 573.2C885.9 611.7 883.6 650.5 881.8 684.1C878.2 755.2 873.2 843.8 871.4 864.4C870.1 879.9 867.2 959.2 867.2 975.2C867.4 985.6 868 989.6 870 992C871.6 993.6 872.4 994.8 872.1 994.6C871.8 994.4 868.3 994.1 864.6 993.8V993.6Z" fill="#3A833E"/>
<path d="M1304.6 892.7C1304.6 890.1 1303.5 889.9 1294.5 890.7C1268.6 893.1 1212.3 888.4 1208.4 883.5C1207.9 882.8 1206.1 882 1204.3 881.4C1195.5 878.5 1189.9 870.1 1187.2 855.9C1185.4 846.8 1185.6 843.3 1187.9 831.4C1189.5 823.7 1191.8 815.1 1193.3 812C1194.6 809.1 1195.9 805.6 1196.1 804.7C1196.3 803.7 1199 797.4 1202.1 790.7C1207.8 778.6 1210.6 774.9 1221.2 763.5C1227.4 756.8 1227.6 755.8 1223 751.9C1209.1 740.2 1207.8 712.7 1219.4 677.3C1222.5 668 1234.2 655.3 1236.5 658.9C1237.3 660.4 1237.8 660.2 1237.8 658.1C1237.8 656.6 1239.8 654.3 1242.4 653.4C1248.6 650.6 1248.4 650.8 1245.5 647.5C1240.9 642.4 1237.8 633 1237.8 624C1237.8 610 1242.5 587.5 1246.9 580.9C1249 577.8 1250.8 574.7 1250.8 574.2C1250.8 573.5 1252.4 571.4 1254.4 569.3C1257.7 565.9 1257.8 564.7 1256.4 553.8C1254 534.4 1256.1 524.3 1267.8 499.8C1273.5 488.1 1279.4 475.3 1281 471.7C1282.6 468.1 1284.4 464.8 1284.9 464.4C1285.4 463.9 1286.7 462.4 1287.5 461C1291.6 454.3 1308.9 430.7 1312.3 427.1C1314.4 425 1316.1 421.2 1316.1 418.8C1316.1 412.4 1324.6 405.7 1332.7 405.7C1339.1 405.7 1341 407.8 1336.1 409.6C1333.7 410.6 1333.7 416.6 1334.6 483.3C1335.3 523.3 1336.2 557 1336.7 558.2C1337 559.5 1338.5 560 1339.8 559.5C1341.4 558.8 1342.1 559.8 1342.1 562.8C1342.1 566.9 1341.8 567 1330.4 567.7L1318.5 568.2L1330.4 568.5C1336.9 568.7 1342.1 569.5 1342.1 570.5C1342.1 571.5 1341.1 572.1 1340 572.1C1338.2 572.1 1337.9 579.1 1338.4 610.1C1339.1 653.3 1339.7 658.7 1343 657.6C1344.6 656.9 1345.3 658.3 1345.1 663.3C1345.1 667.2 1344.3 670 1343.1 670C1340.8 670 1341.6 746.8 1343.9 752.9C1344.9 755.5 1346.3 756.5 1347.8 755.8C1349.6 755.1 1350.2 756 1350.2 758.7C1350.2 762.5 1349.5 762.8 1338.5 763.6C1332 764.1 1311.7 764.9 1293.6 765.6C1266.4 766.4 1258.8 766.1 1250.4 764C1244.5 762.5 1238.2 761.4 1235.9 761.6L1232 761.8L1236.1 763.1C1250.1 767.5 1265 768.6 1305.9 768.3C1334 768 1348.6 768.5 1348.6 769.6C1348.6 770.4 1347.5 771.2 1346 771.2C1343.6 771.2 1343.4 775.4 1344.2 819.3C1344.7 845.7 1345.7 868.2 1346.3 869.2C1347.3 870.8 1347.6 872.5 1348.4 880.1C1348.4 881.1 1349.7 882.1 1351 882.1C1352.3 882.1 1353.4 883.1 1353.4 884.4C1353.4 885.7 1350.1 887.3 1345.7 888.6C1341.3 889.6 1336.1 891.2 1334 892C1331.9 893 1324.4 894.1 1317.4 894.6C1305.8 895.4 1304.5 895.3 1304.5 892.6L1304.6 892.7Z" fill="#3A833E"/>
<path d="M412.6 880.2C395.1 871.4 392.7 869.6 393.5 866.7C394.2 864.1 393.2 862.8 389.7 861C387.3 859.7 377.1 853.8 367.2 847.9C346.8 835.5 328.9 825.2 315.8 818C310.9 815.4 304.2 811.5 301.1 809.4C298 807.3 294.6 805.5 293.6 805.5C292.5 805.5 291.3 805 291 804.4C290.7 803.6 287.2 801.3 283.2 799.2C275.2 795 243.7 774.6 242.4 772.8C241.9 772.3 237.3 769.4 232.3 766.6C227.2 763.7 222.2 760.2 221.2 759.1C220.1 757.8 218.1 756.7 216.6 756.7C214.6 756.7 214.3 754.9 215.3 745.8C216 739.6 216.4 733.1 216.4 731.1C216.2 729 217.2 727.3 218.4 727.3C219.5 727.3 223 725 226.1 722.1C232.5 716.4 254 702.8 256.9 702.8C257.9 702.8 258.7 702.1 258.7 701.3C258.7 700.5 261.5 698.5 264.9 696.7C268.2 695.1 275.5 691 280.9 687.6C292.6 680.6 299 679.9 307.5 685.3C319.1 692.5 335.1 701.8 375.4 724.5C381.8 728.1 391.2 733.5 396.6 736.6C402 739.7 413.7 745.7 422.7 750.3C436.2 757.2 440 758.3 444.7 757.5C451.9 756.2 480.8 742.2 503.9 728.6C513.7 722.9 523.5 717.3 525.9 716C528.3 714.9 538 709.1 547.4 703.6C556.9 698.1 567.5 692.5 571.1 691.4C580.9 688.3 588.6 684.1 596.4 677.5C602.8 672.3 604.2 671.8 609.8 672.6C615.3 673.6 621.4 675.9 629.1 679.8C639.5 685.2 652.9 693.2 663 699.7C669.5 703.9 676.4 708 678.2 708.5C679.8 709.2 681.3 710.3 681.3 711.1C681.3 711.9 682.3 712.6 683.4 712.6C685.5 712.6 692.2 717.3 698.1 722.9C699.7 724.5 700.7 727 700.2 728.3C699.7 729.6 700 730.6 700.7 730.6C703 730.6 704.3 735.8 702.5 737.9C701.7 738.9 692.2 744.1 681.8 749.5C671.2 754.7 662.2 759.5 661.7 760.1C661.2 760.6 655.8 764.2 649.5 768.1C639.4 774.3 617.7 788 608.7 793.9C606.9 794.9 604.3 796.3 603 797C601.7 797.7 594.2 802.1 586.4 806.8C578.7 811.5 571.6 815.4 570.6 815.4C569.6 815.4 568.8 816.1 568.8 816.9C568.8 817.7 566.7 819 564.2 820C561.6 820.8 558.5 822.6 557.2 823.8C555.9 825.1 552.6 827.2 550 828.7C534.8 836.7 530.4 839.3 529.9 840.4C529.6 841.1 528.3 841.5 527.1 841.5C526 841.5 524.7 842 524.3 842.8C524.1 843.5 521.2 845.2 518.1 846.7C504.1 853.7 499.3 857.3 498.5 861.7C497.8 865.3 495.4 867.4 486.3 872.1C480.1 875.5 474.6 878.5 474.1 879C471 882.3 452.1 888.8 443.1 889.6C432.7 890.4 432.3 890.4 412.6 880.3V880.2Z" fill="#3A833E"/>
<path d="M73.6 820.1C66.4 818.3 57.9 816 54.8 814.9C47.6 812.1 27.6 800.2 22 795.3C14 788.1 4.50004 773.6 1.90004 764.3C-0.499963 755.5 -0.499963 754 1.90004 744.7C8.90004 717.3 39.8 697.4 78.9 694.9L94.1 693.9L92.3 698.3C91.3 700.9 90.5 726.4 90.3 763.1C90.1 805.4 89.6 823.3 88.3 823.1C87.3 822.9 80.6 821.6 73.5 820L73.6 820.1Z" fill="#3A833E"/>
<path d="M1729.5 736.9C1730.3 732.7 1729.8 732 1725.9 731C1712.8 728.2 1694.6 719.3 1683 710.1L1673.9 702.9L1672.8 682C1669.2 617.2 1676.2 549.4 1695.3 464.3C1697.6 454.2 1698.9 449 1706.2 421.9C1710.3 407.2 1721.7 372.5 1725 365.3C1726.3 362.5 1727.3 359.3 1727.3 358C1727.3 356.7 1728 355.1 1728.6 354.1C1729.4 353.3 1732.5 346.4 1735.5 338.8C1738.4 331.1 1742 323.1 1743.5 320.9C1745 318.6 1748.1 312.9 1750.2 308.3C1752.5 303.6 1754.8 299.7 1755.6 299.7C1756.3 299.7 1756.7 298.7 1756.7 297.4C1756.7 296.1 1757.7 294 1758.8 292.8C1759.8 291.7 1763.9 286.4 1767.6 281.4C1771.5 276.3 1777.9 269.8 1782.1 267L1789.4 261.8L1788.4 267.3C1786.3 279.2 1781.9 326.2 1777 386.9C1775.5 404 1773.7 426.4 1772.8 436.7C1772 447 1770.2 469.8 1768.9 487.3C1766.5 521.4 1762.4 571.5 1759.9 600.7C1759.1 610.7 1757.3 635.1 1755.8 655C1754.5 675.1 1753 692 1752.5 692.7C1752.2 693.5 1751.7 703 1751.5 713.9C1751.3 731.5 1751.7 734.1 1754.3 736.1C1756.1 737.2 1757.1 738.5 1756.6 739C1756.1 739.3 1749.6 740.1 1742.1 740.6L1728.6 741.7L1729.6 736.8L1729.5 736.9Z" fill="#3A833E"/>
<path d="M427.6 650.3C414.2 643 399.5 635 395 632.5C383.3 626.1 343.4 603.1 338.7 599.9C336.4 598.4 332.5 596 329.7 594.7C321.4 590.6 311.9 584.9 307.8 581.8C305.7 580 302.9 578.7 301.8 578.7C300.5 578.7 299.5 578.2 299.5 577.6C299.5 576.8 297.2 574.8 294.6 573C289.2 569.4 287.6 560.8 292.3 560.8C293.6 560.8 294.4 560.1 293.8 559.3C292.7 557.2 304.9 548 326.1 535.3C335.7 529.4 343.6 523.9 343.6 523.1C343.6 522.1 345.6 522.8 348.2 524.6C350.6 526.4 357.3 530.3 363.2 533.4C380.8 542.9 389.6 547.9 398.3 553.3C402.9 556.2 410.2 560.5 414.8 562.8C419.2 565.1 425.9 568.7 429.5 570.8C451.5 583.5 463.8 588.9 470.5 589.1C477 589.1 490.9 583.4 509.3 572.8C526.9 562.7 550.7 548.5 554.5 546C559.4 542.6 568.9 537 576 533.4C580.4 531.1 581.2 531.1 585.8 533.9C588.6 535.5 593 538 595.8 539.3C598.4 540.8 606.2 545.3 612.9 549.4C619.6 553.5 626.4 557.4 628.1 558C629.9 558.7 630.9 560.8 630.9 563.9C630.9 568.1 629.4 569.8 622.4 574.7C617.7 577.8 612.9 580.4 611.8 580.4C610.7 580.4 609.7 581.2 609.7 582C609.7 583 608.4 583.6 606.6 583.6C602.4 583.6 592.2 588 588.8 591.4C587.2 593 583.6 595.3 580.6 596.5C577.7 597.8 574.6 600.1 573.6 601.7C572.8 603.5 570.8 604.8 569.5 604.8C567.1 604.8 541.8 618.8 519.1 632.5C513.7 635.8 503.4 641.6 496.3 645.6C455.5 667.6 459.1 667.5 427.8 650.3H427.6Z" fill="#3A833E"/>
<path d="M1511.8 537.1C1508.7 535.8 1504.8 534.8 1503.2 534.8C1501.6 534.6 1497.5 533.2 1494.1 531.5C1484.1 526.3 1481.9 518.8 1482.5 493C1482.8 479.9 1489.7 467.7 1496.7 467.7C1497.8 467.7 1498.8 467.2 1498.8 466.4C1498.8 464.6 1510.9 461.2 1517.2 461.2C1520.1 461.2 1524.1 462.3 1526 463.6C1529.6 466 1529.8 465.9 1532.2 460C1535.5 452.3 1538.9 448.4 1546.1 444.8L1551.8 441.9L1551.5 476.5C1551 514.4 1549.9 532.8 1547.7 536.2C1545.7 539.5 1519.5 540 1511.8 537V537.1Z" fill="#3A833E"/>
<path d="M474.9 530.7C456 520.1 447 515.2 427.6 504.9C416.8 499 403.6 492 398.2 488.9C378.3 478 366.4 472.6 358.2 470.6C350.9 469 349.9 468.3 350.7 465.4C351.2 463.4 351.7 456.8 351.7 450.2V438.5L370.1 427.4C380.1 421.2 390.7 415 393.3 413.5C398 410.9 420.1 378.1 420.2 373.5C420.2 372.4 421 371.4 421.8 371.4C422.8 371.4 423.4 370.4 423.4 369.1C423.4 367.8 424.1 366.5 424.7 366.2C425.4 366 428.9 361 432.4 355.1C435.8 349.2 439.1 344.2 439.7 343.7C440.2 343.2 442 340.8 443.6 338C447.8 331.5 449.3 329.7 455.7 323.2C464.3 314.1 465.3 315.4 464.5 334.5C463.4 365.5 472.8 464.9 477.6 470.7C480.7 474.3 499.8 471.8 516.4 466C524.1 463.2 532.6 460.5 535.2 459.8C544.3 457.4 556.4 452.9 560.5 450.3C566.4 446.5 573.4 439.5 573.6 437.4C573.6 433.8 578.2 433.8 581.9 437.2C584 439.2 586 440.6 586.1 440.3C587.1 439.5 596.4 445 596.4 446.5C596.4 447.5 597.4 448.1 598.5 448.1C599.8 448.1 601.3 451.9 602.4 458.4C604.2 469.8 604.4 469.5 591.5 476.3C587.4 478.4 577.6 484.1 569.5 489C556.3 497.2 537.2 508.3 521.5 516.9C518.2 518.7 509.6 523.8 502.4 528.2C495.1 532.6 488 536.2 486.9 536.2C485.6 536 480.2 533.6 474.8 530.7H474.9Z" fill="#3A833E"/>
<path d="M898 433.9C892.8 433.6 888.5 432.6 888.5 431.8C888.5 430.8 887.4 430.2 886.1 430.2C884.8 430.2 883.7 428.9 883.7 427.1C883.7 425 881.7 423.5 876 421.9C871.6 420.8 866.4 418.8 864.1 417.7C861.8 416.6 859.5 415.6 858.9 415.6C858.2 415.6 853.2 412.8 847.5 409.6C829.2 399 810.1 383 801.3 370.8C798.7 367.2 795.8 363.6 794.9 362.6C792.1 360.2 781.5 337.6 777.6 326.7C764.9 289.5 768.1 246.3 786.4 210.9C789.7 204.7 792.3 198.7 792.3 197.5C792.3 196.4 792.8 195.4 793.6 195.4C794.3 195.4 796.5 192.6 798.8 189.4C808.4 175 829.1 154.5 844.5 144C864.4 130.5 903.4 115.4 918.2 115.4C921.6 115.4 921.6 115.6 920.6 167.1C919.9 195.7 919.1 262.4 918.6 315.2C918.1 368.2 917.5 415.7 917.1 420.9C916.6 428.1 916.9 430.2 918.7 430.2C920 430.2 921 431.3 921 432.6C921 435.2 919.7 435.2 897.8 433.9H898Z" fill="#3A833E"/>
<path d="M1347 352.5C1345.7 352.3 1338 351.2 1330.2 350.1C1319.8 348.8 1316 347.7 1316.7 346.2C1317.7 343.3 1313.1 337.2 1309.8 337.2C1308.3 337 1304.1 335.7 1300.5 333.9C1296.9 332.1 1293 330.8 1291.9 330.6C1289.3 330.6 1259.8 311.3 1252.4 304.8C1249.3 302 1246 299.1 1245.1 298.3C1243.3 296.7 1230.4 281.8 1224.1 274.2C1221.8 271.3 1219.9 268.2 1219.9 267.2C1219.9 266.2 1219.2 265.4 1218.3 265.4C1217.5 265.4 1216.7 264.6 1216.7 263.8C1216.7 262.8 1214.9 259.2 1212.6 255.6C1210.3 252 1208.5 248.4 1208.5 247.4C1208.5 246.4 1206.4 240.9 1203.6 235.2C1201 229.5 1198.7 223.1 1198.7 221.3C1198.7 219.3 1198 216.4 1197.1 214.8C1193.7 208.4 1191.6 171.9 1193.7 154.3C1195.7 136 1205.9 103.2 1212.8 92.0997C1214.9 88.6997 1216.7 85.1998 1216.7 84.3998C1216.7 83.5998 1217.2 82.5998 1218 82.2998C1218.7 82.0998 1221.1 78.8998 1223.5 75.2998C1225.8 71.6998 1229 66.9998 1230.8 64.9998C1235.2 59.0998 1256.4 38.5997 1257.7 38.5997C1259 38.5997 1263.7 34.9998 1268.6 30.3998C1270.1 29.0998 1278.2 24.4998 1286.7 20.2998C1301.7 13.0998 1309.5 9.99973 1323.4 6.09973C1330.7 3.99973 1352.9 1.4998 1357 2.2998C1359.3 2.7998 1359.8 11.5998 1360.8 86.2998C1361.5 132.3 1362.6 187.8 1363.4 209.8C1364.4 231.8 1365 263.3 1365 280C1365 296.6 1365.5 318.3 1366.1 328.5C1367.1 345.8 1367.2 346.8 1370.8 347.6C1372.9 348.3 1374.7 349.7 1374.7 351C1374.7 353 1372.3 353.4 1362.1 353.3C1355.1 353.1 1348.2 352.8 1346.9 352.5H1347Z" fill="#3A833E"/>
<path d="M1391.1 347.9C1391.1 345.8 1395.7 343.7 1400.6 343.7C1401.6 343.7 1402.6 345.2 1402.6 347C1402.6 349.6 1401.5 350.3 1396.9 350.3C1393.1 350.3 1391.2 349.5 1391.2 348L1391.1 347.9Z" fill="#3A833E"/>
<path d="M851 1230.2C847.9 1229.9 844.6 1228.7 843.8 1227.9C842.8 1227.1 840.9 1226.4 839.4 1226.4C834.8 1226.4 827.3 1221.3 825.2 1216.9C823.1 1212.2 824.2 1175.3 826.8 1170.4C828.1 1167.8 829.7 1167.5 838.9 1168.4L849.3 1169.5V1163.6C849.3 1159.5 848.6 1157.7 846.9 1157.7C845.6 1157.7 844.5 1157 844.5 1156.1C844.5 1155.3 843 1154.5 841.2 1154.5C839.1 1154.5 837.9 1153.4 837.9 1151.2C837.9 1149.2 836.4 1147.6 834 1147C827.1 1145.4 825.8 1140.1 827.3 1120.7C828.1 1111.1 828.4 1096.9 828.3 1089.2C827.6 1066.8 827.3 1043.2 827.6 1036.2C827.8 1032.6 827.6 1025.4 827.1 1020C826.4 1014.1 826.8 1009.9 827.9 1008.7C828.9 1007.7 829.7 1005.3 829.7 1003.3C829.7 997.8 833 996.1 840 998.2C845.1 999.8 846 1000.8 846 1004.6C846 1007.2 845.3 1009.2 844.4 1009.2C843.6 1009.2 842.8 1010.7 842.8 1012.5C842.8 1014.3 843.6 1015.8 844.4 1015.8C845.4 1015.8 846 1017.6 846 1019.6C846 1022.2 847.5 1024.2 850.1 1025.3C855.5 1027.7 855.8 1027.7 855.8 1024.8C855.8 1023.5 857.3 1022.4 859.1 1022.4C860.9 1022.4 862.4 1021.3 862.4 1020C862.4 1018.4 860.8 1017.6 857.5 1017.6C852.9 1017.6 852.6 1017.3 852.6 1011.1V1004.6H859.1C863.5 1004.6 865.6 1005.3 865.6 1006.9C865.6 1009.3 876.7 1011.5 878 1009.2C878.5 1008.5 881.8 1007.9 885.3 1007.9C889.5 1007.9 892.8 1006.8 894.9 1004.6C896.7 1002.8 899.3 1001.3 900.6 1001.3C902.1 1001.3 903 999.8 903 997.2C903 993.6 903.7 993.1 908.7 993.1C914.9 993.1 915.2 993.4 912.9 997.8C911.9 999.4 910.9 1011.2 910.6 1023.9C910.1 1040.5 909.3 1047.7 907.8 1048.5C906 1049.6 906 1050.8 907.6 1054.7C909.2 1058.5 909.4 1073.6 908.7 1119C908.2 1151.5 907.4 1184.4 906.7 1191.9C906 1201.7 906.2 1205.3 907.5 1204.5C908.5 1203.8 909.3 1204.3 909.3 1205.8C909.3 1207.1 908.5 1208.7 907.7 1209.2C906.7 1209.7 906.6 1212 907 1214.3C909 1221.8 906.7 1225.6 899.2 1227.5C891.7 1229.6 859.9 1231.3 850.6 1230.1L851 1230.2ZM878.7 1217.5C878.7 1215.7 876.9 1215.1 872.2 1215.1C866 1215.1 864.2 1216.4 866.8 1218.9C867.3 1219.6 870.2 1220 873.3 1220C877.1 1220 878.7 1219.2 878.7 1217.6V1217.5ZM896.6 1191.4C896.6 1190.1 895.6 1189 894.3 1189C893 1189 891.7 1188.3 891.4 1187.5C891.2 1186.7 889.6 1187 887.8 1188.2C883.9 1191.1 885.8 1193.9 891.9 1193.9C895 1193.9 896.6 1193.1 896.6 1191.5V1191.4ZM854.5 1181C853.7 1180.5 852.5 1178.9 852.1 1177.6C851.4 1176 851.1 1176.5 851.1 1178.9C850.9 1180.9 851.9 1184 853.1 1185.9C855.1 1189.2 855.1 1189.2 855.5 1185.6C855.8 1183.6 855.5 1181.7 854.5 1181Z" fill="#8A7259"/>
<path d="M596.5 1082C596.5 1080.7 597.3 1079.6 598.1 1079.6C599.1 1079.6 599.7 1080.7 599.7 1082C599.7 1083.3 599 1084.4 598.1 1084.4C597.3 1084.4 596.5 1083.3 596.5 1082Z" fill="#8A7259"/>
<path d="M701.7 1063.1C700.1 1060.7 702.2 1059 704.3 1061.1C705.4 1062.2 705.4 1063.2 704.5 1063.9C703.5 1064.4 702.2 1064.1 701.7 1063.1Z" fill="#8A7259"/>
<path d="M1322.2 1057C1318 1054.6 1312.6 1051.1 1310.1 1049.2L1305.5 1045.8L1304.8 1008.9C1304.1 977.2 1304.5 971.9 1306.4 971.9C1307.7 971.9 1309.7 970.1 1310.6 967.8C1311.6 965.5 1313.9 963.7 1315.3 963.7C1317.7 963.7 1317.9 963.4 1315.8 962.1C1314 961 1312.9 961.3 1311.6 962.9C1310.6 964.2 1308.7 965.3 1307.2 965.3C1304.1 965.3 1303.3 957.1 1304.1 937.2C1304.6 926.3 1305.1 924.5 1307.7 924.5C1309.2 924.5 1311.5 925.6 1312.6 926.9C1313.7 928.2 1315.7 929.3 1316.8 929.3C1318.3 929.3 1319.1 931.3 1319.1 935C1319.1 938.9 1318.3 940.7 1316.7 940.7C1315.4 940.7 1314.3 942.2 1314.3 944C1314.3 945.8 1315.1 947.3 1315.9 947.3C1316.9 947.3 1317.5 946.2 1317.5 944.9C1317.5 943.3 1319.3 942.5 1322.9 942.3C1326.7 942.1 1327.1 941.8 1324.5 941.3C1321.4 940.6 1320.7 939.5 1320.7 935.1C1320.7 929.9 1321 929.6 1326.9 929.1C1332.4 928.6 1332.9 928.3 1333.4 922.9L1333.9 917.2L1321.2 914.1C1314.2 912.5 1307.5 910.3 1306.5 909.5C1305.4 908.5 1304.4 904.6 1304.4 900.7C1304.4 892.4 1306.8 891.6 1315 896.5C1323.5 901.7 1336.4 904 1345.8 902C1350.4 901 1356.7 899.7 1359.8 899.2C1362.9 898.7 1371.2 894.6 1378.1 890.2C1385.1 885.6 1392.6 882 1394.9 882H1399.1L1398.1 953.5C1397.1 1035.9 1396.6 1039.8 1385 1049.3C1375.2 1057.5 1361 1061.5 1343.9 1061.4C1331.5 1061.4 1328.6 1060.7 1321.9 1057H1322.2Z" fill="#8A7259"/>
<path d="M730.6 1043.5C730.9 1042.5 731.9 1041.9 732.7 1041.9C733.5 1041.9 734.5 1042.6 734.8 1043.5C735.1 1044.5 734.1 1045.3 732.7 1045.3C731.2 1045.3 730.3 1044.5 730.6 1043.5Z" fill="#8A7259"/>
<path d="M604.2 1036C602.2 1034.2 602.9 1032.2 605.5 1032.2C606.8 1032.2 607.9 1033.3 607.9 1034.6C607.9 1037.2 605.9 1037.9 604.1 1035.9L604.2 1036Z" fill="#8A7259"/>
<path d="M422.7 990C421.9 987.2 421.2 987.2 415.7 989.2C407.5 992.1 406.1 992 400.7 988.2L396.1 984.9L395.8 963.2C394.7 887 394.7 885.4 396.6 885.4C397.7 885.4 401.8 888.3 405.7 891.9C422.8 907.4 455.3 909.8 480.1 897.4C486.1 894.3 493.2 891.9 495.6 891.9C499.5 891.9 500.2 892.4 499.4 895.7C498.9 897.7 498.3 918.5 497.9 941.9C497.6 965.4 496.9 985.3 496.4 986.1C495.7 987.1 493.6 988.2 491.7 988.7C489.6 989.2 485.2 990.3 481.9 991.1C477 992.4 475.7 992.2 475.7 990.4C475.7 987.3 469.2 981.6 465.6 981.6C463.8 981.6 462.7 982.7 462.7 984.7C462.7 987.1 460.9 987.8 451 988.6C444.5 989.3 438.9 990.4 438.6 991.4C438.3 992.2 434.8 993 430.9 993C425.4 993 423.6 992.3 422.7 989.9V990Z" fill="#8A7259"/>
<path d="M1751.7 900.4C1749.4 900.1 1743.7 898.8 1739 897.5L1730.4 895.1L1730.6 885.8C1730.6 880.7 1730.1 854.6 1729.6 828L1728.6 779.4H1732.8C1738.2 779.4 1738.8 777.9 1737.5 768.8C1736.8 762.9 1735.7 760.8 1732.8 759.5C1729.5 757.9 1728.9 756.4 1728.9 749.7C1728.9 745.3 1729.7 741.9 1730.7 741.9C1731.5 741.9 1738.4 744.8 1745.7 748.3L1759.1 754.7L1769.7 752.3C1775.6 751 1782.4 748.9 1784.9 747.6C1791.6 744.3 1799.7 744.5 1798.4 747.9C1797.9 749.4 1797.4 752.6 1797.4 755.2C1797.4 759 1796.4 760.4 1793 761.7C1790.4 762.8 1789.2 763.8 1790.6 764.3C1791.6 764.8 1792.6 767.2 1792.6 769.8C1792.6 772.7 1793.4 774.5 1794.9 774.5C1798.2 774.5 1798.7 779.1 1798.3 805.5L1798.1 829.2L1791.6 830.2C1788.2 830.7 1786.7 831.3 1788.7 831.5C1795.1 831.8 1800.4 848.6 1797 857.8C1796.5 859.1 1795.7 863.5 1795.4 867.4C1794.9 871.3 1793.8 875.1 1793 875.6C1792.2 876.1 1791.2 878 1790.9 879.8C1790.4 881.8 1788.3 883.7 1784.9 884.7C1780.2 886 1779.7 886.7 1779.7 893C1779.7 899.5 1779.5 899.9 1773.7 900.8C1763.7 902.4 1763.4 902.3 1763.4 896.1C1763.4 893 1762.7 890.4 1761.8 890.4C1761 890.4 1760.2 892.5 1760.2 895.1C1760.2 900.2 1758.4 901.5 1752 900.5L1751.7 900.4Z" fill="#8A7259"/>
<path d="M1746.4 742.3C1744.8 742 1743.5 740.2 1743.5 738.4C1743.5 736 1744.6 735.3 1748.6 735.3C1754.8 735.3 1759.9 737.9 1759.9 741C1759.9 743.4 1753 744.1 1746.5 742.3H1746.4Z" fill="#8A7259"/>
<path d="M956.3 534.1C953.5 531.2 948.1 526.3 944.4 523.2C940.5 520.1 935.4 515.9 933 513.7C927.5 509 915.9 503.6 908.9 502.4C904.2 501.6 903.4 500.9 903.4 496.9C903.4 494.3 904.2 492.2 905 492.2C906 492.2 906.6 490.4 906.6 488.1C906.6 485.8 907.4 484 908.2 484C909.2 484 909.8 482 909.8 479.8C909.8 477.5 910.6 474.3 911.4 472.5C912.9 469.9 912.5 469.4 909.6 469.4C903.9 469.4 889.7 464.7 885.8 461.4C883.2 459.1 882.4 456.8 882.4 451C882.6 444.5 883.1 443.3 886 443.3C887.8 443.3 891.5 445.4 894.3 447.9C899.7 453.1 907.4 455.6 922.2 457.2C934.3 458.5 944.6 456.1 950.1 450.5C952.2 448.2 956 446.6 958.4 446.6H962.8L963.3 471.1L963.6 495.6H958.7C954.6 495.6 953.8 494.9 953.8 491.7C953.8 489.4 953.1 487.1 952.2 486.6C951.2 485.9 950.6 487.9 950.6 491.3C950.6 494.4 951.4 497.5 952.2 498C953.2 498.5 953.8 501.1 953.8 503.9C953.8 506.5 954.6 508.6 955.4 508.6C956.4 508.6 957 509.7 957 511C957 512.3 958.5 514.3 960.3 515.4C963.1 517.2 963.6 519.3 963.6 528.5C963.6 534.7 963.1 539.6 962.5 539.4C961.7 539.2 958.9 537 956.3 534.2V534.1Z" fill="#8A7259"/>
<path d="M1592.1 516.3C1592.6 515.2 1594.2 513.9 1595.7 513.7C1597.7 513.2 1598.5 513.9 1598 515.3C1597.5 516.4 1595.9 517.7 1594.4 517.9C1592.4 518.4 1591.6 517.7 1592.1 516.3Z" fill="#8A7259"/>
<path d="M881.7 505.9C881.4 505.7 881.4 498.6 881.7 489.9L882.2 474.2H888.2C898 474.4 899.8 476.8 899.6 489.9V501.3L890.8 503.7C886.1 505.2 881.8 506.1 881.7 505.8V505.9Z" fill="#8A7259"/>
<path d="M1403.6 493.5C1402.3 490.6 1399.4 483.7 1397.1 478.3C1394.8 472.9 1390.4 464.1 1387.1 458.9C1383.8 453.5 1381.2 448.3 1381.2 447.3C1381.2 443.5 1367.3 428 1357.1 420.4C1354 418.1 1350.7 415.5 1349.8 414.7C1348.7 413.7 1345.6 412.1 1342.8 410.9C1335.8 408 1329.9 410.4 1319 420.9C1315.7 424 1315.7 424.3 1315.9 404.1C1316.2 359.4 1316.1 360 1319.8 360C1321.8 360 1326.3 361.8 1330.1 363.9C1338.7 368.8 1346.3 370.1 1364 369.9C1379.8 369.6 1386.5 367.5 1392.6 360.9C1395 358.3 1398.3 356.7 1400.9 356.7H1405.3L1406.4 409.4C1407.4 454.1 1407.4 498.6 1406.4 498.6C1406.2 498.6 1404.9 496.2 1403.6 493.4V493.5Z" fill="#8A7259"/>
<path d="M1562.4 470.8C1562.4 466.9 1566.2 467.4 1567 471.5C1567.3 473.1 1566.5 474.3 1565 474.3C1563.4 474.3 1562.4 472.8 1562.4 470.9V470.8Z" fill="#8A7259"/>
<path d="M854.3 1228L850.2 1226.7L854.3 1226.2C860.8 1225.7 868 1226.5 869.8 1228.2C871.6 1230 860.2 1229.8 854.3 1228Z" fill="#92785D"/>
<path d="M890.2 1228C890.2 1226 894.8 1224.6 895.9 1226.2C896.2 1227 895.2 1228 893.5 1228.5C891.7 1229 890.2 1228.8 890.2 1228Z" fill="#92785D"/>
<path d="M857.2 1223.1C853.8 1222.4 849.7 1220.8 847.9 1219.2C846.3 1217.7 843.8 1216.9 842.7 1217.4C841.4 1217.9 839.1 1217.4 837.5 1216.3C834.9 1214.3 834.9 1213.9 838 1209C839.8 1206.1 842.2 1203.6 843.5 1203.6C844.6 1203.6 846.9 1201.8 848.4 1199.5C851 1195.4 851 1194.9 847.9 1189.9C845.3 1185.8 844.8 1183 845.6 1179.1C846.6 1173.9 846.4 1173.7 841.8 1174.9C839.2 1175.6 835.9 1177.3 834.5 1179C833.2 1180.6 830.3 1182.6 828.3 1183.2C824.5 1184.3 824.5 1184.2 825.7 1177.3C826.4 1173.4 826.7 1158 826.7 1143.2C826.5 1126.4 827.2 1111.7 828.7 1104L831 1091.8L832.1 1098.7C832.8 1102.8 832.6 1106.7 831.6 1108.5C830.3 1110.8 830.9 1112.1 834.4 1115C836.8 1116.8 838.3 1119.1 837.7 1119.7C837 1120.4 835.4 1119.9 833.9 1118.7C831.1 1116.4 831.3 1116.1 831.1 1128C830.9 1133.2 831.8 1136.2 833.5 1137.5C835 1138.6 835.8 1139.8 835.3 1140.3C834.8 1140.8 836.4 1141.6 838.7 1142.3C841.5 1143 842.8 1144.4 842.8 1146.7C842.8 1149.3 843.6 1150 846.1 1149.3C848.2 1148.8 849.4 1149.3 849.4 1150.9C849.4 1152.4 850.4 1153 851.8 1152.4C855.4 1151.1 857.3 1156 855.4 1161.2C853.3 1166.9 856.9 1175.7 861.9 1176.9C865.3 1177.9 865.5 1178.2 863.2 1181.3C861.9 1183.3 860.8 1187.7 860.8 1191.3C860.8 1197.2 861 1197.5 863.7 1195.2C868.6 1191 870.6 1193.2 869.4 1202.4L868.4 1210.6L876.7 1209.5C886.2 1208.2 888.6 1210.3 885.2 1216.8C883.7 1219.4 883.7 1220.9 885.4 1222.7C887 1224.7 885.6 1225 875.3 1224.8C868.6 1224.6 860.5 1224 857.2 1223.3V1223.1ZM859.8 1214C862.6 1207 859.3 1203.9 852.1 1206.7C847.2 1208.7 847.5 1212.1 853.1 1214.7C858 1217.1 858.6 1217 859.8 1214Z" fill="#92785D"/>
<path d="M830 1216.9C829.8 1215.8 828.5 1214.9 827.1 1215.3C822.2 1216.1 822.2 1203.1 826.9 1196C830.2 1191.1 835.7 1187.5 837.2 1189.1C837.4 1189.3 837.2 1192 836.9 1195C836.2 1198.6 835.1 1200.2 833.1 1200.2C829.7 1200.2 827.2 1209.3 830 1212.6C831 1213.7 831.5 1215.7 831 1216.8C830.3 1218.6 830 1218.6 830 1216.8V1216.9Z" fill="#92785D"/>
<path d="M894.6 1200.1C893.1 1199.1 890.4 1199 888.6 1199.4C886.8 1199.9 883.7 1199.2 881.4 1197.8C878 1195.5 877.5 1194.4 879 1191.9C879.8 1190.1 880.3 1188.1 879.8 1187.3C878.3 1185.2 886.2 1180.8 892.2 1180.3C896.1 1180 897.4 1180.5 897.1 1182.1C896.6 1184.1 897.1 1184.1 899.1 1182.3C901.4 1180.5 901.7 1181.2 901.7 1187C901.7 1191.9 902.4 1193.7 904.1 1193.7C905.4 1193.7 906.5 1194.5 906.5 1195.3C906.5 1196.3 905.5 1196.9 904.2 1196.9C902.9 1196.9 901.6 1198 900.9 1199.3C899.9 1202.1 898.6 1202.2 894.5 1200L894.6 1200.1Z" fill="#92785D"/>
<path d="M875.5 1171.3C875.5 1168.9 877 1167.1 879.7 1165.9C885.9 1163.6 885.9 1164.8 880.4 1170.1C875.7 1174.7 875.5 1174.7 875.5 1171.2V1171.3Z" fill="#92785D"/>
<path d="M863.1 1170.3C861.5 1165.9 863.4 1163.3 865.4 1167.2C866.7 1169.5 866.9 1171.1 865.7 1171.8C864.7 1172.3 863.6 1171.6 863.1 1170.3Z" fill="#92785D"/>
<path d="M860.8 1103.2C861 1099 861.1 1098.6 862.6 1101.2C863.9 1103.5 863.9 1104.8 862.6 1106.1C861.3 1107.4 860.8 1106.6 860.8 1103.2Z" fill="#92785D"/>
<path d="M840.1 1098C836.5 1096.7 837.8 1094.2 842.1 1094.2C844.7 1094.2 846.2 1095.2 846.2 1096.6C846.2 1099 843.9 1099.5 840.2 1097.9L840.1 1098Z" fill="#92785D"/>
<path d="M841.4 1087.9C839.6 1086.8 839.9 1085.8 842.7 1083C846.6 1079.1 849.4 1078.6 849.4 1081.7C849.4 1085.3 843.9 1089.4 841.4 1087.9Z" fill="#92785D"/>
<path d="M857.7 1085.8C856.9 1083.7 856.7 1081.4 857 1080.7C857.5 1079.9 856.3 1078.9 854.4 1078.4C850.5 1077.4 850.5 1077.3 852.4 1073.3C856.6 1065 857.8 1061.7 856.8 1060.2C856.3 1059.2 856.5 1058.1 857.3 1057.4C860.1 1055.8 862.2 1062.1 861.2 1069.5C860.5 1073.7 861 1077.8 862.3 1080.3C864.4 1084.4 863.6 1089.3 860.7 1089.3C859.7 1089.3 858.4 1087.7 857.6 1085.7L857.7 1085.8Z" fill="#92785D"/>
<path d="M827.9 1077.4C827.6 1072.8 828.1 1067.6 828.9 1066.8C829.4 1066.5 831.2 1067.8 833 1069.6C835.9 1072.5 836.1 1073.5 834.5 1076.3C831.4 1081 828.3 1081.7 828 1077.4H827.9ZM834.8 1074C834.8 1073.7 833.7 1072.5 832.4 1071.4C830.4 1069.8 830 1069.8 830 1072.1C830 1073.6 831.1 1074.7 832.4 1074.7C833.7 1074.7 834.8 1074.4 834.8 1074Z" fill="#92785D"/>
<path d="M902.1 1075.3C901.6 1074 901.9 1072 903.1 1070.9C904.4 1069.6 904.9 1070.2 904.9 1073.5C904.9 1078.4 903.8 1079.2 902.1 1075.3Z" fill="#92785D"/>
<path d="M877.5 1068.5C873.6 1063.3 875.1 1060 881.4 1060C884.3 1060 884.8 1060.8 884.7 1064.9C884.4 1072.6 881.4 1074 877.5 1068.5Z" fill="#92785D"/>
<path d="M839.8 1064.5C839.8 1059.9 840.1 1059.6 841.3 1062.4C843.3 1067 843.3 1069.7 841.3 1069.7C840.5 1069.7 839.7 1067.3 839.8 1064.5Z" fill="#92785D"/>
<path d="M901.6 1055.9C900.6 1052.8 899.2 1050.2 898.7 1050.2C898 1050.2 896.3 1047.9 894.8 1045.1C892.5 1041.2 892.4 1039.6 893.8 1037.1C895.4 1034.7 895.3 1033.3 893 1030.9C891.4 1029.1 890.6 1026.7 891.2 1025C893.3 1019.6 896.7 1023.5 896.7 1031.2C896.7 1033.3 897.2 1035.4 898 1036.1C898.7 1036.8 899.1 1037.9 899.3 1038.4C899.8 1042.8 902.1 1044.8 905.8 1043.9C909.6 1043.2 909.7 1043.6 909.7 1052.4C909.7 1060.4 909.2 1061.5 906.6 1061.5C904.5 1061.5 902.8 1059.7 901.5 1055.8L901.6 1055.9Z" fill="#92785D"/>
<path d="M1335.9 1059.7C1336.2 1058.7 1338 1057.1 1339.8 1056.1C1343.7 1053.8 1345.3 1051.5 1344.2 1049.7C1343.4 1048.2 1348.8 1043.5 1350.4 1044.5C1351.7 1045.3 1351.1 1055.1 1349.4 1058.9C1348.1 1062.2 1334.7 1063.1 1335.9 1059.7Z" fill="#92785D"/>
<path d="M1315 1052.8C1306.8 1047.4 1306.7 1047.1 1305.7 1037.1C1305 1031.4 1304.6 1024.5 1304.6 1021.8C1304.6 1013 1307.5 1020.5 1308.7 1032.6C1309.7 1042.7 1310.3 1044.2 1314.2 1045.8C1318.1 1047.6 1327.4 1055.9 1327.4 1057.5C1327.4 1059.6 1322.5 1057.7 1315 1052.8Z" fill="#92785D"/>
<path d="M1369.9 1053.5C1368.4 1050.7 1368.6 1050.2 1371.9 1050.2C1375.8 1050.2 1381 1052.8 1379.7 1054C1379.2 1054.5 1377.3 1055.3 1375.3 1055.8C1372.7 1056.6 1371.2 1056.1 1369.9 1053.5Z" fill="#92785D"/>
<path d="M881.7 1050.7C876.8 1049.4 876.8 1043.2 881.7 1042.9C883.7 1042.7 885.3 1043.6 885.3 1044.7C885.3 1045.8 885.8 1047.8 886.3 1049.3C887.3 1051.9 886.8 1052.1 881.7 1050.8V1050.7Z" fill="#92785D"/>
<path d="M869.1 1039.3C866 1038.8 861.6 1037.2 859.5 1035.4C857.2 1033.8 854.1 1032.3 852.5 1032.3C846.6 1032.3 841.2 1028.7 841.2 1024.6C841.2 1020 840.4 1019.9 835 1024.3C830.8 1027.6 830.6 1027.6 829.9 1024.6C829.6 1023 828.6 1021.2 827.6 1020.5C826.5 1019.8 826.5 1016.1 827.6 1008.3C828.6 1001.9 828.7 996.6 827.9 995.7C825.9 993.6 826.1 988.2 828.1 988.2C829.1 988.2 829.7 990 829.7 992.1C829.7 995 830.8 996.2 834.8 997C839.9 998 839.9 998 837.2 1001.9C835.4 1004.8 835.1 1007 836.1 1009.7C837.7 1013.3 837.7 1013.3 837.7 1009C837.9 1006.4 838.7 1004.4 839.5 1004.4C840.5 1004.4 841.1 1003.3 841.1 1002C841.1 1000.7 842.2 999.6 843.7 999.6C848.8 999.6 869.8 1003 875.5 1004.7C879.9 1006 883.5 1006 889.4 1004.5C893.8 1003.4 900.5 1002.2 904.4 1001.7C911.3 1000.9 911.3 1000.9 910.9 1005.9C910.7 1008.7 909.6 1011 908.5 1011C907.4 1011 906.4 1011.8 906.4 1013C906.4 1015.8 904.6 1013.5 904.1 1009.9C903.4 1005.7 899 1006.1 899.2 1010.4C899.2 1012.8 898.5 1013.7 897.1 1013.2C895.8 1012.7 892.5 1014.3 889.9 1017C886.3 1020.4 885.3 1022.7 886 1025.3C886.8 1028.7 885.5 1029.9 881.4 1029.2C880.6 1029 880.4 1030.5 881.1 1032.3C882.1 1035.6 878.7 1040.8 875.9 1040.1C875.2 1040.1 872.1 1039.6 869 1039.3H869.1ZM873.8 1033.1C873.8 1031.8 872.7 1031.3 870.5 1031.8C867.9 1032.5 867.6 1033.1 869 1034.9C871.1 1037.5 873.7 1036.5 873.7 1033.1H873.8ZM885.1 1015C885.6 1012.4 885.3 1012.2 883 1014.2C879.9 1016.8 879.6 1019.7 882.5 1018.9C883.5 1018.4 884.8 1016.8 885.1 1015Z" fill="#92785D"/>
<path d="M1343.9 1035C1341.6 1032.1 1342.3 1025.4 1345.2 1023.1C1347.2 1021.5 1347.2 1020.3 1344.9 1014.6C1342.1 1007.7 1343.3 999.6 1346.9 999.6C1349 999.6 1349.7 1004 1349.5 1019.5C1349.3 1034.2 1347.5 1039.2 1344 1035H1343.9Z" fill="#92785D"/>
<path d="M1367.7 1024.7C1366.4 1022.4 1369 1018.7 1371.3 1019.3C1372.6 1019.8 1372.6 1020.9 1371 1023.1C1369.7 1024.9 1368.2 1025.5 1367.7 1024.7Z" fill="#92785D"/>
<path d="M1368.1 1016.6C1368.1 1015.8 1367.8 1012.4 1367.4 1009.1C1367.1 1005.7 1367.4 1002.6 1368.2 1002.1C1368.9 1001.6 1368.7 999.2 1367.7 996.6C1366.4 992.8 1366.4 991.2 1368 989.3C1369.3 987.8 1370.8 986.7 1371.4 986.7C1373.4 986.7 1374.3 992.6 1372.9 995C1372.2 996.1 1372.4 998.1 1373.2 999.2C1374.3 1000.5 1374.3 1002.1 1373.2 1004.3C1372.2 1006.1 1372.2 1008.1 1373 1008.9C1373.8 1009.7 1373.2 1012 1371.2 1014.3C1369.6 1016.4 1368.1 1017.4 1367.9 1016.7L1368.1 1016.6Z" fill="#92785D"/>
<path d="M1304.8 1002.9L1305.1 990.7L1306.2 1001.3C1307 1007.3 1306.9 1012.6 1306 1013.5C1305.2 1014.3 1304.7 1010.1 1304.7 1002.9H1304.8Z" fill="#92785D"/>
<path d="M907.3 998L902.4 996.7L907.8 996.5C910.6 996.5 913 997.2 913 998C913 999 912.8 999.5 912.7 999.5C912.4 999.3 910.1 998.7 907.3 998Z" fill="#92785D"/>
<path d="M456 995.7C455.7 995.4 446.5 994.6 435.8 994.1C409.2 992.6 403.7 991.8 404.3 988.7C404.8 986.3 415.1 981.5 420.6 981.2C422.7 981 422.9 980.4 421.6 977.9C419.8 974.3 421.8 971.4 425.4 972.7C426.7 973.2 427.7 975.6 427.5 978.9C427.3 981.7 427.7 985.1 428 986.2C429.1 989 432.9 988.6 434 985.5C434.7 983.9 436.1 983.4 438.1 984C439.7 984.5 441.9 983.8 443.2 982.4C444.7 980.6 446 980.4 448.1 981.6C453.3 984.4 457.9 983.6 457.9 980C457.9 978 459.4 975.1 461 973.3C464.3 969.7 467.7 970.4 467.7 974.4C467.7 976.4 468.4 976.4 471 975.1C473.4 973.8 474.3 973.8 474.3 975.4C474.3 976.7 475.8 978.8 477.6 980.5C481.7 983.9 481.8 990.9 478.1 992.1C476.5 992.6 472.2 993.4 468.6 993.9C465 994.6 460.9 995.4 459.5 995.7C458.2 996 456.7 996 456.2 995.7H456Z" fill="#92785D"/>
<path d="M1313.3 990.3C1312.2 989.8 1311.2 988.5 1311.2 987.2C1311.2 984.1 1308.4 984.3 1306.5 987.9C1303.6 993 1304.2 962.8 1307.3 957.1C1309.3 953.2 1309.4 951.6 1307.8 949.8C1306.5 948.2 1306.5 947.5 1307.8 947.5C1310.4 947.5 1309.9 943.3 1307 940.8C1304.7 938.8 1304.9 938.5 1308.1 937.4L1311.7 936.1L1308.3 932.3C1305.2 929 1304.7 926.6 1304.7 914.2V900L1309.3 903.1C1315.3 907.3 1334.6 912.1 1341 911.1C1343.9 910.6 1351.4 909.5 1357.5 908.5C1368.3 906.7 1378.1 902.3 1389 894.1C1394.7 889.9 1399.4 889.2 1399.4 892.8C1399.4 894.1 1397.9 895.2 1396.1 895.2C1394.5 895.2 1392.3 896.2 1391.7 897.3C1391 898.3 1388.9 900.1 1387.1 901.1C1385.3 902.1 1383.8 904.4 1383.7 906.2C1383.5 908 1382.2 911.3 1380.8 913.4C1379.3 915.5 1378.2 918.9 1378.2 920.9C1378.2 924.2 1377.2 926.4 1373.8 932.6C1373.5 932.9 1372.3 932.3 1370.9 931.1C1368.9 929.5 1368 929.5 1366 931.1C1364 932.7 1363.6 932.7 1363.6 930.6C1363.6 929 1361.8 927.8 1359.2 927.5C1355.6 927.2 1354.5 926 1353.8 922.1C1353 917.7 1352.3 917.2 1348.1 917.7C1341.6 918.5 1339.1 920.8 1339.1 926C1339.1 928.4 1337.6 933.3 1336 936.8C1333.1 943 1333.1 947.4 1336 947.4C1338.8 947.4 1337.5 951.8 1333.4 955.6L1329.3 959.4V955.5C1329.3 951.6 1326.7 947.5 1324.1 947.5C1323.4 947.5 1322.8 948.6 1322.8 949.9C1322.8 951.2 1321.7 952.3 1320.4 952.3C1317.3 952.3 1317.3 954.9 1320.2 956.7C1321.5 957.4 1323 960.8 1323.6 964C1324.6 969.5 1324.4 969.9 1321.3 969.1C1318.9 968.4 1317.5 969.3 1316.1 972.5C1315 974.8 1313.2 976.7 1311.9 976.7C1307.7 976.7 1309.8 979.8 1315.5 981.8C1318.6 982.9 1321.2 984.4 1321.2 984.9C1321.2 987 1315.5 990.9 1313.5 990.3H1313.3ZM1372.4 921.3C1372.4 920.2 1371.1 918.4 1369.6 917.5C1367.5 916 1366 916.4 1363.6 918.6C1361.8 920.2 1360.5 922 1360.8 922.7C1362.1 924.7 1372.4 923.4 1372.4 921.2V921.3ZM1378.1 913.1C1378.1 912.3 1377.3 911.1 1376.3 910.5C1374.3 909.4 1371.2 912.9 1372.5 915.1C1373.5 916.6 1378 914.9 1378 913.1H1378.1Z" fill="#92785D"/>
<path d="M1367.3 984.8C1366.8 983.8 1367 982.5 1368 981.9C1371.3 979.9 1371.9 972.6 1369.1 970.3C1366.5 968 1367.1 962.3 1370.6 960.2C1375.2 957.3 1376.3 971.1 1372.4 980.8C1369.8 987.2 1369.1 987.7 1367.3 984.9V984.8Z" fill="#92785D"/>
<path d="M395.6 955.6C394.9 910.7 394.9 898.2 395.9 897.5C399.7 895.2 403.2 912.5 400 917.7C399.5 918.7 399 925.2 399.2 932.2C399.4 939.2 399.2 945.4 399 946.2C397.9 949.6 398.2 958.1 399.5 959.9C400.3 961 399.8 963.7 398.4 966.4C396 970.8 396 970.3 395.6 955.5V955.6Z" fill="#92785D"/>
<path d="M1368.9 953.4C1368.4 951.9 1369.4 949.3 1371.5 947L1374.9 943.2L1373.8 948.1C1372.3 954.5 1370.2 956.7 1368.9 953.3V953.4Z" fill="#92785D"/>
<path d="M477.4 951.6C477.4 950.3 476.6 949 475.4 948.7C474.4 948.4 473.9 946.7 474.6 945.3C475.4 942.9 476.2 942.9 481 944.8C487.9 947.7 488.3 953 482 953.6C478.7 953.9 477.4 953.4 477.4 951.6Z" fill="#92785D"/>
<path d="M461.9 945.9C462.4 944.1 461.4 938.2 459.5 932.8C455.1 919.6 455.1 913.7 460 912.4C462 911.9 465.4 911.4 467.5 911.4C470.4 911.4 470.9 911.9 469.5 913.5C468.5 914.8 468.2 916.3 469 916.9C469.7 917.6 468.8 918.9 467.4 919.7C464.8 921.2 464.8 921.8 468.5 927.7C475 938 473.2 948.9 465.1 948.9C461.8 948.9 461.2 948.2 462 945.8L461.9 945.9Z" fill="#92785D"/>
<path d="M408.4 945.3C406.9 940.9 409.4 937.6 413.9 937.6C419.1 937.6 419.6 938.6 416.2 943.1C413.4 946.9 409.3 947.8 408.4 945.2V945.3Z" fill="#92785D"/>
<path d="M426.8 940.7C426.8 938.9 427.6 937.9 428.4 938.4C429.4 938.9 430 940.5 430 941.8C430 943.1 429.3 944.1 428.4 944.1C427.6 944.1 426.8 942.6 426.8 940.7Z" fill="#92785D"/>
<path d="M489.8 931.7C491.3 925.2 491.8 924.5 495.5 924.5C497.9 924.5 498.6 925.5 498.3 929.4C498.1 932.2 497 934.3 496 934.3C494.9 934.3 492.7 934.8 491.3 935.3C489.2 936.1 488.9 935.6 489.8 931.7Z" fill="#92785D"/>
<path d="M435.5 926.8C435 925.5 435.3 923.5 436.3 922.6C437.3 921.6 437.6 919.8 437.1 918.7C436.4 917.1 437.1 916.7 438.9 917.4C442.5 918.7 442.5 929.5 439.1 929.5C437.6 929.5 436.2 928.4 435.5 926.9V926.8Z" fill="#92785D"/>
<path d="M451.3 910.2C451.3 908.1 457.2 906.6 466.6 906.6C475.9 906.6 475.9 907.9 466.6 908.9C463.2 909.2 458.3 910 455.8 910.7C453 911.4 451.2 911.2 451.2 910.2H451.3Z" fill="#92785D"/>
<path d="M1324.2 906.8C1313.6 903.7 1304.6 899.1 1304.6 896.8C1304.6 894.2 1309.5 894.8 1314.1 898.1C1319.3 901.7 1338.4 907.1 1340.7 905.6C1341.5 905.1 1347.1 904 1352.9 903.2C1363.3 901.7 1372.8 897.5 1383.9 889.2C1386.8 887.1 1391.2 885.4 1394.5 885.4H1400L1394.3 888.5C1391.2 890.1 1384.5 894.2 1379.6 897.5C1374.7 900.8 1368.2 903.7 1364.9 904.2C1361.8 904.7 1355.8 905.8 1351.7 906.8C1339.1 909.6 1333.6 909.6 1324.1 906.8H1324.2Z" fill="#92785D"/>
<path d="M400.7 896.7C395.5 892.5 395.3 892.1 398.6 892C400.7 892 403.3 893.8 405 896.1C408.9 902 407.3 902.3 400.8 896.8L400.7 896.7Z" fill="#92785D"/>
<path d="M1752.8 899.8C1751.3 898.8 1751.3 898.2 1753.1 897C1754.6 896 1754.7 894.7 1753.6 892.6C1751.2 887.9 1749.8 873.8 1751.3 867.6C1752.8 861.2 1756.5 858.8 1756.5 864.2C1756.5 867 1757.2 867.5 1760.3 866.6C1765.5 865 1766.8 863.3 1765.5 859.4C1764.4 855.5 1761.4 854.8 1761.4 858.6C1761.4 859.9 1760.7 860.6 1759.8 860.1C1757.2 858.5 1757.8 853.6 1761.4 849C1763.2 846.7 1764.2 843.8 1763.7 842.5C1763.2 841.2 1764.7 837.1 1767 833.4C1771.7 825.9 1772.2 824.1 1769.3 823.1C1767.7 822.4 1767.7 821.5 1769.1 818C1771.2 813.6 1775.3 812.1 1776.4 815.2C1776.7 816.2 1779.8 817.3 1783.3 817.8C1787.9 818.3 1790.2 817.8 1791.6 815.8C1792.7 814.2 1794.7 813.4 1796.2 814C1799.8 815.3 1797.8 821.7 1793.9 821.7C1792.1 821.7 1790.8 822.5 1790.8 823.3C1790.8 824.3 1792.4 824.6 1794.6 824.1C1798.2 823.1 1798.4 823.4 1798.5 836.8C1798.8 850 1798.7 850.7 1795.6 849.9C1793.6 849.4 1791.2 846.3 1789.7 842.7C1788.1 838.5 1786.3 836.3 1784.2 836.3C1782.6 836.3 1781.1 837.1 1781.1 837.9C1781.1 838.9 1780 839.5 1778.7 839.5C1775.3 839.5 1775.6 833.5 1779.2 831.5C1781.2 830.4 1781.5 829.4 1780.2 828.1C1778.9 826.8 1777.3 828.6 1773.8 834.8C1770.9 840.7 1769.9 843.6 1771.2 844.1C1772.7 844.6 1772.3 845.6 1770.5 847.7C1769.2 849.2 1768.4 851.6 1769 853.1C1769.8 855.5 1770.3 855.5 1772.4 853.4C1775.8 850 1777 850.3 1777.5 855C1777.7 857.3 1776.4 860.5 1774.6 862.3C1772.8 864.1 1771.3 866.5 1771.3 867.7C1771.3 869.2 1769.3 869.8 1765.6 869.7C1757.3 869.5 1755 871.5 1760.9 874.1C1763.5 875.2 1766 876.7 1766.4 877.4C1766.9 877.9 1769.3 879 1771.8 879.5C1776.5 880.8 1776.2 881.1 1776.9 870.2C1777.1 868.7 1778.7 866 1780.8 864C1782.8 862.2 1784.4 859.1 1784.4 857.5C1784.4 855.7 1785.5 854.2 1786.8 854.2C1788.1 854.2 1790.7 853.2 1792.5 852.2C1796.6 849.6 1798.5 851.9 1798 858.6C1797.8 861 1797.5 868.7 1797.5 875.4L1797.3 887.6L1789.8 893.8C1781 900.8 1774.5 901.8 1774.3 896.2C1774 886.9 1772 882.8 1769.6 886.7C1767.5 890 1767.5 898.1 1769.6 898.1C1770.6 898.1 1771.2 898.9 1771.2 899.7C1771.2 901.7 1755.9 901.3 1752.8 899.4V899.8ZM1763.1 882.2C1763.1 880.4 1762 878.9 1760.7 878.9C1757.8 878.9 1757.6 880.9 1760.2 883.5C1762.8 886.1 1763.1 885.9 1763.1 882.2ZM1785.9 874C1785.9 872.4 1786.6 870.7 1787.4 870.4C1789.5 869.6 1791.3 862.6 1789.4 862.6C1788.6 862.6 1786.6 865.5 1785 869.1C1783.4 872.7 1781.6 875.6 1780.8 875.6C1780.1 875.6 1779.5 876.7 1779.5 878C1779.5 880.1 1780.2 880.3 1782.8 878.8C1784.6 877.8 1786.1 875.7 1786.1 873.9L1785.9 874Z" fill="#92785D"/>
<path d="M1730 877.7C1729.5 867.9 1729 847.4 1728.9 832C1728.7 807 1729.1 803.9 1731.3 804.8C1732.8 805.5 1733.4 806.9 1732.9 808.7C1730.8 815.2 1730.8 831.4 1732.9 834.3C1734 835.9 1734.7 839.4 1734.2 842.3C1733.7 845.1 1734.2 848.8 1735 850.6C1736.3 852.9 1736.3 854.4 1735 855.7C1734 856.7 1733.7 860.1 1734.3 864.5C1736.9 881 1737.1 886.5 1735.4 890.8C1732.3 898.8 1730.8 895.4 1729.9 877.7H1730Z" fill="#92785D"/>
<path d="M1728.8 767.4C1728.8 757.6 1729.3 749.9 1730.1 750.3C1730.8 750.6 1735.5 752.9 1740.7 755.4C1749.7 759.6 1753.3 762.7 1746.7 760.6C1743.1 759.5 1740 764.2 1742.9 766.1C1745.2 767.4 1744.2 780.8 1741.8 783.2C1740.8 784.2 1737.4 785 1734.3 785H1728.8V767.4Z" fill="#92785D"/>
<path d="M1793.3 781C1792.8 780.2 1790.5 779.4 1788.4 779.4C1784.6 779.4 1784.5 779.1 1786.4 775C1787.9 771.6 1787.9 770.6 1786.2 769.9C1785.2 769.6 1784.2 767.8 1784.2 766.1C1784.2 764.3 1783.5 763.2 1782.6 763.8C1781.8 764.3 1781.5 765.8 1781.9 766.9C1782.4 768.2 1781.9 769.7 1780.8 770.5C1778.8 771.6 1773.9 767.1 1772.3 762.5C1771.8 761.2 1770.3 761.7 1767.6 764.3C1762.9 768.5 1760.4 768.9 1759.1 765.3C1757.6 761.5 1757.8 761.4 1761.9 761.4C1767.8 761.4 1789 756.7 1792.4 754.5C1794.2 753.4 1795.8 752.9 1796.3 753.4C1796.8 753.9 1797.4 760.6 1797.8 768.4C1798.3 779.2 1798 782.6 1796.3 782.6C1795.2 782.6 1793.7 781.9 1793.2 781H1793.3Z" fill="#92785D"/>
<path d="M1742.5 754.2C1736.1 751.1 1730.4 747.8 1729.8 746.9C1727.7 743.5 1734.2 745.1 1746.3 751L1758.2 756.9L1771.6 754.3C1779.1 752.8 1785.8 750.9 1786.6 750.1C1787.6 749.1 1790.5 748.5 1793.3 748.5H1798.2L1791.7 751.6C1784.2 755 1764.3 760.1 1758.3 759.8C1756 759.8 1749 757.4 1742.6 754.4L1742.5 754.2Z" fill="#92785D"/>
<path d="M955.8 520.6C953.8 519.3 952.2 517 952.2 515.7C952.2 512.8 950.6 512.8 948.3 516C946.5 518.3 946.2 518.3 944.2 516C942.7 514.4 942.7 513.4 943.7 513.4C947.6 513.4 949.2 506.9 946.8 501.5C944.2 496.1 944 477.8 946.5 472.1C947.3 470.1 946.8 468.5 944.7 467C941.9 464.9 942.1 464.6 947.3 462.4C950.4 461.1 954 458.8 955.3 457.3C958.9 452.9 962 453.9 962 459.6C962 462.9 960.7 465.6 958.4 467.4C956.3 469.2 954.6 472.5 954.5 475.6C954.2 480.2 954.8 481 958.9 481.8C964.3 482.8 965.6 488 960.9 489.3C958.1 490 958.1 490.1 960.9 490.3C963.3 490.5 963.7 492.4 963.7 506.8C963.7 524.3 963 525.6 955.9 520.5L955.8 520.6Z" fill="#92785D"/>
<path d="M888.5 502.6C888.5 502.1 889.6 500.6 890.9 499.2C893.2 496.9 893.2 496.4 890.6 493.5C887.8 490.4 887.8 490.2 891.7 487.3C895.8 484.2 895.8 484.2 892.5 481.8C890.7 480.5 887.6 479.8 885.6 480.3C881.8 481.1 881.8 481 881.8 466.3C881.8 458.1 882.3 451.5 882.9 451.5C883.4 451.5 886.3 453.5 889.4 455.7C896.3 460.9 902.5 462.9 915.8 464.2C927.4 465.5 930 468 922.8 470.9C917.4 473.2 914.2 478.9 915.5 484C916 486.3 915.5 487.8 913.7 488.4C912.2 488.9 911.1 491.2 911.1 493.3C911.1 495.4 910.4 497.2 909.5 497.2C908.7 497.2 907.9 498.3 907.9 499.6C907.9 502.7 895.5 503 894.4 500.1C893.9 498.8 893.4 499.1 893.4 500.9C893.2 503.3 888.3 505.1 888.3 502.7L888.5 502.6Z" fill="#92785D"/>
<path d="M1398.3 465.4C1401.2 463 1401.2 462.8 1397.5 459.7L1393.6 456.4L1400.6 456.2C1406.8 456.2 1407.5 456.5 1407.5 460.1C1407.5 462.4 1406.4 464.3 1404.7 464.8C1403.1 465.1 1400.3 466.1 1398.5 466.8C1395.2 467.8 1395.2 467.8 1398.3 465.3V465.4Z" fill="#92785D"/>
<path d="M913.8 461.7C902.5 460.4 893.9 457.1 888 451.9C882.8 447.2 882.5 446.5 885.6 446.5C887.4 446.5 891.5 448.3 894.4 450.6C901.3 455.8 913.2 459.6 923.1 459.6C927.3 459.6 931.3 460.4 931.7 461.2C932.7 462.8 924.4 463 913.8 461.7Z" fill="#92785D"/>
<path d="M937.5 461.2C937.5 460.4 939.9 458.6 942.9 457.4C945.7 456.1 949.1 454 950.4 452.5C951.7 450.9 954.8 449.7 957.7 449.9C960.5 449.9 961.6 450.4 960.3 450.9C959 451.4 957.2 452.9 956.5 454C953.9 458.4 937.4 464.6 937.4 461.2H937.5Z" fill="#92785D"/>
<path d="M1384.1 454.5C1380.8 448.6 1380.7 445.9 1383.4 443.6C1387 440.7 1389.1 443.8 1388.6 451.1C1388.3 455 1387.8 458.4 1387.5 458.8C1387.2 459.1 1385.7 457.2 1384.1 454.6V454.5Z" fill="#92785D"/>
<path d="M1387.3 424.5C1385.8 420.7 1388.8 420.3 1391.9 423.7C1394.7 426.8 1394.7 427 1391.6 427C1389.6 427 1387.8 425.9 1387.4 424.6L1387.3 424.5Z" fill="#92785D"/>
<path d="M1316.2 381.7C1316 369.5 1316.4 368.2 1319.1 368.2C1322.5 368.2 1324.8 370.6 1326.4 376C1327.2 378.6 1326.9 379.6 1325.3 379.6C1322 379.6 1319.1 383.5 1317.6 389.9C1316.6 393.8 1316.3 391.7 1316.1 381.7H1316.2Z" fill="#92785D"/>
<path d="M1364.2 390.9C1362.6 388.5 1364.2 387.5 1368.6 388.1L1372.4 388.6L1368.8 390.7C1366.4 392 1364.9 392.2 1364.2 390.9Z" fill="#92785D"/>
<path d="M1345.9 384C1340.5 378.6 1341 376.2 1347.5 377.5C1354.2 378.8 1354.2 378.6 1352.9 383.7C1351.6 388.6 1350.6 388.8 1345.9 384Z" fill="#92785D"/>
<path d="M1344.6 375.2C1342 374.9 1339.1 373.7 1338.1 372.8C1337 371.7 1339.6 371.3 1346.9 372.1C1352.6 372.6 1361.7 373.1 1367.1 373.1C1372.5 373.1 1376.6 373.4 1376.1 373.9C1375 375 1350.3 376 1344.6 375.2Z" fill="#92785D"/>
<path d="M1323.4 368L1315.2 363.3H1321.1C1324.4 363.3 1327.8 364.3 1328.6 365.4C1330.1 367.2 1332.7 373.2 1331.9 372.9C1331.7 372.7 1328 370.6 1323.4 368Z" fill="#92785D"/>
<path d="M1399.6 370C1397.8 368.9 1398 368.4 1400.1 367.6C1404.3 366 1405.8 366.5 1405.8 369.1C1405.8 371.9 1402.9 372.2 1399.6 370.1V370Z" fill="#92785D"/>
<path d="M1392.7 366.9C1392.7 364.9 1394 363.1 1396.1 362.5C1401.2 360.9 1401.3 362.3 1396.8 366.6C1392.7 370.4 1392.7 370.4 1392.7 366.9Z" fill="#92785D"/>
<path d="M1316.5 344.5C1316.5 341.1 1316.8 340.7 1319.4 342.2C1321.2 343 1322.5 344.8 1322.5 346.1C1322.5 347.4 1321.2 348.5 1319.4 348.5C1317.3 348.5 1316.5 347.4 1316.5 344.4V344.5Z" fill="#92785D"/>
<path d="M854 1230.2C845.8 1228.1 855.6 1224.5 864.4 1226.3C872.6 1227.9 872.1 1231.4 863.7 1231.2C859.9 1231 855.4 1230.7 853.9 1230.2H854Z" fill="#7C6752"/>
<path d="M843.7 1227.9C843 1226.9 842.9 1225.8 843.4 1225.3C844.5 1224.2 847.8 1226.3 847.8 1228.2C847.8 1230.2 845 1230.2 843.7 1227.9Z" fill="#7C6752"/>
<path d="M890.2 1228.2C890.2 1226.4 894.4 1224.6 895.7 1225.9C897.7 1227.9 896.5 1229.7 893.4 1229.7C891.6 1229.7 890.1 1229 890.1 1228.2H890.2Z" fill="#7C6752"/>
<path d="M901.6 1224.8C901.6 1224 902.3 1223.2 902.9 1223.2C903.6 1223.2 903.9 1220.6 903.6 1217.5C902.8 1210.8 905.9 1209.7 908.2 1215.9C909.3 1218.8 909.2 1221.1 907.7 1223.2C905.7 1226.6 901.7 1227.6 901.7 1224.8H901.6Z" fill="#7C6752"/>
<path d="M907 1176.3C904.6 1175.3 904.2 1167.7 906.5 1167.7C907.5 1167.7 908.6 1168.7 909.1 1170C910.4 1173.6 909.3 1177.2 907 1176.4V1176.3Z" fill="#7C6752"/>
<path d="M907 1155.1C903.7 1154 904.1 1135 907.3 1135C909.3 1135 909.7 1137.3 909.7 1145.6C909.7 1151.5 909.5 1156.2 909.4 1156C909.1 1156 907.9 1155.5 907 1155V1155.1Z" fill="#7C6752"/>
<path d="M904.9 1129.3C904.9 1126.7 905.9 1125.2 907.3 1125.2C908.8 1125.2 909.7 1126.7 909.7 1129.3C909.7 1131.9 908.7 1133.4 907.3 1133.4C905.8 1133.4 904.9 1131.9 904.9 1129.3Z" fill="#7C6752"/>
<path d="M907.8 998.3C904.5 998 903.2 996.8 903.2 994.5C903.2 992.9 902.4 991.4 901.2 991.4C897.8 991.4 901.2 989.4 906.9 988.1C912.1 987 912.8 987.3 913.8 990.9C915.1 996.3 913 998.9 907.8 998.2V998.3Z" fill="#7C6752"/>
<path d="M857 1003L837 998.5C837 998.5 829.75 997.143 828.5 993.5C827.455 990.454 830.5 985.5 830.5 985.5L858.3 990.6C858.3 990.6 869.2 991.4 870.5 991.9C871.8 992.6 875.9 993.2 879.5 993.5L900.5 991H904.5L904 1001L896 1005.5C891 1008 857 1003 857 1003Z" fill="#7C6752"/>
<path d="M827 988.2C827.3 983.3 830.3 981.7 832.4 985.3C833.1 986.4 832.9 986.6 831.7 986C830.4 985.2 829.7 986.3 829.7 988.9C829.7 991.2 829 993.1 828.1 993.1C827.3 993.1 826.8 991 827 988.2Z" fill="#7C6752"/>
<path d="M430.9 910C410.5 905.8 394.2 895.5 394.2 886.7C394.2 884.4 393.9 879.4 393.4 875.4C391.8 862.8 393.1 862.8 416.4 874.4C436.6 884.5 437.9 885 445 883.7C451.5 882.4 467 876.2 469.3 873.9C469.8 873.4 473.4 871.5 477.5 869.3C481.6 867.2 487.6 863.9 490.9 862C494.3 860.2 497.4 858.9 497.8 859.4C498.1 859.7 498.8 867.9 499.1 877.7L499.9 895.2L486.4 901.9C478.9 905.5 470.1 908.8 466.7 909.1C452.7 910.9 437.3 911.2 431.1 910.1L430.9 910Z" fill="#7C6752"/>
<path d="M1324.2 906.8C1310.7 902.7 1304.6 899 1304.6 894.7C1304.6 891.3 1305.7 890.8 1316.5 889.2C1322.9 888.2 1331.2 886.6 1334.8 885.6C1338.4 884.5 1351.3 882.5 1363.4 881.4C1375.5 880.1 1388.5 878.6 1392.4 878C1399.3 876.9 1399.3 876.9 1399.3 882.1C1399.3 884.9 1398.5 887.2 1397.7 887.2C1396.7 887.2 1390.4 890.8 1383.3 895.4C1376.4 899.8 1368.1 903.9 1365 904.4C1361.9 904.9 1355.9 906 1351.8 907C1339.2 909.8 1333.7 909.8 1324.2 907V906.8Z" fill="#7C6752"/>
<path d="M1741.9 753.6C1730 747.7 1729.7 747.4 1729.2 741C1728.9 737.4 1729.2 735 1729.9 735.6C1730.6 736.4 1732 736.1 1733.2 735.1C1734.8 733.8 1737.8 734 1744 735.3C1748.7 736.4 1756.7 737.6 1761.6 737.9C1766.5 738.4 1772.5 738.9 1775 739.4C1777.3 739.7 1783.6 739.4 1788.7 738.6C1799.3 736.8 1801.4 737.8 1800 744C1798.7 749.2 1790.5 753.3 1773.9 757.2C1758.4 760.8 1756.1 760.6 1742.1 753.6H1741.9Z" fill="#7C6752"/>
<path d="M910.6 461C898 459 894.4 457.6 887.8 451.7L881.8 446.3L882.9 435.7C883.9 425.4 884 425.3 888.8 425.3C891.4 425.3 893.5 426 893.5 426.6C893.5 428.7 931 431.3 946.5 430.2C954.7 429.7 961.7 429.4 962.5 429.7C963.8 430.5 964.1 445.2 962.7 448.8C962.2 450.3 961.1 451.4 960.3 451.4C959.6 451.4 957.2 453.2 955.1 455.3C948.1 462.3 931.6 464.4 910.7 461H910.6Z" fill="#7C6752"/>
<path d="M1341.3 374.5C1336.9 373.5 1329.2 370.9 1324.7 368.5L1316.1 364.1V355.1C1316.1 342.4 1316.4 342 1330.8 344.7C1346.5 347.6 1379.7 349.1 1384.8 347.1C1386.9 346.4 1392.5 345.1 1397 344.5C1405.3 343.5 1405.5 343.5 1406 348.1C1407 355.3 1405.8 361.6 1403.6 361.6C1402.5 361.6 1399.5 363.7 1396.9 366.5C1394.5 369.1 1390 372 1387.3 372.9C1379.8 375.3 1350.8 376.2 1341.5 374.5H1341.3Z" fill="#7C6752"/>
<path d="M1258.1 772.7C1236.6 769.9 1221.4 766.3 1221.4 763.9C1221.4 763.2 1222.5 761.8 1224 760.3C1225.3 758.8 1226.1 756.7 1225.5 755.4C1224.8 753.4 1225.5 753.1 1228.8 753.9C1256.7 760.9 1298.3 762.7 1331.6 758.3C1340.6 757.2 1352.3 756.3 1357.7 756.5C1369 756.7 1386.3 753.6 1386.3 751.3C1386.3 750.5 1388.4 750.2 1391 750.8C1394.1 751.5 1396.5 751 1398.2 749.2C1400 747.6 1402.3 747.1 1405.1 747.7C1407.4 748.2 1409.2 748 1409.2 747C1409.2 746.2 1413 745 1417.5 744.6C1422.1 743.9 1426.6 742.8 1427.8 742C1428.8 741.2 1432.4 740 1435.8 739.4C1439.2 738.7 1441.8 737.3 1441.8 736C1441.8 734.7 1443.3 733.9 1445.6 734C1450.5 734.5 1459.8 730.1 1459.8 727.5C1459.8 725.9 1461.1 725.5 1464.4 726.2C1466.8 726.9 1470.8 726.2 1473.2 724.9C1480.2 721.1 1482 726.2 1475.8 732.1C1470.3 737.3 1441 750.9 1427.2 754.9C1420.5 756.9 1410.9 759.6 1406 761.1C1401.1 762.6 1395.4 763.7 1393.4 763.4C1391.3 763.2 1389.6 763.9 1389.6 764.9C1389.6 766.2 1386.5 766.5 1379 765.9C1370.8 765.4 1367.7 765.7 1365.9 767.5C1361.2 772.1 1299.7 776 1293.3 772.1C1292.3 771.4 1291.7 771.9 1291.7 772.8C1291.7 774.9 1273.4 774.9 1258.3 772.8L1258.1 772.7Z" fill="#29522B"/>
<path d="M1286.7 668.4C1272.8 667.1 1254.4 663.8 1251.8 662.4C1250.8 661.7 1247.6 660.9 1244.5 660.4C1237.6 659.3 1236.2 656 1241.6 653.5C1244.9 652 1248.9 652.5 1262.5 655.9C1277.3 659.7 1283.1 660.1 1308.2 660.3C1325.5 660.5 1338.2 659.8 1340.2 658.8C1343.6 657 1346.9 657 1350 659C1351 659.7 1352.8 659.8 1354.1 659.5C1355.2 659.2 1358.3 658.4 1360.8 657.9C1363.2 657.2 1364.9 656.1 1364.4 655.1C1363.7 654.1 1365.7 654 1369.9 654.6C1373.7 655.3 1376.6 655.1 1376.6 654.1C1376.6 653.3 1380.4 652.5 1385.1 652.3C1396.2 651.8 1406 649 1407.1 646.1C1407.6 645 1409.1 643.8 1410.4 643.8C1415.6 643.8 1425.4 640 1429.7 636.3C1432.3 634.2 1435.2 632.4 1436.2 632.4C1437.3 632.4 1439.1 631.3 1440.3 630C1441.4 628.7 1443.4 627.6 1444.7 627.6C1446.2 627.6 1446.8 628.6 1446.2 630C1445.7 631.3 1446 632.4 1446.9 632.4C1453.6 632.4 1439.2 645.6 1424.9 652.8C1410.9 660 1399 662.6 1369.3 665C1356.9 666.1 1346.5 667.6 1346.1 668.4C1345.4 670 1305.6 669.9 1287 668.2L1286.7 668.4Z" fill="#29522B"/>
<path d="M1322.2 574.6C1321.7 574.1 1307.7 572.3 1290.9 570.5C1274.3 568.9 1259.7 566.9 1258.9 566.4C1257.9 565.9 1257.3 563.8 1257.3 561.8C1257.3 558.4 1257.8 558.2 1271.5 558.7C1279.5 558.9 1292.5 559.8 1300.9 560.7C1320 562.8 1336.8 562.8 1338.1 560.7C1338.6 559.9 1341.2 559.6 1343.8 560.2C1347.2 560.9 1348.7 560.5 1348.7 559.1C1348.7 557.6 1350.8 557.3 1356.2 558C1361.6 558.5 1363.9 558.2 1364.5 556.5C1365 555.2 1367.6 554.2 1370.7 554.2C1377.7 554.2 1381.3 552.7 1381.3 550C1381.3 548.4 1383.4 547.7 1387.8 547.7C1392.4 547.7 1394.8 546.9 1395.5 545.1C1396.2 543.3 1397.6 543 1401.4 543.8C1404 544.3 1406.6 544.1 1407.3 543.3C1407.8 542.3 1410.7 541.2 1413.7 540.7C1418.1 539.7 1418.9 540 1418.9 542.8C1418.9 544.8 1417.8 546.1 1416.3 546.1C1414.8 546.1 1412.5 547.6 1410.9 549.5C1409.1 551.8 1406 553.1 1401.4 553.3C1397.8 553.5 1393.6 554.9 1392.1 556.4C1390.5 557.9 1387.5 559.2 1385.2 559.2C1383.1 559.2 1381.3 559.9 1381.3 560.7C1381.3 561.5 1380 561.8 1378.2 561.4C1376.6 561.1 1374 561.9 1372.5 563.5C1370.9 565 1367 566.8 1363.7 567.4C1360.4 568.2 1350.2 570.2 1340.9 572.1C1321.5 576 1323.4 575.9 1322.3 574.7L1322.2 574.6Z" fill="#29522B"/>
<path d="M660.1 1073.8C660.1 1072.5 660.9 1071.4 661.7 1071.4C662.7 1071.4 663.3 1072.5 663.3 1073.8C663.3 1075.1 662.6 1076.2 661.7 1076.2C660.9 1076.2 660.1 1075.1 660.1 1073.8Z" fill="#B52121"/>
<path d="M578.9 1059.8C579.2 1058.8 580.2 1058.2 581 1058.2C581.8 1058.2 582.8 1058.9 583.1 1059.8C583.4 1060.8 582.4 1061.6 581 1061.6C579.5 1061.6 578.6 1060.8 578.9 1059.8Z" fill="#B52121"/>
<path d="M623.6 1045.6C623.3 1044.9 623.6 1043.3 624.4 1042C625.7 1039.9 626 1039.9 627.3 1042C628.9 1044.4 628.3 1046.9 625.8 1046.9C625 1046.9 624 1046.2 623.5 1045.6H623.6Z" fill="#B52121"/>
<path d="M604.2 1036.2C602.9 1034.9 604.4 1032.3 606.5 1032.3C607.3 1032.3 608 1033.4 608 1034.7C608 1037.1 606 1038 604.2 1036.2Z" fill="#B52121"/>
<path d="M592.2 1022.3C590.6 1019.5 594.3 1016.4 596.6 1018.7C598.6 1020.7 597.3 1024.1 594.8 1024.1C594 1024.1 592.8 1023.3 592.2 1022.3Z" fill="#B52121"/>
<path d="M141.3 758.3C141.3 756.5 142 754.9 142.8 754.9C145.7 754.9 146.2 757.8 143.8 759.8C141.7 761.4 141.4 761.3 141.4 758.3H141.3Z" fill="#B52121"/>
<path d="M1532.4 528.6C1530.4 526.6 1531.4 523.2 1533.9 523.2C1535.2 523.2 1536.3 524.2 1536.3 525.5C1536.3 528.3 1534 530.1 1532.4 528.6Z" fill="#B52121"/>
<path d="M1499.9 522.2C1498.6 520.9 1500.1 518.3 1502.2 518.3C1503 518.3 1503.7 519.4 1503.7 520.7C1503.7 523.1 1501.7 524 1499.9 522.2Z" fill="#B52121"/>
<path d="M1592.7 516C1593.8 512.9 1598.9 512.4 1597.9 515.5C1597.4 516.5 1595.9 517.6 1594.5 517.9C1592.5 518.2 1592.1 517.7 1592.7 515.9V516Z" fill="#B52121"/>
<path d="M1522.4 506.9C1521.7 505.9 1522.2 504.1 1523.2 502.7C1525.5 500.1 1529.7 502.4 1529.7 506.3C1529.7 508.9 1523.8 509.4 1522.4 507V506.9Z" fill="#B52121"/>
<path d="M1562.4 502.8C1562.4 501.5 1563.5 500.4 1564.8 500.4C1566.1 500.4 1567.2 501.5 1567.2 502.8C1567.2 504.1 1566.1 505.2 1564.8 505.2C1563.5 505.2 1562.4 504.1 1562.4 502.8Z" fill="#B52121"/>
<path d="M1509.5 494.3C1507.7 492.5 1508.5 490.5 1511 490.5C1512.3 490.5 1513.4 491.2 1513.4 492C1513.4 494.1 1510.8 495.6 1509.5 494.3Z" fill="#B52121"/>
<path d="M1608.6 491.2C1607.3 487.6 1609.4 486.3 1612.4 489.2C1614.7 491.5 1614.7 491.8 1612.2 492.6C1610.7 493.3 1609.3 492.8 1608.6 491.1V491.2Z" fill="#B52121"/>
<path d="M1529.8 482.4C1529.8 480.6 1530.9 479.1 1532.2 479.1C1533.5 479.1 1534.6 480.6 1534.6 482.4C1534.6 484.2 1533.5 485.7 1532.2 485.7C1530.9 485.7 1529.8 484.2 1529.8 482.4Z" fill="#B52121"/>
<path d="M1562.7 471.6C1563.4 468.2 1566.3 467.8 1566.9 471.4C1567.2 473 1566.4 474.2 1564.8 474.2C1563.2 474.2 1562.4 473.2 1562.7 471.6Z" fill="#B52121"/>
<path d="M1594.5 473.1C1592.5 471.3 1593.2 469.3 1595.8 469.3C1597.1 469.3 1598.2 470.4 1598.2 471.7C1598.2 474.3 1596.2 475 1594.4 473L1594.5 473.1Z" fill="#B52121"/>
</svg>
