<svg width="285" height="256" viewBox="0 0 285 256" fill="none" xmlns="http://www.w3.org/2000/svg">
<path d="M168.55 237.15C168.55 236.9 168.55 223.8 168.55 208L168.6 179.25L164.4 176.8C162.1 175.45 156 171.9 150.75 168.9C145.55 165.9 141.05 163.25 140.75 163.05C140.5 162.8 139 161.95 137.5 161.15C136 160.3 131.15 157.55 126.75 155C116.4 149 115.85 148.65 112 146.5C108.2 144.35 103.55 141.7 102.5 141C102.1 140.75 100.6 139.9 99.25 139.1C97.85 138.3 94.75 136.5 92.35 135.1C88.7 132.95 87.5 132.5 85.6 132.5C82.55 132.55 81.5 133.35 81.5 135.7C81.5 137.35 81.65 137.5 82.85 137.5C83.65 137.5 84.65 137.85 85.15 138.2C86 138.85 86.05 140.35 86.05 163.1C86 176.35 86.15 187.5 86.4 187.8C86.6 188.1 92.25 191.5 99 195.4C105.75 199.25 115.4 204.8 120.5 207.75C137.65 217.7 145.15 222 145.3 222C145.35 222 147.2 223.1 149.35 224.4C157.9 229.6 159.95 230.6 162.05 230.4C163.65 230.25 164 230.4 164 231.1C164 231.55 163.75 232.1 163.5 232.25C163.25 232.4 163 233.65 163 235.05V237.5H165.75C167.25 237.5 168.5 237.35 168.55 237.15V237.15ZM161.75 221C160.25 221 160.05 221.15 159.9 222.45L159.75 223.9L155.05 221.2C152.45 219.7 150.25 218.5 150.15 218.5C150 218.5 149.25 218.05 148.5 217.5C147.05 216.45 131.55 207.5 131.2 207.5C131.1 207.5 129.6 206.65 127.9 205.6C126.15 204.55 124.4 203.55 124 203.35C123.6 203.15 122.55 202.55 121.75 202.05C120.9 201.55 118.45 200.1 116.25 198.85C114.05 197.6 111 195.75 109.4 194.8C107.85 193.8 106.35 193 106.1 193C105.8 193 105.25 192.7 104.9 192.35C104.55 192 103.3 191.25 102.15 190.65C99.15 189.1 97.8 188.3 97.5 187.95C97.35 187.8 95.85 186.9 94.15 185.95L91 184.25V164.65C91 147.5 91.1 145 91.75 145C92.2 145 92.5 144.55 92.5 143.95C92.5 143.2 92.75 143 93.25 143.2C93.65 143.35 99.35 146.55 105.85 150.35C121.2 159.2 123.55 160.45 124.65 160.5C125.5 160.5 130.4 163.2 146.5 172.5C149.95 174.5 154.55 177 156.75 178.05C158.95 179.1 161.5 180.4 162.35 181L164 182L163.9 204.1C163.85 216.3 163.75 225.05 163.65 223.65C163.45 221 163.45 221 161.75 221V221Z" fill="#ECE8DD"/>
<path d="M68.6 187.15C68.7 183.05 68.75 166.75 68.75 150.85V121.9L67.35 120.8C66.6 120.2 63.2 118.1 59.85 116.15C56.5 114.25 49.45 110.15 44.15 107.05C34.85 101.7 34.4 101.5 31.6 101.5C29.95 101.5 27.95 101.75 27.1 102.05L25.5 102.6L25.4 135.9C25.25 168.65 25.25 169.25 26.25 170.35C27.45 171.75 29.05 171.8 30.15 170.6C30.9 169.75 31 166.85 31 139.05V108.4L33.2 109.7C34.45 110.4 35.9 111 36.55 111C37.8 111 58.15 122.65 59.85 124.35L61 125.45V157.7C61 178.65 60.8 190.05 60.5 190.25C60.2 190.4 60 190.95 60 191.4C60 192.45 64.1 194.25 65.6 193.85C66.2 193.7 67.05 193.75 67.55 194.05C68.4 194.45 68.45 194 68.6 187.15V187.15Z" fill="#ECE8DD"/>
<path d="M42.5 155.8C42.5 154 42.25 153.4 41.2 152.6C39.95 151.7 39.9 151.5 40.2 148.8C40.5 146.4 40.75 145.85 41.8 145.45C42.9 145.05 43.05 144.75 42.9 142.9L42.75 140.75L40.2 140.6C37.9 140.45 37.5 140.6 36.55 141.8C35.6 143 35.5 143.8 35.5 149.55V156L37.1 157C38 157.55 39.6 158 40.6 158H42.5V155.8V155.8Z" fill="#ECE8DD"/>
<path d="M166 236.75C166 236.35 165.65 236 165.25 236C164.4 236 164.25 234.45 165 233.7C165.3 233.4 165.55 223.7 165.65 208.25C165.75 194.5 166 182.7 166.2 182C166.5 181 166.35 180.65 165.4 180.2C162.05 178.6 149.45 172 147.75 170.9C141.9 167.25 126.95 159 126.15 159C125.65 159 123.9 158.25 122.25 157.35C118.15 155.1 92.6001 140.35 88.1001 137.65C86.1001 136.4 84.1001 135.55 83.7001 135.7C82.7501 136.05 82.8001 135.5 83.8501 134.7C84.6501 134.1 84.6501 134.05 83.4501 134C82.5001 134 82.05 134.3 81.8 135.15C81.65 135.75 81.5001 148.4 81.5001 163.3C81.5001 188.45 81.5501 190.4 82.3501 191.1C82.8501 191.55 91.2501 196.5 101 202.1C123.25 214.95 135.55 222.05 148 229.25C153.35 232.35 158.9 235.45 160.35 236.2C163.3 237.65 166 237.95 166 236.75V236.75ZM158.1 227.15C156.25 226.1 153 224.2 150.85 222.9C148.7 221.6 146.85 220.5 146.8 220.5C146.65 220.5 139.15 216.2 122 206.25C116.9 203.3 107.25 197.75 100.5 193.9C93.7501 190 88.1 186.6 87.9 186.3C87.4 185.55 87.4 141.9 87.9 141.1C88.15 140.75 88.7 140.6 89.15 140.8C89.8 141.05 89.9501 141.5 89.7001 142.95L89.4 144.8L116.6 160.5C143.5 176.05 157.55 184.15 159 184.95C159.65 185.3 159.75 188.2 159.9 205.45C159.95 216.45 159.9 225.5 159.75 225.5C159.6 225.5 158.8 225.15 158 224.75C156.95 224.2 156.5 223.6 156.5 222.75C156.5 221.85 156.25 221.5 155.5 221.5C154.95 221.5 154.5 221.3 154.5 221.05C154.5 220.75 153.55 220.5 152.35 220.4C150.6 220.3 150.2 220.05 150.1 219.15C149.95 218.2 149.6 218 148.2 218C147.2 218 145.95 217.75 145.35 217.45C144.4 217 144.45 217.1 145.5 217.95C146.2 218.5 147.3 219.25 148 219.6C149.25 220.25 159.4 226.05 161.25 227.15C161.8 227.5 162.35 227.8 162.45 227.85C162.65 227.95 162 229 161.7 229C161.55 229 159.9 228.15 158.1 227.15V227.15Z" fill="#DFD9C8"/>
<path d="M144 216.85C144 216.6 138.25 213.2 135.1 211.55C132.7 210.3 134.15 211.5 136.85 213C138.45 213.9 140.7 215.2 141.85 215.85C143.05 216.55 144 217 144 216.85V216.85Z" fill="#DFD9C8"/>
<path d="M132.35 210C131.6 209.4 131 208.5 131 207.95C131 207.25 130.65 207 129.75 207C128.95 207 128.5 206.7 128.5 206.25C128.5 205.85 128.15 205.5 127.75 205.5C127.35 205.5 127 205.3 127 205C127 204.75 126.3 204.5 125.5 204.5C124.5 204.5 124 204.25 124 203.75C124 203.3 123.55 203 122.75 203C121.95 203 121.5 202.7 121.5 202.25C121.5 201.85 121.15 201.5 120.75 201.5C120.35 201.5 120 201.3 120 201C120 200.75 119.1 200.5 118.05 200.5C115.5 200.5 113 199.1 113 197.7C113 196.55 112.15 196 110.45 196C109.95 196 109.5 195.65 109.5 195.25C109.5 194.75 108.95 194.5 107.75 194.5C106.35 194.5 106 194.3 106 193.55C106 192.55 105.1 192 103.45 192C102.95 192 102.5 191.7 102.5 191.3C102.5 190.8 101.8 190.5 100.35 190.4C98.6 190.3 98.2 190.05 98.1 189.15C97.95 188.2 97.6 188 96.2 188C95.2 188 94 187.75 93.45 187.5C92.95 187.2 92.5 187.1 92.5 187.2C92.5 187.35 93.25 187.85 94.1 188.3C95 188.75 95.85 189.3 96 189.45C96.3 189.8 97.65 190.55 100.65 192.15C101.8 192.75 103.05 193.5 103.4 193.85C103.75 194.2 104.3 194.5 104.6 194.5C104.85 194.5 106.35 195.3 107.9 196.3C109.5 197.25 112.55 199.1 114.75 200.35C116.95 201.6 119.4 203.05 120.25 203.55C121.05 204.05 122.1 204.65 122.5 204.85C122.9 205 124.05 205.65 125 206.25C128.3 208.3 133.75 211.05 132.35 210V210Z" fill="#DFD9C8"/>
<path d="M91.45 185.1C91.2 184.1 91 183.1 91 182.9C91 182 89.6 182.6 89.35 183.55C88.95 185 89.35 185.75 90.7 186.4C91.85 186.9 91.85 186.9 91.45 185.1V185.1Z" fill="#DFD9C8"/>
<path d="M61.9 191.9C62.35 191.45 62.5 183.15 62.5 157.65V123.95L61.35 122.85C59.65 121.15 39.3 109.5 38 109.5C37.4 109.5 35.55 108.7 33.9 107.7C32.2 106.75 30.55 106.05 30.2 106.2C29.6 106.4 29.5 111.8 29.5 137.4C29.5 166.75 29.45 168.4 28.6 169.15C28.1 169.65 27.4 170 27.1 170C26.7 170 26.6 170.45 26.8 171.4C27.3 173.5 27.95 174 30.25 174C31.45 174 33.05 174.35 33.8 174.75C34.6 175.15 35.5 175.5 35.8 175.5C36.35 175.5 37 147.75 37 125.9C37 120.95 37.2 117 37.4 117.1C37.65 117.2 42.35 119.8 47.9 122.95L58 128.65L57.9 158.55C57.75 185.55 57.85 188.45 58.55 188.9C59 189.2 59.5 190.1 59.65 190.95C60 192.55 60.85 192.95 61.9 191.9Z" fill="#DFD9C8"/>
<path d="M167.7 184.2C167.85 183.75 168 182.5 168 181.35C168 179.35 167.9 179.2 165.5 178.05C164.1 177.35 163 176.5 163 176.15C163 175.8 162.55 175.5 162 175.5C160.5 175.5 158 174.35 151.9 170.9C148.1 168.75 146.5 167.55 146.5 166.9C146.5 166.25 146.1 166 145 166C144 166 140.85 164.5 135.95 161.7C131.8 159.35 128.2 157.5 127.95 157.6C127.5 157.75 131.3 160.15 136 162.65C136.95 163.15 138.75 164.25 140 165C141.25 165.75 146.05 168.6 150.75 171.25C155.4 173.95 161.05 177.15 163.25 178.45L167.25 180.75L167.1 182.9C166.9 185.05 167.15 185.6 167.7 184.2V184.2Z" fill="#DFD9C8"/>
<path d="M26.65 169.7C27.4 168.95 26.95 168.1 26 168.35C25.4 168.5 25.05 168.85 25.15 169.15C25.35 169.85 26.2 170.1 26.65 169.7V169.7Z" fill="#DFD9C8"/>
<path d="M69 165.25C69 162.8 67.85 162.05 67.35 164.1C66.95 165.65 67.45 167.5 68.3 167.5C68.8 167.5 69 166.85 69 165.25Z" fill="#DFD9C8"/>
<path d="M69 157.25C69 155.4 67.8 154.75 67.4 156.4C67.1 157.75 67.5 159 68.3 159C68.75 159 69 158.45 69 157.25V157.25Z" fill="#DFD9C8"/>
<path d="M69 149.75C69 147.9 67.8 147.25 67.4 148.9C67.1 150.25 67.5 151.5 68.3 151.5C68.75 151.5 69 150.95 69 149.75V149.75Z" fill="#DFD9C8"/>
<path d="M111 146.8C111 145.5 110.2 145 107.95 145C105.95 145 106.15 145.6 108.45 146.9C110.85 148.25 111 148.25 111 146.8Z" fill="#DFD9C8"/>
<path d="M103 142.2C103 141.15 102.75 141 101.15 141C99.4 141 99.35 141.05 100.2 141.95C100.7 142.45 101.5 143 102.05 143.15C102.8 143.35 103 143.15 103 142.2Z" fill="#DFD9C8"/>
<path d="M69 137.25C69 134.7 68.85 134 68.25 134C67.5 134 67.4 134.25 67.4 137.25C67.4 140.25 67.5 140.5 68.25 140.5C68.85 140.5 69 139.8 69 137.25Z" fill="#DFD9C8"/>
<path d="M89.5 134.25C89.5 133.15 89.3 133 87.75 133C85.6 133 85.55 133.5 87.45 134.65C89.35 135.75 89.5 135.75 89.5 134.25Z" fill="#DFD9C8"/>
<path d="M56 114.8C56 113.5 55.2 113 52.95 113C50.95 113 51.15 113.6 53.45 114.9C55.85 116.25 56 116.25 56 114.8V114.8Z" fill="#DFD9C8"/>
<path d="M46.5 109.25C46.5 108.15 46.3 108 44.75 108C42.6 108 42.55 108.5 44.45 109.65C46.35 110.75 46.5 110.75 46.5 109.25Z" fill="#DFD9C8"/>
<path d="M179.75 171.4C182.2 170.15 202.65 158.45 227.55 144.05C230.25 142.5 240.4 136.65 250.2 131C264.8 122.6 268 120.55 268 119.7C268 118.65 268.75 118 272.1 116.05C279.15 112.05 282.85 109.85 283.35 109.35C283.95 108.7 284.25 106.25 284.1 102.4C284 100.6 283.7 99.8 282.55 98.65C281.3 97.4 270.85 90.9 266 88.35C265.05 87.8 263.75 87.1 263.15 86.7C262.55 86.35 261.25 85.55 260.3 85C259.3 84.45 257.75 83.6 256.9 83.05C244.9 76.15 235.2 70.6 233 69.35C231.5 68.55 230 67.7 229.75 67.5C229.45 67.3 228.45 66.65 227.5 66.1C226.05 65.3 220.65 62.2 208.1 54.95C207.25 54.4 205.7 53.55 204.75 53C203.8 52.45 202.25 51.6 201.35 51.05C188.85 43.8 183.45 40.7 182 39.9C181.05 39.35 180 38.7 179.75 38.5C179.45 38.3 178 37.45 176.5 36.65C175 35.8 171.7 33.95 169.25 32.5C166.75 31.05 163.5 29.2 162 28.35C160.5 27.55 159 26.7 158.75 26.5C158.45 26.3 157.45 25.65 156.5 25.1C155.05 24.3 149.65 21.2 137.1 13.95C136.25 13.4 134.7 12.55 133.75 12C130.55 10.2 128.8 9.15 124.25 6.5C121.75 5.05 118.5 3.2 117 2.35C115.5 1.55 114.05 0.65 113.8 0.45C113.5 0.2 111.55 0 109.4 0C106.55 0 105.1 0.25 103.9 0.95C103 1.45 97.05 4.85 90.75 8.5C84.4 12.15 78.45 15.55 77.5 16.1C76.55 16.65 75.5 17.3 75.25 17.5C74.95 17.7 73.5 18.55 72 19.35C70.5 20.2 65.65 22.95 61.25 25.5C56.85 28.05 52 30.8 50.5 31.65C49 32.45 47.1499 33.55 46.3999 34.1C45.6999 34.6 44.95 35 44.75 35C44.55 35 43.8 35.4 43.1 35.9C42.35 36.45 40.5 37.55 39 38.35C36.7 39.6 24.4999 46.65 18.7499 50C10.7999 54.65 4.49995 58.3 3.34995 58.9C1.84995 59.65 0.999939 61.25 0.999939 63.3C0.999939 64.3 1.24994 64.5 2.49994 64.5C3.79994 64.5 3.99994 64.35 3.99994 63.05V61.6L9.84995 64.95C13.0999 66.8 22.5 72.2 30.75 77C39 81.75 49.45 87.8 54 90.4C58.55 93 77.65 104.05 96.5 114.9C115.35 125.75 140.3 140.15 152 146.9C163.7 153.6 173.55 159.35 173.9 159.65C174.8 160.35 174.5 167.1 173.6 167.4C173.25 167.5 172.8 167.15 172.65 166.55C172.4 165.55 168.5 163 167.25 163C166.85 163 166.5 162.8 166.4 162.55C166.25 162.05 148.9 151.9 143.75 149.3C142.15 148.45 140.5 147.45 140.1 147.15C139.75 146.8 139.1 146.5 138.7 146.5C138.3 146.5 138 146.3 138 146.05C138 145.8 137.2 145.3 136.25 144.95C135.3 144.6 134.5 144.15 134.5 143.95C134.5 143.75 133.7 143.3 132.75 142.95C131.8 142.6 131 142.15 131 142C131 141.85 129.5 140.9 127.65 139.95C125.8 139.05 124 137.95 123.6 137.65C123.25 137.3 122.4 137 121.7 137C121 137 120.5 136.7 120.5 136.3C120.5 135.55 119.45 135 117.95 135C117.45 135 117 134.65 117 134.25C117 133.75 116.45 133.5 115.25 133.5C113.85 133.5 113.5 133.3 113.5 132.5C113.5 131.7 113.15 131.5 111.95 131.5C110.85 131.5 110.35 131.25 110.15 130.5C109.95 129.8 109.45 129.5 108.4 129.5C107.35 129.5 106.85 129.2 106.65 128.5C106.45 127.7 105.95 127.5 104.15 127.5H101.95L102.1 129.6C102.25 131.45 102.45 131.8 103.75 132.25C104.55 132.5 105.65 133.15 106.1 133.65C106.6 134.1 107.45 134.5 107.95 134.5C108.45 134.5 109 134.85 109.2 135.25C109.35 135.7 110.1 136 110.95 136C111.95 136 112.45 136.3 112.65 137C112.8 137.55 113.25 138 113.7 138C114.15 138 114.95 138.45 115.5 139C116.05 139.55 116.95 140 117.5 140C118.05 140 118.5 140.2 118.5 140.45C118.5 140.9 129.65 147.5 130.5 147.5C130.75 147.5 131.45 147.95 132 148.5C132.55 149.05 133.45 149.5 133.95 149.5C134.45 149.5 135 149.8 135.15 150.15C135.3 150.45 136.5 151.3 137.8 152C139.15 152.7 141.15 153.85 142.25 154.55C143.35 155.25 146.95 157.35 150.25 159.2C153.55 161.05 156.6 162.75 157 163C162.8 166.6 170.25 170.5 171.35 170.5C172.2 170.5 173 170.9 173.4 171.5C174.2 172.8 177.05 172.75 179.75 171.4V171.4ZM247 107.75C247 107.6 248.35 106.85 250 106C252.75 104.6 253 104.35 253 102.85C253 101.1 259.2 104.8 155.75 45.2C144.75 38.9 130.6 30.7 124.3 27.05C112.1 19.9 110 19.15 107.15 20.65C106.4 21.05 95.95 27.05 84 34C72.05 40.95 57.75 49.2 52.25 52.35C46.75 55.55 39.3999 59.8 35.8999 61.85L29.5499 65.55L27.2499 64.25C25.9999 63.5 24.9999 62.75 24.9999 62.5C24.9999 62.3 34.3 56.8 45.6 50.25C114.2 10.65 109.1 13.5 110.6 13.5C112.05 13.5 112.25 13.65 177.75 51.5C187.1 56.9 205.2 67.35 218 74.75C248.65 92.4 257.65 97.75 258.45 98.7C259.35 99.75 258.75 101.8 257.15 103.3C254.75 105.55 247 108.95 247 107.75V107.75Z" fill="#E3C577"/>
<path d="M175.25 170.5C174.45 169.6 174.4 169.4 175.1 168.85C175.65 168.45 175.95 166.95 176.2 163.95C176.45 160.25 176.35 159.45 175.6 158.6C175.15 158.05 165.2 152.1 153.5 145.35C141.8 138.65 116.85 124.25 98.0001 113.4C79.1501 102.55 60.0501 91.5 55.5001 88.9C50.9501 86.3 41.3001 80.7 34.0001 76.5C26.7001 72.3 17.1001 66.75 12.6501 64.2C5.80006 60.25 4.30006 59.55 3.00006 59.8C1.65006 60.1 0.800061 61.5 2.00006 61.5C2.25006 61.5 2.50006 61.85 2.50006 62.25C2.50006 62.65 2.20005 63 1.80005 63C1.35005 63 1.05007 64.05 0.850067 66.65C0.450067 70.95 -0.0499268 70.35 8.70007 75.3C12.1001 77.25 14.7501 79.05 14.9001 79.6C15.0001 80.1 15.3501 80.5 15.7001 80.5C16.0001 80.5 16.5001 81 16.7501 81.55C17.0501 82.15 18.5501 83.35 20.1001 84.2C22.7001 85.65 49.6501 101.15 86.3001 122.3C94.5501 127.1 101.6 131 101.95 131C102.25 131 103 131.45 103.6 132C104.2 132.55 105 133 105.35 133C105.75 133 106.5 133.45 107.1 134C107.7 134.55 108.55 135 109.05 135C109.5 135 110 135.3 110.15 135.65C110.45 136.5 114.35 138.5 115.75 138.5C116.45 138.5 117 138.85 117.15 139.5C117.35 140.25 117.85 140.5 118.95 140.5C120 140.5 120.5 140.75 120.5 141.25C120.5 141.75 121 142 121.85 142C123.5 142 127.5 144.3 127.5 145.25C127.5 145.75 128 146 128.95 146C130.1 146 130.45 146.25 130.6 147.15C130.7 148 131.15 148.3 132.3 148.4C133.4 148.5 134 148.85 134.15 149.55C134.3 150.2 134.85 150.5 135.7 150.5C136.4 150.5 137 150.75 137 151C137 151.3 137.65 151.5 138.5 151.5C139.65 151.5 140 151.7 140 152.5C140 153.05 140.35 153.5 140.75 153.5C141.15 153.5 141.5 153.75 141.5 154C141.5 154.3 142.25 154.5 143.15 154.5C145.5 154.5 156.4 160.8 156.6 162.25C156.7 163.05 157.2 163.3 159.05 163.5C161.5 163.8 163 164.65 163 165.8C163 166.2 163.5 166.5 164.25 166.5C166.1 166.5 169 168.05 169 169.05C169 170.05 172.3 171.5 174.6 171.5C176.15 171.5 176.15 171.5 175.25 170.5ZM165 164.95C165 164.15 166.3 164.45 168.65 165.8C170.05 166.55 170.85 167.3 170.7 167.7C170.5 168.2 169.75 168 167.7 166.9C166.2 166.1 165 165.2 165 164.95ZM158.95 161.7C158.55 161.3 158 161 157.8 161C157.4 161 146.55 154.85 143.75 153C142.65 152.3 141.15 151.45 140.35 151.1C138.95 150.5 138.5 149.5 139.65 149.5C140 149.5 142.4 150.75 145 152.25C147.6 153.75 153.15 156.9 157.35 159.3C162.55 162.3 164.85 163.85 164.65 164.35C164.45 164.9 163.9 164.75 162.05 163.7C160.8 162.95 159.4 162.05 158.95 161.7V161.7ZM168.9 162.25C166.75 161 163.25 159 161.1 157.8C139.3 145.45 113.75 130.95 93.7501 119.5C85.2001 114.65 77.2501 110.1 76.0001 109.4C64.5001 103.1 57.1501 99 54.1501 97.15C52.1501 96 50.4001 95 50.3001 95C50.2001 95 48.1001 93.85 45.6501 92.45C43.2501 91 40.2501 89.3 39.0001 88.6C37.7501 87.95 35.4501 86.6 33.8501 85.7C32.2501 84.75 30.7001 84 30.4501 84C30.2001 84 29.4501 83.55 28.8501 82.95C28.2501 82.4 27.1501 81.8 26.3501 81.65C25.6001 81.5 25.0001 81.2 25.0001 80.95C25.0001 80.75 24.5501 80.4 23.9501 80.25C23.3501 80.05 22.4501 79.45 21.9501 78.95C21.4501 78.45 20.3001 78 19.5001 78C18.6501 78 18.0001 77.75 18.0001 77.4C17.9501 76.7 14.5001 74.3 11.0001 72.55C7.55006 70.85 4.75007 68.8 4.60007 67.8C4.30007 66.45 4.95006 63.5 5.50006 63.5C5.80006 63.5 6.00006 64.25 6.00006 65.15C6.00006 66.5 6.30007 67 7.35007 67.5C8.15007 67.9 9.30006 68.6 10.0001 69.05C10.7001 69.5 12.5001 70.55 14.0001 71.35C15.5001 72.2 18.2501 73.8 20.1001 74.95C21.9501 76.05 23.6501 77 23.8501 77C24.0001 77 24.5501 77.3 24.9501 77.7C25.4001 78.05 27.2001 79.15 29.0001 80.1C30.8001 81.05 34.6001 83.25 37.5001 85C40.4001 86.7 43.3001 88.35 44.0001 88.65C44.7001 88.95 45.6001 89.45 46.0001 89.8C46.4001 90.1 47.7501 90.95 49.0001 91.6C53.6501 94.2 61.3001 98.65 63.0001 99.75C63.9501 100.35 66.3001 101.75 68.2501 102.75C70.1501 103.8 72.6001 105.2 73.6001 105.85C74.6501 106.45 75.6001 107 75.7001 107C75.8501 107 77.7001 108.1 79.9001 109.45C82.1001 110.8 85.1001 112.55 86.5501 113.35C88.9501 114.65 98.8001 120.35 103.5 123.1C111.15 127.6 113.55 129 113.7 129C113.85 129 119.4 132.2 121.5 133.5C121.9 133.75 124.5 135.25 127.25 136.85C130 138.45 132.6 140 133.1 140.25C133.55 140.55 136.95 142.4 140.6 144.45C144.25 146.5 147.85 148.6 148.6 149.1C149.3 149.6 151.1 150.65 152.6 151.45C156.75 153.65 159.8 155.4 165.5 158.8C168.4 160.5 171.35 162.2 172.1 162.55C173.35 163.1 174.1 164.5 173.15 164.5C173 164.5 171.05 163.5 168.9 162.25V162.25ZM136.5 148.5C136.5 147.95 137.05 147.85 138.2 148.3C138.6 148.45 138.8 148.9 138.65 149.3C138.45 149.8 138.15 149.85 137.45 149.45C136.95 149.2 136.5 148.75 136.5 148.5V148.5ZM133.7 147.3C133.2 146.9 132.9 146.4 133.1 146.2C133.6 145.75 136.55 147 136.2 147.55C135.8 148.2 134.85 148.1 133.7 147.3ZM130.2 145.3C129.7 144.9 129.4 144.4 129.6 144.2C130.1 143.75 133.05 145 132.7 145.55C132.3 146.2 131.35 146.1 130.2 145.3ZM123 141.05C122.6 140.8 122.45 140.4 122.65 140.15C123.3 139.55 129.45 143 129.15 143.85C128.9 144.5 128.1 144.15 123 141.05V141.05ZM120 139C120 138.45 120.55 138.35 121.7 138.8C122.1 138.95 122.3 139.4 122.15 139.8C121.95 140.3 121.65 140.35 120.95 139.95C120.45 139.7 120 139.25 120 139V139ZM116.5 137C116.5 136.45 117.05 136.35 118.2 136.8C118.6 136.95 118.8 137.4 118.65 137.8C118.45 138.3 118.15 138.35 117.45 137.95C116.95 137.7 116.5 137.25 116.5 137V137ZM114 135.45C114 135.2 114.35 135 114.75 135C115.2 135 115.35 135.3 115.2 135.75C114.9 136.5 114 136.3 114 135.45ZM110.5 133.45C110.5 133.2 110.85 133 111.25 133C111.7 133 111.85 133.3 111.7 133.75C111.4 134.5 110.5 134.3 110.5 133.45ZM107 131.45C107 131.2 107.35 131 107.75 131C108.2 131 108.35 131.3 108.2 131.75C107.9 132.5 107 132.3 107 131.45ZM103.5 129.45C103.5 129.2 103.85 129 104.25 129C104.7 129 104.85 129.3 104.7 129.75C104.4 130.5 103.5 130.3 103.5 129.45Z" fill="#D5B460"/>
<path d="M251.6 108.8C255.6 107.15 259.25 104.75 259.9 103.25C260.25 102.55 260.5 100.95 260.5 99.75C260.5 97.85 260.3 97.4 258.85 96.35C256.9 94.9 250.05 90.85 219.5 73.25C206.7 65.85 188.6 55.4 179.25 50C111.05 10.55 113.65 12 111.55 11.9C107.8 11.75 110.85 10.2 81.75 27C72.4 32.4 55.65 42.05 44.5 48.5C33.35 54.9 23.85 60.5 23.35 60.95C22.85 61.35 22.5 62.15 22.6 62.7C22.75 63.9 27.75 67.45 29.25 67.45C29.8 67.5 31.85 66.6 33.75 65.45C35.7 64.3 43.2 59.95 50.5 55.75C57.8 51.55 73.55 42.45 85.5 35.5C97.45 28.55 107.9 22.55 108.65 22.15C110.45 21.2 109.4 20.7 133.75 34.8C144.2 40.9 174.9 58.65 202 74.25C229.1 89.85 251.35 102.7 251.4 102.8C251.5 102.85 250.4 103.55 248.9 104.25C245.6 105.95 244.5 106.9 244.5 108.05C244.5 109.1 245.95 110 247.6 110C248.25 110 250.05 109.45 251.6 108.8ZM254 102.85C254 101.15 253.95 101.15 239.35 92.75C225.35 84.65 218.05 80.45 185.5 61.65C177.4 56.95 165.35 50.05 158.75 46.25C152.15 42.45 139.05 34.9 129.65 29.45C120.25 23.95 112.2 19.5 111.8 19.5C110.95 19.5 110.2 16.5 110.7 15.25C111.25 13.7 108.5 12.2 157 40.25C160.45 42.25 182.25 54.85 205.5 68.25C264 102 258.75 98.75 257.95 100.95C257.5 102.2 255.2 104.5 254.35 104.5C254.15 104.5 254 103.75 254 102.85V102.85Z" fill="#D5B460"/>
<path d="M176.75 255.35C177.3 255 178.3 254.4 179 253.95C179.7 253.5 181.5 252.45 183 251.65C184.5 250.8 189.35 248.05 193.75 245.5C198.15 242.95 202.55 240.45 203.5 239.9C204.45 239.35 205.45 238.7 205.75 238.5C206 238.3 207.5 237.45 209 236.65C210.5 235.8 213.75 233.95 216.25 232.5C220.8 229.85 222.55 228.8 225.75 227C226.7 226.45 228.3 225.55 229.25 225C230.2 224.45 231.8 223.55 232.75 223C235.85 221.2 237.65 220.15 242.25 217.5C244.7 216.05 247.4 214.5 248.25 214C249.05 213.55 250.95 212.45 252.4 211.55C253.85 210.7 255.15 210 255.3 210C255.45 210 256.55 209.35 257.75 208.5C258.95 207.7 260.05 207 260.15 207C260.3 207 261.9 206.1 263.7 205C265.5 203.9 267.2 203 267.5 203C267.85 203 268 189.1 268 160.75C268 137.5 267.8 118.5 267.6 118.5C267.4 118.5 267 118.7 266.7 118.95C266.3 119.3 253.2 126.9 220.5 145.75C217.05 147.75 209.65 152 204 155.25C177.25 170.7 176.15 171.25 175.25 170.5C174.95 170.25 173.8 169.7 172.7 169.3C170.65 168.6 166.1 166 126 142.85C85.55 119.5 74.7 113.25 50.85 99.55C38.3 92.3 28 86.2 28 85.95C28 85.1 29.45 85.5 32.35 87.2C33.95 88.1 36.25 89.45 37.5 90.1C38.75 90.8 41.75 92.55 44.2 93.95C46.65 95.35 48.75 96.45 48.85 96.35C48.95 96.2 43.25 92.8 36.15 88.7C29.05 84.65 21.85 80.45 20.1 79.4C18.4 78.35 16.6 77.5 16.1 77.5C15.4 77.5 15.35 77.6 16 78C16.6 78.4 16.6 78.5 15.85 78.8C15.05 79.1 15 81.8 15 120.95V162.85L16.1 163.85C17.9 165.45 26 170.05 26.55 169.75C26.8 169.55 27 156.55 27 136.75V104.1L28.55 103.55C31.7 102.45 32.8 102.85 43.15 108.8C58.05 117.4 64.75 121.4 66.1 122.45L67.25 123.4L67.4 148.1C67.5 161.65 67.35 176.8 67.1 181.75C66.8 186.7 66.7 191.45 66.85 192.25C67.1 193.85 67.05 193.8 73.75 197.5C75.4 198.4 77.35 199.55 78.1 200.1C78.8 200.6 79.5 201 79.65 201C79.8 201 81.4 201.9 83.2 203C85 204.1 86.6 205 86.8 205C86.95 205 88.05 205.7 89.25 206.5C90.45 207.35 91.55 208 91.7 208C91.9 208 93.5 208.9 95.3 210C97.1 211.1 98.7 212 98.85 212C99 212 99.7 212.4 100.4 212.9C101.15 213.45 103 214.55 104.5 215.35C106 216.2 109.25 218.05 111.75 219.5C114.2 220.95 117.5 222.8 119 223.65C120.5 224.45 121.95 225.3 122.25 225.55C122.5 225.75 125.55 227.55 129 229.5C132.45 231.5 136 233.55 136.85 234.05C139.35 235.5 141.8 236.9 143.85 238.05C144.9 238.65 145.95 239.3 146.25 239.5C146.5 239.7 148 240.55 149.5 241.35C151 242.2 154.4 244.1 157 245.6C159.6 247.1 162.75 248.9 164 249.6C165.25 250.3 167.15 251.4 168.25 252C170.65 253.4 175.55 256 175.7 255.95C175.7 255.95 176.2 255.65 176.75 255.35ZM161.85 234.7C160.4 233.95 154.85 230.85 149.5 227.75C137.05 220.55 124.75 213.45 102.5 200.6C92.75 195 84.35 190.05 83.85 189.6C83.05 188.85 83 187.1 83 162.05C83.05 137.5 83.1 135.25 83.9 134.7C85.3 133.6 86.4 133.9 90.9 136.6C94.4 138.65 105.35 145 115.75 151C116.55 151.45 120.85 153.95 125.25 156.5C129.65 159.05 134.5 161.8 136 162.65C137.5 163.45 138.95 164.3 139.25 164.5C139.7 164.85 156.25 174.45 161.5 177.4C162.75 178.1 164.5 179.15 165.4 179.7L167 180.75V208C167.05 223 167.05 235.4 167 235.65C167 236.4 164.35 235.95 161.85 234.7V234.7ZM24.25 83.95C23.6 82.95 24.55 82.8 26.25 83.7C27.25 84.25 27.8 84.9 27.65 85.3C27.45 85.85 27.15 85.85 26 85.25C25.2 84.85 24.4 84.25 24.25 83.95ZM21 82C21 81.45 21.55 81.35 22.7 81.8C23.1 81.95 23.3 82.4 23.15 82.8C22.95 83.3 22.65 83.35 21.95 82.95C21.45 82.7 21 82.25 21 82ZM18.25 80.45C17.7 79.6 18.4 79.3 19.75 79.9C20.55 80.25 20.9 80.75 20.7 81.25C20.45 81.8 20.15 81.85 19.5 81.5C18.95 81.2 18.4 80.75 18.25 80.45Z" fill="#6B9BD8"/>
<path d="M161.65 205.95C161.55 194.15 161.4 184.25 161.25 184C161 183.6 157.2 181.5 156.75 181.5C156.6 181.5 156.5 182.05 156.5 182.75C156.5 183.6 156.95 184.2 158 184.75L159.5 185.55V204.05V222.6L158.35 221.9C157.75 221.5 152.2 218.3 146 214.8C139.8 211.25 133.3 207.5 131.5 206.45C129.7 205.4 127.8 204.4 127.25 204.2C126.7 204 125.9 203.55 125.5 203.2C124.7 202.5 119.45 199.55 114 196.6C112.2 195.65 110.4 194.6 110 194.25C109.6 193.95 108.55 193.3 107.75 192.9C106.9 192.5 105.45 191.7 104.5 191.15C103.55 190.6 100.7 189 98.25 187.6C90.7 183.25 91.5 185.7 91.5 166.8C91.5 150.8 91.5 150.5 90.5 150.5C89.5 150.5 89.5 150.75 89.6 168.1L89.75 185.7L93.5 187.95C95.55 189.15 99.5 191.45 102.25 193C105 194.55 110.85 197.9 115.25 200.5C119.65 203.05 123.9 205.55 124.75 206C125.55 206.5 129.3 208.6 133 210.75C136.7 212.9 142.35 216.15 145.5 218C148.65 219.85 152.25 221.95 153.5 222.65C159.15 225.8 160.5 226.6 160.75 227.05C160.95 227.3 161.2 227.5 161.4 227.5C161.6 227.5 161.7 217.8 161.65 205.95V205.95Z" fill="#6B9BD8"/>
<path d="M148 176.6C148 176.2 145.4 174.5 144.8 174.5C144.65 174.5 144.5 175.05 144.5 175.75C144.5 176.85 144.7 177 146.25 177C147.2 177 148 176.8 148 176.6Z" fill="#6B9BD8"/>
<path d="M91.5 144.35C91.5 144 91.05 143.45 90.5 143.1C89.6 142.55 89.5 142.6 89.5 143.75C89.5 144.65 89.75 145 90.5 145C91.05 145 91.5 144.7 91.5 144.35Z" fill="#6B9BD8"/>
<path d="M59.25 102.15C58.95 101.85 57.4 100.9 55.75 100.05C54.1 99.15 53.2 98.8 53.75 99.25C54.85 100.2 60.05 102.9 59.25 102.15V102.15Z" fill="#6B9BD8"/>
<path d="M52.5 98.3C52.5 98.15 51.8 97.7 51 97.25C50.15 96.8 49.5 96.6 49.5 96.7C49.5 96.85 50.15 97.3 51 97.75C51.8 98.2 52.5 98.4 52.5 98.3Z" fill="#6B9BD8"/>
<path d="M174.65 167.65C174.85 167.5 175 166.05 175 164.5C175 161.9 174.9 161.6 173.6 161.05C172.85 160.7 169.9 159 167 157.3C161.3 153.9 158.25 152.15 154.1 149.95C152.6 149.15 150.8 148.1 150.1 147.6C149.35 147.1 145.75 145 142.1 142.95C138.45 140.9 135.05 139.05 134.6 138.75C134.1 138.5 131.5 136.95 128.75 135.35C126 133.75 123.4 132.25 123 132C120.9 130.7 115.35 127.5 115.2 127.5C115.05 127.5 112.65 126.1 105 121.6C100.3 118.85 90.4499 113.15 88.0499 111.85C86.5999 111.05 83.6 109.3 81.4 107.95C79.2 106.6 77.35 105.5 77.2 105.5C77.1 105.5 76.15 104.95 75.1 104.35C74.1 103.7 71.65 102.3 69.75 101.25C67.8 100.25 65.45 98.85 64.5 98.25C62.8 97.15 55.15 92.7 50.5 90.1C49.25 89.45 47.9 88.6 47.5 88.3C47.1 87.95 46.2 87.45 45.5 87.15C44.8 86.85 41.9 85.2 39 83.5C36.1 81.75 32.3 79.55 30.5 78.6C28.7 77.65 26.9 76.55 26.45 76.2C26.05 75.8 25.5 75.5 25.35 75.5C25.15 75.5 23.45 74.55 21.6 73.45C19.75 72.3 17 70.7 15.5 69.85C14 69.05 12.2 68 11.5 67.55C10.8 67.1 9.64998 66.4 8.84998 66C8.09998 65.65 7.49997 65.15 7.49997 64.9C7.49997 64.2 7.09997 64 17.25 69.9C17.8 70.2 20.4 71.7 23 73.15C25.6 74.65 31.1 77.85 35.25 80.25C42.95 84.75 44.65 85.75 47.85 87.55C52.9 90.4 57.75 93.2 63 96.25C66.15 98.1 69.75 100.2 71 100.85C72.25 101.55 75.85 103.65 79 105.5C82.15 107.35 87.9 110.7 91.75 112.9C95.6 115.1 102.1 118.85 106.25 121.25C110.35 123.65 114.65 126.1 115.75 126.7C116.85 127.3 120.8 129.6 124.5 131.75C128.2 133.9 133.15 136.8 135.5 138.15C137.85 139.5 141 141.3 142.5 142.1C144 142.95 145.45 143.8 145.75 144C146.15 144.3 151.25 147.3 164 154.65C168.3 157.15 174.7 160.5 175.1 160.5C177.25 160.5 172.3 157.4 150 144.6C143.55 140.9 134.65 135.8 130.25 133.25C125.85 130.7 109.3 121.1 93.5 112C77.7 102.85 61.95 93.75 58.5 91.75C46.65 84.9 23.2 71.35 13.8 65.95C7.64996 62.4 4.14998 60.65 3.84998 60.95C3.54998 61.25 3.29996 63.4 3.29996 65.8L3.24997 70.2L5.24997 71.55C6.34997 72.35 8.49997 73.6 9.99997 74.35C13.65 76.15 16.35 78.15 16.15 78.85C16.05 79.15 16.4 79.65 16.95 79.95C17.65 80.35 17.95 80.35 18.1 79.9C18.3 79.4 18.6 79.4 19.65 79.85C20.6 80.3 20.9 80.7 20.65 81.3C20.45 81.9 20.5 82.05 20.9 81.8C21.7 81.3 23.6 81.95 23.25 82.55C23.05 82.8 23.1 83.25 23.3 83.55C23.5 83.95 23.75 83.9 24.05 83.45C24.4 82.85 24.75 82.9 26.2 83.7C27.2 84.25 27.8 84.9 27.65 85.25C27.5 85.7 27.75 85.85 28.35 85.7C28.9 85.55 30.6 86.15 32.3 87.15C33.9 88.1 36.25 89.45 37.5 90.1C38.75 90.8 41.75 92.5 44.15 93.95C46.6 95.35 48.6999 96.5 48.7999 96.5C48.8999 96.5 50.65 97.5 52.65 98.65C55.65 100.5 63 104.6 74.5 110.9C75.75 111.6 83.7 116.15 92.25 121C108.15 130.1 130.15 142.6 146.5 151.9C151.6 154.75 157.45 158.05 159.5 159.25C161.55 160.4 165.4 162.55 168 164.05C170.6 165.5 173.1 167 173.55 167.35C174 167.7 174.5 167.85 174.65 167.65V167.65Z" fill="#C6A652"/>
<path d="M251.1 108.3C257.8 105.55 260 103.4 260 99.6C260 97.1 264.9 100.15 207 66.75C183.75 53.35 161.95 40.75 158.5 38.75C115.5 13.9 114.2 13.15 111.9 12.85C109.25 12.5 109 12.75 109 16.4C109 19.5 109.45 21 110.35 21C110.7 21 118.75 25.45 128.15 30.95C137.55 36.4 151.45 44.4 159 48.75C166.55 53.1 178.25 59.85 185 63.75C201.2 73.1 221.05 84.55 238.25 94.45C245.95 98.9 252.3 102.7 252.4 102.9C252.45 103.15 251.15 103.95 249.5 104.75C247.85 105.55 246.1 106.6 245.6 107.15C244.8 108.05 244.8 108.15 245.75 108.8C247 109.75 247.75 109.7 251.1 108.3V108.3Z" fill="#C6A652"/>
<path d="M161 204.6V184.2L158.85 182.8C157 181.55 123 161.8 99.3 148.15C94.4 145.35 90.2 143.15 90 143.25C89.8 143.35 89.75 152.75 89.9 164.1C90.2 187.9 89.35 184.85 96.75 189.1C99.2 190.5 102.05 192.1 103 192.65C103.95 193.2 105.4 194 106.25 194.4C107.05 194.8 108.1 195.45 108.5 195.75C108.9 196.1 110.7 197.15 112.5 198.1C118.35 201.25 123.2 204.05 124.05 204.75C124.45 205.15 125.05 205.5 125.3 205.5C125.6 205.5 127.25 206.35 129.05 207.4C138.45 213 159.85 225 160.4 225C160.85 225 161 220.25 161 204.6V204.6Z" fill="#706D66"/>
<path d="M59.5 158.05V127.15L49.6 121.55C44.2 118.5 38.8 115.45 37.6 114.75L35.5 113.45V123.35C35.5 128.8 35.35 142.35 35.15 153.5C34.9 170.35 34.75 173.8 34.15 174.15C33.55 174.5 33.65 174.7 34.6 175.2C35.2 175.55 36.8 176.45 38.1 177.15C39.45 177.9 41.45 179.05 42.6 179.7C45.6 181.35 47.85 182.6 50.9 184.45C52.35 185.3 53.65 186 53.75 186C53.85 186 55.05 186.7 56.35 187.5C57.65 188.35 58.9 189 59.1 189C59.3 189 59.5 175.1 59.5 158.05V158.05ZM38.6 155.5L37 154.5V149.55C37 145.3 37.15 144.45 38.05 143.3C38.7 142.45 39.5 142 40.15 142.1C41.65 142.3 41.75 143.4 40.35 143.95C39 144.45 38.5 146.3 38.5 150.8C38.5 153 38.7 153.5 39.75 154.2C40.45 154.65 41 155.35 41 155.75C41 156.75 40.55 156.7 38.6 155.5V155.5Z" fill="#2335BA"/>
</svg>
