<svg width="1656" height="1081" viewBox="0 0 1656 1081" fill="none" xmlns="http://www.w3.org/2000/svg">
<path d="M1560.6 643.2C1553.3 639.4 1552.1 632.4 1557.5 624.6C1559.6 621.8 1561.7 619.1 1562.2 618.6C1567.4 614 1590.8 572.6 1597.6 555.6C1609 527.7 1614.4 507.5 1617.8 479.9C1620.1 462.3 1618.5 408.6 1615.2 391C1611.6 371.9 1606.9 353.5 1603.9 347.6C1602.4 344.7 1601.3 341.6 1601.3 340.6C1601.3 339.6 1599 334.4 1596.4 329C1593.8 323.6 1591.5 318.4 1591.5 317.3C1591.5 316.3 1591 315.2 1590.4 314.9C1589.6 314.7 1587.1 310.3 1584.7 305.4C1580.8 297.1 1561.5 266.4 1559.1 264.6C1558.4 264.1 1556.7 261.7 1555 258.9C1553.2 256.3 1550.9 252.9 1549.8 251.6C1548.5 250.3 1545.9 247.2 1543.9 244.7C1541.8 242.4 1536.9 236.5 1532.8 231.8C1519.1 215.6 1489.9 187.3 1470 170.8C1464.6 166.2 1459.7 162 1459.2 161.3C1458.7 160.6 1455 157.7 1450.7 154.8C1446.6 151.9 1440.1 147.5 1436.2 144.7C1432.3 142.1 1427.4 138.2 1425.1 136.2C1422.8 134.1 1420.2 132.4 1419.1 132.4C1418 132.4 1417 131.9 1417 131.1C1417 130.4 1414.2 128.5 1411 126.7C1407.7 124.9 1404.3 122.8 1403.3 121.8C1401 119.7 1391.4 114.3 1377 106.8C1370.8 103.7 1365.4 100.4 1365.1 99.6C1364.8 98.8 1363.8 98.1 1363 98.1C1361.2 98.1 1348.2 92.6 1342 89.3C1339.7 88 1329.9 83.9 1320 80.3C1310.2 76.5 1300.6 72.8 1298.8 72.1C1292.9 69.5 1285.9 67.2 1280 66.1C1276.9 65.6 1273.3 64.5 1271.8 63.8C1267.7 61.7 1243.7 54.3 1236.7 53.2C1233.1 52.5 1229.5 51.4 1228.5 50.8C1227.7 50 1223.3 49 1218.7 48.4C1214.3 47.7 1208.1 46.6 1205.3 45.6C1200.4 44.1 1194.7 43.2 1170.5 39.2C1126.1 32.2 1055.5 28.9 1026.9 32.8C1020.2 33.6 1007.6 35.1 999.2 35.9C984.8 37.4 970 40.1 941.3 47C935.1 48.5 929.2 50.1 928.2 50.8C927.4 51.5 924.4 52.4 921.7 53.1C919.1 53.8 913.9 55.5 910.3 57.3C893.5 65.3 868.5 75.4 860 77.5C841.1 82.4 812.5 93.2 796.9 101.2C742.9 129.3 713.7 150.1 677.6 186.7C662.8 201.9 659.7 205.8 656.6 214.4C654.5 219.9 651.4 227.1 649.4 230.2C647.4 233.3 643.4 241.1 640.3 247.3C637.2 253.7 634.1 259 633.4 259.5C632.9 260 630.5 264.1 628.2 268.5C626.1 273.1 621.3 278.9 618.1 281.6C614.7 284.4 611.2 287.3 610.3 288.3C609.3 289.3 606.5 290.4 604.4 291.1C602.1 291.6 595.9 293.5 590.5 295.5C581.7 298.8 573.2 301.4 559.5 305.3C556.9 306.1 546.9 308.6 537.5 310.8C528 313.2 519.2 315.4 517.9 315.7C516.6 316 508.1 319 499.1 322.2C490.1 325.5 480.8 328.1 478.4 328.1C474 328.1 473.8 327.8 473.8 319.9C473.8 309 476.4 304.1 482.6 302.6C485.4 302.1 488.8 300.6 490.1 299.5C491.4 298.5 497.3 295.9 503.2 293.8C509.1 291.7 515.6 288.9 517.9 287.8C520.2 286.7 523.1 285.7 524.4 285.7C525.7 285.7 528.6 284.2 530.9 282.4C533.2 280.6 535.6 279.1 536.4 279.1C540.3 279.1 570.5 263.1 579.8 256.3C590.4 248.5 605.3 233.8 615.4 220.9C618.5 217.1 622.3 212.4 624 210.5C625.6 208.5 627.1 206.4 627.1 205.9C627.1 205.4 628.7 203.1 630.9 200.8C632.9 198.5 637.1 193.5 640.2 189.4C643.3 185.3 646.7 181.1 647.9 180.1C648.9 179 652 174.1 654.8 169.2C660.2 159.9 673.4 146 688.4 134.4C691.8 131.6 706.7 122.7 714.5 118.4C745.7 101.6 773.7 88.1 796.9 78.4C803.6 75.6 811.4 72.2 814.4 70.9C817.2 69.6 820.1 68.6 820.9 68.6C821.7 68.6 825.3 67.3 828.9 65.5C837.9 61.3 884.9 44.5 891.2 43.1C894.1 42.4 896.9 41.3 897.4 40.7C897.9 39.9 899.4 39.2 900.8 39.2C902.1 39.2 905.9 38.1 909.1 36.6C919.7 32 921.5 31.4 933.9 27.6C940.6 25.6 949.4 22.5 953.5 20.7C957.6 19.1 965.2 16.9 970.6 16.1C976 15.3 985.1 13.7 991 12.2C1001 9.80001 1026.4 5.8 1043.2 4C1083.2 -0.0999997 1091 -0.399988 1108 1.20001C1117.6 2.20001 1135.9 3.8 1148.5 5C1173.8 7 1183.7 8.4 1200.7 12C1207.1 13.3 1217.7 15.6 1224.4 16.9C1241.4 20.2 1272.4 28.3 1284 32.6C1289.4 34.6 1296.1 36.7 1298.7 37.3C1301.5 38 1303.6 39.4 1303.6 40.6C1303.6 41.7 1307.2 44.2 1311.8 46C1316.2 47.8 1320.8 49.8 1321.6 50.6C1322.6 51.4 1332.5 54.5 1343.6 57.6C1354.9 60.7 1366.9 64.8 1370.5 66.7C1374.1 68.5 1377.8 70.1 1378.8 70.1C1379.8 70.1 1386.6 73 1394 76.6C1401.3 80.2 1407.7 83.1 1408.2 83.1C1412.3 83.1 1439 97.9 1447 104.6C1462.7 117.7 1479.5 129.6 1488 133.6C1492.4 135.7 1504.8 144.4 1506.8 146.7C1507.3 147.4 1512.8 151.6 1519 156.3C1532.4 166.4 1544.3 176.7 1557 189.1C1562.2 194 1570.9 202.2 1576.6 207C1582.1 211.9 1589 219.7 1591.8 224.1C1594.7 228.7 1597.5 232.6 1598 233.1C1599.5 234.2 1612.8 255.9 1612.8 257.1C1612.8 257.8 1613.8 259.4 1615.1 260.7C1618.2 264.5 1635.7 297.7 1635.7 300C1635.7 302 1638.1 308 1644.8 322C1653 339.3 1657.7 392.3 1653.6 422.3C1647.7 465.7 1644.5 485 1642.2 490C1641.4 491.8 1638.1 500.6 1634.9 509.6C1628.9 525.9 1623.8 538.3 1621 543.4C1620 545 1619.4 547.2 1619.4 548C1619.4 549.8 1615.6 558.8 1609.6 571.7C1608 575.3 1606 580 1605.5 582.3C1603.5 589.5 1599 600.2 1597.8 600.2C1597 600.2 1596.5 601.3 1596.5 602.6C1596.5 603.9 1595.8 605 1595 605C1594.2 605 1593 607 1592.4 609.4C1591.1 614.8 1580.3 631.1 1577.4 632.2C1576.3 632.7 1575.3 633.8 1575.3 635C1575.1 636.6 1568.1 645.8 1566.8 645.8C1566.5 645.8 1563.7 644.5 1560.6 642.7V643.2Z" fill="#815A22"/>
<path d="M1423.5 183.8C1423.5 178.4 1423.8 178.1 1429.2 178.1C1434.6 178.1 1434.9 178.4 1434.9 183.8C1434.9 189.2 1434.6 189.5 1429.2 189.5C1423.8 189.5 1423.5 189.2 1423.5 183.8Z" fill="#815A22"/>
<path d="M475.2 1079.5C474.5 1078.8 461.7 1077.7 446.6 1076.9C431.6 1076.1 414.1 1074.8 407.8 1073.8C389.2 1071.2 370.1 1068.9 345.8 1066.5C333.2 1065.2 320 1063.6 316.4 1062.6C312.8 1061.8 304.8 1060 298.5 1058.5C285.1 1055.6 270.1 1052 261 1049.4C257.4 1048.4 249.7 1046.5 243.9 1045.3C203.8 1036.3 192.5 1032.9 169.2 1022.3C158.8 1017.6 136.4 1003.7 130.4 998.2C125.8 994.3 123.7 992.7 120.4 991C116.3 988.7 106 980.4 91.5 967.3C73.6 951.1 68.2 945.4 62.1 936C60.3 933.2 58.2 930.3 57.2 929.1C53.4 924.9 51.8001 922.6 46.8001 914.3C43.9001 909.6 41.6 905.2 41.6 904.3C41.6 903.5 41.1 902.5 40.5 902.2C38.5 901.4 19.8001 863.9 16.4001 854.4C14.9001 850 12.3 843.3 10.7 839.7C7.8 833.5 5.60004 825.7 2.50004 809.5C0.200045 798.1 0.499996 769 3.2 749.6C4.5 740 5.80009 729 6.30009 725.5C6.60009 721.7 8.60007 715.7 10.4001 712C12.2001 708.1 14.3001 702.9 14.8001 700.3C15.5001 697.5 16.6001 695.1 17.4001 694.6C18.2001 693.9 18.9001 692.5 18.9001 691.2C18.9001 687.9 32.6 657.3 35.2 654.7C35.7 654.2 38.6 648.8 41.7 642.5C44.8 636.3 50.8 625.9 55.1 619.3C59.5 612.8 62.9001 607.2 62.9001 606.7C62.9001 606.2 65.2 602.3 68.1 598.1C73.6 589.9 74 589.6 79.2 583.1C81 581 83.3001 577.2 84.4001 574.6C85.5001 572 87.5 569.9 88.5 569.9C89.6 569.9 90.6 568.9 90.6 567.9C90.6 566.8 93.2 562.8 96.5 559.3C99.6 555.7 104.7 549.8 107.4 546.4C115.6 536.4 140.7 511.3 154.2 500.1C160.9 494.4 168.7 487.7 171.5 485.1C174.4 482.7 178.8 479.4 181.3 478.1C183.9 476.6 187.2 474.2 188.6 472.6C190.1 471 196.6 464.9 203.1 459.1C209.6 453.2 216.2 447.4 217.6 446C222.8 441.1 247.9 422.7 251.5 421C253.6 420 255.3 418.7 255.3 417.9C255.3 417.2 256.3 416.6 257.4 416.6C258.7 416.6 261.6 415 263.9 412.8C266.3 410.8 271.7 407.4 276 405.1C280.2 402.8 284.2 400.7 284.6 400.2C285.4 399.4 313.3 384.7 320 381.4C322.1 380.6 323.8 379.3 323.8 378.6C323.8 377.8 324.6 377.3 325.6 377.3C326.4 377.3 330.7 374.7 334.7 371.6C338.8 368.5 343 365.9 344.2 365.9C345.2 365.9 347.5 364.6 349.3 363.1C353.2 359.5 357 357.2 365.5 352.7C369.1 350.7 372.4 348.8 372.8 348.1C373.6 347.3 392.9 336.8 401.7 332.6C403.8 331.6 405.5 330.3 405.5 329.7C405.5 328.9 406.3 328.4 407.5 328.4C408.5 328.4 413.9 326.3 419.2 323.7C437.8 314.7 459.8 306.7 471.6 304.9C475.2 304.2 480.1 303.4 482.5 302.9L487.1 301.9L483 309.1C478.4 317.1 477.6 323.9 481.4 322.5C483 321.8 483.8 322.5 483.8 324.6C483.8 326.9 481.5 328.5 475.3 330.6C470.6 332.2 462.7 335.3 458 337.5C453.3 339.6 448.7 341.4 447.9 341.4C447.1 341.4 442.5 343.2 437.8 345.3C433.1 347.4 423.6 351.5 416.9 354.4C391.3 365.5 352.5 384.4 336.1 393.7C329.9 397.3 322.7 401 320.3 402C317.7 403.1 315.7 404.6 315.7 405.3C315.7 406 314.7 406.6 313.6 406.6C312.5 406.6 306.3 409.9 299.7 413.9C293.2 418 287.1 421.2 286.3 421.2C285.3 421.2 284.7 421.9 284.7 422.7C284.7 423.5 283.1 424.5 280.9 425.1C278.9 425.6 275.7 427.4 273.7 429.3C271.7 431.1 269.6 432.6 269.1 432.6C268.3 432.6 235.5 454.6 221.6 464.6C217.8 467.2 213.1 470.5 211.2 471.8C209.1 473.1 206 475.7 204 477.5C202.2 479.3 198 482.6 194.9 484.8C191.8 486.9 186.7 491 183.6 493.8C173 503.3 170.5 505.2 165.2 509.3C153.1 518.6 108.4 564.8 95.4001 581.7C94.1001 583.3 91.8 585.9 90.5 587.6C89.2 589.1 85.4 593.8 82.5 598.4C79.4 602.8 76.5 606.7 76 607.2C72.1 610.8 54.1 640.6 45.7 657.8C43.4 662.7 40.6001 668.1 39.8001 669.7C36.9001 675.1 25.6 705.1 23 713.8C19.6 725.9 16 745.8 13.7 764.5C11.1 786.4 13.4001 805.3 23.8001 846.1C25.8001 853.9 41.3 886.2 47.1 894.9C49.4 898.3 51.3001 901.4 51.3001 901.9C51.3001 905.2 77.6 933.9 97.6 952.5C108.9 962.9 140.7 985.8 144.1 985.8C144.9 985.8 146.7 986.8 147.9 987.9C151.3 990.8 161.6 996.5 176.9 1003.9C199.7 1014.8 206.4 1017.8 220.1 1022.5C227.3 1024.9 234.3 1027.6 235.8 1028.4C237.3 1029.2 245.8 1031.7 254.6 1034.1C263.6 1036.4 277.8 1040.1 286.3 1042.4C294.8 1044.7 306 1047.1 311.3 1047.9C316.7 1048.7 321.6 1049.7 322.2 1050.2C323.7 1051.2 351.4 1055.4 370.3 1057.5C376.7 1058.3 388.7 1059.8 397.2 1060.8C418.6 1063.6 544 1063.6 567.7 1061C605.4 1056.8 604.6 1056.8 658.3 1048.8C688.5 1044.4 735.8 1034.3 772.5 1024.5C802.8 1016.3 806.1 1015.4 820.6 1010.6C828.8 1008 837.6 1005.4 840.2 1004.7C845.3 1003.6 849.8 1001.9 889.1 987.4C912.1 978.9 917.8 976.6 930.1 970.9C933.9 969.3 937.3 967.8 937.8 967.8C938.8 967.8 945.3 964.9 979.4 948.9C987.7 945 995.2 941.7 996 941.7C996.7 941.7 997.6 941.2 998 940.6C998.3 939.8 1007 935.1 1017.3 929.7C1027.6 924.5 1037.2 919.3 1038.5 918.1C1039.8 917 1045 914 1049.9 911.4C1054.8 908.8 1063.4 903.6 1069.2 899.8C1074.7 895.9 1079.8 892.8 1080.3 892.8C1080.8 892.8 1085.4 889.9 1090.4 886.4C1095.5 883 1108.5 874.3 1119.3 867.3C1130.1 860.3 1143 851.5 1148.2 847.6C1153.3 843.7 1157.8 840.6 1158.3 840.6C1158.8 840.6 1160.9 839.1 1162.9 837.5C1165 835.7 1171.9 830.2 1178.1 825.1C1184.5 820 1191 814.8 1192.6 813.4C1195.7 811 1228.5 804.9 1240.6 804.8C1243.5 804.8 1247.1 804.1 1248.8 803.3C1250.3 802.3 1256 800.9 1261.4 800C1266.8 799 1276.4 797.2 1282.6 795.6C1289 794.1 1296.5 792.7 1299.4 792.2C1302.3 791.7 1305.1 790.7 1305.6 789.9C1306.1 789.1 1307.7 788.4 1309.2 788.4C1312.3 788.4 1334.3 781.7 1335.6 780.2C1336.1 779.7 1342.6 777.3 1350.3 774.8C1358 772.2 1367.4 768.6 1371.5 766.8C1375.6 765 1384.4 760.9 1391.1 758C1397.8 754.9 1405.6 751.1 1408.2 749.7C1411 748.2 1418.5 744.2 1425.2 740.7C1436.9 734.7 1461.3 720.1 1462.9 718.2C1463.4 717.7 1468.3 714 1474 709.9C1485.3 701.6 1502.6 686.7 1507.6 681.2C1509.4 679.1 1511.7 677.4 1512.8 677.4C1513.8 677.4 1516.4 674.8 1518.5 671.7C1520.6 668.6 1523.2 666 1524.2 666C1526 666 1529.7 661.9 1536.3 652.8C1538.4 649.7 1541.8 645.9 1543.8 644.3C1545.9 642.8 1549 638.9 1551 635.8C1553.6 631.7 1555.7 630.1 1558.7 630.1C1562 630.1 1562.5 630.6 1561 632.4C1559.5 634 1560 635.2 1563.1 637.3C1565.4 638.8 1568 639.9 1569 639.9C1571.3 639.9 1571.1 642.5 1568.5 645.1C1567.4 646.2 1562.8 651.6 1558.4 656.8C1549.9 666.8 1537.4 679.5 1531.6 684C1529.6 685.5 1522 692.3 1514.3 699.3C1506.5 706.3 1497.2 714.3 1493.4 717.1C1489.6 719.9 1484.8 723.8 1482.5 725.9C1476.8 731.3 1450.8 747.1 1446 748.4C1443.7 748.9 1441.8 750 1441.8 751C1441.8 751.8 1441.1 752.1 1440.5 751.7C1439.7 751.2 1437.1 752.4 1434.3 754.1C1431.7 755.7 1428.3 757.2 1426.8 757.2C1425.2 757.2 1423.9 757.9 1423.9 758.7C1423.9 759.5 1421.9 760.7 1419.5 761.1C1416.9 761.8 1409.9 764.7 1403.5 767.8C1397.3 770.7 1387.7 775 1382.3 777.1C1376.9 779.1 1372.2 781.3 1371.7 782C1371.2 782.7 1368.9 783.5 1366.8 783.6C1364.5 783.9 1362.4 784.4 1361.9 784.9C1359.9 786.9 1348.4 791.4 1332.5 796.3C1323 799.2 1312.4 802.5 1308.8 803.6C1290.7 809.5 1282.7 810.9 1263.1 812.6C1254.1 813.3 1242.7 814.9 1237.8 816.4C1218.2 821.9 1212.2 823.1 1205.7 823.1C1201.5 823.1 1199.7 823.8 1200.8 824.6C1201.9 825.4 1201 825.6 1198.4 825.1C1195.8 824.4 1193.8 824.8 1193.8 825.6C1193.8 826.4 1191.4 828.2 1188.4 829.5C1185.5 831 1178.1 836.8 1171.9 842.7C1165.7 848.6 1160.2 853.5 1159.3 853.5C1158.6 853.5 1157 854.5 1155.9 855.6C1154.8 856.7 1150.2 860.2 1145.6 863.3C1141.2 866.4 1136.5 869.8 1135.3 871C1134.2 872.1 1132.2 873.1 1130.9 873.1C1129.8 873.1 1128.5 873.8 1128.1 874.4C1127.9 875.2 1122.9 879.1 1117 883C1111.1 886.9 1106.1 890.5 1105.6 891C1105.1 891.7 1101.4 894.4 1097.1 897.2C1093 900.1 1088.6 903.4 1087.3 904.5C1083.5 908.1 1070.7 917.1 1069.4 917.1C1068.6 917.1 1066.6 918.4 1064.8 920C1063.2 921.5 1058.9 924.2 1055.5 926C1052.1 927.6 1048.2 930.1 1046.9 931.2C1045.4 932.2 1034.2 938.4 1021.6 944.9C1009 951.4 996.5 958.4 993.7 960.6C990.9 962.6 988.2 964.4 987.3 964.4C986.6 964.4 981.3 966.7 975.2 969.5C969.3 972.3 963 975 961.2 975.9C959.4 976.7 953.7 979.2 948.5 981.4C943.3 983.7 938.5 985.6 937.7 985.6C935.6 985.6 914 992.3 911.1 993.9C909.5 994.7 907.3 995.4 906.5 995.4C905.5 995.4 901.3 997 897 998.8C876.9 1007.9 872.4 1009.9 863.2 1013C857.8 1014.8 848.4 1017.7 842 1019.7C791.9 1034.2 791.7 1034.2 765.3 1040.3C751.4 1043.4 741.3 1046 737.6 1047.6C724.1 1053.1 720.3 1053.8 684.6 1058.2C673.3 1059.5 660.9 1061.5 656.9 1062.3C652.8 1063.3 644.5 1064.7 638.1 1065.6C631.9 1066.4 621.1 1067.9 614.4 1068.9C607.7 1069.9 593.4 1071.3 582.6 1072.2C571.8 1073.2 550.1 1074.8 534.5 1076.3C486.9 1080.2 476.6 1080.9 475.4 1079.6L475.2 1079.5Z" fill="#956622"/>
<path d="M1509.5 686C1507.1 683.6 1508.7 674.1 1514.9 656.1C1518.5 645.7 1522.9 633.4 1524.9 629C1529 619.2 1532.2 609.7 1533.7 602.6C1534.7 597.7 1545 570.3 1550 559C1553.8 550.5 1561.1 525.4 1570.1 489.7C1574 474.2 1577 458.4 1577.6 448.9C1578.3 440.4 1579.6 427 1580.5 419.4C1582 408.5 1582 401.5 1580.3 388.4C1578 370.1 1575.4 363.6 1564.8 349.7C1561.2 344.8 1554 335.7 1549.1 329.1C1521.9 293 1470.3 242.6 1420 203C1396.2 184.2 1361.1 160.4 1348 154.4C1343.8 152.4 1336.1 148 1330.9 144.8C1310.2 131.4 1292.9 122.3 1274.9 115.4C1264.6 111.5 1249.9 105.9 1242.3 103C1222.9 95.7001 1196.6 86.7001 1194.2 86.7001C1192.9 86.7001 1191.8 85.9001 1191.4 84.9001C1191.1 83.9001 1188 82.6001 1184.5 82.0001C1178.5 81.0001 1178.3 80.9001 1173.7 67.2001C1171.1 59.5001 1169 50.2001 1168.8 46.5001C1168.8 42.6001 1168.1 39.5001 1167.2 39.5001C1166.4 39.5001 1165.6 38.2001 1165.6 36.4001C1165.6 34.0001 1166.6 33.5001 1171.8 34.0001C1178.3 34.7001 1189.4 36.6001 1206.4 40.4001C1212.3 41.5001 1220.3 43.2001 1224.3 43.8001C1228.4 44.3001 1232.5 45.4001 1233.3 46.1001C1234.3 46.8001 1237.9 47.9001 1241.5 48.5001C1248.5 49.6001 1272.5 57.0001 1276.6 59.1001C1278.1 59.8001 1281.7 60.9001 1284.8 61.4001C1290.7 62.5001 1297.7 64.8001 1303.6 67.4001C1305.4 68.1001 1315 71.8001 1324.8 75.6001C1334.8 79.2001 1344.5 83.3001 1346.8 84.6001C1353 87.9001 1366.1 93.4001 1367.8 93.4001C1368.6 93.4001 1369.6 94.1001 1369.9 94.9001C1370.2 95.7001 1375.6 99.0001 1381.8 102.1C1396.2 109.6 1405.8 115 1408.1 117.1C1409.1 118.1 1412.5 120.2 1415.8 122C1419.1 123.8 1421.8 125.8 1421.8 126.4C1421.8 127.2 1422.8 127.7 1423.9 127.7C1425 127.7 1427.7 129.3 1429.9 131.5C1432.2 133.5 1437.1 137.4 1441 140C1444.9 142.8 1451.4 147.2 1455.5 150.1C1459.7 153 1463.5 156 1464 156.6C1464.5 157.3 1469.4 161.5 1474.8 166.1C1494.7 182.6 1523.9 211 1537.6 227.1C1541.7 231.8 1546.6 237.7 1548.7 240C1550.7 242.4 1553.3 245.5 1554.6 246.9C1555.7 248.2 1558 251.6 1559.8 254.2C1561.4 257 1563.2 259.4 1563.9 259.9C1566.3 261.7 1585.6 292.4 1589.5 300.7C1591.9 305.6 1594.4 310 1595.2 310.2C1595.9 310.5 1596.3 311.7 1596.3 312.6C1596.3 313.7 1598.6 319 1601.2 324.3C1603.8 329.7 1606.1 334.9 1606.1 335.9C1606.1 336.9 1607.2 340 1608.7 342.9C1614.2 354 1621.4 389.2 1623.4 414.9C1627.6 472 1621.6 513.4 1602.4 560.8C1595.4 578.1 1571.7 619.9 1566.8 623.8C1566.3 624.3 1562.4 629.8 1558.3 636.2C1554.2 642.7 1549.5 648.9 1547.9 650.1C1546.1 651.4 1543 654.8 1540.7 657.9C1534.3 667 1530.6 671.1 1528.8 671.1C1527.8 671.1 1525.2 673.7 1523.1 676.8C1521 679.9 1518.5 682.5 1517.6 682.5C1516.6 682.5 1514.7 683.6 1513.2 684.9C1511.7 686.2 1509.9 686.9 1509.4 686.2L1509.5 686Z" fill="#4B79A1"/>
<path d="M625.7 259.8C625.7 259 626.8 257.2 628.1 255.7C629.4 254.4 630.5 252.6 630.5 251.6C630.5 250.6 631.3 249.8 632.1 249.8C633.1 249.8 633.7 252.4 633.7 255.5C633.7 260.6 633.2 261.2 629.6 261.2C627.3 261.2 625.5 260.5 625.5 259.7L625.7 259.8Z" fill="#4B79A1"/>
<path d="M655.4 228.2C651.6 224.4 648.5 220.5 648.5 219.9C648.5 219.1 650 214.2 651.9 209C654.8 201.2 658.3 196.6 672.8 181.9C708.9 145.4 738.1 124.5 792.1 96.4002C807.8 88.4002 836.3 77.6002 855.2 72.7002C860.4 71.4002 872 67.2002 881 63.2002C907.1 51.6002 904.5 50.0002 904.5 77.1002V100.3L899 105.5C893.6 110.7 862.5 130.3 843.5 140.6C833.1 146.1 821.1 154 780.7 181.6C754.4 199.4 736.5 210 711 222.9C690.8 233 683.8 235.3 672.2 235.3C662.7 235.3 662.1 235 655.4 228.3V228.2Z" fill="#4B79A1"/>
<path d="M955.2 40.4002C955.2 38.3002 959.8 36.2002 964.7 36.2002C965.7 36.2002 966.7 37.7002 966.7 39.5002C966.7 42.1002 965.6 42.8002 961 42.8002C957.2 42.8002 955.3 42.0002 955.3 40.5002L955.2 40.4002Z" fill="#4B79A1"/>
<path d="M976.5 35.5001C976.5 33.4001 981.1 31.3 986 31.3C987 31.3 988 32.8 988 34.6C988 37.2 986.9 37.9001 982.3 37.9001C978.5 37.9001 976.6 37.1 976.6 35.6L976.5 35.5001Z" fill="#4B79A1"/>
<path d="M1506.7 679C1506.7 675.4 1507.8 669.7 1509.3 666.3C1510.6 663 1513.5 655 1515.7 648.5C1517.8 642.1 1521.4 633 1523.5 628.1C1525.6 623.4 1528.7 614.7 1530.2 608.8C1533.6 595.9 1534 594.9 1543.1 571.3C1547.2 561 1551.3 549.9 1552.2 546.8C1556.4 533.3 1562 514.7 1563 510.9C1563.5 508.6 1564.6 504.2 1565.4 501.1C1570.9 480.4 1575.2 459 1576 446.4C1576.5 438.4 1577.8 426.3 1578.8 419.8C1580.1 410.5 1580.1 403.5 1578.5 389.1C1576.5 372.6 1575.6 369.2 1570.5 360.4C1567.2 355 1562 347.5 1558.8 343.8C1555.7 340.2 1550.5 333.5 1547.4 329C1544.3 324.6 1537.8 316.6 1532.9 311.4C1528 306.2 1523.3 300.6 1522.5 299.2C1520.2 295 1476.7 252.4 1457.9 236.1C1443.4 223.7 1418.7 204 1393.5 184.7C1382.4 176.4 1359.7 162.2 1348.6 156.6C1342.7 153.8 1334.7 149.1 1330.7 146.3C1317 136.7 1290.7 123.1 1273.6 116.4C1238.2 102.9 1228.2 99.3001 1211.6 93.4001C1202.1 90.3001 1194.3 87.0001 1194 86.4001C1193.7 85.7001 1190.7 84.8 1187.5 84.1C1184.2 83.4 1181.1 82.5001 1180.6 81.7001C1179.3 79.7001 1151.9 76.2001 1138.2 76.2001C1124.2 76.4001 1078.3 79.6001 1059.1 81.9001C1051.9 82.9001 1035.8 84.3 1023.2 85.3C1010.6 86.3 993.3 87.7001 984.9 88.4001C969.4 89.5001 958.6 91.3001 940 95.7001C934.6 96.8001 925 98.5001 918.5 99.0001C907.9 100 906.3 100.6 900.4 106.2C894.4 111.9 863.7 131.5 843.3 142.6C832.7 148.3 822.9 154.8 783.1 181.8C738.1 212.5 691.7 236.9 678.7 236.9C676.1 236.9 674.3 238.2 673.3 241C672.5 243.3 671 245.1 670 245.1C669.2 245.1 668.4 246.1 668.4 247.4C668.4 248.7 667.4 250.8 666.3 252C665 253.1 663.4 256.4 662.4 259C661.6 261.8 659.3 264.5 657.3 265.5C655.3 266.3 653.7 267.8 653.7 268.4C653.7 270.7 645.4 276.7 639 279C628.2 282.9 606.5 277.9 617 273.8C618.3 273.3 620.4 270.9 621.4 268.4C622.5 266 624.7 261.9 626.3 259.6C628.6 256 636.4 241.7 648.5 218.5L650.8 213.8L659.3 222.1C668.6 231.4 672.2 232.2 684.4 228C703.5 221.3 742.8 199.3 776.1 176.8C816.6 149.2 828.5 141.4 838.9 135.8C858.2 125.4 889 105.9 894.7 100.6C900.4 95.1 900.6 94.9 899.6 85.3C898.9 79.9 898.9 71.1001 899.6 65.7001C900.4 56.9001 901.1 55.6 905.8 52.8C908.7 51.2 913.6 49.2 916.6 48.6C919.7 47.9 923 46.8001 923.8 46.2001C924.8 45.5001 932.8 43.4001 941.7 41.5001C950.7 39.5001 961 37.3001 964.5 36.4001C979.2 33.1001 987.8 31.7001 997.1 30.7001C1013.9 29.1001 1021.4 28.3001 1026.5 27.4001C1029.3 26.9001 1048.7 26.6001 1069.7 26.7001C1104.5 26.7001 1145.9 29.6001 1171.3 34.0001C1177.2 35.0001 1179 36.8001 1175.7 38.7001C1172.9 40.3001 1173.9 47.8001 1179 62.4001C1183.6 75.9001 1183.7 76.3001 1189.6 77.2001C1192.9 77.7001 1196.3 79.2001 1197.1 80.5001C1197.9 81.8001 1198.6 82.3 1198.6 81.8C1198.6 80.8 1224.4 89.5 1247.5 98.3C1255.2 101.2 1269.9 106.8 1280.1 110.7C1298 117.6 1315.3 126.7 1336.1 140.1C1341.3 143.4 1349 147.8 1353.2 149.7C1360.9 153.3 1379.3 165 1399.9 179.4C1429.9 200.4 1471.2 235.7 1504.3 268.8C1530.4 294.9 1539.7 305.2 1554.2 324.4C1559.1 330.9 1566.3 340.1 1569.9 345C1573.7 349.7 1578.1 356.6 1580 360.2C1584.4 369 1587.5 395.3 1586.2 412.9C1583.3 454.8 1580.3 475.6 1574.8 497.3C1565.7 532.4 1558.6 556.4 1555.1 564.2C1550 575.5 1539.8 602.9 1538.8 607.8C1537.3 615 1534.1 624.4 1529.8 634.4C1524.1 647.5 1514.6 676.5 1514.5 680.9C1514.3 683.8 1513.4 685.1 1510.7 685.5C1507.3 686 1506.9 685.3 1506.9 679.3L1506.7 679Z" fill="#4182BA"/>
<path d="M409.5 1067.1C396.9 1066.3 383.1 1065.1 378.5 1064.2C374.1 1063.2 366.3 1062.1 361.4 1061.8C348.5 1060.5 319 1056.1 317.3 1055.1C316.6 1054.6 311.8 1053.6 306.4 1052.8C301.2 1052 289.9 1049.5 281.4 1047.3C272.9 1045 258.7 1041.3 249.7 1039C240.9 1036.6 232.4 1034.1 230.9 1033.3C229.4 1032.5 222.4 1029.9 215.2 1027.4C201.5 1022.7 194.8 1019.7 172 1008.8C156.7 1001.5 146.4 995.7 143 992.8C141.9 991.7 140.1 990.7 139.2 990.7C135.8 990.7 104 967.9 92.7 957.4C72.6 938.8 46.4 910.1 46.4 906.8C46.4 906.3 44.3999 903.2 42.1999 899.8C36.2999 891.2 20.8 858.8 18.9 851C10.6 818.4 9.8 813.5 8 789.8C6.5 770.5 11.1 733.7 18.1 708.9C20.7 700.3 32 670.2 34.9 664.8C35.7 663.2 38.5 657.8 40.8 652.9C49.3 635.8 67.2 605.9 71.1 602.3C71.6 601.8 74.5 597.9 77.6 593.5C80.5 588.9 84.3 584.2 85.6 582.7C86.9 581.1 89.2 578.5 90.5 576.8C103.6 559.8 148.3 513.7 160.3 504.4C165.7 500.3 168.1 498.4 178.7 488.9C181.8 486.1 186.9 482 190 479.9C193.1 477.6 197.3 474.4 199.1 472.6C201.1 470.8 204.2 468.2 206.3 466.9C208.3 465.6 213 462.3 216.7 459.7C230.6 449.7 263.4 427.7 264.2 427.7C264.7 427.7 266.8 426.2 268.8 424.4C270.8 422.4 274 420.6 276 420.2C278.1 419.5 279.8 418.6 279.8 417.8C279.8 417 280.6 416.3 281.4 416.3C282.4 416.3 287.8 413.4 293.5 409.8C304.4 402.9 309.2 401.6 309.2 405.7C309.2 407 309.9 408.1 310.5 408.1C311.3 408.1 312.8 409.7 313.8 411.9C314.8 413.9 317.6 418.8 319.8 422.7C322.6 427.9 323.2 430.5 322.1 432C320.8 433.5 321.3 433.8 323.7 433.1C326.3 432.4 327.8 434.1 331.5 441.9C333.9 447.1 336.4 451.7 336.9 452.2C338.4 453.7 346.7 466.7 346.7 467.7C346.7 468.2 348.5 470.5 350.6 472.6C352.7 474.7 357.3 481.1 360.7 486.8C364.1 492.5 367.6 497.4 368.2 497.6C368.9 497.9 369.5 498.9 369.5 499.7C369.5 500.5 372.8 508 376.8 516.2C380.9 524.5 384.1 532.2 384.1 533.3C384.1 534.4 384.9 535.4 385.7 535.4C386.7 535.4 387.3 536.9 387.3 538.7C387.3 540.5 388 542 388.6 542C389.4 542 391.7 545.8 393.8 550.2C395.9 554.8 398.2 558.4 399 558.4C399.7 558.4 400.3 560 400.3 562C400.3 564 401.3 566.7 402.4 568C403.5 569.5 406 575 407.8 580.4C409.4 585.8 411.4 590.5 411.9 591C413.4 592.3 417.6 611.1 420.5 629.3C422.9 644.1 425.6 657.7 429.6 677.4C430.4 681.5 432.2 692.9 433.7 702.7C435.2 712.7 437.1 723.3 437.9 726.4C442 741.1 446.5 827.6 443.1 827.6C442.3 827.6 442 830.4 442.3 833.8C442.6 837.1 441.6 854.5 440.2 872.5C435.8 927.2 435.5 943.3 438.4 975.3C440 991.5 442.6 1011.7 444.6 1020.2C449.2 1042.1 450.5 1050.9 450.6 1060.5L450.8 1068.8L441.5 1068.6C436.3 1068.6 421.8 1067.9 409.2 1067.3L409.5 1067.1Z" fill="#5793C7"/>
<path d="M540.8 1005.9C541 966.9 540.3 940.8 539.2 935.1C538.2 930.2 536.8 906.7 535.9 882.9C535.1 859.1 533.6 828.2 532.5 814.4C531.5 800.5 530.5 778.8 530.5 766.3C530.3 744.4 531 738.4 536.7 703.5C544 658.1 541.8 600.1 530.8 558.3C524.4 533.8 523 529.9 516.6 518.3C513.7 512.9 508.8 503.5 505.7 497.1C500.8 487.5 483.8 461.2 476.3 452.1C475.2 450.5 470.4 444.6 466 439C459.1 430.4 440.5 411.4 438.9 411.4C437.8 411.4 389 362.6 389 361.3C389 359.7 394.9 356.6 411.8 349.4C418.5 346.5 428 342.4 432.7 340.3C437.4 338.2 442 336.4 442.8 336.4C443.6 336.4 448.2 334.6 452.9 332.5C457.6 330.2 470.7 325.5 481.9 321.7C493 317.9 504.7 313.9 508 312.7C511.1 311.6 520.7 308.9 529.2 307C537.7 305 546.5 302.9 548.8 302.1C551.1 301.4 557.3 299.5 562.7 298C568.1 296.4 577.7 293.4 583.9 291.1C590.3 288.8 597.1 286.7 599.2 286.2C602.8 285.4 607.4 282.1 613.6 276.2C616.4 273.3 620.3 272.8 625.8 274.4C629.1 275.2 631 274.9 632.8 273.3C634.1 272 636.1 271 637.4 271.3C639.7 271.8 648.3 265.6 648.3 263.3C648.3 262.6 649.9 261.2 652.1 260.4C654.1 259.4 655.5 257.5 655.5 255.8C655.3 254.3 655.8 253 656.6 253C657.4 253 658.1 251.9 658.1 250.6C658.1 249.3 658.9 248.2 659.9 248.2C660.7 248.2 661 247.5 660.6 246.6C660.1 245.8 660.4 245 661.3 245C662.3 245 663.1 244 663.1 242.7C663.1 241.4 664.2 239.9 665.7 239.4C667.2 238.7 668 237.3 667.3 236C666.6 234.4 667.8 233.2 670.9 232.7C694.1 228 731.1 208.6 777.8 176.7C817.8 149.6 827.4 143.3 838.3 137.4C854.9 128.4 885.5 109.3 892.6 103.6C896.4 100.5 899.9 96.5999 900.4 94.7999C901.5 90.9999 905.6 90.6999 909.9 93.7999C913.3 96.3999 913.5 97.9999 910.4 97.9999C907 97.9999 904.9 106 902.9 125.7C900 154.6 903.9 175.8 916.4 199.1C925.4 215.7 946.9 246.4 949.5 246.4C951.5 246.4 952.6 249.7 951.9 253.4C951.7 254.2 952.2 254.4 952.9 254.1C953.7 253.6 961.9 260.5 971.3 269.4C980.6 278.2 989.1 285.7 990.1 286C992.9 287.1 1022.1 311.8 1034.6 323.9C1059.9 347.7 1071.8 368.1 1079 399.8C1085.9 430 1087.2 459.7 1082.9 482.7C1079.6 500.3 1070.7 526.1 1063.3 539.8C1060.2 545.3 1057.8 551.1 1057.8 552.2C1057.8 553.5 1056.7 555.3 1055.2 556.4C1053.9 557.7 1051.6 560.8 1050.3 563.6C1049 566.4 1044.6 574.5 1040.7 581.7C1021.9 615.3 1010.5 642.9 1007.1 661.6C1006.3 666.2 1005 671.2 1004.2 673C1002.2 677.1 999.8 687.7 995.9 709.7C994.3 719.2 992 729.1 990.8 731.7C987.2 740.2 988.4 848.2 992.6 885.9C996.8 925.1 999.6 938.1 1003.5 938.1C1004.6 938.1 1005.6 938.9 1005.6 939.9C1005.6 941.7 1001.7 946.3 1000.1 946.3C999.8 946.3 992.4 949.6 984.1 953.5C950 969.5 943.5 972.4 942.5 972.4C942 972.4 938.6 973.9 934.8 975.5C922.6 981.2 916.9 983.5 893.8 992C854.2 1006.7 849.9 1008.2 844.9 1009.3C842.3 1009.8 836.4 1011.6 831.8 1013.2L823.6 1016.1L823.3 985.3C823.1 968.3 822.3 947.9 821.3 940.1C820.3 932.3 818.5 888.1 817.1 841.9C814.5 752.7 813.5 736.7 807.1 692.6C800.7 648.7 799.8 642.3 798.3 636.3C797.6 633.2 795.7 624.7 794.2 617.5C790.4 599.1 786.9 583.9 785.4 579.2C784.6 576.9 783.1 572.2 782.3 568.6C781.3 565 778.9 556.5 777.1 549.8C775.1 543.1 772.5 533.5 771.2 528.6C767.6 515.1 760.8 493.8 759 490.7C758.2 489.1 757.5 486.8 757.5 485.5C757.5 484.2 755.2 478 752.6 471.8C749.8 465.4 745.3 452.7 742.2 443.4C733.6 417.3 726 398.7 716.4 379.3C711.5 369.3 705.5 355.8 702.9 349.1C700.5 342.4 697.8 335.4 697 333.6C696.3 331.8 695.2 328.5 694.7 326.3C693.1 320.3 682.6 292.7 677.9 282.2C671 266.7 667.8 257.7 667.8 254C667.6 250.6 667.5 250.7 664.9 255C663.4 257.4 661 259.4 659.4 259.4C657.6 259.4 656.5 261 656.1 264C655.6 267.8 654.8 268.4 649.6 268.9C644.2 269.4 643.4 270 643.4 273.3C643.4 276.7 642.3 277.7 636.2 279.2L629 281L633.1 291.8C639 307.5 653 347.4 655.1 354.1C655.9 357.2 662.9 372.5 670.4 388C684.4 416.6 688 425.4 693.2 443C695.6 451.8 703.2 472 706.7 480.5C712.9 494.7 722 527 727.3 553.1C728.6 559.8 730.4 568.6 731.4 572.7C733 579.9 736 595.1 740.5 620.8C741.8 628 743.6 637.6 744.4 642C745.2 646.6 746.7 668.6 747.7 690.9C748.5 713.4 750 736.4 751 742.3C751.8 748.2 753.4 766.4 754.4 783.1C759 861.9 760.9 889.2 762.2 898.1C766.8 928.8 767.4 932.4 773 956.8C778.4 980.1 785.7 1008.5 788.3 1015.2C791.9 1024.7 791.2 1025.5 775.9 1029.4C729.4 1041.1 691.5 1049 663.2 1053.1C653.9 1054.4 645.9 1055.9 645.3 1056.2C644.6 1056.5 638.3 1057.3 631.1 1058C623.9 1058.7 616.4 1059.8 614.3 1060.6C612.2 1061.4 607.3 1062.1 603.5 1062.1C599.6 1062.1 592.9 1062.8 588.5 1063.6C584.1 1064.4 571.5 1065.7 560.4 1066.4L540.5 1067.5V1005.7L540.8 1005.9Z" fill="#5793C7"/>
<path d="M1108.6 877.2C1108.6 873.6 1109.3 873.1 1114.3 873.1C1121.3 873.1 1121.5 874.7 1115.3 878.5C1109.1 882.1 1108.6 882.1 1108.6 877.2V877.2Z" fill="#5793C7"/>
<path d="M1199 805.1C1199.7 799.2 1200.8 791.4 1201.6 787.6C1204 776.3 1206.5 760.4 1208.1 745.8C1210.4 723.6 1213 712.8 1227.2 665.9C1229.6 658.2 1232.1 650.9 1232.7 649.6C1233.4 648.3 1236.6 637.2 1239.9 625.1C1243.2 613 1246.4 601.6 1247.2 599.8C1247.9 598 1249.3 593.6 1250.5 590C1251.6 586.4 1253.4 581.4 1254.6 578.6C1259 568.2 1266.8 545.6 1266.8 543.4C1266.8 542.3 1269.1 534.9 1271.9 527.2C1280.4 503.4 1283.2 494.7 1284.8 486.7C1285.6 482.5 1287.4 474 1288.9 467.6C1294.8 440.8 1297.9 413.6 1297.9 388.5C1297.9 353.4 1296.1 335.3 1291.4 324.1C1290.6 322.3 1288.8 316.4 1287.2 311C1285.6 305.6 1282.1 296.6 1279.7 291.1C1277.3 285.4 1275.1 279.5 1275.1 278C1275.1 276.4 1274 273.6 1272.7 272C1271.4 270.2 1270.3 267.6 1270.3 266C1270.3 264.5 1269.2 261.1 1267.9 258.7C1266.6 256.1 1265.5 252.7 1265.5 251.2C1265.5 248.8 1261.4 238.6 1255.2 225.4C1254.2 223.1 1249.5 214.8 1244.8 207C1240.1 199.2 1236.2 192.2 1236.2 191.3C1236.2 190.6 1229.2 178.4 1220.5 164.1C1211.9 149.9 1201.6 131.1 1197.7 122.7C1193.6 114.2 1189.7 105.9 1188.9 104.4C1187.9 102.8 1187.3 100.5 1187.3 99.2998C1187.3 98.1998 1185.8 94.0998 1184 90.2998C1180.6 83.2998 1179.6 75.2998 1182.2 75.2998C1183.2 75.2998 1184.3 76.0998 1184.8 76.8998C1185.3 77.8998 1187.2 78.4998 1189 78.4998C1190.8 78.4998 1193.9 79.2998 1195.9 80.4998C1197.9 81.5998 1200.3 82.5998 1201.1 82.8998C1205.3 83.8998 1240.6 96.8998 1278.6 111.5C1295.7 118.2 1322 131.7 1335.7 141.4C1339.8 144.2 1347.8 148.9 1353.6 151.7C1364.7 157.2 1387.4 171.4 1398.5 179.8C1423.8 199.1 1448.4 218.8 1462.9 231.2C1481.7 247.5 1525.2 290.1 1527.5 294.3C1528.3 295.8 1533 301.3 1537.9 306.5C1542.8 311.7 1549.3 319.7 1552.4 324.1C1555.5 328.7 1560.7 335.4 1563.8 338.9C1567.1 342.7 1572.3 350.2 1575.5 355.5C1580.6 364.3 1581.5 367.7 1583.5 384.2C1585 396.9 1585.1 407.2 1584.3 416.5C1583.5 424 1583 434.6 1583 440.3C1583.2 446.5 1582.7 450.4 1581.5 450.4C1580.4 450.4 1580 454 1580.5 460.2C1580.8 465.6 1580.7 470 1580 470C1579.3 470 1577.2 477.2 1575.3 486C1573.3 494.6 1571.1 504.1 1570.2 506.7C1563.7 529.4 1562.5 534.4 1563.2 535.6C1563.7 536.3 1562.9 538.2 1561.4 539.7C1559.9 541.2 1559.1 543.8 1559.6 545.6C1559.9 547.4 1559.3 549.8 1558 551.1C1556.7 552.6 1556 554.9 1556.5 556.6C1557.2 558.2 1556.8 559.7 1556 559.7C1554.7 559.7 1545.1 582.5 1539.4 598.9C1535.8 609 1532.9 621.9 1533.7 623.4C1534.2 624.2 1533.7 625.4 1532.7 625.8C1530.6 627.1 1525.8 638 1521.1 651.9C1519.3 657.3 1516.4 665.6 1514.4 670.3C1511.5 677.5 1511.3 679.3 1513.3 680.4C1515.3 681.5 1515.3 682.2 1513.1 684.8C1511.8 686.4 1509.3 688.9 1507.6 690.3C1505.8 691.9 1501.7 695.5 1498.6 698.3C1495.5 701.2 1487.3 707.8 1480.7 712.8C1474 717.9 1468.1 722.3 1467.6 722.8C1465.8 724.8 1441.3 739.3 1429.9 745.3C1423.2 748.7 1415.7 752.8 1412.9 754.3C1410.3 755.8 1402.5 759.5 1395.8 762.6C1389.1 765.5 1380.3 769.6 1376.2 771.4C1372.1 773.2 1362.7 776.8 1355 779.4C1347.3 781.8 1340.8 784.3 1340.3 784.8C1339 786.3 1317 793 1313.9 793C1312.4 793 1310.8 793.7 1310.3 794.5C1309.8 795.3 1307 796.3 1304.1 796.8C1301.2 797.3 1293.7 798.8 1287.3 800.2C1281.1 801.8 1271.5 803.6 1266.1 804.6C1260.7 805.4 1255 806.9 1253.5 807.9C1251.9 808.7 1248.4 809.4 1245.7 809.4C1242.9 809.4 1233.6 810.5 1224.8 811.8C1216.2 813.1 1206.5 814.6 1203.4 814.9L1197.9 815.7L1199 804.9V805.1Z" fill="#5793C7"/>
<path d="M955.2 89.0999C955.2 87.7999 956.3 86.6999 957.6 86.6999C958.9 86.6999 960 85.9 960 84.9C960 83.9 961.5 83.4 963.3 83.9C964.9 84.4 966.7 83.8999 966.9 83.0999C967.7 80.6999 978 83.3 978 85.9C978 87 974.7 88.7999 970.8 89.7999C960.5 92.1999 955.1 92.0999 955.1 89.0999H955.2Z" fill="#5793C7"/>
<path d="M997.7 84.1999C997.7 82.8999 998.7 81.7999 1000 81.7999C1001.3 81.7999 1002.6 80.9999 1002.9 79.9999C1003.7 77.5999 1012.4 79.9999 1012.4 82.5999C1012.4 85.1999 1008.8 86.6999 1002.4 86.6999C999.3 86.6999 997.7 85.8999 997.7 84.2999V84.1999Z" fill="#5793C7"/>
<path d="M1097.2 76.1C1097.2 74.8 1098.2 73.7 1099.5 73.7C1100.8 73.7 1102.1 72.9 1102.4 71.9C1103.2 69.5 1111.9 71.9 1111.9 74.5C1111.9 77.1 1108.3 78.6 1101.9 78.6C1098.8 78.6 1097.2 77.8 1097.2 76.2V76.1Z" fill="#5793C7"/>
<path d="M1120 74.4999C1120 73.1999 1121 72.0999 1122.3 72.0999C1123.6 72.0999 1124.9 71.2999 1125.2 70.2999C1126 67.8999 1134.7 70.3 1134.7 72.9C1134.7 75.5 1131.1 76.9999 1124.7 76.9999C1121.6 76.9999 1120 76.1999 1120 74.5999V74.4999Z" fill="#5793C7"/>
<path d="M496.4 1069.4C492.5 1068.4 492.6 1064 496.6 1064C498.2 1064 500 1062.9 500.7 1061.6C501.5 1059.2 511.5 1058.2 513.8 1060.3C514.3 1061 518.5 1061.3 522.9 1061C529.3 1060.7 531.2 1061.2 532 1063.3C533.6 1067.2 532 1067.9 520.1 1068.5C513.9 1068.7 506.9 1069.2 504.1 1069.5C501.5 1069.8 497.9 1069.8 496.4 1069.5V1069.4Z" fill="#76ABDB"/>
<path d="M445.2 1066.3C445.7 1064.8 446.2 1063 446.2 1062.2C446.2 1061.4 447.3 1060.7 448.6 1060.7C450.1 1060.7 451 1062.2 451 1064.8C451 1067.9 450.2 1068.9 447.6 1068.9C445.2 1068.9 444.5 1068.2 445.2 1066.3Z" fill="#76ABDB"/>
<path d="M537.6 1062.4C537.6 1058.3 538.3 1057.5 541.7 1057.5C545.1 1057.5 545.8 1058.3 545.8 1062.4C545.8 1066.5 545.1 1067.3 541.7 1067.3C538.3 1067.3 537.6 1066.5 537.6 1062.4Z" fill="#76ABDB"/>
<path d="M446.2 1056.8C446.2 1055.5 445.5 1054.2 444.6 1053.9C442.3 1053.1 444.6 1046.1 447.2 1046.1C448.8 1046.1 449.5 1048.2 449.5 1052.6C449.5 1056.2 448.8 1059.1 447.9 1059.1C447.1 1059.1 446.3 1058.1 446.3 1056.8H446.2Z" fill="#76ABDB"/>
<path d="M441.3 1030.6C441.3 1029.3 440.6 1028.2 439.8 1028.2C439.1 1028.2 438.8 1026.4 439.3 1024.1C439.6 1021.7 439.3 1020 438 1020C436.9 1020 436.5 1018.7 437.2 1016.7C437.7 1014.9 437.5 1013.4 436.7 1013.4C435.9 1013.4 435.6 1011.4 436 1009.2C436.5 1006.6 435.8 1004.3 434.5 1003.5C432.5 1002.2 432.5 1001.9 434.5 1000.6C435.8 999.8 436 999 434.8 998.6C432 997.6 434.6 990.6 437.9 990.6C440.2 990.6 440.8 992.7 441.7 1004.1C442.4 1011.4 443.3 1020.9 443.8 1025.3C444.6 1030.5 444.3 1033 443 1033C442 1033 441.2 1031.9 441.2 1030.6H441.3Z" fill="#76ABDB"/>
<path d="M783.9 1021.3C781.9 1015.6 777 997.6 773.1 981.7C771.8 976.3 770 969 769 965.5C768 962.1 766.6 955.4 765.7 950.8C761.5 927.5 759.2 913.6 757.7 902.8C756.9 896.3 755.9 890.4 755.6 889.7C755.1 889 754.5 877.1 753.8 863.3C752.5 830 748.9 778.8 744.7 728.7C743.9 719.7 743.2 702.9 743.1 691.2C742.9 671.1 741.3 656 735.9 625.9C731.3 600.1 728.4 584.9 726.8 577.8C725.8 573.7 724 564.9 722.7 558.2C717.5 532.1 708.3 499.8 702.1 485.6C698.5 477.1 691 456.9 688.6 448.1C683.4 430.5 679.8 421.7 665.8 393.1C658.3 377.6 651.3 362.3 650.5 359.2C648.4 352.5 634.3 312.5 628.5 297C626.4 291.1 623.9 284.1 623.4 281.5C622.4 276.9 622.6 276.6 630.6 274.8C641.7 272.2 653.1 262.4 660.9 249C664.3 243.1 667.6 238.4 668.1 238.4C668.8 238.4 670.1 241.5 671.2 245.4C674.8 257.1 678.2 266.6 682.8 276.7C687.7 287.6 698.3 315.4 699.9 321.6C700.4 323.9 701.5 327.1 702.2 328.9C703 330.7 705.6 337.7 708.1 344.4C710.7 351.1 716.7 364.6 721.6 374.6C731.2 394 738.7 412.6 747.4 438.7C750.5 448 755.1 460.7 757.8 467.1C760.4 473.3 762.7 479.5 762.7 480.8C762.7 482.1 763.4 484.4 764.2 486C766 489.1 772.8 510.3 776.4 523.9C777.7 528.8 780.3 538.4 782.3 545.1C784.1 551.8 786.5 560.3 787.5 563.9C788.3 567.5 789.8 572.2 790.6 574.5C792.1 579.2 795.7 594.4 799.4 612.8C800.9 620 802.8 628.5 803.5 631.6C805 637.6 805.9 644 812.3 687.9C818.7 732 819.6 747.9 822.3 837.2C823.8 883.4 825.6 927.4 826.4 935.1C827.4 942.8 828.2 963.7 828.5 981.6L828.8 1014.2L819.8 1017.1C810.5 1020.2 788.8 1026.2 786.8 1026.4C786.3 1026.4 785 1024 783.9 1021.2V1021.3Z" fill="#76ABDB"/>
<path d="M537.6 998.4C537.6 992.7 538.1 984.2 538.6 979.6C539.6 971.8 540.1 971 543.8 971C547.4 971 547.7 971.5 546.7 976.1C546.2 978.9 545.7 987.4 545.7 994.9C545.7 1008.4 545.7 1008.6 541.6 1008.6C537.7 1008.6 537.5 1008.3 537.5 998.5L537.6 998.4Z" fill="#76ABDB"/>
<path d="M434.8 981.6C434.8 980.3 434.1 979.2 433.3 979.2C432.5 979.2 432.2 977.7 432.6 975.9C434.1 970.2 438 972 438 978.3C438 981.4 437.3 984 436.4 984C435.6 984 434.8 982.9 434.8 981.6V981.6Z" fill="#76ABDB"/>
<path d="M539.2 959.6C539.2 951 539.5 949.8 542.5 949.8C545.1 949.8 545.8 950.9 545.8 956C545.8 959.3 546.3 963.7 546.8 965.8C547.6 968.9 547.1 969.4 543.5 969.4C539.4 969.4 539.3 969.1 539.3 959.6H539.2Z" fill="#76ABDB"/>
<path d="M433.1 965.3C433.1 964 432.4 962.9 431.6 962.9C430.8 962.9 430.5 961.4 430.9 959.6C432.4 953.9 436.3 955.7 436.3 962C436.3 965.1 435.6 967.7 434.7 967.7C433.9 967.7 433.1 966.6 433.1 965.3V965.3Z" fill="#76ABDB"/>
<path d="M1000.9 945.4C1000.9 944.3 999.9 943.3 998.8 943.3C994.9 943.3 992.8 933.2 987.7 891.1C985.1 869.7 984.4 851 984.1 789.1C983.9 744.6 984.3 730.9 986.1 727.1C987.2 724.5 989.5 714.5 991.2 705.1C995.1 683.1 997.6 672.5 999.5 668.4C1000.3 666.6 1001.6 661.5 1002.4 657C1005.8 638.2 1017.2 610.7 1036 577.1C1039.9 569.9 1044.3 561.8 1045.6 559C1046.9 556.2 1049.2 553.1 1050.5 551.8C1052 550.7 1053.1 548.9 1053.1 547.6C1053.1 546.5 1055.5 540.7 1058.6 535.2C1070.5 513.3 1080.8 475.5 1080.8 453.8C1080.8 444 1077.5 419.4 1074.3 405C1067.1 373.3 1055.2 353 1029.9 329.1C1017.2 317 988.1 292.4 985.4 291.2C984.4 290.9 975.3 282.9 965.3 273.3C952.9 261.6 947.5 255.5 949 254.7C950.3 253.9 949.5 253.1 946.7 252.4C939.2 250.4 910 205.7 903 185.5C897.6 170 895.7 146.7 897.8 123.8C898.8 112.9 900.4 101.4 901.4 98.8001C903.2 93.9001 903.5 93.7 913.8 93.6C919.7 93.4 929 92.3001 934.5 91.0001C955.4 85.8001 962.9 85.0001 1018 80.4001C1029.7 79.4001 1045.9 78 1053.9 77.1C1068.6 75.3 1100.1 72.9 1130.7 71.1C1140.3 70.4 1151.6 70.8001 1157.6 71.8001C1163.3 72.8001 1171.6 74.1 1175.9 74.6C1183.4 75.6 1183.9 76.1 1187.6 84.1C1189.9 88.7 1191.7 93.4001 1191.7 94.5001C1191.7 95.6001 1192.4 97.9 1193.3 99.6C1194.1 101.1 1198 109.4 1202.1 117.9C1206 126.4 1216.3 145.1 1224.9 159.3C1233.5 173.7 1240.6 185.9 1240.6 186.5C1240.6 187.3 1244.5 194.3 1249.2 202.2C1253.9 210 1258.7 218.4 1259.6 220.6C1265.8 233.8 1269.9 243.9 1269.9 246.4C1269.9 247.9 1271 251.3 1272.3 253.9C1273.6 256.3 1274.7 259.8 1274.7 261.2C1274.7 262.8 1275.8 265.4 1277.1 267.2C1278.4 268.8 1279.5 271.6 1279.5 273.2C1279.5 274.7 1281.6 280.5 1284.1 286.3C1286.5 291.8 1290 300.8 1291.6 306.2C1293.2 311.6 1295 317.5 1295.8 319.3C1300.7 331 1304.3 374.6 1303 404.1C1302.3 418.3 1298.9 445.2 1295.8 460.4C1288.9 494.7 1285.8 506.1 1276.4 532.2C1273.6 539.9 1271.3 547.2 1271.3 548.4C1271.3 550.7 1263.5 573.2 1259.1 583.6C1258 586.4 1256.2 591.4 1255 595C1253.9 598.6 1252.4 603 1251.7 604.8C1250.9 606.6 1247.6 618 1244.4 630.1C1241.1 642.2 1237.9 653.3 1237.2 654.6C1236.5 655.9 1234.1 663.2 1231.7 670.9C1217.7 716.7 1212.6 739.1 1212.6 754.4C1212.6 758.8 1211.9 763.9 1211 765.5C1210.2 767.1 1208.7 774.1 1207.7 781.3C1204.4 807.1 1202.8 813.4 1198.7 816.9C1196.6 818.7 1188.4 825.4 1180.4 831.6C1172.6 838 1165.9 843.5 1165.6 844.3C1165.3 845 1164.3 845.4 1163.3 845.4C1162.5 845.4 1157.4 848.7 1152.4 852.6C1147.2 856.5 1135.3 864.7 1126 870.7C1116.7 876.7 1103.6 885.2 1097.1 889.6C1090.6 894 1084.9 897.6 1084.5 897.6C1084 897.6 1079.1 900.7 1073.6 904.6C1067.9 908.4 1059.2 913.6 1054.3 916.2C1049.4 918.8 1044.2 921.7 1042.9 922.9C1041.6 924 1032 929.3 1021.7 934.5C1011.4 939.9 1002.4 944.9 1001.8 945.8C1001 946.8 1000.5 946.6 1000.5 945.5L1000.9 945.4Z" fill="#76ABDB"/>
<path d="M536.9 934C533.6 915.2 533.6 913.9 538 913.9C541.6 913.9 542.1 914.7 543.1 923.2C543.8 928.3 544.6 934.1 545.1 936.3C545.9 939.4 545.4 940.1 542 940.1C538.6 940.1 537.8 939.1 536.9 934.1V934Z" fill="#76ABDB"/>
<path d="M431 913.6C430.3 911.5 430.8 909.4 432 908.7C433.5 907.7 433.5 907.4 432 907.4C430.9 907.4 429.9 905.6 429.9 903.3C429.9 901 430.7 899.2 431.7 899.2C432.7 899.2 433 897.7 432.4 895.8C431.6 893.5 432.1 891.7 433.4 890.9C435 889.9 435.2 889.4 433.7 889.4C432.6 889.4 431.6 888.3 431.6 887C431.6 885.7 432.4 884.6 433.4 884.6C434.7 884.6 435 882.3 434.4 877.3C433.7 872.9 433.9 870 434.9 870C435.9 870 436.5 868.9 436.5 867.6C436.5 866.3 437.6 865.2 439.1 865.2C441.2 865.2 441.5 867.2 440.4 880.4C438 913 437.5 916.6 434.7 917.1C433.1 917.4 431.6 916.1 431.1 913.8L431 913.6Z" fill="#76ABDB"/>
<path d="M533.6 909.7C533.1 908.2 532.6 904.6 532.6 901.5C532.6 896.6 533.1 896 536.7 896C540.1 896 540.8 896.8 540.8 900.6C540.8 903 541.3 906.6 541.8 908.8C542.6 911.7 542.1 912.4 538.7 912.4C536.4 912.4 534.1 911.3 533.6 909.8V909.7Z" fill="#76ABDB"/>
<path d="M435.9 850.3C435.4 848.5 435.7 847 436.6 847C438.9 847 438.4 839.2 436.1 838.2C434.8 837.5 434.6 836.9 435.6 836.4C436.6 835.9 437.1 832.6 436.7 829.1C436.2 825 436.7 822.6 437.8 822.6C438.8 822.6 439.6 821.5 439.6 820.2C439.6 818.9 440.7 817.8 442 817.8C444.8 817.8 445.1 821.9 443.5 841.1C442.5 851.5 441.9 853.7 439.6 853.7C438 853.7 436.3 852.2 435.8 850.4L435.9 850.3Z" fill="#76ABDB"/>
<path d="M532 841.1C531.5 836.9 531 828.9 531 823.2C531 814.1 531.3 812.8 534.1 812.8C536.7 812.8 537.4 814.6 538.3 827.2C538.8 835 539.8 843 540.3 845.1C541 848 540.5 848.7 537 848.7C533.6 848.7 532.9 847.9 531.9 841.2L532 841.1Z" fill="#76ABDB"/>
<path d="M528.9 789.6C527.4 772.6 527.4 746.2 528.7 741.5C529.5 738.9 531 737.7 533.8 737.7C537.7 737.7 537.9 738 536.6 743.1C535 750 534.8 772.5 536.4 789.6C537.5 803 537.5 803 533.6 803C530 803 529.8 802.3 528.9 789.6V789.6Z" fill="#76ABDB"/>
<path d="M439.7 797.4C439.7 796.1 438.7 794.6 437.7 794.3C436.1 793.6 436.1 793.3 437.7 793.3C438.7 793.1 439.7 791.3 439.7 789.2C439.7 787.1 438.7 784.8 437.7 784.5C436.1 783.8 436.2 783.2 438 781.9C440.1 780.3 440.1 779.9 438 778.5C436 777.4 436 776.9 437.8 776.9C438.9 776.9 439.6 775.9 438.9 774.5C438.2 772.9 439.1 772.1 441.2 772.1C444.1 772.1 444.5 773.2 444.5 786C444.5 797.3 444 799.9 442.1 799.9C440.8 799.9 439.7 798.9 439.7 797.6V797.4Z" fill="#76ABDB"/>
<path d="M438 766.4C438 765.1 437.2 763.8 436.2 763.5C433.8 762.7 436.2 754 439 754C440.6 754 441.3 756.1 441.3 761.3C441.3 765.4 440.6 768.6 439.7 768.6C438.9 768.6 438.1 767.6 438.1 766.3L438 766.4Z" fill="#76ABDB"/>
<path d="M436.4 746.7C436.4 745.4 435.7 744.3 435.1 744.3C434.4 744.3 434.1 741.7 434.4 738.6C434.9 735 434.4 732.9 433.3 732.9C432.2 732.9 431.7 732.2 432.3 731.4C432.8 730.6 432.5 729.4 431.5 728.8C430.7 728.3 430.4 725.2 430.8 722.1C431.3 719.2 431 716.6 430.1 716.6C429.3 716.6 429 714.5 429.4 711.7C429.7 709.1 429.4 706.8 428.6 706.8C427.6 706.8 427.3 704.8 427.8 702.6C428.1 700.3 427.8 697.9 426.8 697.2C424.5 695.7 426.1 688.9 428.9 688.9C430.2 688.9 431.3 692.5 432 698.7C432.7 704.1 434.1 711.9 435.4 716.2C438.5 727.3 440.3 749.3 438 749.3C437 749.3 436.2 748.2 436.2 746.9L436.4 746.7Z" fill="#76ABDB"/>
<path d="M531.7 724.3C534.5 703.3 534.5 703.4 538.7 703.4C542.5 703.4 542.6 703.7 541.6 710.4C539.6 724.3 537 731.1 533.8 731.1C531 731.1 530.9 730.1 531.7 724.2V724.3Z" fill="#76ABDB"/>
<path d="M536.199 691.7C536.699 681.9 536.9 681.4 541.3 680.9C546.4 680.2 546.399 680.2 543.899 692.5C542.399 699.8 541.3 701.8 538.8 701.8C536 701.8 535.699 700.7 536.199 691.7Z" fill="#76ABDB"/>
<path d="M425 683C425 681.7 424.3 680.6 423.7 680.6C423 680.6 422.7 678 423 674.9C423.3 671.8 423 669.2 422 669.2C421.2 669.2 420.9 667.4 421.3 665.1C421.6 662.8 421.3 661 420.5 661C419.7 661 419 659.5 419 657.7C419 655.7 420.1 654.4 421.8 654.4C423.9 654.4 424.9 657 426.4 666.6C428.7 681.8 428.7 685.4 426.6 685.4C425.8 685.4 425 684.3 425 683Z" fill="#76ABDB"/>
<path d="M539.2 656.1C539.2 645 539.4 644.7 543.3 644.7C547.1 644.7 547.2 645.2 546.7 652.5C546.4 656.7 546 661.8 545.9 663.9C545.7 666.3 544.8 667.5 542.5 667.5C539.6 667.5 539.2 666.4 539.2 656.1V656.1Z" fill="#76ABDB"/>
<path d="M418.4 645.5C418.4 644.2 417.7 643.1 417.1 643.1C416.3 643.1 416 641 416.4 638.2C416.9 635.3 416.4 633.3 415.3 633.3C414.2 633.3 413.8 631.8 414.5 629.2C415.2 626.8 414.8 625.1 413.7 625.1C412.7 625.1 412.4 623.3 413 620.2C413.5 617.3 413.2 615.3 412.2 615.3C411.4 615.3 410.9 613.8 411.4 612C411.9 610.2 411.6 608.7 410.6 608.7C409.6 608.7 409.3 607.2 409.8 605.4C411.8 598.2 414.9 602.5 417.3 615.7C421.4 636.3 422.5 647.8 420.2 647.8C419.2 647.8 418.4 646.7 418.4 645.4V645.5Z" fill="#76ABDB"/>
<path d="M538.499 633.9C536.699 620.4 536.999 618.6 541.599 618.6C545.399 618.6 545.699 619.3 545.699 626.4C545.699 630.6 546.199 635.7 546.699 637.8C547.499 640.7 547 641.4 543.8 641.4C540.2 641.4 539.599 640.6 538.599 633.9H538.499Z" fill="#76ABDB"/>
<path d="M536.9 605.4C536.4 602.6 535.9 598.1 535.9 595.3C535.9 588.1 533 573.3 527.4 552.6C524.8 542.8 522.2 532.9 521.7 530.6C521.2 528.3 520.2 526.2 519.7 525.7C516.9 523.4 501.6 492.9 501.6 489.8C501.6 488.2 500.5 486.5 499.2 485.9C497.9 485.4 496.8 483.9 496.8 482.5C496.8 481.2 496 480.1 495.2 480.1C494.2 480.1 492.6 478.1 491.4 475.7C490.4 473.1 487.5 469 485 466.4C482.4 463.8 480.4 460.4 480.4 458.9C480.4 457.3 479.3 455.6 478 455C476.7 454.5 475.6 452.2 475.6 449.9C475.6 447 474.8 445.8 472.3 445.8C470.2 445.8 469 444.7 469 442.5C469 440.7 467.9 439.2 466.6 439.2C465 439.2 464.2 437.4 464.2 433.5C464.2 426.6 465.7 426.3 469.9 432.5C471.7 434.9 475.4 439.8 478.4 443.4C488.4 455.6 505 480.9 510.7 492.2C513.8 498.6 518.7 508 521.6 513.4C524.5 518.8 528 525.8 528.9 528.9C534 543.9 540.8 573.8 542.4 587.6C543.2 596.1 544.5 604.7 545 606.9C545.8 609.8 545.3 610.5 541.9 610.5C538.8 610.5 537.7 609.5 536.8 605.4H536.9Z" fill="#76ABDB"/>
<path d="M408.7 598.2C408.7 596.9 408 595.8 407.1 595.8C406.3 595.8 405.5 594.3 405.5 592.5C405.5 590.7 404.8 589.2 403.9 589.2C403.1 589.2 402.8 588.1 403.2 586.8C403.9 585.5 403.4 584.4 402.2 584.4C401.2 584.4 400.9 583.7 401.4 582.8C401.9 582 401.7 581.2 400.9 581.2C399.9 581.2 399.4 579.4 399.6 577.1C399.6 574.5 400.7 573 402.5 573C404.3 573 405.8 575.4 407.2 581.2C408.3 585.8 409.8 589.4 410.6 589.4C411.3 589.4 411.9 592 411.9 595.1C411.9 598.2 411.2 600.8 410.3 600.8C409.5 600.8 408.7 599.7 408.7 598.4V598.2Z" fill="#76ABDB"/>
<path d="M395.599 566.2C395.599 565.1 394.099 562.9 392.199 561.3C390.399 559.8 388.9 557.9 388.9 557.1C389.1 554.3 387.099 550.1 385.599 550.1C384.599 550.1 384.5 549.4 384.9 548.5C385.4 547.7 385.099 546.9 384.199 546.9C383.199 546.9 382.4 545.4 382.4 543.8C382.4 542 381.6 540.4 380.4 540C379.4 539.7 378.3 537.6 378 535.4C377.7 533.3 376.899 531 376.199 530.5C375.499 530 374.899 528.5 374.599 527.2C374.299 525.9 373.3 524.4 372.5 524.3C371.7 524 371.4 523 372 522.2C372.5 521.4 371.8 520.2 370.4 519.8C369.1 519.3 368.3 518 368.8 516.7C369.3 515.6 368.6 513.6 367.5 512.5C366.4 511.2 365.2 508.7 364.9 507.1C364.6 505.5 363.3 503 362 501.7C358.6 498.3 359.2 496.3 363.8 496.3C367.1 496.3 367.9 497.1 367.9 500.4C367.9 502.7 368.7 504.5 369.5 504.5C370.5 504.5 371.099 506.3 371.099 508.6C371.099 510.9 371.899 512.7 372.699 512.7C373.699 512.7 374.3 513.8 374.3 515.1C374.3 516.4 375.1 517.5 375.9 517.5C376.9 517.5 377.5 519 377.5 520.8C377.5 522.6 378.299 524.1 379.099 524.1C380.099 524.1 380.699 525.9 380.699 528C380.699 530.1 381.799 532.2 383.099 532.9C384.399 533.4 385.5 535 385.5 536.3C385.5 537.8 386.6 540.1 387.9 541.4C389.2 542.9 390.3 546.1 390.3 548.7C390.3 551.3 391.099 553.4 392.099 553.4C395.399 553.4 398.5 558.1 398.5 563C398.5 565.8 397.8 568.1 396.9 568.1C396.1 568.1 395.3 567.3 395.3 566.3L395.599 566.2Z" fill="#76ABDB"/>
<path d="M352.9 488.1C351.4 486.5 350.6 484.8 350.9 484.3C351.2 484 349.4 481.5 347 478.9C340.6 472 339.3 468.5 343.6 468.5C347.8 468.5 351.6 472.3 351.6 476.5C351.6 478.5 352.6 479.9 354 479.9C355.6 479.9 356.4 481.7 356.4 485.6C356.4 492.1 356.6 492 352.8 488L352.9 488.1Z" fill="#76ABDB"/>
<path d="M333.4 459C328.7 453.5 328.3 450.5 332.7 450.5C336.3 450.5 336.8 451.2 336.8 456.2C336.8 462.7 336.6 462.9 333.4 459V459Z" fill="#76ABDB"/>
<path d="M325.4 444.8C325.4 443.5 324.6 442.4 323.6 442.4C322.8 442.4 322.3 441.7 322.9 440.9C323.4 439.9 322.6 438.6 321.3 437.8C318.9 436.5 318.9 436.2 321.1 434.4C323.2 432.6 324 432.8 326.2 434.7C329 437.5 329.6 447.3 327 447.3C326.2 447.3 325.4 446.2 325.4 444.9V444.8Z" fill="#76ABDB"/>
<path d="M317.3 432.1C317.3 431 316 428.5 314.4 426.7C312.8 425.1 311.3 422.9 311.1 422C310.9 421.2 309.8 419.2 308.5 417.6C307.2 416.1 306.5 414.5 307 414C307.7 413.5 307.2 413 306.2 413C305.1 413 304.2 412.2 304.2 411.2C304.2 410.1 303.1 408.4 301.6 407.4C299.3 405.6 299.5 405.3 303.2 403.5C306 402.2 307.4 402.2 307.4 403.3C307.4 404.3 308.5 406.1 309.8 407.4C311.1 408.9 312.2 411.6 312.2 413.9C312.2 416.3 313.2 417.8 314.6 417.8C316.2 417.8 317 419.4 317 422.7C317 426.8 317.7 427.6 321.1 427.6C325.8 427.6 326.3 428.9 322.4 431.8C318.6 434.6 317 434.6 317 432L317.3 432.1Z" fill="#76ABDB"/>
<path d="M448.5 420.4C447.8 419.1 446.5 418 445.2 418C443.9 418 442.9 416.9 442.9 415.6C442.9 414.3 442.2 413.2 441.3 413.2C440.5 413.2 439.7 412.1 439.7 410.8C439.7 409.5 438.4 408.4 436.8 408.4C432.9 408.4 428.3 402.7 428.3 397.8C428.3 395.5 428.8 393.7 429.4 393.7C429.9 393.7 433.3 396.6 436.7 400.2C440.3 403.8 443.4 406.7 443.9 406.7C444.2 406.7 448.3 410.5 453 414.9L461.5 423.1H455.5C451.6 423.1 449 422.3 448.5 420.7V420.4Z" fill="#76ABDB"/>
<path d="M405.1 379.2C400.7 374.3 390.3 365.7 388.8 365.7C386.2 365.7 387.5 359.5 390.4 358.8C392.5 358.1 397.4 361.7 406.4 369.9L419.3 381.8L413.6 382C410 382 406.7 380.9 405.1 379.2Z" fill="#76ABDB"/>
<path d="M456.6 1069.2L446.6 1068.7L445 1054.5C444 1046.7 441.7 1033.3 439.9 1024.8C431.3 984.5 429.8 934.9 435.3 872.2C441.7 800.4 440.8 775 429.9 710.7C426.5 691.1 425.5 685.6 420.9 662.6C419.6 655.9 417.1 643 415.7 634C412.6 614.6 409.2 599.9 406.2 593.2C404.9 590.6 402.9 585.4 401.8 581.8C400.7 578.2 398.7 574.1 397.6 572.7C396.5 571.4 395.5 568.8 395.5 567.2C395.5 565.6 394.4 563 393.1 561.5C391 559.2 364.5 507.5 364.5 505.7C364.5 505.2 360.1 498.4 354.7 490.4C334 459.9 330.6 454.3 325.5 444.9L320.3 435.3L324.1 432.4L327.9 429.3L323.3 431.3C320.9 432.4 318.6 432.9 318.2 432.6C317.9 432.3 314 425.9 309.4 418.4L301.1 404.9L305.5 402.9C307.9 401.9 310.2 400.6 310.7 400.1C311.2 399.6 314.1 397.8 317.2 396.2C320.3 394.4 326.2 391.3 330.3 389C338.6 384.4 367.3 369.9 381.2 363.4C393.6 357.5 392.6 356.9 425.9 390C436 400 445.2 408.3 446.1 408.3C446.9 408.3 447.7 409.3 447.7 410.4C447.7 411.4 450.3 414.2 453.4 416.3C459.1 420.2 465.8 427.2 470.5 434.2C472.8 437.6 476.9 442.8 482.7 449.5C484 451 485.1 453.4 485.1 454.7C485.1 456.2 486.2 457.6 487.5 458.1C488.8 458.8 489.6 459.6 489.1 460.2C488.8 460.9 489.9 462.5 491.7 463.6C493.3 464.9 494.8 466.9 494.8 468C494.8 469.1 495.6 470.1 496.6 470.1C497.4 470.1 497.7 470.9 497.3 471.7C496.8 472.7 497.5 473.8 498.8 474.3C500.3 474.8 501.4 476.4 501.4 477.6C501.4 478.9 502.5 480.4 503.8 480.9C505.1 481.6 506.2 483.3 506.2 485C506.2 486.6 506.9 488.1 507.8 488.1C508.6 488.1 508.9 489.2 508.5 490.5C507.8 491.8 508.3 492.9 509.5 492.9C510.5 492.9 510.8 493.7 510.3 494.5C509.8 495.5 510.3 496.6 511.8 497.1C513.1 497.6 513.8 499.1 513.3 500.4C512.8 501.5 513.6 503.2 515.1 503.7C516.6 504.2 517.2 505.3 516.7 506.1C516.2 506.9 516.7 507.6 517.7 507.6C518.7 507.6 519 508.4 518.5 509.2C518 510.2 518.3 510.8 519.3 510.8C520.3 510.8 520.6 511.6 520.1 512.4C519.6 513.4 520.3 514.5 521.7 515C523.2 515.7 524 517 523.5 518.1C523 519.4 523.8 520.7 525.1 521.2C526.7 521.9 527.2 523.3 526.6 525.4C525.9 527.4 526.3 528.7 527.4 528.7C528.4 528.7 528.7 529.5 528.2 530.3C527.7 531.3 527.9 531.9 528.7 531.9C529.7 531.9 530 533.4 529.5 535.2C529 537.2 529.5 538.5 530.6 538.5C531.7 538.5 532.1 539.8 531.4 541.8C530.7 543.6 531.1 545.1 532.1 545.1C533.1 545.1 533.4 546.2 532.9 547.5C532.2 548.8 532.6 549.9 533.6 549.9C534.6 549.9 534.9 551.4 534.4 553.2C533.9 555.2 534.4 556.5 535.5 556.5C536.6 556.5 537 557.8 536.3 559.8C535.8 561.6 536 563.1 536.8 563.1C537.8 563.1 538.1 564.6 537.6 566.4C537.1 568.5 537.6 569.7 538.9 569.7C540.5 569.7 540.7 570 539.2 571C537.1 572.3 538.2 581.1 540.5 581.1C541.3 581.1 541.5 585.2 541 590.1C540.2 596.6 540.5 599.1 541.8 599.1C543.1 599.1 543.4 600.4 542.8 602.4C542.1 604.2 542.5 605.7 543.5 605.7C544.6 605.7 545.3 609.5 545.3 614.7C545.3 619.6 544.6 623.7 543.8 623.7C541.8 623.7 543.6 635.8 545.6 636.4C547.6 637.2 547.2 649.8 545.3 649.8C543 649.8 543.3 654.2 545.8 655.3C547.1 656 547.1 656.6 546 657.1C544.9 657.8 544.5 662.6 545 671.3C545.7 682.4 545.3 684.7 543 686C540.7 687.3 540.6 688 542.3 690.1C543.8 692.1 543.9 692.9 542.6 693.4C541.5 693.7 541 696.7 541.6 701.2C541.9 705.3 541.6 708.5 540.8 708.5C540 708.5 539.7 711.1 540 714.2C540.5 717.8 540 719.9 538.9 719.9C537.8 719.9 537.4 720.6 537.9 721.5C538.4 722.5 538.2 723.1 537.4 723.1C536.7 723.1 536.4 727.5 536.7 732.9C537.2 739.3 536.9 742.7 535.7 742.7C534.7 742.7 534.2 743.8 534.7 745.1C535.4 746.4 534.9 747.5 533.9 747.5C532.9 747.5 532.1 749.8 532.1 752.4C532.1 755.2 532.9 757.3 534.2 757.3C535.5 757.3 535.5 757.8 534.5 758.6C532.1 760.2 532.1 774.1 534.3 775.7C535.6 776.5 535.4 777.3 533.6 778.5C531.6 779.8 531.6 780.1 533.4 780.1C535 780.1 535.4 781.4 534.7 785C534 787.8 534.4 789.9 535.2 789.9C537.5 789.9 537.2 794.3 534.9 795.3C533.3 796 533.3 796.6 535.1 797.7C536.9 799 537.2 802.3 536.4 813.2C535.6 823.6 535.7 827.4 537.4 827.9C538.7 828.6 538.9 829.2 537.6 830.2C535.5 831.7 536.6 843.7 538.7 843.7C539.5 843.7 540.2 856.6 540.2 872.3C540.2 890.2 539.5 900.9 538.6 900.9C536.2 900.9 536.6 903.5 539.4 906.4C542.2 909 542.8 918.8 540.2 918.8C537.8 918.8 538.2 921.4 541.2 924.5C542.8 926.1 543.5 928.4 542.8 931C542.1 933.6 542.5 935.1 543.6 935.1C545.1 935.1 545.2 939 544.6 949.8C543.9 959.1 544.1 964.5 545.1 964.5C547.2 964.5 547.2 975.4 545.1 976.2C543.1 976.9 541.7 1003.6 543.6 1003.6C544.4 1003.6 545.1 1016.8 545.1 1033C545.1 1051.4 544.4 1062.4 543.5 1062.4C542.7 1062.4 541.9 1063.5 541.9 1065C541.9 1067.1 540.1 1067.6 531.8 1067.1C526.1 1066.8 519.1 1067.1 516.1 1067.9C511.7 1068.9 510.2 1068.6 508.6 1066.3C506.6 1063.7 506.3 1063.7 504.8 1066.3C503.5 1068.6 500.2 1069.1 484.6 1069.4C474.5 1069.6 461.6 1069.6 456 1069.2H456.6Z" fill="#83B7E4"/>
</svg>
